<?xml version="1.0" encoding="utf-8"?>
<!-- Generator: Adobe Illustrator 19.0.0, SVG Export Plug-In . SVG Version: 6.00 Build 0)  -->
<svg version="1.1" id="Layer_1" xmlns="http://www.w3.org/2000/svg" xmlns:xlink="http://www.w3.org/1999/xlink" x="0px" y="0px"
	 viewBox="-225 317 160 160" style="enable-background:new -225 317 160 160;" xml:space="preserve">
<style type="text/css">
	.st0{fill:#FFFFFF;}
	.st1{fill:#231F20;}
</style>
<circle cx="-145" cy="397" r="80"/>
<g>
	<g id="XMLID_536_">
		<path id="XMLID_496_" class="st0" d="M-117.7,380.1c-2.9-4.8-6.9-8.5-12.1-11.2c-5.2-2.6-11.3-3.9-18.3-3.9h-28.5v63.9h27.7
			c7.1,0,13.3-1.3,18.7-4c5.4-2.6,9.5-6.4,12.4-11.2c2.9-4.8,4.4-10.4,4.4-16.9C-113.4,390.6-114.8,385-117.7,380.1z M-138.4,408.3
			c-2.3,2.8-5.3,4.2-9.2,4.2h-7.9v-31.1h6.9c4.1,0,7.4,1.4,9.9,4.3c2.5,2.9,3.7,6.7,3.7,11.4C-135,401.8-136.1,405.5-138.4,408.3z"
			/>
		<g id="XMLID_605_">
			<defs>
				<path id="XMLID_607_" d="M-129.8,369c5.2,2.6,9.3,6.3,12.1,11.2c2.9,4.8,4.3,10.4,4.3,16.8c0,6.4-1.5,12.1-4.4,16.9
					c-2.9,4.8-7.1,8.5-12.4,11.2c-5.4,2.6-11.6,4-18.7,4h-27.7v-63.9h28.5C-141.1,365.1-135,366.4-129.8,369z"/>
			</defs>
			<clipPath id="XMLID_2_">
				<use xlink:href="#XMLID_607_"  style="overflow:visible;"/>
			</clipPath>
		</g>
		<rect id="XMLID_604_" x="-114.5" y="365.1" class="st0" width="2.2" height="63.9"/>
		<g id="XMLID_600_">
			<path id="XMLID_601_" class="st0" d="M-148.9,430h-28.8V364h29.6c7.1,0,13.4,1.4,18.8,4l0,0c5.4,2.7,9.6,6.6,12.6,11.6
				c2.9,5,4.4,10.8,4.4,17.4c0,6.6-1.5,12.5-4.5,17.4c-3,5-7.3,8.9-12.9,11.6C-135.2,428.7-141.7,430-148.9,430z M-175.5,427.8h26.6
				c6.9,0,13-1.3,18.2-3.9c5.2-2.5,9.2-6.2,12-10.7c2.8-4.6,4.2-10.1,4.2-16.3c0-6.1-1.4-11.6-4.1-16.3c-2.7-4.6-6.7-8.2-11.7-10.7
				l0,0c-5.1-2.5-11-3.8-17.8-3.8h-27.4V427.8z"/>
		</g>
		<path id="XMLID_596_" class="st0" d="M-174.9,363.3v3.5h-3.5v-3.5H-174.9 M-173.6,362h-1.3h-3.5h-1.3v1.3v3.5v1.3h1.3h3.5h1.3
			v-1.3v-3.5V362L-173.6,362z"/>
		<path id="XMLID_591_" class="st0" d="M-143.5,363.3v3.5h-3.5v-3.5H-143.5 M-142.2,362h-1.3h-3.5h-1.3v1.3v3.5v1.3h1.3h3.5h1.3
			v-1.3v-3.5V362L-142.2,362z"/>
		<g id="XMLID_585_">
			<path id="XMLID_586_" class="st0" d="M-113.4,362c-1.7,0-3.1,1.4-3.1,3.1s1.4,3.1,3.1,3.1s3.1-1.4,3.1-3.1S-111.7,362-113.4,362
				L-113.4,362z"/>
		</g>
		<g id="XMLID_580_">
			<path id="XMLID_581_" class="st0" d="M-113.4,425.9c-1.7,0-3.1,1.4-3.1,3.1c0,1.7,1.4,3.1,3.1,3.1s3.1-1.4,3.1-3.1
				S-111.7,425.9-113.4,425.9L-113.4,425.9z"/>
		</g>
		<path id="XMLID_576_" class="st0" d="M-143.5,427.2v3.5h-3.5v-3.5H-143.5 M-142.2,425.9h-1.3h-3.5h-1.3v1.3v3.5v1.3h1.3h3.5h1.3
			v-1.3v-3.5V425.9L-142.2,425.9z"/>
		<path id="XMLID_571_" class="st0" d="M-174.9,427.2v3.5h-3.5v-3.5H-174.9 M-173.6,425.9h-1.3h-3.5h-1.3v1.3v3.5v1.3h1.3h3.5h1.3
			v-1.3v-3.5V425.9L-173.6,425.9z"/>
		<path id="XMLID_566_" class="st0" d="M-111.6,395.4v3.5h-3.5v-3.5H-111.6 M-110.3,394.1h-1.3h-3.5h-1.3v1.3v3.5v1.3h1.3h3.5h1.3
			v-1.3v-3.5V394.1L-110.3,394.1z"/>
		<path id="XMLID_558_" class="st0" d="M-153.7,410.8v3.5h-3.5v-3.5H-153.7 M-152.4,409.5h-1.3h-3.5h-1.3v1.3v3.5v1.3h1.3h3.5h1.3
			v-1.3v-3.5V409.5L-152.4,409.5z"/>
		<path id="XMLID_553_" class="st0" d="M-153.7,379.7v3.5h-3.5v-3.5H-153.7 M-152.4,378.4h-1.3h-3.5h-1.3v1.3v3.5v1.3h1.3h3.5h1.3
			v-1.3v-3.5V378.4L-152.4,378.4z"/>
		<path id="XMLID_548_" class="st0" d="M-145.6,379.7v3.5h-3.5v-3.5H-145.6 M-144.2,378.4h-1.3h-3.5h-1.3v1.3v3.5v1.3h1.3h3.5h1.3
			v-1.3v-3.5V378.4L-144.2,378.4z"/>
		<path id="XMLID_543_" class="st0" d="M-133.3,395.4v3.5h-3.5v-3.5H-133.3 M-132,394.1h-1.3h-3.5h-1.3v1.3v3.5v1.3h1.3h3.5h1.3
			v-1.3v-3.5V394.1L-132,394.1z"/>
		<path id="XMLID_538_" class="st0" d="M-145.6,410.8v3.5h-3.5v-3.5H-145.6 M-144.2,409.5h-1.3h-3.5h-1.3v1.3v3.5v1.3h1.3h3.5h1.3
			v-1.3v-3.5V409.5L-144.2,409.5z"/>
	</g>
	<path id="XMLID_588_" class="st1" d="M-113.4,363.3c1,0,1.8,0.8,1.8,1.8s-0.8,1.8-1.8,1.8s-1.8-0.8-1.8-1.8
		S-114.3,363.3-113.4,363.3"/>
	<path id="XMLID_583_" class="st1" d="M-113.4,427.2c1,0,1.8,0.8,1.8,1.8l0,0c0,1-0.8,1.8-1.8,1.8s-1.8-0.8-1.8-1.8l0,0
		C-115.1,428-114.3,427.2-113.4,427.2"/>
	<rect id="XMLID_599_" x="-178.4" y="363.3" class="st1" width="3.5" height="3.5"/>
	<rect id="XMLID_594_" x="-147" y="363.3" class="st1" width="3.5" height="3.5"/>
	<path id="XMLID_589_" class="st1" d="M-113.4,363.3L-113.4,363.3c-1,0-1.8,0.8-1.8,1.8l0,0c0,1,0.8,1.8,1.8,1.8h0
		c1,0,1.8-0.8,1.8-1.8l0,0C-111.6,364.1-112.4,363.3-113.4,363.3z"/>
	<path id="XMLID_584_" class="st1" d="M-113.4,427.2L-113.4,427.2c-1,0-1.8,0.8-1.8,1.8l0,0c0,1,0.8,1.8,1.8,1.8h0
		c1,0,1.8-0.8,1.8-1.8l0,0C-111.6,428-112.4,427.2-113.4,427.2z"/>
	<rect id="XMLID_579_" x="-147" y="427.2" class="st1" width="3.5" height="3.5"/>
	<rect id="XMLID_574_" x="-178.4" y="427.2" class="st1" width="3.5" height="3.5"/>
	<rect id="XMLID_569_" x="-115.1" y="395.4" class="st1" width="3.5" height="3.5"/>
	<rect id="XMLID_561_" x="-157.2" y="410.8" class="st1" width="3.5" height="3.5"/>
	<rect id="XMLID_556_" x="-157.2" y="379.7" class="st1" width="3.5" height="3.5"/>
	<rect id="XMLID_551_" x="-149.1" y="379.7" class="st1" width="3.5" height="3.5"/>
	<rect id="XMLID_546_" x="-136.8" y="395.4" class="st1" width="3.5" height="3.5"/>
	<rect id="XMLID_541_" x="-149.1" y="410.8" class="st1" width="3.5" height="3.5"/>
</g>
</svg>
