<?xml version="1.0" encoding="utf-8"?>
<!-- Generator: Adobe Illustrator 19.0.0, SVG Export Plug-In . SVG Version: 6.00 Build 0)  -->
<svg version="1.1" id="Layer_1" xmlns="http://www.w3.org/2000/svg" xmlns:xlink="http://www.w3.org/1999/xlink" x="0px" y="0px"
	 viewBox="-225 317 160 160" style="enable-background:new -225 317 160 160;" xml:space="preserve">
<style type="text/css">
	.st0{fill:#FFFFFF;}
	.st1{fill:#231F20;}
	.st2{fill:#FFFFFF;stroke:#FFFFFF;stroke-width:5;stroke-miterlimit:10;}
</style>
<circle cx="-145" cy="397" r="80"/>
<g id="XMLID_154_">
	<g id="XMLID_624_">
		<path id="XMLID_617_" class="st0" d="M-112.9,374.3v55.1c0,4.4-3.5,7.9-7.9,7.9h-48.3c-4.4,0-7.9-3.5-7.9-7.9v-65.5
			c0-4.4,3.5-7.9,7.9-7.9h38L-112.9,374.3z"/>
		<path id="XMLID_621_" class="st0" d="M-120.8,438.9h-48.3c-5.2,0-9.5-4.2-9.5-9.5v-65.5c0-5.2,4.2-9.5,9.5-9.5h38.6l19.1,19.2
			v55.8C-111.4,434.6-115.6,438.9-120.8,438.9z M-169.2,357.5c-3.5,0-6.4,2.9-6.4,6.4v65.5c0,3.5,2.9,6.4,6.4,6.4h48.3
			c3.5,0,6.4-2.9,6.4-6.4v-54.5l-17.4-17.4H-169.2z"/>
	</g>
	<g id="XMLID_620_">
		<path id="XMLID_531_" class="st1" d="M-112.9,374.3h-10.3c-4.4,0-7.9-3.5-7.9-7.9V356L-112.9,374.3z"/>
		<path id="XMLID_616_" class="st0" d="M-112.9,375.8h-10.3c-5.2,0-9.5-4.2-9.5-9.5V356c0-0.6,0.4-1.2,0.9-1.4
			c0.6-0.2,1.2-0.1,1.7,0.3l18.3,18.3c0.4,0.4,0.6,1.1,0.3,1.7C-111.7,375.4-112.3,375.8-112.9,375.8z M-129.6,359.7v6.6
			c0,3.5,2.9,6.4,6.4,6.4h6.6L-129.6,359.7z"/>
	</g>
	<path id="XMLID_654_" class="st2" d="M-112.6,381.4"/>
	<path id="XMLID_534_" class="st1" d="M-146.4,381.9h-19.8c-0.8,0-1.5-0.7-1.5-1.5c0-0.8,0.7-1.5,1.5-1.5h19.8
		c0.8,0,1.5,0.7,1.5,1.5C-144.9,381.2-145.6,381.9-146.4,381.9z"/>
	<path id="XMLID_533_" class="st1" d="M-134.1,390.9h-32.1c-0.8,0-1.5-0.7-1.5-1.5c0-0.8,0.7-1.5,1.5-1.5h32.1
		c0.8,0,1.5,0.7,1.5,1.5C-132.6,390.2-133.3,390.9-134.1,390.9z"/>
	<path id="XMLID_532_" class="st1" d="M-134.1,399.9h-32.1c-0.8,0-1.5-0.7-1.5-1.5c0-0.8,0.7-1.5,1.5-1.5h32.1
		c0.8,0,1.5,0.7,1.5,1.5C-132.6,399.2-133.3,399.9-134.1,399.9z"/>
	<g id="XMLID_663_">
		<g id="XMLID_521_">
			<polygon id="XMLID_517_" class="st0" points="-155.5,445.6 -148.6,451.6 -148.6,420.2 -155.5,420.2 -162.3,420.2 -162.3,451.6 
							"/>
			<path id="XMLID_518_" class="st1" d="M-148.6,453.2c-0.4,0-0.7-0.1-1-0.4l-5.8-5.1l-5.8,5.1c-0.5,0.4-1.1,0.5-1.6,0.2
				c-0.5-0.2-0.9-0.8-0.9-1.4v-31.5c0-0.8,0.7-1.5,1.5-1.5h13.7c0.8,0,1.5,0.7,1.5,1.5v31.5c0,0.6-0.4,1.2-0.9,1.4
				C-148.2,453.1-148.4,453.2-148.6,453.2z M-160.8,421.7v26.6l4.3-3.8c0.6-0.5,1.4-0.5,2,0l4.3,3.8v-26.6H-160.8z"/>
		</g>
	</g>
	<g id="XMLID_516_">
		<circle id="XMLID_155_" class="st0" cx="-155.5" cy="420.2" r="10.7"/>
		<path id="XMLID_387_" class="st1" d="M-155.5,432.4c-6.8,0-12.3-5.5-12.3-12.3c0-6.8,5.5-12.3,12.3-12.3c6.8,0,12.3,5.5,12.3,12.3
			C-143.2,426.9-148.7,432.4-155.5,432.4z M-155.5,410.9c-5.1,0-9.2,4.1-9.2,9.2c0,5.1,4.1,9.2,9.2,9.2c5.1,0,9.2-4.1,9.2-9.2
			C-146.3,415.1-150.4,410.9-155.5,410.9z"/>
	</g>
	<circle id="XMLID_153_" class="st1" cx="-155.5" cy="420.2" r="5.8"/>
</g>
</svg>
