<?xml version="1.0" encoding="utf-8"?>
<!-- Generator: Adobe Illustrator 19.0.0, SVG Export Plug-In . SVG Version: 6.00 Build 0)  -->
<svg version="1.1" id="Layer_1" xmlns="http://www.w3.org/2000/svg" xmlns:xlink="http://www.w3.org/1999/xlink" x="0px" y="0px"
	 viewBox="-225 317 160 160" style="enable-background:new -225 317 160 160;" xml:space="preserve">
<style type="text/css">
	.st0{fill:#FFFFFF;}
</style>
<circle cx="-145" cy="397" r="80"/>
<g id="XMLID_487_">
	<path id="XMLID_491_" class="st0" d="M-145,369.7c-8.7,0-15.7,7.1-15.7,15.7c0,8.7,7.1,15.7,15.7,15.7s15.7-7.1,15.7-15.7
		C-129.3,376.7-136.3,369.7-145,369.7z M-145,394.9c-5.3,0-9.5-4.3-9.5-9.5c0-5.3,4.3-9.5,9.5-9.5c5.3,0,9.5,4.3,9.5,9.5
		C-135.5,390.7-139.7,394.9-145,394.9z"/>
	<path id="XMLID_501_" class="st0" d="M-111.1,438.5l-14.5-35l3.3-0.8c1.2-0.3,2-1.5,1.8-2.7l-0.7-4.6l3.7-2.7
		c1-0.7,1.3-2.1,0.6-3.2l-2.4-4l2.4-4c0.6-1.1,0.4-2.4-0.6-3.2l-3.7-2.8l0.7-4.6v0c0.2-1.2-0.6-2.4-1.8-2.7l-4.5-1.1l-1.1-4.5
		c-0.3-1.2-1.5-2-2.7-1.8l-4.6,0.7l-2.7-3.7c-0.7-1-2.1-1.3-3.2-0.6l-4,2.4l-4-2.4c-1.1-0.6-2.4-0.4-3.2,0.6l-2.8,3.7l-4.6-0.7
		c-1.2-0.2-2.4,0.6-2.7,1.8l-1.1,4.5l-4.5,1.1c-1.2,0.3-2,1.5-1.8,2.7l0.7,4.6l-3.7,2.7c-1,0.7-1.3,2.1-0.6,3.2l2.4,4l-2.4,4
		c-0.6,1.1-0.4,2.4,0.6,3.2l3.7,2.8l-0.7,4.6c-0.2,1.2,0.6,2.4,1.8,2.7l3.4,0.9l-14.5,35.1c-0.2,0.5-0.1,1.2,0.4,1.5
		c0.4,0.4,1.1,0.4,1.6,0.1l11.4-7.2l2.9,13.2c0.1,0.6,0.6,1,1.2,1c0,0,0.1,0,0.1,0c0.5,0,1-0.3,1.2-0.8l14.3-34.5l-3.2,1.9l4-2.4
		l4,2.4l-3-1.8l14.3,34.4c0.2,0.5,0.7,0.8,1.2,0.8c0,0,0.1,0,0.1,0c0.6-0.1,1.1-0.5,1.2-1l2.9-13.2l11.4,7.2
		c0.5,0.3,1.1,0.3,1.6-0.1C-111,439.6-110.9,439-111.1,438.5z M-161,441.3l-2.4-10.9c-0.1-0.4-0.4-0.8-0.8-0.9
		c-0.2-0.1-0.3-0.1-0.5-0.1c-0.2,0-0.5,0.1-0.7,0.2l-9.4,6l12.2-29.4l0.5,1.9c0.3,1.2,1.5,2,2.7,1.8l4.6-0.7l2.7,3.7
		c0.6,0.8,1.7,1.2,2.6,0.9L-161,441.3z M-145,403.8c-10.1,0-18.4-8.2-18.4-18.4c0-10.1,8.2-18.4,18.4-18.4
		c10.1,0,18.4,8.2,18.4,18.4C-126.6,395.5-134.9,403.8-145,403.8z M-124.6,429.6c-0.4-0.2-0.8-0.3-1.2-0.1c-0.4,0.2-0.7,0.5-0.8,0.9
		l-2.4,10.9l-11.3-27.4c0.2,0,0.3,0.1,0.5,0.1c0.7,0,1.5-0.3,1.9-1l2.8-3.7l4.6,0.7c1.2,0.2,2.4-0.6,2.7-1.8l1.1-4.5l-0.6,2.3
		l12.2,29.5L-124.6,429.6z"/>
</g>
</svg>
