<?xml version="1.0" encoding="utf-8"?>
<!-- Generator: Adobe Illustrator 19.0.0, SVG Export Plug-In . SVG Version: 6.00 Build 0)  -->
<svg version="1.1" id="Layer_1" xmlns="http://www.w3.org/2000/svg" xmlns:xlink="http://www.w3.org/1999/xlink" x="0px" y="0px"
	 viewBox="-405 283.3 30 30" style="enable-background:new -405 283.3 30 30;" xml:space="preserve">
<style type="text/css">
	.st0{fill:#FFFFFF;}
</style>
<path class="st0" d="M-389.9,295.1C-389.9,295.1-390.1,295.1-389.9,295.1c-0.9,0-1.6,0.3-2.2,0.9c-0.7,0.6-1,1.5-1,2.4
	c0,1.8,1.5,3.2,3.2,3.2c1.8,0,3.2-1.5,3.2-3.3c0-0.9-0.2-1.7-0.8-2.3C-388,295.6-388.9,295.3-389.9,295.1z"/>
<path class="st0" d="M-386.3,290.6h-7.4c-2.2,0-3.9,1.7-3.9,3.9v7.9c0,2.2,1.7,3.9,3.9,3.9h7.4c2.2,0,3.9-1.7,3.9-3.9v-7.9
	C-382.3,292.4-384.1,290.6-386.3,290.6z M-386.5,301.9c-0.9,0.9-2.2,1.5-3.4,1.5c-2.7,0-4.9-2.2-4.9-4.9c0-1.4,0.6-2.6,1.5-3.5
	c0.9-0.9,2.2-1.4,3.4-1.4c1.5,0,2.7,0.6,3.7,1.5c0.7,0.8,1.2,2,1.2,3.4C-385,299.7-385.6,301-386.5,301.9z M-384.9,294.6
	c-0.7,0-1.2-0.5-1.2-1.2c0-0.7,0.5-1.1,1.1-1.1c0.7,0,1.1,0.5,1.1,1.1S-384.4,294.6-384.9,294.6z"/>
</svg>
