<?xml version="1.0" encoding="utf-8"?>
<!-- Generator: Adobe Illustrator 19.0.0, SVG Export Plug-In . SVG Version: 6.00 Build 0)  -->
<svg version="1.1" id="Layer_1" xmlns="http://www.w3.org/2000/svg" xmlns:xlink="http://www.w3.org/1999/xlink" x="0px" y="0px"
	 viewBox="-11 -3 30 30" style="enable-background:new -11 -3 30 30;" xml:space="preserve">
<path d="M4.1,8.7C4.1,8.7,3.9,8.7,4.1,8.7c-0.9,0-1.6,0.3-2.2,0.9c-0.7,0.6-1,1.5-1,2.4c0,1.8,1.5,3.2,3.2,3.2
	c1.8,0,3.2-1.5,3.2-3.3c0-0.9-0.2-1.7-0.8-2.3C6,9.2,5.1,8.9,4.1,8.7z"/>
<path d="M7.7,4.2H0.3c-2.2,0-3.9,1.7-3.9,3.9v7.9c0,2.2,1.7,3.9,3.9,3.9h7.4c2.2,0,3.9-1.7,3.9-3.9V8.1C11.7,6,9.9,4.2,7.7,4.2z
	 M7.5,15.5C6.6,16.4,5.3,17,4.1,17c-2.7,0-4.9-2.2-4.9-4.9c0-1.4,0.6-2.6,1.5-3.5s2.2-1.4,3.4-1.4c1.5,0,2.7,0.6,3.7,1.5
	C8.5,9.5,9,10.7,9,12.1C9,13.3,8.4,14.6,7.5,15.5z M9.1,8.2C8.4,8.2,7.9,7.7,7.9,7s0.5-1.1,1.1-1.1c0.7,0,1.1,0.5,1.1,1.1
	S9.6,8.2,9.1,8.2z"/>
</svg>
