<?xml version="1.0" encoding="utf-8"?>
<!-- Generator: Adobe Illustrator 19.0.0, SVG Export Plug-In . SVG Version: 6.00 Build 0)  -->
<svg version="1.1" id="Layer_1" xmlns="http://www.w3.org/2000/svg" xmlns:xlink="http://www.w3.org/1999/xlink" x="0px" y="0px"
	 viewBox="-11 -3 30 30" style="enable-background:new -11 -3 30 30;" xml:space="preserve">
<rect x="-3.3" y="9.5" width="3.2" height="9.7"/>
<path d="M-1.7,8.2L-1.7,8.2c-1.1,0-1.8-0.7-1.8-1.7c0-0.9,0.7-1.7,1.8-1.7s1.8,0.7,1.8,1.7C0.1,7.4-0.6,8.2-1.7,8.2z"/>
<path d="M11.5,19.2H8.3V14c0-1.3-0.5-2.2-1.6-2.2c-0.9,0-1.4,0.6-1.6,1.2C5,13.2,5,13.5,5,13.8v5.4H1.8c0,0,0-8.8,0-9.7H5v1.4
	c0.4-0.7,1.2-1.6,2.9-1.6c2.1,0,3.7,1.4,3.7,4.4L11.5,19.2L11.5,19.2z"/>
</svg>
