<?xml version="1.0" encoding="utf-8"?>
<!-- Generator: Adobe Illustrator 19.0.0, SVG Export Plug-In . SVG Version: 6.00 Build 0)  -->
<svg version="1.1" id="Layer_1" xmlns="http://www.w3.org/2000/svg" xmlns:xlink="http://www.w3.org/1999/xlink" x="0px" y="0px"
	 viewBox="-405 283.3 30 30" style="enable-background:new -405 283.3 30 30;" xml:space="preserve">
<style type="text/css">
	.st0{fill:#FFFFFF;}
</style>
<g>
	<rect x="-397.4" y="294.5" class="st0" width="3.2" height="9.7"/>
	<path class="st0" d="M-395.8,293.2L-395.8,293.2c-1.1,0-1.8-0.7-1.8-1.7c0-0.9,0.7-1.7,1.8-1.7s1.8,0.7,1.8,1.7
		C-394,292.4-394.6,293.2-395.8,293.2z"/>
	<path class="st0" d="M-382.5,304.2h-3.2V299c0-1.3-0.5-2.2-1.6-2.2c-0.9,0-1.4,0.6-1.6,1.2c-0.1,0.2-0.1,0.5-0.1,0.8v5.4h-3.2
		c0,0,0-8.8,0-9.7h3.2v1.4c0.4-0.7,1.2-1.6,2.9-1.6c2.1,0,3.7,1.4,3.7,4.4L-382.5,304.2L-382.5,304.2z"/>
</g>
</svg>
