<?xml version="1.0" encoding="utf-8"?>
<!-- Generator: Adobe Illustrator 19.0.0, SVG Export Plug-In . SVG Version: 6.00 Build 0)  -->
<svg version="1.1" id="Layer_1" xmlns="http://www.w3.org/2000/svg" xmlns:xlink="http://www.w3.org/1999/xlink" x="0px" y="0px"
	 viewBox="0 0 100 100" style="enable-background:new 0 0 100 100;" xml:space="preserve">
<style type="text/css">
	.st0{fill:#FFFFFF;}
	.st1{fill:#231F20;}
	.st2{fill:#D0D2D3;}
</style>
<g id="XMLID_197_">
	<g id="XMLID_575_">
		<polygon id="XMLID_202_" class="st0" points="68.1,98.4 43.3,38.7 61.4,31.2 86.1,90.9 71.8,81.8 		"/>
		<path id="XMLID_564_" class="st1" d="M68.1,100c-0.6,0-1.2-0.4-1.5-1L41.9,39.3c-0.3-0.8,0-1.8,0.9-2.1l18.1-7.5
			c0.4-0.2,0.8-0.2,1.2,0c0.4,0.2,0.7,0.5,0.9,0.9l24.7,59.7c0.3,0.7,0.1,1.4-0.5,1.9c-0.5,0.5-1.3,0.5-1.9,0.1l-12.4-7.9l-3.2,14.4
			c-0.2,0.7-0.7,1.2-1.4,1.3C68.2,100,68.1,100,68.1,100z M45.5,39.6l22.2,53.5l2.6-11.6c0.1-0.5,0.5-0.9,1-1.1
			c0.5-0.2,1-0.2,1.5,0.1l10.1,6.4L60.5,33.3L45.5,39.6z"/>
	</g>
	<g id="XMLID_563_">
		<polygon id="XMLID_201_" class="st0" points="31.9,98.4 56.7,38.7 38.6,31.2 13.9,90.9 28.2,81.8 		"/>
		<path id="XMLID_552_" class="st1" d="M31.9,100c0,0-0.1,0-0.1,0c-0.7-0.1-1.3-0.6-1.4-1.3l-3.2-14.4l-12.4,7.9
			c-0.6,0.4-1.4,0.3-1.9-0.1c-0.5-0.5-0.7-1.2-0.5-1.9l24.7-59.7c0.2-0.4,0.5-0.7,0.9-0.9c0.4-0.2,0.8-0.2,1.2,0l18.1,7.5
			c0.8,0.3,1.2,1.3,0.9,2.1L33.4,99C33.2,99.6,32.6,100,31.9,100z M28.2,80.2c0.2,0,0.4,0,0.6,0.1c0.5,0.2,0.8,0.6,1,1.1l2.6,11.6
			l22.2-53.5l-15.1-6.3L17.3,86.8l10.1-6.4C27.6,80.3,27.9,80.2,28.2,80.2z"/>
	</g>
	<g id="XMLID_547_">
		<path id="XMLID_200_" class="st2" d="M75.7,15.6l-0.8,5.2c-0.1,0.4,0.1,0.9,0.5,1.1l4.2,3.2c0.5,0.4,0.6,1,0.3,1.6l-2.7,4.5
			c-0.2,0.4-0.2,0.8,0,1.2l2.7,4.5c0.3,0.5,0.2,1.2-0.3,1.6l-4.3,3.1c-0.4,0.3-0.5,0.7-0.5,1.1l0.8,5.2c0.1,0.6-0.3,1.2-0.9,1.3
			l-5.1,1.3c-0.4,0.1-0.8,0.4-0.9,0.9l-1.3,5.1c-0.1,0.6-0.7,1-1.3,0.9l-5.2-0.8c-0.4-0.1-0.9,0.1-1.1,0.5l-3.2,4.2
			c-0.4,0.5-1,0.6-1.6,0.3l-4.5-2.7c-0.4-0.2-0.8-0.2-1.2,0l-4.5,2.7c-0.5,0.3-1.2,0.2-1.6-0.3l-3.1-4.3c-0.3-0.4-0.7-0.5-1.1-0.5
			l-5.2,0.8c-0.6,0.1-1.2-0.3-1.3-0.9l-1.3-5.1c-0.1-0.4-0.4-0.8-0.9-0.9l-5.1-1.3c-0.6-0.1-1-0.7-0.9-1.3l0.8-5.2
			c0.1-0.4-0.1-0.9-0.5-1.1l-4.2-3.2c-0.5-0.4-0.6-1-0.3-1.6l2.7-4.5c0.2-0.4,0.2-0.8,0-1.2l-2.7-4.5c-0.3-0.5-0.2-1.2,0.3-1.6
			l4.3-3.1c0.4-0.3,0.5-0.7,0.5-1.1l-0.8-5.2c-0.1-0.6,0.3-1.2,0.9-1.3l5.1-1.3c0.4-0.1,0.8-0.4,0.9-0.9l1.3-5.1
			c0.1-0.6,0.7-1,1.3-0.9l5.2,0.8c0.4,0.1,0.9-0.1,1.1-0.5l3.2-4.2c0.4-0.5,1-0.6,1.6-0.3l4.5,2.7c0.4,0.2,0.8,0.2,1.2,0l4.5-2.7
			c0.5-0.3,1.2-0.2,1.6,0.3l3.1,4.3c0.3,0.4,0.7,0.5,1.1,0.5l5.2-0.8C66.9,6,67.4,6.4,67.6,7l1.3,5.1c0.1,0.4,0.4,0.8,0.9,0.9
			l5.1,1.3C75.4,14.4,75.8,15,75.7,15.6z"/>
		<path id="XMLID_513_" class="st1" d="M55.7,63.5c-0.5,0-1-0.1-1.4-0.4l-4.3-2.6L45.6,63c-1.2,0.7-2.8,0.4-3.7-0.7l-3-4.1L34,59
			c-1.4,0.2-2.8-0.7-3.1-2.1L29.6,52l-4.9-1.2c-1.4-0.4-2.3-1.7-2.1-3.1l0.8-5l-4-3c-1.2-0.9-1.5-2.4-0.7-3.7l2.6-4.3l-2.6-4.3
			c-0.7-1.2-0.4-2.8,0.7-3.7l4.1-3l-0.7-5c-0.2-1.4,0.7-2.8,2.1-3.1l4.9-1.2L31,6.5c0.4-1.4,1.7-2.3,3.1-2.1l5,0.8l3-4
			c0.9-1.2,2.4-1.5,3.7-0.7L50.1,3l4.3-2.6c1.2-0.7,2.8-0.4,3.7,0.7l3,4.1l5-0.7c1.4-0.2,2.8,0.7,3.1,2.1l1.2,4.9l4.9,1.2
			c1.4,0.4,2.3,1.7,2.1,3.1l-0.8,5l4,3c1.2,0.9,1.5,2.4,0.7,3.7l-2.6,4.3l2.6,4.3c0.7,1.2,0.4,2.8-0.7,3.7l-4.1,3l0.7,5
			c0.2,1.4-0.7,2.8-2.1,3.1l-4.9,1.2L69,57c-0.4,1.4-1.7,2.3-3.1,2.1l-5-0.8l-3,4C57.4,63.1,56.5,63.5,55.7,63.5z M49.9,57.1
			c0.5,0,1,0.1,1.4,0.4l4.2,2.5l2.9-3.9c0.6-0.8,1.6-1.3,2.7-1.1l4.8,0.7l1.2-4.8c0.3-1,1-1.8,2-2l4.8-1.2L73.3,43
			c-0.2-1,0.3-2,1.1-2.7l3.9-2.9l-2.5-4.2c-0.5-0.9-0.5-2,0-2.9l2.5-4.2l-3.9-2.9c-0.8-0.6-1.2-1.6-1.1-2.7l0.7-4.8l-4.8-1.2
			c-1-0.3-1.8-1-2-2l-1.2-4.8l-4.8,0.7c-1,0.2-2-0.3-2.7-1.1l-2.9-3.9l-4.2,2.5c-0.9,0.5-2,0.5-2.9,0l-4.2-2.5l-2.9,3.9
			c-0.6,0.8-1.6,1.3-2.7,1.1L34,7.7l-1.2,4.8c-0.3,1-1,1.8-2,2L26,15.6l0.7,4.8c0.2,1-0.3,2-1.1,2.7L21.7,26l2.5,4.2
			c0.5,0.9,0.5,2,0,2.9l-2.5,4.2l3.9,2.9c0.8,0.6,1.3,1.6,1.1,2.7l-0.7,4.8l4.7,1.2c1,0.3,1.8,1,2,2l1.2,4.8l4.8-0.7
			c1-0.1,2,0.3,2.7,1.1l2.9,3.9l4.2-2.5C48.9,57.3,49.4,57.1,49.9,57.1z"/>
	</g>
	<g id="XMLID_512_">
		<circle id="XMLID_199_" class="st0" cx="50" cy="31.7" r="18.9"/>
		<path id="XMLID_509_" class="st1" d="M50,52.2c-11.3,0-20.5-9.2-20.5-20.5S38.7,11.3,50,11.3s20.5,9.2,20.5,20.5
			S61.3,52.2,50,52.2z M50,14.5c-9.5,0-17.2,7.7-17.2,17.2S40.5,49,50,49s17.2-7.7,17.2-17.2S59.5,14.5,50,14.5z"/>
	</g>
	<g id="XMLID_508_">
		<circle id="XMLID_192_" class="st2" cx="50" cy="31.7" r="9.1"/>
		<path id="XMLID_497_" class="st1" d="M50,42.4c-5.9,0-10.7-4.8-10.7-10.7S44.1,21,50,21s10.7,4.8,10.7,10.7S55.9,42.4,50,42.4z
			 M50,24.3c-4.1,0-7.5,3.3-7.5,7.5s3.3,7.5,7.5,7.5s7.5-3.3,7.5-7.5S54.1,24.3,50,24.3z"/>
	</g>
</g>
</svg>
