<?xml version="1.0" encoding="utf-8"?>
<!-- Generator: Adobe Illustrator 19.0.0, SVG Export Plug-In . SVG Version: 6.00 Build 0)  -->
<svg version="1.1" id="Layer_1" xmlns="http://www.w3.org/2000/svg" xmlns:xlink="http://www.w3.org/1999/xlink" x="0px" y="0px"
	 viewBox="0 0 100 100" style="enable-background:new 0 0 100 100;" xml:space="preserve">
<style type="text/css">
	.st0{fill:#D0D2D3;}
	.st1{fill:#FFFFFF;}
	.st2{clip-path:url(#XMLID_2_);}
	.st3{fill:#231F20;}
</style>
<g id="XMLID_204_">
	<g id="XMLID_314_">
		<path id="XMLID_315_" class="st0" d="M71.3,10c7.5,3.7,13.2,9,17.3,15.9c4.1,6.9,6.1,14.9,6.1,24c0,9.2-2.1,17.2-6.2,24.1
			c-4.2,6.9-10.1,12.2-17.8,15.9S54.1,95.6,44,95.6H4.4V4.4h40.7C55.1,4.4,63.8,6.3,71.3,10z"/>
	</g>
	<path id="XMLID_312_" class="st1" d="M59,66.2c3.3-4,4.9-9.3,4.9-16c0-6.8-1.8-12.2-5.3-16.3c-3.5-4.1-8.2-6.1-14.1-6.1h-9.9v44.3
		h11.3C51.4,72.2,55.7,70.2,59,66.2z"/>
	<g id="XMLID_292_">
		<defs>
			<path id="XMLID_294_" d="M71.3,10c7.5,3.7,13.2,9,17.3,15.9c4.1,6.9,6.1,14.9,6.1,24c0,9.2-2.1,17.2-6.2,24.1
				c-4.2,6.9-10.1,12.2-17.8,15.9S54.1,95.6,44,95.6H4.4V4.4h40.7C55.1,4.4,63.8,6.3,71.3,10z"/>
		</defs>
		<clipPath id="XMLID_2_">
			<use xlink:href="#XMLID_294_"  style="overflow:visible;"/>
		</clipPath>
		<g id="XMLID_296_" class="st2">
			
				<rect id="XMLID_309_" x="-42.4" y="95.8" transform="matrix(0.7071 -0.7071 0.7071 0.7071 -46.6115 83.3891)" class="st1" width="239.4" height="4.4"/>
			
				<rect id="XMLID_308_" x="-49.9" y="88.2" transform="matrix(0.7071 -0.7071 0.7071 0.7071 -43.4866 75.8449)" class="st1" width="239.4" height="4.4"/>
			
				<rect id="XMLID_307_" x="-57.5" y="80.7" transform="matrix(0.7071 -0.7071 0.7071 0.7071 -40.3617 68.3006)" class="st1" width="239.4" height="4.4"/>
			
				<rect id="XMLID_306_" x="-65" y="73.1" transform="matrix(0.7071 -0.7071 0.7071 0.7071 -37.2368 60.7564)" class="st1" width="239.4" height="4.4"/>
			
				<rect id="XMLID_305_" x="-72.5" y="65.6" transform="matrix(0.7071 -0.7071 0.7071 0.7071 -34.1118 53.2121)" class="st1" width="239.4" height="4.4"/>
			
				<rect id="XMLID_304_" x="-80.1" y="58.1" transform="matrix(0.7071 -0.7071 0.7071 0.7071 -30.9869 45.6679)" class="st1" width="239.4" height="4.4"/>
			
				<rect id="XMLID_303_" x="-87.6" y="50.5" transform="matrix(0.7071 -0.7071 0.7071 0.7071 -27.862 38.1236)" class="st1" width="239.4" height="4.4"/>
			
				<rect id="XMLID_302_" x="-95.2" y="43" transform="matrix(0.7071 -0.7071 0.7071 0.7071 -24.737 30.5794)" class="st1" width="239.4" height="4.4"/>
			
				<rect id="XMLID_301_" x="-102.7" y="35.4" transform="matrix(0.7071 -0.7071 0.7071 0.7071 -21.6121 23.0351)" class="st1" width="239.4" height="4.4"/>
			
				<rect id="XMLID_300_" x="-110.3" y="27.9" transform="matrix(0.7071 -0.7071 0.7071 0.7071 -18.4872 15.4909)" class="st1" width="239.4" height="4.4"/>
			
				<rect id="XMLID_299_" x="-117.8" y="20.3" transform="matrix(0.7071 -0.7071 0.7071 0.7071 -15.3622 7.9466)" class="st1" width="239.4" height="4.4"/>
			
				<rect id="XMLID_298_" x="-125.3" y="12.8" transform="matrix(0.7071 -0.7071 0.7071 0.7071 -12.2373 0.4024)" class="st1" width="239.4" height="4.4"/>
			
				<rect id="XMLID_297_" x="-132.9" y="5.2" transform="matrix(0.7071 -0.7071 0.7071 0.7071 -9.1124 -7.1419)" class="st1" width="239.4" height="4.4"/>
		</g>
	</g>
	<rect id="XMLID_267_" x="93.1" y="4.4" class="st3" width="3.2" height="91.2"/>
	<g id="XMLID_287_">
		<path id="XMLID_268_" class="st3" d="M44,97.2H2.8V2.8h42.3c10.2,0,19.2,1.9,26.9,5.8l0,0c7.7,3.9,13.7,9.4,18,16.5
			c4.2,7.1,6.3,15.5,6.3,24.8c0,9.4-2.2,17.8-6.5,24.9c-4.3,7.1-10.5,12.6-18.4,16.5C63.5,95.2,54.3,97.2,44,97.2z M6,94H44
			c9.9,0,18.6-1.8,26-5.5c7.4-3.6,13.1-8.8,17.1-15.3c4-6.6,6-14.4,6-23.2c0-8.8-2-16.6-5.9-23.2c-3.9-6.6-9.5-11.7-16.6-15.3l0,0
			C63.3,7.8,54.8,6,45.1,6H6V94z"/>
	</g>
	<g id="XMLID_263_">
		<rect id="XMLID_266_" x="1.9" y="1.9" class="st3" width="5" height="5"/>
		<path id="XMLID_262_" class="st1" d="M6.9,1.9v5h-5v-5H6.9 M8.8,0H6.9h-5H0v1.9v5v1.9h1.9h5h1.9V6.9v-5V0L8.8,0z"/>
	</g>
	<g id="XMLID_258_">
		<rect id="XMLID_261_" x="46.7" y="1.9" class="st3" width="5" height="5"/>
		<path id="XMLID_257_" class="st1" d="M51.7,1.9v5h-5v-5H51.7 M53.6,0h-1.9h-5h-1.9v1.9v5v1.9h1.9h5h1.9V6.9v-5V0L53.6,0z"/>
	</g>
	<g id="XMLID_253_">
		<path id="XMLID_256_" class="st3" d="M94.7,1.9L94.7,1.9c-1.4,0-2.5,1.1-2.5,2.5v0c0,1.4,1.1,2.5,2.5,2.5h0c1.4,0,2.5-1.1,2.5-2.5
			v0C97.2,3,96,1.9,94.7,1.9z"/>
		<path id="XMLID_252_" class="st1" d="M94.7,1.9c1.4,0,2.5,1.1,2.5,2.5S96,6.9,94.7,6.9c-1.4,0-2.5-1.1-2.5-2.5S93.3,1.9,94.7,1.9
			 M94.7,0c-2.4,0-4.4,2-4.4,4.4s2,4.4,4.4,4.4c2.4,0,4.4-2,4.4-4.4S97.1,0,94.7,0L94.7,0z"/>
	</g>
	<g id="XMLID_248_">
		<path id="XMLID_251_" class="st3" d="M94.7,93.1L94.7,93.1c-1.4,0-2.5,1.1-2.5,2.5l0,0c0,1.4,1.1,2.5,2.5,2.5h0
			c1.4,0,2.5-1.1,2.5-2.5l0,0C97.2,94.2,96,93.1,94.7,93.1z"/>
		<path id="XMLID_246_" class="st1" d="M94.7,93.1c1.4,0,2.5,1.1,2.5,2.5c0,1.4-1.1,2.5-2.5,2.5c-1.4,0-2.5-1.1-2.5-2.5
			C92.2,94.2,93.3,93.1,94.7,93.1 M94.7,91.2c-2.4,0-4.4,2-4.4,4.4s2,4.4,4.4,4.4c2.4,0,4.4-2,4.4-4.4S97.1,91.2,94.7,91.2
			L94.7,91.2z"/>
	</g>
	<g id="XMLID_239_">
		<rect id="XMLID_245_" x="46.7" y="93.1" class="st3" width="5" height="5"/>
		<path id="XMLID_238_" class="st1" d="M51.7,93.1v5h-5v-5H51.7 M53.6,91.2h-1.9h-5h-1.9v1.9v5v1.9h1.9h5h1.9v-1.9v-5V91.2
			L53.6,91.2z"/>
	</g>
	<g id="XMLID_234_">
		<rect id="XMLID_237_" x="1.9" y="93.1" class="st3" width="5" height="5"/>
		<path id="XMLID_233_" class="st1" d="M6.9,93.1v5h-5v-5H6.9 M8.8,91.2H6.9h-5H0v1.9v5v1.9h1.9h5h1.9v-1.9v-5V91.2L8.8,91.2z"/>
	</g>
	<g id="XMLID_229_">
		<rect id="XMLID_232_" x="92.2" y="47.7" class="st3" width="5" height="5"/>
		<path id="XMLID_228_" class="st1" d="M97.2,47.7v5h-5v-5H97.2 M99.1,45.8h-1.9h-5h-1.9v1.9v5v1.9h1.9h5h1.9v-1.9v-5V45.8
			L99.1,45.8z"/>
	</g>
	<path id="XMLID_225_" class="st3" d="M45.9,73.8H33V26.2h11.5c6.4,0,11.5,2.2,15.3,6.7c3.8,4.4,5.7,10.2,5.7,17.3
		c0,7-1.8,12.7-5.2,17C56.7,71.6,51.8,73.8,45.9,73.8z M36.2,70.6h9.7c5,0,8.9-1.8,11.8-5.4l0,0c3-3.7,4.5-8.7,4.5-15
		c0-6.3-1.6-11.5-4.9-15.2c-3.2-3.7-7.4-5.6-12.9-5.6h-8.3V70.6z"/>
	<g id="XMLID_221_">
		<rect id="XMLID_224_" x="32.1" y="69.7" class="st3" width="5" height="5"/>
		<path id="XMLID_220_" class="st1" d="M37.1,69.7v5h-5v-5H37.1 M39,67.7h-1.9h-5h-1.9v1.9v5v1.9h1.9h5H39v-1.9v-5V67.7L39,67.7z"/>
	</g>
	<g id="XMLID_216_">
		<rect id="XMLID_219_" x="32.1" y="25.3" class="st3" width="5" height="5"/>
		<path id="XMLID_215_" class="st1" d="M37.1,25.3v5h-5v-5H37.1 M39,23.4h-1.9h-5h-1.9v1.9v5v1.9h1.9h5H39v-1.9v-5V23.4L39,23.4z"/>
	</g>
	<g id="XMLID_211_">
		<rect id="XMLID_214_" x="43.8" y="25.3" class="st3" width="5" height="5"/>
		<path id="XMLID_210_" class="st1" d="M48.7,25.3v5h-5v-5H48.7 M50.7,23.4h-1.9h-5h-1.9v1.9v5v1.9h1.9h5h1.9v-1.9v-5V23.4
			L50.7,23.4z"/>
	</g>
	<g id="XMLID_206_">
		<rect id="XMLID_209_" x="61.3" y="47.7" class="st3" width="5" height="5"/>
		<path id="XMLID_205_" class="st1" d="M66.3,47.7v5h-5v-5H66.3 M68.2,45.8h-1.9h-5h-1.9v1.9v5v1.9h1.9h5h1.9v-1.9v-5V45.8
			L68.2,45.8z"/>
	</g>
	<g id="XMLID_595_">
		<rect id="XMLID_611_" x="43.8" y="69.7" class="st3" width="5" height="5"/>
		<path id="XMLID_590_" class="st1" d="M48.7,69.7v5h-5v-5H48.7 M50.7,67.7h-1.9h-5h-1.9v1.9v5v1.9h1.9h5h1.9v-1.9v-5V67.7
			L50.7,67.7z"/>
	</g>
</g>
</svg>
