<?xml version="1.0" encoding="utf-8"?>
<!-- Generator: Adobe Illustrator 19.0.0, SVG Export Plug-In . SVG Version: 6.00 Build 0)  -->
<svg version="1.1" id="Layer_1" xmlns="http://www.w3.org/2000/svg" xmlns:xlink="http://www.w3.org/1999/xlink" x="0px" y="0px"
	 viewBox="0 0 100 100" style="enable-background:new 0 0 100 100;" xml:space="preserve">
<style type="text/css">
	.st0{fill:#FFFFFF;}
	.st1{fill:#231F20;}
	.st2{fill:#D0D2D3;}
	.st3{fill:#777777;}
	.st4{fill:none;}
</style>
<g id="XMLID_108_">
	<g id="XMLID_358_">
		<polygon id="XMLID_110_" class="st0" points="67.3,22.3 67.3,40.1 45.4,40.1 37.5,31.3 34.7,31.3 34.1,31.3 31.3,31.3 23.5,40.1 
			1.5,40.1 1.5,22.3 1.5,15 34.1,15 34.7,15 67.3,15 		"/>
		<path id="XMLID_349_" class="st1" d="M69,41.7H44.7l-7.9-8.8h-4.7l-7.9,8.8H-0.1V13.4H69V41.7z M46.1,38.5h19.6V16.6H3.1v21.9
			h19.6l7.9-8.8h7.6L46.1,38.5z"/>
	</g>
	<g id="XMLID_348_">
		<polygon id="XMLID_109_" class="st2" points="48.8,32.8 59.9,32.8 59.9,22.3 43.1,22.3 43.1,27.2 		"/>
		<path id="XMLID_345_" class="st1" d="M61.5,34.4H48.2l-6.7-6.5v-7.2h20.1L61.5,34.4L61.5,34.4z M49.5,31.2h8.8V24H44.7v2.6
			L49.5,31.2z"/>
	</g>
	<g id="XMLID_343_">
		<polygon id="XMLID_107_" class="st3" points="24.9,27.2 24.9,22.3 8,22.3 8,32.8 19.1,32.8 		"/>
		<path id="XMLID_340_" class="st1" d="M19.8,34.4H6.4V20.7h20.1v7.2L19.8,34.4z M9.6,31.2h8.8l4.8-4.6V24H9.6V31.2z"/>
	</g>
</g>
<g id="XMLID_26_">
	<polygon id="XMLID_73_" class="st2" points="76.2,85 70.3,85 67.2,56.2 76.2,56.2 	"/>
	<polygon id="XMLID_72_" class="st2" points="81.2,85 87.3,85 94.2,56.2 85.1,56.2 	"/>
	<g id="XMLID_31_">
		<path id="XMLID_332_" class="st1" d="M87.3,86.1H64.4c-0.8,0-1.4-0.5-1.6-1.3l-5.9-29c-0.1-0.5,0-1,0.3-1.3
			c0.3-0.4,0.8-0.6,1.2-0.6h34.7c0.5,0,0.9,0.2,1.2,0.6c0.3,0.4,0.4,0.9,0.3,1.3l-5.9,29C88.7,85.6,88,86.1,87.3,86.1z M65.7,82.9
			H86l5.3-25.8H60.5L65.7,82.9z"/>
		<g id="XMLID_36_">
			<g id="XMLID_331_">
				<path id="XMLID_38_" class="st0" d="M56.3,47.1c0.4-0.2,0.7-0.5,0.9-1s0.2-0.9-0.1-1.3c-0.6-1.2-0.9-2.4-0.9-3.7
					c0-4.4,3.6-7.9,7.9-7.9c0.7,0,1.6,0.1,2.3,0.3c0.4,0.2,0.9,0.1,1.3-0.2s0.7-0.6,0.7-1.1c0.4-1.9,2.2-3.2,4.1-3.2
					c1.8,0,3.4,1.2,4,2.9c0.2,0.7,1,1.2,1.7,1.1c0.2,0,0.5-0.1,0.8-0.1c3.1,0,5.9,2,6.9,4.9c0.2,0.7,1,1.2,1.7,1.1
					c0.1,0,0.2,0,0.3,0c2.8,0,5.2,2.2,5.3,5c0.1,0.7,0.5,1.2,1.2,1.5c2.2,0.7,3.7,2.7,3.7,5.1s-1.5,4.4-3.7,5.1h-9.3h-9.5H66h-9.7
					c-0.1,0-0.1,0-0.2,0c-1.7-0.7-3-2.3-3-4.2C53.5,49.5,54.6,47.8,56.3,47.1z"/>
				<path id="XMLID_328_" class="st1" d="M94.6,57.1H56.4c-0.2,0-0.4,0-0.6-0.1c-2.4-0.9-4-3.2-4-5.7c0,0,0,0,0-0.1
					c0.1-2.5,1.6-4.7,3.9-5.6v-0.1l0,0c-0.7-1.4-1.1-2.9-1.1-4.5c0-5.2,4.3-9.5,9.5-9.5c1,0,2,0.1,2.8,0.4l0,0l0,0
					c0.6-2.6,2.9-4.5,5.6-4.5c2.5,0,4.7,1.6,5.5,4c0.1,0,0.2,0,0.2,0h0.1c0.2,0,0.4-0.1,0.7-0.1c3.8,0,7.2,2.5,8.4,6
					c0.1,0,0.2,0,0.2,0h0.3c3.6,0,6.7,2.8,6.9,6.4c0,0.1,0.1,0.1,0.1,0.2c2.8,0.9,4.7,3.5,4.7,6.6c0,3-2,5.7-4.8,6.6
					C95,57.1,94.8,57.1,94.6,57.1z M56.7,53.9h37.6c1.4-0.5,2.3-1.9,2.3-3.5c0-1.7-1-3-2.6-3.5c-1.3-0.5-2.1-1.5-2.3-2.8V44
					c-0.1-2-1.7-3.5-3.7-3.5h-0.3c-1.5,0.1-2.9-0.8-3.4-2.2c-0.8-2.2-3-3.8-5.4-3.8c-0.1,0-0.2,0-0.2,0c-0.1,0-0.3,0-0.5,0.1
					c-1.5,0.1-2.9-0.8-3.4-2.2c-0.4-1.1-1.3-1.8-2.5-1.8s-2.2,0.8-2.5,1.9c-0.2,0.9-0.7,1.7-1.5,2.2s-1.9,0.6-2.7,0.3
					c-0.5-0.2-1.1-0.2-1.8-0.2c-3.5,0-6.3,2.8-6.3,6.3c0,1,0.2,2,0.7,3c0.4,0.8,0.5,1.7,0.2,2.6c-0.3,0.9-1,1.6-1.8,2l0,0
					c-1.1,0.4-1.8,1.5-1.9,2.7C55,52.4,55.7,53.4,56.7,53.9z"/>
			</g>
			<g id="XMLID_327_">
				<path id="XMLID_37_" class="st0" d="M67.2,39c0,0-3.5-0.2-3.9,3.9"/>
				<path id="XMLID_326_" class="st1" d="M63.3,44.5L63.3,44.5c-1-0.1-1.6-0.9-1.6-1.7c0.3-4.2,3.5-5.5,5.6-5.3
					c0.9,0.1,1.6,0.8,1.5,1.7s-0.8,1.6-1.7,1.5c-0.6,0-2,0.2-2.2,2.4C64.8,43.9,64.1,44.5,63.3,44.5z"/>
			</g>
			<g id="XMLID_324_">
				<path id="XMLID_30_" class="st0" d="M76.2,42c0,0-7.3-1.2-7.1,7.1"/>
				<path id="XMLID_323_" class="st1" d="M69.1,50.7c-0.9,0-1.6-0.7-1.6-1.6c-0.1-3.1,0.8-5.5,2.6-7c2.6-2.3,6.3-1.7,6.4-1.7
					c0.9,0.1,1.5,1,1.3,1.9c-0.1,0.9-1,1.5-1.9,1.3c-0.1,0-2.3-0.3-3.8,0.9c-1,0.9-1.5,2.4-1.4,4.5C70.8,49.9,70.1,50.6,69.1,50.7
					C69.2,50.7,69.1,50.7,69.1,50.7z"/>
			</g>
		</g>
	</g>
	<g id="XMLID_27_">
		<g id="XMLID_322_">
			<line id="XMLID_29_" class="st4" x1="75.8" y1="84.5" x2="75.8" y2="55.5"/>
			<path id="XMLID_321_" class="st1" d="M75.8,86.1c-0.9,0-1.6-0.7-1.6-1.6v-29c0-0.9,0.7-1.6,1.6-1.6s1.6,0.7,1.6,1.6v29
				C77.5,85.4,76.7,86.1,75.8,86.1z"/>
		</g>
		<g id="XMLID_320_">
			<line id="XMLID_28_" class="st4" x1="81.4" y1="84.5" x2="85.1" y2="55.5"/>
			<path id="XMLID_319_" class="st1" d="M81.4,86.1c-0.1,0-0.1,0-0.2,0c-0.9-0.1-1.5-0.9-1.4-1.8l3.7-29c0.1-0.9,0.9-1.5,1.8-1.4
				s1.5,0.9,1.4,1.8l-3.7,29C82.9,85.5,82.2,86.1,81.4,86.1z"/>
		</g>
		<g id="XMLID_318_">
			<line id="XMLID_24_" class="st4" x1="70.3" y1="84.5" x2="66.6" y2="55.5"/>
			<path id="XMLID_317_" class="st1" d="M70.3,86.1c-0.8,0-1.5-0.6-1.6-1.4l-3.7-29c-0.1-0.9,0.5-1.7,1.4-1.8s1.7,0.5,1.8,1.4
				l3.7,29c0.1,0.9-0.5,1.7-1.4,1.8C70.4,86.1,70.4,86.1,70.3,86.1z"/>
		</g>
	</g>
</g>
<path d="M34.4,65.9c-5.6,0-10.2-5.8-10.2-12.8s4.6-12.8,10.2-12.8C40,40.2,44.6,46,44.6,53S40,65.9,34.4,65.9z M34.4,43.2
	c-4,0-7.2,4.4-7.2,9.8s3.2,9.8,7.2,9.8c4,0,7.2-4.4,7.2-9.8S38.4,43.2,34.4,43.2z"/>
</svg>
