<?xml version="1.0" encoding="utf-8"?>
<!-- Generator: Adobe Illustrator 19.0.0, SVG Export Plug-In . SVG Version: 6.00 Build 0)  -->
<svg version="1.1" id="Layer_1" xmlns="http://www.w3.org/2000/svg" xmlns:xlink="http://www.w3.org/1999/xlink" x="0px" y="0px"
	 viewBox="0 0 100 100" style="enable-background:new 0 0 100 100;" xml:space="preserve">
<style type="text/css">
	.st0{fill:#D0D2D3;}
	.st1{fill:#231F20;}
	.st2{fill:#FFFFFF;}
</style>
<g id="XMLID_126_">
	<path id="XMLID_151_" class="st0" d="M98.4,27.5H2.2v-7.2c0-3.7,3-6.6,6.6-6.6h82.9c3.7,0,6.6,3,6.6,6.6V27.5z"/>
	<path id="XMLID_144_" class="st1" d="M91.7,86.1H8.3c-4.6,0-8.3-3.7-8.3-8.3V20.4c0-4.6,3.7-8.3,8.3-8.3h83.4
		c4.6,0,8.3,3.7,8.3,8.3v57.4C100,82.3,96.3,86.1,91.7,86.1z M8.3,15.3c-2.8,0-5.1,2.3-5.1,5.1v57.4c0,2.8,2.3,5.1,5.1,5.1h83.4
		c2.8,0,5.1-2.3,5.1-5.1V20.4c0-2.8-2.3-5.1-5.1-5.1H8.3z"/>
	<g id="XMLID_141_">
		<path id="XMLID_143_" class="st1" d="M29.7,68.5c-0.4,0-0.8-0.2-1.1-0.5L17.2,56.6c-0.6-0.6-0.6-1.7,0-2.3L28.6,43
			c0.6-0.6,1.7-0.6,2.3,0c0.6,0.6,0.6,1.7,0,2.3L20.6,55.5l10.2,10.2c0.6,0.6,0.6,1.7,0,2.3C30.5,68.3,30.1,68.5,29.7,68.5z"/>
		<path id="XMLID_405_" class="st1" d="M69.2,68.5c-0.4,0-0.8-0.2-1.1-0.5c-0.6-0.6-0.6-1.7,0-2.3l10.2-10.2L68,45.2
			c-0.6-0.6-0.6-1.7,0-2.3c0.6-0.6,1.7-0.6,2.3,0l11.4,11.4c0.3,0.3,0.5,0.7,0.5,1.1c0,0.4-0.2,0.8-0.5,1.1L70.3,68
			C70,68.3,69.6,68.5,69.2,68.5z"/>
		<g id="XMLID_404_">
			<line id="XMLID_125_" class="st2" x1="37.9" y1="67" x2="60.9" y2="44"/>
			<path id="XMLID_127_" class="st1" d="M37.9,68.6c-0.4,0-0.8-0.2-1.1-0.5c-0.6-0.6-0.6-1.7,0-2.3l23-23c0.6-0.6,1.7-0.6,2.3,0
				c0.6,0.6,0.6,1.7,0,2.3l-23,23C38.8,68.4,38.3,68.6,37.9,68.6z"/>
		</g>
	</g>
	<circle id="XMLID_140_" class="st1" cx="8.9" cy="20.7" r="1.8"/>
	<circle id="XMLID_139_" class="st1" cx="14.1" cy="20.7" r="1.8"/>
	<circle id="XMLID_138_" class="st1" cx="19.4" cy="20.7" r="1.8"/>
	<rect id="XMLID_403_" x="2.2" y="25.9" class="st1" width="96.2" height="3.2"/>
</g>
</svg>
