<?xml version="1.0" encoding="utf-8"?>
<!-- Generator: Adobe Illustrator 19.0.0, SVG Export Plug-In . SVG Version: 6.00 Build 0)  -->
<svg version="1.1" id="Layer_1" xmlns="http://www.w3.org/2000/svg" xmlns:xlink="http://www.w3.org/1999/xlink" x="0px" y="0px"
	 viewBox="0 0 100 100" style="enable-background:new 0 0 100 100;" xml:space="preserve">
<style type="text/css">
	.st0{fill:#D0D2D3;}
	.st1{fill:#FFFFFF;}
	.st2{fill:#231F20;}
</style>
<g id="XMLID_152_">
	<path id="XMLID_196_" class="st0" d="M50,1.3C23.2,1.3,1.3,23.2,1.3,50c0,26.8,21.8,48.7,48.7,48.7S98.7,76.8,98.7,50
		C98.7,23.2,76.8,1.3,50,1.3z"/>
	<g id="XMLID_493_">
		<path id="XMLID_191_" class="st1" d="M1.6,50c0-15.4,7.3-29,18.5-38c1.1,0.4,2.9,2.2,3.1,2.9c0,0.2-0.4,0.4-0.7,0.9
			c-0.4,0.7-1.3,1.5-1.5,2.6c-0.7,2.9,1.8,5.5,4.4,6.2c0.9,0.2,2,0.4,2.9,0.4c0.9,0,1.5,0.2,2.2,0.2c2.4,0.7,3.5,3.5,3.7,5.7
			c0,0.9,0,2-0.7,2.9c-0.7,1.1-1.8,1.8-3.1,2.4c-1.1,0.7-2,1.1-2.6,1.5c-2.9,1.3-4.4,2.4-5.7,6.6C17.2,58.8,26.5,66.7,32.8,72
			c1.5,1.3,3.1,2.6,4,3.7s2,2.2,2.2,3.5c0.7,3.1-2.6,5.9-4.6,7.3c-0.7,0.7-1.5,1.1-2.2,1.5c-1.8,1.1-3.5,2.2-4.8,4.4
			C12,84.5,1.6,68.5,1.6,50z"/>
		<path id="XMLID_421_" class="st2" d="M28,94.6l-1.4-0.7C10.2,85.4,0,68.6,0,50c0-15.2,7-29.6,19.1-39.3l0.7-0.6l0.9,0.4
			c1.4,0.6,3.6,2.7,4,3.9l0.1,0.3v0.3c0,0.8-0.5,1.3-0.7,1.5c0,0-0.1,0.1-0.1,0.1l-0.1,0.1c-0.1,0.2-0.3,0.4-0.5,0.6
			c-0.4,0.5-0.8,1-0.8,1.4c-0.4,1.9,1.3,3.8,3.2,4.3c1,0.3,1.9,0.4,2.5,0.4c0.6,0,1.1,0.1,1.5,0.1c0.3,0,0.5,0.1,0.7,0.1h0.2
			l0.2,0.1c3.2,0.9,4.7,4.4,4.9,7.1l0,0.2c0,1,0,2.5-0.9,3.8c-0.9,1.5-2.4,2.3-3.6,2.9c-0.5,0.3-0.9,0.5-1.3,0.8
			c-0.5,0.3-0.9,0.5-1.2,0.7l-0.2,0.1c-2.6,1.2-3.7,2-4.9,5.6c-4.6,13.7,4.4,21.1,10.3,26c1.7,1.4,3.2,2.8,4.2,4
			c0.1,0.2,0.3,0.4,0.4,0.5c0.9,1,1.8,2.2,2.1,3.7c0.9,4.2-3.2,7.5-5.2,8.8c-0.6,0.6-1.3,1-1.8,1.3c-0.2,0.1-0.4,0.2-0.5,0.3
			c-1.8,1.1-3.2,2-4.3,3.9L28,94.6z M20.2,13.9C9.4,23,3.2,36.1,3.2,50c0,16.9,9,32.3,23.6,40.3c1.4-1.7,3-2.7,4.5-3.7
			c0.2-0.1,0.4-0.2,0.6-0.4c0.5-0.3,1-0.6,1.3-0.9l0.2-0.2c2.1-1.4,4.3-3.7,3.9-5.6l0-0.1c-0.1-0.7-0.8-1.4-1.4-2.2
			c-0.2-0.2-0.3-0.4-0.5-0.6c-0.8-1-2.3-2.3-3.7-3.5c-6.2-5.1-16.5-13.7-11.3-29.5c1.4-4.4,3.2-6,6.5-7.5c0.4-0.3,0.8-0.5,1.3-0.8
			c0.4-0.2,0.8-0.5,1.3-0.7l0.1-0.1c1.2-0.6,2-1.1,2.4-1.8l0.1-0.1c0.3-0.4,0.3-1.1,0.3-1.8c-0.2-1.8-1-3.7-2.4-4.2
			c-0.3,0-0.6-0.1-0.9-0.1c-0.3-0.1-0.7-0.1-1-0.1c-0.9,0-2-0.2-3.3-0.5c-3.4-0.9-6.5-4.3-5.6-8.1c0.2-1.2,0.9-2.1,1.4-2.7
			c0.1-0.1,0.2-0.3,0.3-0.4c0,0,0,0,0-0.1C20.9,14.5,20.6,14.2,20.2,13.9z"/>
	</g>
	<g id="XMLID_420_">
		<path id="XMLID_189_" class="st1" d="M54.4,53.5c-0.2,0.9-0.7,2-1.1,2.9c-0.2,0.4-0.4,1.1-0.7,1.8c-0.9,2.2-1.3,4.6-1.3,6.8v0.4
			c0,0.4,0,0.9,0,1.3c-2.2-1.5-4.8-3.3-6.4-5.7c-1.5-2.4-2-5.7-2.2-8.8c-0.2-2.6-0.4-5.1,0.2-7c2.4-0.4,5.3,0.4,6.8,2.2
			c0.2,0.2,0.2,0.2,0.4,0.4c0.4,0.7,1.1,1.3,1.8,2c0.4,0.2,0.9,0.4,1.3,0.7c0.2,0,0.4,0.2,0.7,0.4C54.4,51.3,54.6,52.4,54.4,53.5z"
			/>
		<path id="XMLID_417_" class="st2" d="M51.3,68.3c-0.3,0-0.7-0.1-0.9-0.3L50,67.8c-2.3-1.6-4.8-3.4-6.4-5.9
			c-1.8-2.8-2.2-6.4-2.4-9.6l0-0.2c-0.2-2.7-0.4-5.3,0.3-7.5c0.2-0.6,0.7-1,1.2-1.1c3-0.5,6.4,0.6,8.3,2.7l0.4,0.4
			c0.1,0.1,0.1,0.2,0.2,0.2c0.3,0.5,0.8,1,1.4,1.5l0.9,0.4c0.6,0.2,1,0.6,1.3,0.8c0.9,0.9,1.2,2.5,0.9,4.1c0,0,0,0.1,0,0.1
			c-0.2,0.9-0.7,2.1-1.2,3.2c-0.2,0.3-0.4,0.9-0.6,1.5c0,0,0,0.1,0,0.1c-0.8,1.9-1.2,4.1-1.2,6.2v1.8c0,0.6-0.3,1.2-0.9,1.4
			C51.8,68.3,51.6,68.3,51.3,68.3z M44.3,46.7c-0.2,1.5-0.1,3.2,0.1,5.2l0,0.2c0.2,2.8,0.6,5.9,2,8.1c0.8,1.3,2.1,2.4,3.4,3.5
			c0.1-2,0.6-4.1,1.4-6c0.2-0.7,0.5-1.4,0.7-1.9c0.4-0.8,0.8-1.8,1-2.5c0.1-0.6,0-1-0.1-1.2c0,0,0,0,0,0c-0.1,0-0.1,0-0.2-0.1
			l-1.3-0.7c-0.2-0.1-0.3-0.2-0.4-0.3c-0.7-0.7-1.3-1.3-1.9-2.1l-0.3-0.3c0,0-0.1-0.1-0.1-0.1C47.6,47.4,45.9,46.7,44.3,46.7z"/>
	</g>
	<g id="XMLID_416_">
		<path id="XMLID_187_" class="st1" d="M71.6,29.1c0,0.4,0.2,1.1,0.4,1.5c0,0.2,0,0.2,0.2,0.4c-0.7,0.4-2.9,1.1-4.4,0.7
			c-0.7-0.2-1.3-0.7-1.5-2l0.9-6.2c0-0.7,0-1.1-0.4-1.8c-0.4-0.4-0.9-0.9-1.5-0.9c-3.3-0.2-6.6-2.2-8.4-5.1
			c-0.4-0.4-0.4-0.7-0.4-0.7c0-0.2,0.2-0.4,0.2-0.7c1.3-2.4,2.6-4.8,4.6-5.7l0.4-0.2c0.7-0.2,1.8-0.7,2.4-1.5
			C65,6,65.2,4.9,65.2,3.8c6.8,2.2,13,5.9,18,10.8c-0.2,0.2-0.7,0.4-0.9,0.7c-1.5,1.3-3.5,2.9-5.1,3.5c-2.2,1.1-3.7,2.6-4.8,4.4
			C71.8,25.6,71.3,27.4,71.6,29.1z"/>
		<path id="XMLID_413_" class="st2" d="M69,33.5c-0.5,0-1.1-0.1-1.6-0.2c0,0,0,0-0.1,0c-1.5-0.5-2.3-1.6-2.6-3.3c0-0.2,0-0.3,0-0.5
			l0.9-6c0-0.4,0-0.5-0.1-0.6c-0.1-0.1-0.2-0.2-0.3-0.3c0,0,0,0-0.1,0c-3.8-0.3-7.5-2.5-9.5-5.7c-0.5-0.6-0.8-1.1-0.8-1.7
			c0-0.5,0.2-0.8,0.3-1c0-0.1,0.1-0.3,0.2-0.4c1.4-2.6,2.9-5.3,5.3-6.4l0.4-0.2c0.1,0,0.1-0.1,0.2-0.1c0.8-0.3,1.4-0.6,1.6-1
			c0.6-0.7,0.8-1.4,0.8-2.3c0-0.5,0.2-1,0.7-1.3c0.4-0.3,1-0.4,1.5-0.2C72.6,4.5,79,8.4,84.3,13.4c0.3,0.3,0.5,0.7,0.5,1.2
			c0,0.4-0.2,0.9-0.5,1.2c-0.2,0.2-0.5,0.4-0.7,0.5c-0.1,0.1-0.2,0.1-0.2,0.2c0,0,0,0-0.1,0.1c-2.2,1.9-4,3.1-5.4,3.8
			c-1.7,0.8-3,2-4,3.6c-0.6,2.2-0.9,3.7-0.8,5.1c0,0.1,0,0.1,0,0.2c0,0.1,0.1,0.5,0.3,0.8c0,0.1,0.1,0.2,0.1,0.2
			c0.2,0.3,0.3,0.7,0.3,1.1c0,0.5-0.3,0.9-0.7,1.2C72.4,32.9,70.7,33.5,69,33.5z M68.3,30.2c0.5,0.1,1.2,0.1,1.8-0.1
			c-0.1-0.3-0.1-0.6-0.1-0.9c-0.2-2,0.2-3.9,0.9-6.5c0-0.2,0.1-0.3,0.2-0.4c1.4-2.2,3.2-3.8,5.5-5c0,0,0.1,0,0.1,0
			c1-0.4,2.4-1.4,4.1-2.8c-4.2-3.7-9-6.6-14.2-8.5c-0.2,0.7-0.6,1.4-1.2,2.1c-0.6,0.9-1.7,1.5-3.1,2l-0.3,0.2c0,0,0,0-0.1,0
			c-1.4,0.6-2.6,2.7-3.7,4.7c0,0,0,0,0,0c1.5,2.4,4.3,4.1,7,4.3c1.3,0,2.1,0.8,2.6,1.4c0.1,0.1,0.1,0.2,0.2,0.2
			c0.7,1.1,0.7,1.9,0.7,2.7c0,0.1,0,0.2,0,0.2l-0.8,5.9C68,30.1,68.1,30.1,68.3,30.2z"/>
	</g>
	<g id="XMLID_412_">
		<path id="XMLID_142_" class="st1" d="M87.2,81c0.2-2,0.4-3.7,0.7-5.7c0.2-0.7,0.2-1.5,0.4-2.2c0.4-3.5-0.4-7.3-2.6-10.1
			c-2.2-2.9-5.7-4.8-9.5-5.1c-0.9,0-1.5-0.2-2-0.4s-0.9-1.1-1.1-1.5c-0.9-2.2-1.3-4-1.1-5.7c0.2-1.8,1.1-3.5,2.4-4.2
			c1.5-0.9,3.5-0.9,5.7-0.7c1.3,0,2.4,0.2,3.7,0c2.9-0.2,4.4-2.4,5.5-4.2c0.7-1.1,1.5-2.2,2.2-2.4c1.1-0.4,2-0.7,2.6-0.9
			c0.9-0.2,1.8-0.4,2.4-0.9c1.1,4.2,1.8,8.6,1.8,13.2C98.4,61.9,94.2,72.6,87.2,81z"/>
		<path id="XMLID_153_" class="st2" d="M87.2,82.6c-0.2,0-0.4,0-0.6-0.1c-0.7-0.3-1.1-1-1-1.7c0.1-1,0.2-1.9,0.3-2.9
			c0.1-0.9,0.2-1.9,0.3-2.8c0-0.1,0-0.2,0.1-0.3c0.1-0.2,0.1-0.5,0.2-0.8c0.1-0.4,0.1-0.8,0.2-1.2c0.4-3.2-0.5-6.4-2.3-8.8
			c-2-2.6-5.1-4.2-8.2-4.4c-1,0-1.9-0.2-2.7-0.6c-0.8-0.4-1.4-1.3-1.8-2.3c0,0,0-0.1-0.1-0.1c-1.1-2.7-1.4-4.6-1.2-6.5
			c0.2-1.9,1.2-4.4,3.3-5.4c2-1.1,4.3-1.1,6.6-0.9c0.5,0,0.9,0,1.3,0.1c0.8,0,1.4,0.1,2.1,0c0,0,0.1,0,0.1,0c2-0.2,3.2-1.8,4.2-3.4
			c0.7-1.2,1.8-2.6,3-3.1c0.8-0.3,1.5-0.5,2.1-0.7c0.2-0.1,0.4-0.1,0.6-0.2c0,0,0.1,0,0.1,0c0.7-0.2,1.5-0.4,1.9-0.7
			c0.4-0.3,1-0.4,1.5-0.2c0.5,0.2,0.9,0.6,1,1.1c1.2,4.6,1.8,9.1,1.8,13.6c0,11.6-4.1,23-11.6,31.8C88.1,82.4,87.6,82.6,87.2,82.6z
			 M75,56.1c0.3,0.1,0.6,0.2,1.1,0.2c0,0,0.1,0,0.1,0c4.1,0.2,8.1,2.4,10.6,5.7c2.4,3.1,3.5,7.2,3,11.3c0,0.1,0,0.2-0.1,0.3
			c-0.1,0.2-0.1,0.5-0.2,0.8c0,0.2-0.1,0.4-0.1,0.6c4.7-7.4,7.2-16,7.2-24.8c0-3.6-0.4-7.3-1.3-11c-0.3,0.1-0.6,0.2-0.8,0.2
			c-0.2,0.1-0.4,0.1-0.6,0.2c-0.5,0.2-1.1,0.3-1.8,0.6c0,0,0,0,0,0c-0.2,0.1-0.7,0.7-1.4,1.7c-1,1.5-2.9,4.6-6.7,5
			c-1,0.2-1.9,0.1-2.7,0.1c-0.4,0-0.8,0-1.2,0c-0.1,0-0.1,0-0.2,0c-1.7-0.2-3.5-0.2-4.8,0.5c0,0-0.1,0-0.1,0
			c-0.7,0.4-1.4,1.6-1.5,2.9c-0.2,1.3,0.1,2.7,1,4.8C74.8,55.7,74.9,55.9,75,56.1z"/>
	</g>
	<path id="XMLID_145_" class="st2" d="M50,100C22.4,100,0,77.6,0,50C0,22.4,22.4,0,50,0c27.6,0,50,22.4,50,50
		C100,77.6,77.6,100,50,100z M50,3.2C24.2,3.2,3.2,24.2,3.2,50c0,25.8,21,46.8,46.8,46.8c25.8,0,46.8-21,46.8-46.8
		C96.8,24.2,75.8,3.2,50,3.2z"/>
</g>
</svg>
