<?xml version="1.0" encoding="utf-8"?>
<!-- Generator: Adobe Illustrator 19.0.0, SVG Export Plug-In . SVG Version: 6.00 Build 0)  -->
<svg version="1.1" id="Layer_1" xmlns="http://www.w3.org/2000/svg" xmlns:xlink="http://www.w3.org/1999/xlink" x="0px" y="0px"
	 viewBox="0 0 100 100" style="enable-background:new 0 0 100 100;" xml:space="preserve">
<style type="text/css">
	.st0{fill:#D0D2D3;}
	.st1{fill:#231F20;}
	.st2{fill:#FFFFFF;}
</style>
<g id="XMLID_112_">
	<g id="XMLID_120_">
		<g id="XMLID_402_">
			<path id="XMLID_124_" class="st0" d="M71.1,72H11.9C6.2,72,1.5,67.4,1.5,61.6V24c0-5.7,4.7-10.4,10.4-10.4h59.1
				c5.7,0,10.4,4.7,10.4,10.4v37.7C81.5,67.4,76.8,72,71.1,72z"/>
			<path id="XMLID_399_" class="st1" d="M74.8,73.6H8.3c-4.6,0-8.3-3.7-8.3-8.3v-45c0-4.6,3.7-8.3,8.3-8.3h66.5
				c4.6,0,8.3,3.7,8.3,8.3v45C83.1,69.9,79.3,73.6,74.8,73.6z M8.3,15.2c-2.8,0-5.1,2.3-5.1,5.1v45c0,2.8,2.3,5.1,5.1,5.1h66.5
				c2.8,0,5.1-2.3,5.1-5.1v-45c0-2.8-2.3-5.1-5.1-5.1H8.3z"/>
		</g>
		<g id="XMLID_398_">
			<rect id="XMLID_122_" x="1.5" y="24.1" class="st2" width="79.9" height="37.1"/>
			<path id="XMLID_395_" class="st1" d="M83.1,62.9H-0.1V22.5h83.1V62.9z M3.2,59.6h76.7V25.7H3.2V59.6z"/>
		</g>
		<circle id="XMLID_123_" class="st1" cx="41.5" cy="19.2" r="1.9"/>
		<g id="XMLID_394_">
			<path id="XMLID_119_" class="st0" d="M48,72h-6.5h-0.2h-6.5c0,0,0.2,14.4-8.9,14.4h15.4h0.2h15.4C47.8,86.4,48,72,48,72z"/>
			<path id="XMLID_391_" class="st1" d="M56.9,88H26c-0.9,0-1.6-0.7-1.6-1.6s0.7-1.6,1.6-1.6c1.6,0,2.9-0.5,3.9-1.6
				c2.9-2.9,3.4-9,3.4-11.2c0-0.4,0.2-0.8,0.5-1.2c0.3-0.3,0.7-0.5,1.1-0.5H48c0.4,0,0.8,0.2,1.1,0.5c0.3,0.3,0.5,0.7,0.5,1.2
				c0,0.1,0,7.7,3.4,11.2c1.1,1.1,2.4,1.6,3.9,1.6c0.9,0,1.6,0.7,1.6,1.6S57.8,88,56.9,88z M32.8,84.8h17.3
				c-2.8-3.4-3.5-8.6-3.7-11.2h-10C36.3,76.3,35.5,81.4,32.8,84.8z"/>
		</g>
	</g>
	<g id="XMLID_116_">
		<g id="XMLID_390_">
			<path id="XMLID_117_" class="st0" d="M60.9,77.1V42.3c0-5.2,4.2-9.3,9.3-9.3H89c5.2,0,9.3,4.2,9.3,9.3v34.8
				c0,5.2-4.2,9.3-9.3,9.3H70.2C65.1,86.4,60.9,82.3,60.9,77.1z"/>
			<path id="XMLID_386_" class="st1" d="M92.3,88H66.9c-4.2,0-7.6-3.4-7.6-7.6V39c0-4.2,3.4-7.6,7.6-7.6h25.4c4.2,0,7.6,3.4,7.6,7.6
				v41.4C99.9,84.6,96.5,88,92.3,88z M66.9,34.6c-2.4,0-4.4,2-4.4,4.4v41.4c0,2.4,2,4.4,4.4,4.4h25.4c2.4,0,4.4-2,4.4-4.4V39
				c0-2.4-2-4.4-4.4-4.4H66.9z"/>
		</g>
		<g id="XMLID_385_">
			<path id="XMLID_115_" class="st2" d="M65.2,76.2V43.3c0-1.5,1.2-2.7,2.7-2.7h23.5c1.5,0,2.7,1.2,2.7,2.7v32.9
				c0,1.5-1.2,2.7-2.7,2.7H67.9C66.4,78.9,65.2,77.7,65.2,76.2z"/>
			<path id="XMLID_382_" class="st1" d="M92.3,80.5H66.9c-1.9,0-3.4-1.5-3.4-3.4V42.3c0-1.9,1.5-3.4,3.4-3.4h25.4
				c1.9,0,3.4,1.5,3.4,3.4v34.8C95.6,79,94.1,80.5,92.3,80.5z M66.9,42.2c-0.1,0-0.1,0.1-0.1,0.1v34.8c0,0.1,0.1,0.1,0.1,0.1h25.4
				c0.1,0,0.1-0.1,0.1-0.1V42.3c0-0.1-0.1-0.1-0.1-0.1H66.9z"/>
		</g>
	</g>
	<g id="XMLID_113_">
		<g id="XMLID_381_">
			<path id="XMLID_114_" class="st0" d="M65.9,86.4H55.8c-1.9,0-3.4-1.5-3.4-3.4V56.9c0-1.9,1.5-3.4,3.4-3.4h10.2
				c1.9,0,3.4,1.5,3.4,3.4v26.1C69.3,84.9,67.8,86.4,65.9,86.4z"/>
			<path id="XMLID_378_" class="st1" d="M67.1,88H54.6c-2.1,0-3.8-1.7-3.8-3.8V55.7c0-2.1,1.7-3.8,3.8-3.8h12.5
				c2.1,0,3.8,1.7,3.8,3.8v28.5C70.9,86.4,69.2,88,67.1,88z M54.6,55.2c-0.3,0-0.6,0.2-0.6,0.6v28.5c0,0.3,0.2,0.6,0.6,0.6h12.5
				c0.3,0,0.6-0.2,0.6-0.6V55.7c0-0.3-0.2-0.6-0.6-0.6H54.6z"/>
		</g>
		<g id="XMLID_377_">
			<rect id="XMLID_111_" x="52.5" y="57" class="st2" width="16.6" height="24.1"/>
			<path id="XMLID_359_" class="st1" d="M70.7,82.7H50.9V55.4h19.8V82.7z M54.1,79.5h13.4V58.6H54.1V79.5z"/>
		</g>
	</g>
</g>
</svg>
