<?xml version="1.0" encoding="utf-8"?>
<!-- Generator: Adobe Illustrator 19.0.0, SVG Export Plug-In . SVG Version: 6.00 Build 0)  -->
<svg version="1.1" id="Layer_1" xmlns="http://www.w3.org/2000/svg" xmlns:xlink="http://www.w3.org/1999/xlink" x="0px" y="0px"
	 viewBox="-11 -3 30 30" style="enable-background:new -11 -3 30 30;" xml:space="preserve">
<path d="M10,8.9c0,0.1,0,0.3,0,0.4c0,4.1-3.1,8.8-8.8,8.8c-1.7,0-3.4-0.5-4.7-1.4c0.2,0,0.5,0,0.7,0c1.4,0,2.8-0.5,3.8-1.3
	c-1.3,0-2.5-0.9-2.9-2.1c0.2,0,0.4,0.1,0.6,0.1c0.3,0,0.6,0,0.8-0.1C-1.9,13-3,11.8-3,10.3l0,0c0.4,0.2,0.9,0.4,1.4,0.4
	C-2.3,10-2.9,9.1-2.9,8c0-0.6,0.2-1.1,0.4-1.5C-1,8.4,1.3,9.6,3.8,9.7C3.7,9.5,3.7,9.2,3.7,9c0-1.7,1.4-3.1,3.1-3.1
	c0.9,0,1.7,0.4,2.2,1c0.7-0.1,1.4-0.4,2-0.7c-0.2,0.7-0.7,1.3-1.4,1.7c0.6-0.1,1.2-0.2,1.8-0.5C11.1,8,10.6,8.5,10,8.9z"/>
</svg>
