<?xml version="1.0" encoding="utf-8"?>
<!-- Generator: Adobe Illustrator 19.0.0, SVG Export Plug-In . SVG Version: 6.00 Build 0)  -->
<svg version="1.1" id="Layer_1" xmlns="http://www.w3.org/2000/svg" xmlns:xlink="http://www.w3.org/1999/xlink" x="0px" y="0px"
	 viewBox="-447 209 384 384" style="enable-background:new -447 209 384 384;" xml:space="preserve">
<style type="text/css">
	.st0{fill:#FFDE00;}
	.st1{fill:#231F20;}
</style>
<g id="XMLID_928_">
	<rect id="XMLID_1042_" x="-446.2" y="209.5" class="st0" width="384" height="384"/>
</g>
<g id="XMLID_979_">
	<path id="XMLID_1037_" class="st1" d="M-418.2,397.2v-33.1h4.3c2.9,0,5.1,0.5,6.6,1.9s2.2,3.6,2.2,6.8c0,1.6-0.1,2.7-0.6,3.8
		s-1.3,2-2.4,3c1.2,0.7,2.1,1.9,2.8,4c0.4,1,0.5,2.4,0.5,4c0,2.5-0.5,4.7-1.6,6.4s-3.1,2.8-5.9,3h-5.9V397.2z M-413.3,377.7
		c0.4,0,1.3,0,2.2-0.5c0.8-0.5,1.4-1.6,1.4-3.9s-0.6-3.4-1.4-3.9s-1.8-0.5-2.2-0.5V377.7z M-413.3,392.4c0.4,0,1.3,0.1,2.2-0.5
		c0.8-0.6,1.4-1.9,1.4-4.6s-0.6-4-1.4-4.6s-1.8-0.5-2.2-0.5V392.4z"/>
	<path id="XMLID_1034_" class="st1" d="M-393.1,397.2l-2.5-13.9h-1.3v13.9h-4.9v-33.1h4.9c5.8,0,8.3,3.3,8.3,9.5
		c0,3.3-0.9,6.3-2.7,7.5l3.1,16h-4.9V397.2z M-397,378.7c0.7,0,1.6-0.1,2.3-0.7c0.7-0.6,1.3-1.8,1.3-4.2s-0.6-3.6-1.3-4.2
		c-0.7-0.6-1.6-0.7-2.3-0.7V378.7z"/>
	<path id="XMLID_1031_" class="st1" d="M-386.9,397.2l5-33.1h5.9l5,33.1h-4.7l-0.9-6.8h-4.7l-0.9,6.8H-386.9z M-378.7,374.9
		l-0.1-0.9h-0.3l-0.1,0.9l-1.4,10.4h3.3L-378.7,374.9z"/>
	<path id="XMLID_1030_" class="st1" d="M-363.6,379.9l-0.4-1.5h-0.3v18.8h-4.5v-33.1h4.3l4.7,17.2l0.4,1.5h0.3V364h4.5v33.1h-4.3
		L-363.6,379.9z"/>
	<path id="XMLID_1027_" class="st1" d="M-351,397.2v-33.1h3.8c4.5,0,6.9,0.9,8.2,3.4c1.3,2.5,1.4,6.7,1.4,13.1s-0.2,10.6-1.4,13.1
		c-1.3,2.5-3.7,3.4-8.2,3.4h-3.8V397.2z M-346.1,392.3c1.7,0,2.6-0.2,3.1-1.8c0.2-0.8,0.4-1.9,0.5-3.5s0-3.7,0-6.4s0-4.8,0-6.4
		c0-1.5-0.2-2.7-0.5-3.5c-0.5-1.6-1.4-1.8-3.1-1.8V392.3z"/>
	<path id="XMLID_1026_" class="st1" d="M-327.3,364.1h11.1v5h-6.3v8.7h4.5v5.3h-4.5v9.1h6.3v5h-11.1V364.1z"/>
	<path id="XMLID_1025_" class="st1" d="M-310.2,397.2h-4.8l5.4-17.4l-5.3-15.7h4.8l2.7,8.4l0.1,0.4h0.2l0.1-0.4l2.7-8.4h4.8
		l-5.3,15.7l5.4,17.4h-4.8l-2.8-9.9l-0.1-0.4h-0.2l-0.1,0.4L-310.2,397.2z"/>
	<path id="XMLID_1022_" class="st1" d="M-297.3,364.1h4.9c2.1,0,4.2,0.5,5.8,2.1s2.7,4,2.7,7.8s-1.1,6.3-2.7,7.8s-3.7,2.2-5.8,2.2
		v13.2h-4.9V364.1z M-292.4,379c1.5,0,2.4-0.3,3-1c0.5-0.7,0.7-1.9,0.7-3.8s-0.1-3.2-0.7-4s-1.5-1.2-3-1.2V379z"/>
	<path id="XMLID_1021_" class="st1" d="M-281.4,364.1h11.1v5h-6.3v8.7h4.5v5.3h-4.5v9.1h6.3v5h-11.1V364.1z"/>
	<path id="XMLID_1018_" class="st1" d="M-258.9,397.2l-2.5-13.9h-1.3v13.9h-4.9v-33.1h4.9c5.8,0,8.3,3.3,8.3,9.5
		c0,3.3-0.9,6.3-2.7,7.5l3.1,16h-4.9L-258.9,397.2L-258.9,397.2z M-262.8,378.7c0.7,0,1.6-0.1,2.3-0.7c0.7-0.6,1.3-1.8,1.3-4.2
		s-0.6-3.6-1.3-4.2c-0.7-0.6-1.6-0.7-2.3-0.7V378.7z"/>
	<path id="XMLID_1017_" class="st1" d="M-251.4,364.1h4.9v33.1h-4.9V364.1z"/>
	<path id="XMLID_1016_" class="st1" d="M-242.9,364.1h11.1v5h-6.3v8.7h4.5v5.3h-4.5v9.1h6.3v5h-11.1V364.1z"/>
	<path id="XMLID_1015_" class="st1" d="M-224,379.9l-0.4-1.5h-0.3v18.8h-4.5v-33.1h4.3l4.7,17.2l0.4,1.5h0.3V364h4.5v33.1h-4.3
		L-224,379.9z"/>
	<path id="XMLID_1014_" class="st1" d="M-198.7,385.8v4.5c0,1.3-0.3,2.6-0.8,3.6c-0.4,0.9-1,1.8-1.9,2.4c-0.9,0.7-2.1,1.1-3.7,1.1
		s-2.9-0.4-3.8-1.1c-0.9-0.7-1.5-1.5-1.9-2.4c-0.5-1-0.8-2.2-0.8-3.6v-19.5c0-1.3,0.3-2.5,0.8-3.6c0.4-0.9,1-1.8,1.9-2.5
		s2.2-1.1,3.8-1.1s2.8,0.4,3.7,1.1s1.5,1.6,1.9,2.5c0.5,1,0.8,2.2,0.8,3.6v4.5h-4.5v-4.5c0-0.9-0.2-1.5-0.7-2.1
		c-0.2-0.2-0.6-0.4-1.1-0.4c-0.9,0-1.3,0.6-1.5,1.2c-0.1,0.4-0.2,0.8-0.2,1.2v19.5c0,0.9,0.3,1.6,0.8,2.1c0.2,0.2,0.5,0.4,0.9,0.4
		c1,0,1.4-0.5,1.7-1.2c0.1-0.3,0.2-0.7,0.2-1.2v-4.5H-198.7z"/>
	<path id="XMLID_1013_" class="st1" d="M-195.8,364.1h11.1v5h-6.3v8.7h4.5v5.3h-4.5v9.1h6.3v5h-11.1V364.1z"/>
	<path id="XMLID_1010_" class="st1" d="M-175,397.2v-33.1h3.8c4.5,0,6.9,0.9,8.2,3.4s1.4,6.7,1.4,13.1s-0.2,10.6-1.4,13.1
		c-1.3,2.5-3.7,3.4-8.2,3.4h-3.8V397.2z M-170.2,392.3c1.7,0,2.6-0.2,3.1-1.8c0.2-0.8,0.4-1.9,0.5-3.5s0-3.7,0-6.4s0-4.8,0-6.4
		c0-1.5-0.2-2.7-0.5-3.5c-0.5-1.6-1.4-1.8-3.1-1.8V392.3z"/>
	<path id="XMLID_1009_" class="st1" d="M-158.3,364.1h11.1v5h-6.3v8.7h4.5v5.3h-4.5v9.1h6.3v5h-11.1V364.1z"/>
	<path id="XMLID_1008_" class="st1" d="M-136.4,373c0-1.1,0-2.3-0.4-3.2c-0.3-0.9-0.8-1.5-1.6-1.5c-1.3,0-1.7,1.4-1.7,3.3
		c0,1.1,0.5,2.3,1.2,3.6s1.7,2.6,2.6,4c1.1,1.7,2.2,3.4,3.1,5c0.9,1.7,1.4,3.4,1.4,5.2c0,2.2-0.4,4.3-1.4,5.8s-2.7,2.5-5.4,2.5
		c-3.1,0-4.9-1.2-5.8-3c-1-1.8-1.2-4.2-1.2-6.7l4.8-0.5c0,1.4,0,2.8,0.4,3.8c0.3,1.1,0.9,1.8,1.9,1.8c1.4,0,2-1.5,2-3.6
		c0-1.1-0.5-2.3-1.3-3.6c-0.4-0.6-0.8-1.3-1.3-2c-0.9-1.4-2-2.9-3.1-4.5c-1.1-1.7-1.9-3.4-2.4-5.1c-0.3-0.9-0.4-1.8-0.4-2.7
		c0-1.8,0.4-3.7,1.4-5.2c1-1.4,2.6-2.5,4.9-2.5c2.9,0,4.6,1.2,5.6,2.9c0.9,1.8,1.2,4,1.2,5.8L-136.4,373z"/>
	<path id="XMLID_1007_" class="st1" d="M-129,364.1h4.9v33.1h-4.9V364.1z"/>
	<path id="XMLID_1006_" class="st1" d="M-112.8,376v-5.1c0-0.9-0.2-1.5-0.6-2.1c-0.2-0.2-0.6-0.4-1-0.4c-0.9,0-1.3,0.6-1.4,1.2
		c-0.1,0.4-0.2,0.8-0.2,1.2v19.9c0,0.9,0.2,1.6,0.7,2.1c0.2,0.2,0.5,0.4,0.9,0.4c0.9,0,1.3-0.5,1.4-1.2c0.1-0.3,0.2-0.7,0.2-1.2v-6
		h-1.9v-4.1h6.8v16.5h-2.9l-0.6-1.6c-0.9,1.1-2.2,1.9-3.8,1.9c-1.6,0-2.7-0.4-3.5-1.1s-1.3-1.5-1.7-2.4c-0.4-1-0.6-2.2-0.5-3.6
		v-19.5c0-1.3,0.3-2.5,0.8-3.6c0.4-0.9,1-1.8,1.9-2.5s2.2-1.1,3.8-1.1s2.8,0.4,3.7,1.1c0.9,0.7,1.5,1.6,1.9,2.5
		c0.5,1,0.8,2.2,0.8,3.6v5.1L-112.8,376L-112.8,376z"/>
	<path id="XMLID_1005_" class="st1" d="M-99.2,379.9l-0.4-1.5h-0.3v18.8h-4.5v-33.1h4.3l4.7,17.2l0.4,1.5h0.3V364h4.5v33.1h-4.3
		L-99.2,379.9z"/>
	<path id="XMLID_1004_" class="st1" d="M-340.5,423.1h-6.7v8.7h4.5v5h-4.5v14.4h-4.9v-33.1h11.6V423.1z"/>
	<path id="XMLID_1001_" class="st1" d="M-325.9,444.4c0,1.4-0.3,2.6-0.8,3.6c-0.4,0.9-1,1.8-1.9,2.4c-0.9,0.7-2.1,1.1-3.7,1.1
		s-2.9-0.4-3.8-1.1s-1.5-1.5-1.9-2.4c-0.5-1-0.8-2.2-0.8-3.6v-19.5c0-1.3,0.3-2.5,0.8-3.6c0.4-0.9,1-1.8,1.9-2.5s2.2-1.1,3.8-1.1
		s2.8,0.5,3.7,1.1c0.9,0.7,1.5,1.6,1.9,2.5c0.5,1,0.8,2.2,0.8,3.6V444.4z M-330.7,424.9c0-0.9-0.2-1.5-0.6-2.1
		c-0.2-0.2-0.6-0.4-1-0.4c-0.9,0-1.3,0.6-1.4,1.2c-0.1,0.4-0.2,0.8-0.2,1.2v19.5c0,0.9,0.2,1.6,0.7,2.1c0.2,0.2,0.5,0.4,0.9,0.4
		c0.9,0,1.3-0.5,1.4-1.2c0.1-0.3,0.2-0.7,0.2-1.2V424.9z"/>
	<path id="XMLID_998_" class="st1" d="M-313.9,451.2l-2.5-13.9h-1.3v13.9h-4.9v-33.1h4.9c5.8,0,8.3,3.3,8.3,9.5
		c0,3.3-0.9,6.3-2.7,7.5l3.1,16h-4.9V451.2z M-317.7,432.7c0.7,0,1.6-0.1,2.3-0.7c0.7-0.6,1.3-1.8,1.3-4.2c0-2.3-0.6-3.6-1.3-4.2
		c-0.7-0.6-1.6-0.7-2.3-0.7V432.7z"/>
	<path id="XMLID_995_" class="st1" d="M-286.8,444.4c0,1.4-0.3,2.6-0.8,3.6c-0.4,0.9-1,1.8-1.9,2.4c-0.9,0.7-2.1,1.1-3.7,1.1
		s-2.9-0.4-3.8-1.1s-1.5-1.5-1.9-2.4c-0.5-1-0.8-2.2-0.8-3.6v-19.5c0-1.3,0.3-2.5,0.8-3.6c0.4-0.9,1-1.8,1.9-2.5s2.2-1.1,3.8-1.1
		s2.8,0.5,3.7,1.1c0.9,0.7,1.5,1.6,1.9,2.5c0.5,1,0.8,2.2,0.8,3.6V444.4z M-291.6,424.9c0-0.9-0.2-1.5-0.6-2.1
		c-0.2-0.2-0.6-0.4-1-0.4c-0.9,0-1.3,0.6-1.4,1.2c-0.1,0.4-0.2,0.8-0.2,1.2v19.5c0,0.9,0.2,1.6,0.7,2.1c0.2,0.2,0.5,0.4,0.9,0.4
		c0.9,0,1.3-0.5,1.4-1.2c0.1-0.3,0.2-0.7,0.2-1.2V424.9z"/>
	<path id="XMLID_994_" class="st1" d="M-284.7,425.3v-3.1c2-0.4,3.2-1.4,4.1-2.3c0.5-0.5,0.8-1.1,1.1-1.7h2.9v33.1h-4.9v-25.9h-3.2
		V425.3z"/>
	<path id="XMLID_991_" class="st1" d="M-260.4,444.4c0,1.4-0.3,2.6-0.8,3.6c-0.4,0.9-1,1.8-1.9,2.4c-0.9,0.7-2.1,1.1-3.7,1.1
		s-2.9-0.4-3.8-1.1s-1.5-1.5-1.9-2.4c-0.5-1-0.8-2.2-0.8-3.6v-19.5c0-1.3,0.3-2.5,0.8-3.6c0.4-0.9,1-1.8,1.9-2.5s2.2-1.1,3.8-1.1
		s2.8,0.5,3.7,1.1c0.9,0.7,1.5,1.6,1.9,2.5c0.5,1,0.8,2.2,0.8,3.6V444.4z M-265.2,424.9c0-0.9-0.2-1.5-0.6-2.1
		c-0.2-0.2-0.6-0.4-1-0.4c-0.9,0-1.3,0.6-1.4,1.2c-0.1,0.4-0.2,0.8-0.2,1.2v19.5c0,0.9,0.2,1.6,0.7,2.1c0.2,0.2,0.5,0.4,0.9,0.4
		c0.9,0,1.3-0.5,1.4-1.2c0.1-0.3,0.2-0.7,0.2-1.2V424.9z"/>
	<path id="XMLID_988_" class="st1" d="M-244.5,444.4c0,1.4-0.3,2.6-0.8,3.6c-0.4,0.9-1,1.8-1.9,2.4c-0.9,0.7-2.1,1.1-3.7,1.1
		s-2.9-0.4-3.8-1.1c-0.9-0.7-1.5-1.5-1.9-2.4c-0.5-1-0.8-2.2-0.8-3.6v-19.5c0-1.3,0.3-2.5,0.8-3.6c0.4-0.9,1-1.8,1.9-2.5
		s2.2-1.1,3.8-1.1s2.8,0.5,3.7,1.1c0.9,0.7,1.5,1.6,1.9,2.5c0.5,1,0.8,2.2,0.8,3.6V444.4z M-249.3,424.9c0-0.9-0.2-1.5-0.6-2.1
		c-0.2-0.2-0.6-0.4-1-0.4c-0.9,0-1.3,0.6-1.4,1.2c-0.1,0.4-0.2,0.8-0.2,1.2v19.5c0,0.9,0.2,1.6,0.7,2.1c0.2,0.2,0.5,0.4,0.9,0.4
		c0.9,0,1.3-0.5,1.4-1.2c0.1-0.3,0.2-0.7,0.2-1.2L-249.3,424.9L-249.3,424.9z"/>
	<path id="XMLID_985_" class="st1" d="M-241.2,451.2v-33.1h3.8c4.5,0,6.9,0.9,8.2,3.4s1.4,6.7,1.4,13.1c0,6.5-0.2,10.6-1.4,13.1
		c-1.3,2.5-3.7,3.4-8.2,3.4h-3.8V451.2z M-236.3,446.3c1.7,0,2.6-0.2,3.1-1.8c0.2-0.8,0.4-1.9,0.5-3.5c0-1.6,0-3.7,0-6.4
		c0-2.7,0-4.8,0-6.4c0-1.5-0.2-2.7-0.5-3.5c-0.5-1.6-1.4-1.8-3.1-1.8V446.3z"/>
	<path id="XMLID_984_" class="st1" d="M-224.4,418.1h11.1v5h-6.3v8.7h4.5v5.3h-4.5v9.1h6.3v5h-11.1V418.1z"/>
	<path id="XMLID_983_" class="st1" d="M-202.6,427c0-1.1,0-2.3-0.4-3.2c-0.3-0.9-0.8-1.5-1.6-1.5c-1.3,0-1.7,1.3-1.7,3.3
		c0,1.1,0.5,2.3,1.2,3.6c0.7,1.3,1.7,2.6,2.6,4c1.1,1.7,2.2,3.4,3.1,5c0.9,1.7,1.4,3.4,1.4,5.2c0,2.2-0.4,4.3-1.4,5.8
		s-2.7,2.5-5.4,2.5c-3.1,0-4.9-1.2-5.8-3c-1-1.8-1.2-4.2-1.2-6.7l4.8-0.5c0,1.4,0,2.8,0.4,3.8c0.3,1.1,0.9,1.8,1.9,1.8
		c1.4,0,2-1.5,2-3.6c0-1.1-0.5-2.3-1.3-3.6c-0.4-0.6-0.8-1.3-1.3-2c-0.9-1.4-2-2.9-3.1-4.5c-1.1-1.7-1.9-3.4-2.4-5.1
		c-0.3-0.9-0.4-1.8-0.4-2.7c0-1.8,0.4-3.7,1.4-5.2c1-1.4,2.6-2.5,4.9-2.5c2.9,0,4.6,1.2,5.6,2.9c0.9,1.8,1.2,4,1.2,5.8L-202.6,427z"
		/>
	<path id="XMLID_982_" class="st1" d="M-195.2,418.1h4.9v33.1h-4.9V418.1z"/>
	<path id="XMLID_981_" class="st1" d="M-178.9,430v-5.1c0-0.9-0.2-1.5-0.6-2.1c-0.2-0.2-0.6-0.4-1-0.4c-0.9,0-1.3,0.6-1.4,1.2
		c-0.1,0.4-0.2,0.8-0.2,1.2v19.9c0,0.9,0.2,1.6,0.7,2.1c0.2,0.2,0.5,0.4,0.9,0.4c0.9,0,1.3-0.5,1.4-1.2c0.1-0.3,0.2-0.7,0.2-1.2v-6
		h-1.9v-4.1h6.8v16.5h-2.9l-0.6-1.6c-0.9,1.1-2.2,1.9-3.8,1.9s-2.7-0.4-3.5-1.1s-1.3-1.5-1.7-2.4c-0.4-1-0.6-2.2-0.5-3.6v-19.5
		c0-1.3,0.3-2.5,0.8-3.6c0.4-0.9,1-1.8,1.9-2.5s2.2-1.1,3.8-1.1s2.8,0.5,3.7,1.1c0.9,0.7,1.5,1.6,1.9,2.5c0.5,1,0.8,2.2,0.8,3.6v5.1
		L-178.9,430L-178.9,430z"/>
	<path id="XMLID_980_" class="st1" d="M-165.4,433.9l-0.4-1.5h-0.3v18.8h-4.5v-33.1h4.3l4.7,17.2l0.4,1.5h0.3V418h4.5v33.1h-4.3
		L-165.4,433.9z"/>
</g>
</svg>
