<?xml version="1.0" encoding="utf-8"?>
<!-- Generator: Adobe Illustrator 19.0.0, SVG Export Plug-In . SVG Version: 6.00 Build 0)  -->
<svg version="1.1" id="Layer_1" xmlns="http://www.w3.org/2000/svg" xmlns:xlink="http://www.w3.org/1999/xlink" x="0px" y="0px"
	 viewBox="-447 209 384 384" style="enable-background:new -447 209 384 384;" xml:space="preserve">
<style type="text/css">
	.st0{fill:#FFDE00;}
	.st1{fill:#231F20;}
</style>
<g id="XMLID_977_">
	<rect id="XMLID_1091_" x="-447" y="209" class="st0" width="384" height="384"/>
</g>
<g id="XMLID_1043_">
	<path id="XMLID_1089_" class="st1" d="M-405.4,385.2v4.5c0,1.3-0.3,2.6-0.8,3.6c-0.4,0.9-1,1.8-1.9,2.4c-0.9,0.7-2.1,1.1-3.7,1.1
		s-2.9-0.4-3.8-1.1s-1.5-1.5-1.9-2.4c-0.5-1-0.8-2.2-0.8-3.6v-19.5c0-1.3,0.3-2.5,0.8-3.6c0.4-0.9,1-1.8,1.9-2.5s2.2-1.1,3.8-1.1
		s2.8,0.4,3.7,1.1c0.9,0.7,1.5,1.6,1.9,2.5c0.5,1,0.8,2.2,0.8,3.6v4.5h-4.5v-4.5c0-0.9-0.2-1.5-0.7-2.1c-0.2-0.2-0.6-0.4-1.1-0.4
		c-0.9,0-1.3,0.6-1.5,1.2c-0.1,0.4-0.2,0.8-0.2,1.2v19.5c0,0.9,0.3,1.6,0.8,2.1c0.2,0.2,0.5,0.4,0.9,0.4c1,0,1.4-0.5,1.7-1.2
		c0.1-0.3,0.2-0.7,0.2-1.2v-4.5H-405.4z"/>
	<path id="XMLID_1086_" class="st1" d="M-403.8,396.6l5-33.1h5.9l5,33.1h-4.7l-0.9-6.8h-4.7l-0.9,6.8H-403.8z M-395.6,374.3
		l-0.1-0.9h-0.3l-0.1,0.9l-1.4,10.4h3.3L-395.6,374.3z"/>
	<path id="XMLID_1085_" class="st1" d="M-377.6,396.6l-3.1-20.8l-0.2-1.4h-0.3v22.2h-4.5v-33.1h5.9l2.9,15.1l0.2,1.8h0.1l0.2-1.8
		l2.9-15.1h5.9v33.1h-4.5v-22.2h-0.3l-0.2,1.4l-3.1,20.8H-377.6z"/>
	<path id="XMLID_1082_" class="st1" d="M-363.9,363.5h4.9c2.1,0,4.2,0.5,5.8,2.1s2.7,4,2.7,7.8s-1.1,6.3-2.7,7.8s-3.7,2.2-5.8,2.2
		v13.2h-4.9V363.5z M-359,378.4c1.5,0,2.4-0.3,3-1c0.5-0.7,0.7-1.9,0.7-3.8s-0.1-3.2-0.7-4s-1.5-1.2-3-1.2V378.4z"/>
	<path id="XMLID_1079_" class="st1" d="M-349.4,396.6l5-33.1h5.9l5,33.1h-4.7l-0.9-6.8h-4.7l-0.9,6.8H-349.4z M-341.1,374.3
		l-0.1-0.9h-0.3l-0.1,0.9l-1.4,10.4h3.3L-341.1,374.3z"/>
	<path id="XMLID_1078_" class="st1" d="M-331.2,363.5h4.9v33.1h-4.9V363.5z"/>
	<path id="XMLID_1077_" class="st1" d="M-315,375.4v-5.1c0-0.9-0.2-1.5-0.6-2.1c-0.2-0.2-0.6-0.4-1-0.4c-0.9,0-1.3,0.6-1.4,1.2
		c-0.1,0.4-0.2,0.8-0.2,1.2v19.9c0,0.9,0.2,1.6,0.7,2.1c0.2,0.2,0.5,0.4,0.9,0.4c0.9,0,1.3-0.5,1.4-1.2c0.1-0.3,0.2-0.7,0.2-1.2v-6
		h-1.9v-4.1h6.8v16.5h-2.9l-0.6-1.6c-0.9,1.1-2.2,1.9-3.8,1.9c-1.6,0-2.7-0.4-3.5-1.1s-1.3-1.5-1.7-2.4c-0.4-1-0.6-2.2-0.5-3.6
		v-19.5c0-1.3,0.3-2.5,0.8-3.6c0.4-0.9,1-1.8,1.9-2.5s2.2-1.1,3.8-1.1s2.8,0.4,3.7,1.1c0.9,0.7,1.5,1.6,1.9,2.5
		c0.5,1,0.8,2.2,0.8,3.6v5.1L-315,375.4L-315,375.4z"/>
	<path id="XMLID_1076_" class="st1" d="M-301.4,379.3l-0.4-1.5h-0.3v18.8h-4.5v-33.1h4.3l4.7,17.2l0.4,1.5h0.3v-18.8h4.5v33.1h-4.3
		L-301.4,379.3z"/>
	<path id="XMLID_1075_" class="st1" d="M-270.3,368.5h-6.7v8.7h4.5v5h-4.5v14.4h-4.9v-33.1h11.6V368.5z"/>
	<path id="XMLID_1072_" class="st1" d="M-255.7,389.8c0,1.3-0.3,2.6-0.8,3.6c-0.4,0.9-1,1.8-1.9,2.4c-0.9,0.7-2.1,1.1-3.7,1.1
		s-2.9-0.4-3.8-1.1s-1.5-1.5-1.9-2.4c-0.5-1-0.8-2.2-0.8-3.6v-19.5c0-1.3,0.3-2.5,0.8-3.6c0.4-0.9,1-1.8,1.9-2.5s2.2-1.1,3.8-1.1
		s2.8,0.4,3.7,1.1c0.9,0.7,1.5,1.6,1.9,2.5c0.5,1,0.8,2.2,0.8,3.6V389.8z M-260.5,370.3c0-0.9-0.2-1.5-0.6-2.1
		c-0.2-0.2-0.6-0.4-1-0.4c-0.9,0-1.3,0.6-1.4,1.2c-0.1,0.4-0.2,0.8-0.2,1.2v19.5c0,0.9,0.2,1.6,0.7,2.1c0.2,0.2,0.5,0.4,0.9,0.4
		c0.9,0,1.3-0.5,1.4-1.2c0.1-0.3,0.2-0.7,0.2-1.2V370.3z"/>
	<path id="XMLID_1069_" class="st1" d="M-243.7,396.6l-2.5-13.9h-1.3v13.9h-4.9v-33.1h4.9c5.8,0,8.3,3.3,8.3,9.5
		c0,3.3-0.9,6.3-2.7,7.5l3.1,16h-4.9L-243.7,396.6L-243.7,396.6z M-247.5,378.1c0.7,0,1.6-0.1,2.3-0.7s1.3-1.8,1.3-4.2
		s-0.6-3.6-1.3-4.2s-1.6-0.7-2.3-0.7V378.1z"/>
	<path id="XMLID_1068_" class="st1" d="M-229.2,363.5h11.1v5h-6.3v8.7h4.5v5.3h-4.5v9.1h6.3v5h-11.1V363.5z"/>
	<path id="XMLID_1067_" class="st1" d="M-217.1,368.5v-5h14v5h-4.6v28.1h-4.9v-28.1H-217.1z"/>
	<path id="XMLID_1066_" class="st1" d="M-201.2,363.5h4.9v33.1h-4.9V363.5z"/>
	<path id="XMLID_1063_" class="st1" d="M-180.1,389.8c0,0.8-0.1,1.6-0.4,2.6c-0.1,0.5-0.4,0.9-0.6,1.4c0.4,0.5,1,1,1.9,1.2v4.1
		c-2.7,0-4.1-1.2-5-2.6c-0.7,0.2-1.5,0.4-2.4,0.4c-1.6,0-2.9-0.4-3.8-1.1c-0.9-0.7-1.5-1.5-1.9-2.4c-0.5-1-0.8-2.2-0.8-3.6v-19.5
		c0-1.3,0.3-2.5,0.8-3.6c0.4-0.9,1-1.8,1.9-2.5s2.2-1.1,3.8-1.1s2.8,0.4,3.7,1.1s1.5,1.6,1.9,2.5c0.5,1,0.8,2.2,0.8,3.6v19.5H-180.1
		z M-184.9,370.3c0-0.9-0.2-1.5-0.6-2.1c-0.2-0.2-0.6-0.4-1-0.4c-0.9,0-1.3,0.6-1.4,1.2c-0.1,0.4-0.2,0.8-0.2,1.2v19.5
		c0,0.9,0.2,1.6,0.7,2.1c0.2,0.2,0.5,0.4,0.9,0.4c0.9,0,1.3-0.5,1.4-1.2c0.1-0.3,0.2-0.7,0.2-1.2L-184.9,370.3L-184.9,370.3z"/>
	<path id="XMLID_1062_" class="st1" d="M-163.8,363.5v26.3c0,1.3-0.3,2.6-0.8,3.6c-0.4,0.9-1,1.8-1.9,2.4c-0.9,0.7-2.1,1.1-3.7,1.1
		s-2.9-0.4-3.8-1.1c-0.9-0.7-1.5-1.5-1.9-2.4c-0.5-1-0.8-2.2-0.8-3.6v-26.3h4.9v26.3c0,0.9,0.2,1.6,0.7,2.1c0.2,0.2,0.5,0.4,0.9,0.4
		c0.9,0,1.3-0.5,1.4-1.2c0.1-0.3,0.2-0.7,0.2-1.2v-26.3L-163.8,363.5L-163.8,363.5z"/>
	<path id="XMLID_1061_" class="st1" d="M-160.2,363.5h11.1v5h-6.3v8.7h4.5v5.3h-4.5v9.1h6.3v5h-11.1V363.5z"/>
	<path id="XMLID_1060_" class="st1" d="M-148.1,368.5v-5h14v5h-4.6v28.1h-4.9v-28.1H-148.1z"/>
	<path id="XMLID_1059_" class="st1" d="M-133.5,368.5v-5h14v5h-4.6v28.1h-4.9v-28.1H-133.5z"/>
	<path id="XMLID_1058_" class="st1" d="M-117.6,363.5h11.1v5h-6.3v8.7h4.5v5.3h-4.5v9.1h6.3v5h-11.1V363.5z"/>
	<path id="XMLID_1057_" class="st1" d="M-95.7,372.4c0-1.1,0-2.3-0.4-3.2c-0.3-0.9-0.8-1.5-1.6-1.5c-1.3,0-1.7,1.4-1.7,3.3
		c0,1.1,0.5,2.3,1.2,3.6s1.7,2.6,2.6,4c1.1,1.7,2.2,3.4,3.1,5c0.9,1.7,1.4,3.4,1.4,5.2c0,2.2-0.4,4.3-1.4,5.8s-2.7,2.5-5.4,2.5
		c-3.1,0-4.9-1.2-5.8-3c-1-1.8-1.2-4.2-1.2-6.7l4.8-0.5c0,1.4,0,2.8,0.4,3.8c0.3,1.1,0.9,1.8,1.9,1.8c1.4,0,2-1.5,2-3.6
		c0-1.1-0.5-2.3-1.3-3.6c-0.4-0.6-0.8-1.3-1.3-2c-0.9-1.4-2-2.9-3.1-4.5c-1.1-1.7-1.9-3.4-2.4-5.1c-0.3-0.9-0.4-1.8-0.4-2.7
		c0-1.8,0.4-3.7,1.4-5.2c1-1.4,2.6-2.5,4.9-2.5c2.9,0,4.6,1.2,5.6,2.9c0.9,1.8,1.2,4,1.2,5.8L-95.7,372.4z"/>
	<path id="XMLID_1056_" class="st1" d="M-312.8,417.5h4.9v33.1h-4.9V417.5z"/>
	<path id="XMLID_1055_" class="st1" d="M-299.2,433.3l-0.4-1.5h-0.3v18.8h-4.5v-33.1h4.3l4.7,17.2l0.4,1.5h0.3v-18.8h4.5v33.1h-4.3
		L-299.2,433.3z"/>
	<path id="XMLID_1052_" class="st1" d="M-279.6,417.5h4.9c2.1,0,4.2,0.5,5.8,2.1c1.6,1.5,2.7,4,2.7,7.8s-1.1,6.3-2.7,7.8
		s-3.7,2.2-5.8,2.2v13.2h-4.9V417.5z M-274.8,432.4c1.5,0,2.4-0.3,3-1c0.5-0.7,0.7-1.9,0.7-3.8s-0.1-3.1-0.7-4
		c-0.5-0.8-1.5-1.2-3-1.2V432.4z"/>
	<path id="XMLID_1051_" class="st1" d="M-250.9,417.5v26.3c0,1.4-0.3,2.6-0.8,3.6c-0.4,0.9-1,1.8-1.9,2.4c-0.9,0.7-2.1,1.1-3.7,1.1
		c-1.6,0-2.9-0.4-3.8-1.1s-1.5-1.5-1.9-2.4c-0.5-1-0.8-2.2-0.8-3.6v-26.3h4.9v26.3c0,0.9,0.2,1.6,0.7,2.1c0.2,0.2,0.5,0.4,0.9,0.4
		c0.9,0,1.3-0.5,1.4-1.2c0.1-0.3,0.2-0.7,0.2-1.2v-26.3L-250.9,417.5L-250.9,417.5z"/>
	<path id="XMLID_1047_" class="st1" d="M-247.3,450.6v-33.1h4.3c2.9,0,5.1,0.5,6.6,1.9s2.2,3.6,2.2,6.8c0,1.6-0.1,2.7-0.6,3.8
		c-0.5,1.1-1.3,2-2.4,3c1.2,0.7,2.1,1.9,2.8,4c0.4,1,0.5,2.4,0.5,4c0,2.5-0.5,4.7-1.6,6.4s-3.1,2.8-5.9,3h-5.9L-247.3,450.6
		L-247.3,450.6z M-242.4,431.1c0.4,0,1.3,0,2.2-0.5c0.8-0.5,1.4-1.6,1.4-3.9s-0.6-3.4-1.4-3.9c-0.8-0.5-1.8-0.5-2.2-0.5V431.1z
		 M-242.4,445.8c0.4,0,1.3,0.1,2.2-0.5c0.8-0.6,1.4-1.9,1.4-4.6s-0.6-4-1.4-4.6c-0.8-0.6-1.8-0.5-2.2-0.5V445.8z"/>
	<path id="XMLID_1046_" class="st1" d="M-230.9,417.5h4.9v28.6h6.4v4.5h-11.3L-230.9,417.5L-230.9,417.5z"/>
	<path id="XMLID_1045_" class="st1" d="M-217.6,417.5h4.9v33.1h-4.9V417.5z"/>
	<path id="XMLID_1044_" class="st1" d="M-196.5,439.2v4.5c0,1.4-0.3,2.6-0.8,3.6c-0.4,0.9-1,1.8-1.9,2.4c-0.9,0.7-2.1,1.1-3.7,1.1
		s-2.9-0.4-3.8-1.1c-0.9-0.7-1.5-1.5-1.9-2.4c-0.5-1-0.8-2.2-0.8-3.6v-19.5c0-1.3,0.3-2.5,0.8-3.6c0.4-0.9,1-1.8,1.9-2.5
		s2.2-1.1,3.8-1.1s2.8,0.5,3.7,1.1c0.9,0.7,1.5,1.6,1.9,2.5c0.5,1,0.8,2.2,0.8,3.6v4.5h-4.5v-4.5c0-0.9-0.2-1.5-0.7-2.1
		c-0.2-0.2-0.6-0.4-1.1-0.4c-0.9,0-1.3,0.6-1.5,1.2c-0.1,0.4-0.2,0.8-0.2,1.2v19.5c0,0.9,0.3,1.6,0.8,2.1c0.2,0.2,0.5,0.4,0.9,0.4
		c1,0,1.4-0.5,1.7-1.2c0.1-0.3,0.2-0.7,0.2-1.2v-4.5H-196.5z"/>
</g>
</svg>
