<?xml version="1.0" encoding="utf-8"?>
<!-- Generator: Adobe Illustrator 19.0.0, SVG Export Plug-In . SVG Version: 6.00 Build 0)  -->
<svg version="1.1" id="Layer_1" xmlns="http://www.w3.org/2000/svg" xmlns:xlink="http://www.w3.org/1999/xlink" x="0px" y="0px"
	 viewBox="0 0 50.6 47.1" style="enable-background:new 0 0 50.6 47.1;" xml:space="preserve">
<g id="XMLID_51_">
	<path id="XMLID_49_" d="M33.3,29.7h-1.6c-0.2,0-0.3,0.1-0.5,0.2L30.1,31c-1.4,1.4-3.3,2.1-5.2,2c-1.7-0.1-3.3-0.9-4.6-2.1L19.4,30
		c-0.1-0.1-0.3-0.2-0.5-0.2h-1.6c-0.2,0-0.4,0-0.5,0c-0.3,0-0.5,0.1-0.6,0.3L8.3,40.6c-0.3,0.4,0,1,0.5,1.1l4.7,0.3
		c0.3,0,0.5,0.2,0.6,0.4l1.7,4.3c0.2,0.5,0.9,0.6,1.1,0.1L24.7,36c0.3-0.3,0.8-0.3,1.1,0l7.9,10.9c0.3,0.4,1,0.3,1.1-0.1l1.7-4.3
		c0.1-0.3,0.3-0.4,0.6-0.4l4.7-0.3c0.5,0,0.8-0.7,0.5-1.1l-7.8-10.8c-0.1-0.2-0.4-0.3-0.6-0.3C33.6,29.7,33.5,29.7,33.3,29.7z"/>
	<path id="XMLID_34_" d="M37.8,18.6l1.3-1.3c1.3-1.3,1.3-3.5,0-4.9l-1.3-1.3c-0.7-0.7-1-1.5-1-2.5V6.8c0-1.9-1.5-3.5-3.5-3.5h-1.9
		c-0.9,0-1.8-0.3-2.5-1L27.7,1c-1.3-1.3-3.5-1.3-4.9,0l-1.3,1.3c-0.7,0.7-1.5,1-2.5,1h-1.9c-1.9,0-3.5,1.5-3.5,3.5v1.9
		c0,0.9-0.3,1.8-1,2.5l-1.3,1.3c-1.3,1.3-1.3,3.5,0,4.9l1.3,1.3c0.7,0.7,1,1.5,1,2.5v1.9c0,1.9,1.5,3.5,3.5,3.5H19
		c0.9,0,1.8,0.3,2.5,1l1.3,1.3c1.3,1.3,3.5,1.3,4.9,0l1.3-1.3c0.7-0.7,1.5-1,2.5-1h1.9c1.9,0,3.5-1.5,3.5-3.5v-1.9
		C36.8,20.1,37.1,19.2,37.8,18.6z"/>
</g>
</svg>
