<?xml version="1.0" encoding="utf-8"?>
<!-- Generator: Adobe Illustrator 19.0.0, SVG Export Plug-In . SVG Version: 6.00 Build 0)  -->
<svg version="1.1" id="Layer_1" xmlns="http://www.w3.org/2000/svg" xmlns:xlink="http://www.w3.org/1999/xlink" x="0px" y="0px"
	 viewBox="9 -22.6 69.6 69.6" style="enable-background:new 9 -22.6 69.6 69.6;" xml:space="preserve">
<style type="text/css">
	.st0{fill:#231F20;}
	.st1{fill:#FFFFFF;}
	.st2{filter:url(#Adobe_OpacityMaskFilter);}
	.st3{opacity:0.1;mask:url(#SVGID_1_);}
</style>
<circle id="XMLID_90_" class="st0" cx="43.8" cy="12.2" r="34.8"/>
<g id="XMLID_137_">
	<g>
		<g>
			<path id="XMLID_217_" class="st1" d="M57.1,18.7c0,0.6-0.1,1.1-0.5,1.8c-0.3,0.6-0.8,1.1-1.3,1.7c-0.5,0.6-1.1,1.2-1.8,1.7
				c-0.7,0.5-1.3,1-2.1,1.4c-0.8,0.4-1.5,0.7-2.2,0.8c-0.7,0.1-1.3,0-1.8-0.1c-0.5-0.2-0.9-0.4-1.2-0.8c-0.3-0.4-0.4-0.9-0.4-1.4
				c0-0.6,0.2-1.2,0.5-1.8c0.3-0.6,0.7-1.2,1.2-1.8c0.5-0.6,1.1-1.1,1.7-1.6c0.6-0.5,1.3-0.9,2.1-1.3c0.7-0.3,1.5-0.6,2.1-0.7
				c0.7-0.1,1.3-0.1,1.8,0c0.5,0.1,1,0.3,1.3,0.6C56.8,17.7,57.1,18.1,57.1,18.7z M54.6,20.9c0-0.3-0.1-0.5-0.2-0.7
				c-0.1-0.2-0.4-0.3-0.6-0.3c-0.2-0.1-0.5-0.1-0.9,0c-0.3,0-0.7,0.2-1,0.3c-0.4,0.2-0.7,0.4-1,0.6c-0.3,0.2-0.6,0.5-0.8,0.8
				c-0.2,0.3-0.4,0.6-0.6,0.9c-0.1,0.3-0.2,0.6-0.2,0.9c0,0.3,0.1,0.5,0.2,0.7c0.1,0.2,0.3,0.3,0.6,0.4c0.2,0.1,0.5,0.1,0.9,0.1
				c0.3,0,0.7-0.1,1.1-0.3c0.4-0.2,0.7-0.4,1.1-0.6c0.3-0.2,0.6-0.5,0.9-0.8c0.2-0.3,0.4-0.6,0.6-0.9C54.6,21.4,54.6,21.1,54.6,20.9
				z"/>
			<path id="XMLID_216_" class="st1" d="M36.7-0.8c-2.1,1.3-3.3,2-4.8,3.8c-0.6,0.7-1,1.2-1.4,2C30.3,5.5,30,6.2,30,6.2L29.9,7
				l-0.2,1.1l-0.1,1l0,0.3c0-0.1,0-0.2,0-0.3c0-0.1,0-0.2,0-0.3c0-0.1,0-0.2,0-0.3c0-0.1,0-0.2,0.1-0.3c0.2-1,0.7-2,1.3-3.1
				c0.7-1.2,1.3-1.9,2.3-2.9c1-1,1.7-1.7,2.9-2.6C37.1-0.8,39-1.9,40-2.1c0.4-0.1-1,0-1.5,0.3C37.8-1.4,37.4-1.2,36.7-0.8z"/>
			<path id="XMLID_215_" class="st1" d="M51.7,0.1l-0.8-0.8l-0.8-0.7l-0.4-0.3l-1-0.4c-0.5-0.2-1.2-0.4-1.8-0.5
				c-0.7-0.1-1.7-0.2-2.5-0.1c-0.8,0.2-1.3,0.4-2.2,0.7c-0.9,0.4-1.8,0.9-2.8,1.5c-1.4,0.8-2.6,1.8-3.8,2.8c-1.2,1-2.3,2.2-3.2,3.3
				c-1,1.2-1.8,2.4-2.4,3.5c-0.6,1.2-0.9,2.4-1.1,3.4c0,0.2,0,0.4,0,0.6c0,0.2,0.2,1.4,0.4,2.4c0.1,0.4,0.1,0.6,0.3,1
				c0.2,0.4,0.5,1.1,0.5,1.1l0.2,0.3l0.4,0.6c-0.1-0.2-0.2-0.4-0.3-0.7c-0.1-0.2-0.2-0.5-0.2-0.8c0-0.3-0.1-0.6-0.1-0.9
				c0-0.3,0-0.6,0.1-0.9c0.2-1.2,0.6-2.4,1.3-3.7c0.6-1.2,1.5-2.5,2.5-3.7c1-1.2,2.1-2.4,3.4-3.5c1.2-1.1,2.6-2.1,4-3
				c1.2-0.7,2.3-1.2,3.3-1.7c1.1-0.4,2.1-0.7,3-0.8c0.9-0.1,1.8-0.1,2.5,0.1C50.6-0.8,51.3-0.5,51.7,0.1"/>
			<path id="XMLID_214_" class="st1" d="M56.8,6.3l-1.3-3.4l-0.3-0.8c-0.5-0.8-1.2-1.3-2-1.6c-0.8-0.3-2.3-0.3-3.4-0.2
				c-1.1,0.1-2.3,0.4-3.5,0.9c-1.2,0.5-2.6,1.2-3.9,2c-1.5,1-2.9,2.1-4.2,3.3c-1.3,1.2-2.4,2.5-3.4,3.8c-1,1.3-1.8,2.7-2.4,4
				c-0.6,1.4-1,2.7-1,3.9c0,0.5,0,0.9,0,1.3c0.1,0.4,0.2,0.8,0.3,1.1c0.1,0.3,0.3,0.7,0.5,0.9c0.2,0.3,0.5,0.5,0.8,0.7l1,0.6l1,0.5
				l1.1,0.5l1,0.3c-0.5-0.1-0.9-0.4-1.2-0.6c-0.4-0.3-0.7-0.6-0.9-1c-0.2-0.4-0.4-0.8-0.5-1.3c-0.1-0.5-0.2-1-0.1-1.5
				c0-1.2,0.3-2.4,0.9-3.7c0.5-1.3,1.3-2.5,2.2-3.8c0.9-1.2,2-2.5,3.1-3.6c1.2-1.1,2.5-2.2,3.9-3.1c1.4-0.9,2.8-1.6,4-2
				c1.3-0.5,3-0.8,4.1-0.8c1.1,0,2.1,0.3,2.8,0.8c0.8,0.5,0.9,1.4,1.2,2.4L56.8,6.3z"/>
			<path id="XMLID_213_" class="st1" d="M57.8,13.4c0.1-0.3,0.6-0.4,0.7-0.7c0.1-0.3,0.1-0.5,0.2-0.8c0.1-0.3,0.2-1.7,0.2-1.9
				c-0.1-0.2,0-0.3-0.1-0.4c-0.4-0.7-0.8-1-1.4-1.4c-0.7-0.5-2.1-0.8-3.2-0.8c-1.1,0-2.3,0.2-3.5,0.6c-1.3,0.4-2.6,1-4,1.9
				c-1.4,0.8-2.6,1.8-3.8,2.9c-1.1,1.1-2.2,2.2-3,3.4c-0.9,1.2-1.5,2.4-2,3.6c-0.5,1.2-0.7,2.4-0.7,3.4c0,0.7,0.1,1.3,0.3,1.8
				c0.2,0.5,0.5,1,0.9,1.3c0.4,0.4,0.9,0.7,1.5,0.8c0.6,0.1,1.2,0.2,2,0.3l0.2,0l1.1-0.1l1.1-0.1l0.6-0.1l1-0.2l1-0.3l0.3-0.1
				l0.9-0.3l0.2-0.1c-1,0.4-2,0.7-2.9,0.8c-0.9,0.1-1.6,0-2.3-0.2c-0.6-0.2-1.2-0.6-1.5-1.1c-0.4-0.5-0.6-1.1-0.6-1.9
				c0-0.9,0.1-1.8,0.5-2.8c0.4-0.9,0.9-1.9,1.6-2.9c0.7-0.9,1.5-1.9,2.4-2.7c0.9-0.9,1.9-1.6,3-2.3c1.1-0.7,2.2-1.2,3.2-1.5
				c1-0.3,2-0.5,2.8-0.4c0.9,0,1.6,0.3,2.2,0.7C57.2,12,57.6,12.6,57.8,13.4"/>
			<path id="XMLID_212_" class="st1" d="M45.3-1c-0.1,0.5-0.5,1-1,1.5c-0.5,0.5-1.1,1.1-1.8,1.6c-0.7,0.5-1.6,1-2.5,1.4
				c-0.9,0.4-1.8,0.8-2.8,1c-0.9,0.3-1.8,0.4-2.5,0.4c-0.7,0-1.3,0-1.8-0.2c-0.4-0.2-0.7-0.4-0.9-0.8C32,3.7,32,3.3,32.2,2.8
				c0.1-0.1,0.1-0.3,0.2-0.5c0.1-0.2,0.2-0.3,0.3-0.5c0.1-0.2,0.3-0.3,0.4-0.5c0.1-0.2,0.3-0.3,0.5-0.5l0.4-0.4l0.4-0.4L35-0.1
				l0.4-0.3l0.4-0.3l0.4-0.2l0.4-0.2c0,0-0.8,0.6-1.2,1.1c-0.2,0.3-0.4,0.5-0.5,0.8c-0.1,0.2-0.1,0.4,0,0.6c0.1,0.2,0.2,0.3,0.5,0.4
				c0.2,0.1,0.5,0.1,0.9,0.1c0.4,0,0.8-0.1,1.2-0.2c0.5-0.1,0.9-0.3,1.4-0.5c0.4-0.2,0.8-0.4,1.2-0.7c0.4-0.2,0.7-0.5,0.9-0.8
				c0.2-0.3,0.4-0.5,0.5-0.8c0.1-0.2,0.1-0.4,0-0.6c-0.1-0.2-0.3-0.3-0.5-0.3c-0.2-0.1-0.5,0-0.9,0C39.7-2,39.3-2,38.8-1.8
				c-0.3,0.1-0.4,0.1-0.7,0.3c0.8-0.4,1.3-0.6,2.2-0.9c0.6-0.2,1-0.3,1.5-0.4C42.5-3,43-3,43.5-2.9c0.5,0,0.9,0.1,1.2,0.3
				C45-2.5,45.2-2.3,45.3-2C45.4-1.7,45.4-1.4,45.3-1z"/>
			<path id="XMLID_211_" class="st1" d="M56.9,19.7c0,0-0.2,0.6-0.4,0.9c-0.2,0.3-0.5,0.7-0.5,0.7s-0.1,0.1-0.2,0.2
				c-0.2,0.3-0.6,0.7-0.6,0.7l-0.5,0.5c-0.5,0.5-1,1-1.6,1.4c-0.6,0.5-1.3,0.9-2,1.3c-0.7,0.4-1.4,0.7-2.2,1
				c-0.8,0.3-1.5,0.5-2.3,0.7c-0.2,0-0.3,0.1-0.5,0.1c-0.2,0-0.3,0.1-0.4,0.1c-0.1,0-0.3,0-0.4,0.1c-0.1,0-0.3,0-0.4,0l-0.9,0
				l-0.2,0l-0.9,0l-0.9-0.1c0,0-0.2,0-0.3,0c-0.4-0.1-0.6-0.1-1-0.2c-0.4-0.1-1-0.2-1-0.2l-0.5-0.2l-0.1-0.1
				c0.4,0.1,0.8,0.3,1.3,0.3c0.5,0.1,0.9,0.1,1.5,0.1c0.5,0,1.1,0,1.6-0.1c0.6-0.1,1.2-0.2,1.8-0.3c1.4-0.3,2.8-0.8,4.2-1.4
				c1.3-0.6,2.6-1.3,3.7-2.1c1.1-0.8,2.1-1.7,2.9-2.6C56.5,20.4,56.7,20.1,56.9,19.7C57,19.7,56.9,19.7,56.9,19.7z"/>
			<path id="XMLID_210_" class="st1" d="M48.7-2.2l1,0.4l1,0.5l0.3,0.2c0.3,0.1,0.5,0.3,0.7,0.5C52-0.5,52.2-0.3,52.3,0
				c0.1,0.2,0.2,0.5,0.2,0.8c0,0.3,0,0.6-0.1,1c-0.2,0.9-0.7,1.9-1.5,2.9c-0.8,1-1.9,2-3.2,3c-1.3,1-2.8,1.9-4.5,2.7
				c-1.6,0.8-3.4,1.4-5.1,1.9c-1.5,0.4-2.9,0.6-4.2,0.6c-1.2,0-2.2-0.1-3-0.4c-0.8-0.3-1.4-0.7-1.7-1.3C29,10.5,28.9,9.9,29,9.1
				l0.1-0.3l0.3-1.1l0.4-1l0.4-0.9l0.3-0.7l-0.1,0.1c0,0,0,0,0,0C30.1,6,30,6.6,30.2,7.1c0.2,0.5,0.6,0.9,1.2,1.2
				c0.6,0.3,1.5,0.4,2.5,0.4c1,0,2.3-0.2,3.6-0.6c1.4-0.4,2.7-0.9,4-1.5c1.3-0.6,2.5-1.3,3.6-2.1c1.1-0.8,2-1.5,2.6-2.3
				c0.7-0.8,1.1-1.5,1.3-2.3c0.1-0.4,0.1-0.7,0-1c-0.1-0.3-0.2-0.6-0.4-0.8C48.5-2,48.3-2.2,48-2.3c-0.2-0.1-0.4-0.2-0.7-0.3L47-2.7
				c0.2,0,0.2,0,0.4,0.1c0,0,0.4,0.1,0.6,0.2C48.2-2.4,48.7-2.2,48.7-2.2z"/>
			<path id="XMLID_209_" class="st1" d="M55.4,2.3l0.7,0.9l0.7,1l0.3,0.5c0.1,0.2,0.2,0.3,0.2,0.5c0.1,0.2,0.1,0.4,0.1,0.5
				c0,0.2,0.1,0.4,0.1,0.6c0,0.2,0,0.4,0,0.6c-0.1,1.1-0.7,2.4-1.6,3.6c-0.9,1.3-2.2,2.5-3.8,3.7c-1.6,1.2-3.4,2.3-5.4,3.3
				c-2,0.9-4.1,1.7-6.2,2.2c-1.5,0.4-2.9,0.5-4.1,0.6c-1.2,0-2.3-0.1-3.3-0.3c-0.9-0.2-1.7-0.6-2.3-1c-0.6-0.4-1-1-1.2-1.6l-0.2-0.7
				l-0.3-1.2l-0.2-1.2l0-0.3l-0.1-0.7c0-0.1,0,0,0,0c0.1,0.6,0.3,1.2,0.8,1.6c0.5,0.5,1.2,0.9,2.1,1.2c0.9,0.3,2,0.4,3.3,0.4
				c1.3,0,2.7-0.2,4.3-0.6c2-0.5,3.9-1.2,5.8-2.1c1.9-0.9,3.6-1.9,5.1-3.1c1.5-1.1,2.7-2.3,3.6-3.5c0.9-1.1,1.5-2.3,1.6-3.3
				c0-0.3,0.1-0.6,0-0.8c0-0.3-0.1-0.5-0.1-0.7c-0.1-0.2-0.2-0.5-0.3-0.7c-0.1-0.1-0.2-0.2-0.3-0.4v0l0.6,0.7L55.4,2.3z"/>
			<path id="XMLID_208_" class="st1" d="M59.1,11c0.1,0.9,0.1,1.5,0,2.4c-0.2,1.5-0.6,2.3-1.4,3.5c-0.8,1.2-2,2.4-3.4,3.5
				c-1.4,1.1-3,2.1-4.8,3c-1.8,0.8-3.7,1.5-5.6,1.9c-1,0.2-1.9,0.4-2.8,0.4c-0.9,0.1-1.7,0-2.4,0c-0.7-0.1-1.4-0.2-2-0.4
				c-0.6-0.2-1.1-0.5-1.6-0.8l-0.9-0.7l-0.8-0.7c0,0-0.5-0.5-0.8-0.9C32.3,22,32,21.6,32,21.6c-0.1-0.1,0,0,0,0
				c0.4,0.4,0.8,0.8,1.3,1c0.6,0.3,1.4,0.6,2.3,0.7c0.9,0.2,1.9,0.2,3,0.2c1.1-0.1,2.3-0.2,3.6-0.5c2.1-0.5,4.1-1.2,6.1-2.1
				c1.9-0.9,3.7-2,5.2-3.2c1.5-1.2,2.8-2.5,3.7-3.7c0.9-1.3,1.4-2.5,1.6-3.7c0-0.1,0-0.3,0-0.4c0-0.1,0-0.3,0-0.4
				c0-0.1,0.2,0.5,0.2,0.5S59,10.6,59.1,11z"/>
		</g>
	</g>
	<defs>
		<filter id="Adobe_OpacityMaskFilter" filterUnits="userSpaceOnUse" x="28.7" y="-2.9" width="30.4" height="30.4">
			
				<feColorMatrix  type="matrix" values="-1 0 0 0 1  0 -1 0 0 1  0 0 -1 0 1  0 0 0 1 0" color-interpolation-filters="sRGB" result="source"/>
		</filter>
	</defs>
	<mask maskUnits="userSpaceOnUse" x="28.7" y="-2.9" width="30.4" height="30.4" id="SVGID_1_">
		<g class="st2">
			<image style="overflow:visible;" width="36" height="35" xlink:href="4771F00860576DBB.jpg"  transform="matrix(1 0 0 1 26 -5)">
			</image>
		</g>
	</mask>
	<g class="st3">
		<g>
			<path id="XMLID_181_" d="M57.1,18.7c0,0.6-0.1,1.1-0.5,1.8c-0.3,0.6-0.8,1.1-1.3,1.7c-0.5,0.6-1.1,1.2-1.8,1.7
				c-0.7,0.5-1.3,1-2.1,1.4c-0.8,0.4-1.5,0.7-2.2,0.8c-0.7,0.1-1.3,0-1.8-0.1c-0.5-0.2-0.9-0.4-1.2-0.8c-0.3-0.4-0.4-0.9-0.4-1.4
				c0-0.6,0.2-1.2,0.5-1.8c0.3-0.6,0.7-1.2,1.2-1.8c0.5-0.6,1.1-1.1,1.7-1.6c0.6-0.5,1.3-0.9,2.1-1.3c0.7-0.3,1.5-0.6,2.1-0.7
				c0.7-0.1,1.3-0.1,1.8,0c0.5,0.1,1,0.3,1.3,0.6C56.8,17.7,57.1,18.1,57.1,18.7z M54.6,20.9c0-0.3-0.1-0.5-0.2-0.7
				c-0.1-0.2-0.4-0.3-0.6-0.3c-0.2-0.1-0.5-0.1-0.9,0c-0.3,0-0.7,0.2-1,0.3c-0.4,0.2-0.7,0.4-1,0.6c-0.3,0.2-0.6,0.5-0.8,0.8
				c-0.2,0.3-0.4,0.6-0.6,0.9c-0.1,0.3-0.2,0.6-0.2,0.9c0,0.3,0.1,0.5,0.2,0.7c0.1,0.2,0.3,0.3,0.6,0.4c0.2,0.1,0.5,0.1,0.9,0.1
				c0.3,0,0.7-0.1,1.1-0.3c0.4-0.2,0.7-0.4,1.1-0.6c0.3-0.2,0.6-0.5,0.9-0.8c0.2-0.3,0.4-0.6,0.6-0.9C54.6,21.4,54.6,21.1,54.6,20.9
				z"/>
			<path id="XMLID_180_" d="M36.7-0.8c-2.1,1.3-3.3,2-4.8,3.8c-0.6,0.7-1,1.2-1.4,2C30.3,5.5,30,6.2,30,6.2L29.9,7l-0.2,1.1l-0.1,1
				l0,0.3c0-0.1,0-0.2,0-0.3c0-0.1,0-0.2,0-0.3c0-0.1,0-0.2,0-0.3c0-0.1,0-0.2,0.1-0.3c0.2-1,0.7-2,1.3-3.1c0.7-1.2,1.3-1.9,2.3-2.9
				c1-1,1.7-1.7,2.9-2.6C37.1-0.8,39-1.9,40-2.1c0.4-0.1-1,0-1.5,0.3C37.8-1.4,37.4-1.2,36.7-0.8z"/>
			<path id="XMLID_179_" d="M51.7,0.1l-0.8-0.8l-0.8-0.7l-0.4-0.3l-1-0.4c-0.5-0.2-1.2-0.4-1.8-0.5c-0.7-0.1-1.7-0.2-2.5-0.1
				c-0.8,0.2-1.3,0.4-2.2,0.7c-0.9,0.4-1.8,0.9-2.8,1.5c-1.4,0.8-2.6,1.8-3.8,2.8c-1.2,1-2.3,2.2-3.2,3.3c-1,1.2-1.8,2.4-2.4,3.5
				c-0.6,1.2-0.9,2.4-1.1,3.4c0,0.2,0,0.4,0,0.6c0,0.2,0.2,1.4,0.4,2.4c0.1,0.4,0.1,0.6,0.3,1c0.2,0.4,0.5,1.1,0.5,1.1l0.2,0.3
				l0.4,0.6c-0.1-0.2-0.2-0.4-0.3-0.7c-0.1-0.2-0.2-0.5-0.2-0.8c0-0.3-0.1-0.6-0.1-0.9c0-0.3,0-0.6,0.1-0.9c0.2-1.2,0.6-2.4,1.3-3.7
				c0.6-1.2,1.5-2.5,2.5-3.7c1-1.2,2.1-2.4,3.4-3.5c1.2-1.1,2.6-2.1,4-3c1.2-0.7,2.3-1.2,3.3-1.7c1.1-0.4,2.1-0.7,3-0.8
				c0.9-0.1,1.8-0.1,2.5,0.1C50.6-0.8,51.3-0.5,51.7,0.1"/>
			<path id="XMLID_178_" d="M56.8,6.3l-1.3-3.4l-0.3-0.8c-0.5-0.8-1.2-1.3-2-1.6c-0.8-0.3-2.3-0.3-3.4-0.2c-1.1,0.1-2.3,0.4-3.5,0.9
				c-1.2,0.5-2.6,1.2-3.9,2c-1.5,1-2.9,2.1-4.2,3.3c-1.3,1.2-2.4,2.5-3.4,3.8c-1,1.3-1.8,2.7-2.4,4c-0.6,1.4-1,2.7-1,3.9
				c0,0.5,0,0.9,0,1.3c0.1,0.4,0.2,0.8,0.3,1.1c0.1,0.3,0.3,0.7,0.5,0.9c0.2,0.3,0.5,0.5,0.8,0.7l1,0.6l1,0.5l1.1,0.5l1,0.3
				c-0.5-0.1-0.9-0.4-1.2-0.6c-0.4-0.3-0.7-0.6-0.9-1c-0.2-0.4-0.4-0.8-0.5-1.3c-0.1-0.5-0.2-1-0.1-1.5c0-1.2,0.3-2.4,0.9-3.7
				c0.5-1.3,1.3-2.5,2.2-3.8c0.9-1.2,2-2.5,3.1-3.6c1.2-1.1,2.5-2.2,3.9-3.1c1.4-0.9,2.8-1.6,4-2c1.3-0.5,3-0.8,4.1-0.8
				c1.1,0,2.1,0.3,2.8,0.8c0.8,0.5,0.9,1.4,1.2,2.4L56.8,6.3z"/>
			<path id="XMLID_177_" d="M57.8,13.4c0.1-0.3,0.6-0.4,0.7-0.7c0.1-0.3,0.1-0.5,0.2-0.8c0.1-0.3,0.2-1.7,0.2-1.9
				c-0.1-0.2,0-0.3-0.1-0.4c-0.4-0.7-0.8-1-1.4-1.4c-0.7-0.5-2.1-0.8-3.2-0.8c-1.1,0-2.3,0.2-3.5,0.6c-1.3,0.4-2.6,1-4,1.9
				c-1.4,0.8-2.6,1.8-3.8,2.9c-1.1,1.1-2.2,2.2-3,3.4c-0.9,1.2-1.5,2.4-2,3.6c-0.5,1.2-0.7,2.4-0.7,3.4c0,0.7,0.1,1.3,0.3,1.8
				c0.2,0.5,0.5,1,0.9,1.3c0.4,0.4,0.9,0.7,1.5,0.8c0.6,0.1,1.2,0.2,2,0.3l0.2,0l1.1-0.1l1.1-0.1l0.6-0.1l1-0.2l1-0.3l0.3-0.1
				l0.9-0.3l0.2-0.1c-1,0.4-2,0.7-2.9,0.8c-0.9,0.1-1.6,0-2.3-0.2c-0.6-0.2-1.2-0.6-1.5-1.1c-0.4-0.5-0.6-1.1-0.6-1.9
				c0-0.9,0.1-1.8,0.5-2.8c0.4-0.9,0.9-1.9,1.6-2.9c0.7-0.9,1.5-1.9,2.4-2.7c0.9-0.9,1.9-1.6,3-2.3c1.1-0.7,2.2-1.2,3.2-1.5
				c1-0.3,2-0.5,2.8-0.4c0.9,0,1.6,0.3,2.2,0.7C57.2,12,57.6,12.6,57.8,13.4"/>
			<path id="XMLID_176_" d="M45.3-1c-0.1,0.5-0.5,1-1,1.5c-0.5,0.5-1.1,1.1-1.8,1.6c-0.7,0.5-1.6,1-2.5,1.4c-0.9,0.4-1.8,0.8-2.8,1
				c-0.9,0.3-1.8,0.4-2.5,0.4c-0.7,0-1.3,0-1.8-0.2c-0.4-0.2-0.7-0.4-0.9-0.8C32,3.7,32,3.3,32.2,2.8c0.1-0.1,0.1-0.3,0.2-0.5
				c0.1-0.2,0.2-0.3,0.3-0.5c0.1-0.2,0.3-0.3,0.4-0.5c0.1-0.2,0.3-0.3,0.5-0.5l0.4-0.4l0.4-0.4L35-0.1l0.4-0.3l0.4-0.3l0.4-0.2
				l0.4-0.2c0,0-0.8,0.6-1.2,1.1c-0.2,0.3-0.4,0.5-0.5,0.8c-0.1,0.2-0.1,0.4,0,0.6c0.1,0.2,0.2,0.3,0.5,0.4c0.2,0.1,0.5,0.1,0.9,0.1
				c0.4,0,0.8-0.1,1.2-0.2c0.5-0.1,0.9-0.3,1.4-0.5c0.4-0.2,0.8-0.4,1.2-0.7c0.4-0.2,0.7-0.5,0.9-0.8c0.2-0.3,0.4-0.5,0.5-0.8
				c0.1-0.2,0.1-0.4,0-0.6c-0.1-0.2-0.3-0.3-0.5-0.3c-0.2-0.1-0.5,0-0.9,0C39.7-2,39.3-2,38.8-1.8c-0.3,0.1-0.4,0.1-0.7,0.3
				c0.8-0.4,1.3-0.6,2.2-0.9c0.6-0.2,1-0.3,1.5-0.4C42.5-3,43-3,43.5-2.9c0.5,0,0.9,0.1,1.2,0.3C45-2.5,45.2-2.3,45.3-2
				C45.4-1.7,45.4-1.4,45.3-1z"/>
			<path id="XMLID_175_" d="M56.9,19.7c0,0-0.2,0.6-0.4,0.9c-0.2,0.3-0.5,0.7-0.5,0.7s-0.1,0.1-0.2,0.2c-0.2,0.3-0.6,0.7-0.6,0.7
				l-0.5,0.5c-0.5,0.5-1,1-1.6,1.4c-0.6,0.5-1.3,0.9-2,1.3c-0.7,0.4-1.4,0.7-2.2,1c-0.8,0.3-1.5,0.5-2.3,0.7c-0.2,0-0.3,0.1-0.5,0.1
				c-0.2,0-0.3,0.1-0.4,0.1c-0.1,0-0.3,0-0.4,0.1c-0.1,0-0.3,0-0.4,0l-0.9,0l-0.2,0l-0.9,0l-0.9-0.1c0,0-0.2,0-0.3,0
				c-0.4-0.1-0.6-0.1-1-0.2c-0.4-0.1-1-0.2-1-0.2l-0.5-0.2l-0.1-0.1c0.4,0.1,0.8,0.3,1.3,0.3c0.5,0.1,0.9,0.1,1.5,0.1
				c0.5,0,1.1,0,1.6-0.1c0.6-0.1,1.2-0.2,1.8-0.3c1.4-0.3,2.8-0.8,4.2-1.4c1.3-0.6,2.6-1.3,3.7-2.1c1.1-0.8,2.1-1.7,2.9-2.6
				C56.5,20.4,56.7,20.1,56.9,19.7C57,19.7,56.9,19.7,56.9,19.7z"/>
			<path id="XMLID_174_" d="M48.7-2.2l1,0.4l1,0.5l0.3,0.2c0.3,0.1,0.5,0.3,0.7,0.5C52-0.5,52.2-0.3,52.3,0c0.1,0.2,0.2,0.5,0.2,0.8
				c0,0.3,0,0.6-0.1,1c-0.2,0.9-0.7,1.9-1.5,2.9c-0.8,1-1.9,2-3.2,3c-1.3,1-2.8,1.9-4.5,2.7c-1.6,0.8-3.4,1.4-5.1,1.9
				c-1.5,0.4-2.9,0.6-4.2,0.6c-1.2,0-2.2-0.1-3-0.4c-0.8-0.3-1.4-0.7-1.7-1.3C29,10.5,28.9,9.9,29,9.1l0.1-0.3l0.3-1.1l0.4-1
				l0.4-0.9l0.3-0.7l-0.1,0.1c0,0,0,0,0,0C30.1,6,30,6.6,30.2,7.1c0.2,0.5,0.6,0.9,1.2,1.2c0.6,0.3,1.5,0.4,2.5,0.4
				c1,0,2.3-0.2,3.6-0.6c1.4-0.4,2.7-0.9,4-1.5c1.3-0.6,2.5-1.3,3.6-2.1c1.1-0.8,2-1.5,2.6-2.3c0.7-0.8,1.1-1.5,1.3-2.3
				c0.1-0.4,0.1-0.7,0-1c-0.1-0.3-0.2-0.6-0.4-0.8C48.5-2,48.3-2.2,48-2.3c-0.2-0.1-0.4-0.2-0.7-0.3L47-2.7c0.2,0,0.2,0,0.4,0.1
				c0,0,0.4,0.1,0.6,0.2C48.2-2.4,48.7-2.2,48.7-2.2z"/>
			<path id="XMLID_173_" d="M55.4,2.3l0.7,0.9l0.7,1l0.3,0.5c0.1,0.2,0.2,0.3,0.2,0.5c0.1,0.2,0.1,0.4,0.1,0.5
				c0,0.2,0.1,0.4,0.1,0.6c0,0.2,0,0.4,0,0.6c-0.1,1.1-0.7,2.4-1.6,3.6c-0.9,1.3-2.2,2.5-3.8,3.7c-1.6,1.2-3.4,2.3-5.4,3.3
				c-2,0.9-4.1,1.7-6.2,2.2c-1.5,0.4-2.9,0.5-4.1,0.6c-1.2,0-2.3-0.1-3.3-0.3c-0.9-0.2-1.7-0.6-2.3-1c-0.6-0.4-1-1-1.2-1.6l-0.2-0.7
				l-0.3-1.2l-0.2-1.2l0-0.3l-0.1-0.7c0-0.1,0,0,0,0c0.1,0.6,0.3,1.2,0.8,1.6c0.5,0.5,1.2,0.9,2.1,1.2c0.9,0.3,2,0.4,3.3,0.4
				c1.3,0,2.7-0.2,4.3-0.6c2-0.5,3.9-1.2,5.8-2.1c1.9-0.9,3.6-1.9,5.1-3.1c1.5-1.1,2.7-2.3,3.6-3.5c0.9-1.1,1.5-2.3,1.6-3.3
				c0-0.3,0.1-0.6,0-0.8c0-0.3-0.1-0.5-0.1-0.7c-0.1-0.2-0.2-0.5-0.3-0.7c-0.1-0.1-0.2-0.2-0.3-0.4v0l0.6,0.7L55.4,2.3z"/>
			<path id="XMLID_172_" d="M59.1,11c0.1,0.9,0.1,1.5,0,2.4c-0.2,1.5-0.6,2.3-1.4,3.5c-0.8,1.2-2,2.4-3.4,3.5c-1.4,1.1-3,2.1-4.8,3
				c-1.8,0.8-3.7,1.5-5.6,1.9c-1,0.2-1.9,0.4-2.8,0.4c-0.9,0.1-1.7,0-2.4,0c-0.7-0.1-1.4-0.2-2-0.4c-0.6-0.2-1.1-0.5-1.6-0.8
				l-0.9-0.7l-0.8-0.7c0,0-0.5-0.5-0.8-0.9C32.3,22,32,21.6,32,21.6c-0.1-0.1,0,0,0,0c0.4,0.4,0.8,0.8,1.3,1
				c0.6,0.3,1.4,0.6,2.3,0.7c0.9,0.2,1.9,0.2,3,0.2c1.1-0.1,2.3-0.2,3.6-0.5c2.1-0.5,4.1-1.2,6.1-2.1c1.9-0.9,3.7-2,5.2-3.2
				c1.5-1.2,2.8-2.5,3.7-3.7c0.9-1.3,1.4-2.5,1.6-3.7c0-0.1,0-0.3,0-0.4c0-0.1,0-0.3,0-0.4c0-0.1,0.2,0.5,0.2,0.5S59,10.6,59.1,11z"
				/>
		</g>
	</g>
</g>
</svg>
