<?xml version="1.0" encoding="utf-8"?>
<!-- Generator: Adobe Illustrator 19.0.0, SVG Export Plug-In . SVG Version: 6.00 Build 0)  -->
<svg version="1.1" id="Layer_1" xmlns="http://www.w3.org/2000/svg" xmlns:xlink="http://www.w3.org/1999/xlink" x="0px" y="0px"
	 viewBox="-447 209 384 384" style="enable-background:new -447 209 384 384;" xml:space="preserve">
<style type="text/css">
	.st0{fill:#FFDE00;}
	.st1{fill:#231F20;}
</style>
<g id="XMLID_815_">
	<rect id="XMLID_929_" x="-447" y="209" class="st0" width="384" height="384"/>
</g>
<g id="XMLID_876_">
	<path id="XMLID_927_" class="st1" d="M-395.9,363.5h4.9v33.1h-4.9V363.5z"/>
	<path id="XMLID_926_" class="st1" d="M-387.4,363.5h4.9v28.6h6.4v4.5h-11.3V363.5z"/>
	<path id="XMLID_925_" class="st1" d="M-374.2,363.5h4.9v28.6h6.4v4.5h-11.3V363.5z"/>
	<path id="XMLID_924_" class="st1" d="M-348,363.5v26.3c0,1.3-0.3,2.6-0.8,3.6c-0.4,0.9-1,1.8-1.9,2.4c-0.9,0.7-2.1,1.1-3.7,1.1
		s-2.9-0.4-3.8-1.1s-1.5-1.5-1.9-2.4c-0.5-1-0.8-2.2-0.8-3.6v-26.3h4.9v26.3c0,0.9,0.2,1.6,0.7,2.1c0.2,0.2,0.5,0.4,0.9,0.4
		c0.9,0,1.3-0.5,1.4-1.2c0.1-0.3,0.2-0.7,0.2-1.2v-26.3L-348,363.5L-348,363.5z"/>
	<path id="XMLID_923_" class="st1" d="M-336.4,372.4c0-1.1,0-2.3-0.4-3.2c-0.3-0.9-0.8-1.5-1.6-1.5c-1.3,0-1.7,1.4-1.7,3.3
		c0,1.1,0.5,2.3,1.2,3.6c0.7,1.3,1.7,2.6,2.6,4c1.1,1.7,2.2,3.4,3.1,5s1.4,3.4,1.4,5.2c0,2.2-0.4,4.3-1.4,5.8s-2.7,2.5-5.4,2.5
		c-3.1,0-4.9-1.2-5.8-3c-1-1.8-1.2-4.2-1.2-6.7l4.8-0.5c0,1.4,0,2.8,0.4,3.8c0.3,1.1,0.9,1.8,1.9,1.8c1.4,0,2-1.5,2-3.6
		c0-1.1-0.5-2.3-1.3-3.6c-0.4-0.6-0.8-1.3-1.3-2c-0.9-1.4-2-2.9-3.1-4.5c-1.1-1.7-1.9-3.4-2.4-5.1c-0.3-0.9-0.4-1.8-0.4-2.7
		c0-1.8,0.4-3.7,1.4-5.2c1-1.4,2.6-2.5,4.9-2.5c2.9,0,4.6,1.2,5.6,2.9c0.9,1.8,1.2,4,1.2,5.8L-336.4,372.4z"/>
	<path id="XMLID_922_" class="st1" d="M-330.7,368.5v-5h14v5h-4.6v28.1h-4.9v-28.1H-330.7z"/>
	<path id="XMLID_919_" class="st1" d="M-306.1,396.6l-2.5-13.9h-1.3v13.9h-4.9v-33.1h4.9c5.8,0,8.3,3.3,8.3,9.5
		c0,3.3-0.9,6.3-2.7,7.5l3.1,16h-4.9V396.6z M-309.9,378.1c0.7,0,1.6-0.1,2.3-0.7c0.7-0.6,1.3-1.8,1.3-4.2s-0.6-3.6-1.3-4.2
		c-0.7-0.6-1.6-0.7-2.3-0.7V378.1z"/>
	<path id="XMLID_916_" class="st1" d="M-299.9,396.6l5-33.1h5.9l5,33.1h-4.7l-0.9-6.8h-4.7l-0.9,6.8H-299.9z M-291.6,374.3l-0.1-0.9
		h-0.3l-0.1,0.9l-1.4,10.4h3.3L-291.6,374.3z"/>
	<path id="XMLID_915_" class="st1" d="M-284.4,368.5v-5h14v5h-4.6v28.1h-4.9v-28.1H-284.4z"/>
	<path id="XMLID_914_" class="st1" d="M-268.5,363.5h4.9v33.1h-4.9V363.5z"/>
	<path id="XMLID_911_" class="st1" d="M-247.3,389.8c0,1.3-0.3,2.6-0.8,3.6c-0.4,0.9-1,1.8-1.9,2.4c-0.9,0.7-2.1,1.1-3.7,1.1
		c-1.6,0-2.9-0.4-3.8-1.1s-1.5-1.5-1.9-2.4c-0.5-1-0.8-2.2-0.8-3.6v-19.5c0-1.3,0.3-2.5,0.8-3.6c0.4-0.9,1-1.8,1.9-2.5
		s2.2-1.1,3.8-1.1s2.8,0.4,3.7,1.1s1.5,1.6,1.9,2.5c0.5,1,0.8,2.2,0.8,3.6V389.8z M-252.2,370.3c0-0.9-0.2-1.5-0.6-2.1
		c-0.2-0.2-0.6-0.4-1-0.4c-0.9,0-1.3,0.6-1.4,1.2c-0.1,0.4-0.2,0.8-0.2,1.2v19.5c0,0.9,0.2,1.6,0.7,2.1c0.2,0.2,0.5,0.4,0.9,0.4
		c0.9,0,1.3-0.5,1.4-1.2c0.1-0.3,0.2-0.7,0.2-1.2L-252.2,370.3L-252.2,370.3z"/>
	<path id="XMLID_910_" class="st1" d="M-238.9,379.3l-0.4-1.5h-0.3v18.8h-4.5v-33.1h4.3l4.7,17.2l0.4,1.5h0.3v-18.8h4.5v33.1h-4.3
		L-238.9,379.3z"/>
	<path id="XMLID_907_" class="st1" d="M-226.5,372h4.7v5h-4.7V372z M-226.5,391.6h4.7v5h-4.7V391.6z"/>
	<path id="XMLID_904_" class="st1" d="M-211.4,396.6v-33.1h3.8c4.5,0,6.9,0.9,8.2,3.4s1.4,6.7,1.4,13.1s-0.2,10.6-1.4,13.1
		c-1.3,2.5-3.7,3.4-8.2,3.4h-3.8V396.6z M-206.5,391.7c1.7,0,2.6-0.2,3.1-1.8c0.2-0.8,0.4-1.9,0.4-3.5s0-3.7,0-6.4s0-4.8,0-6.4
		c0-1.5-0.2-2.7-0.4-3.5c-0.5-1.6-1.4-1.8-3.1-1.8V391.7z"/>
	<path id="XMLID_903_" class="st1" d="M-194.7,363.5h11.1v5h-6.3v8.7h4.5v5.3h-4.5v9.1h6.3v5h-11.1V363.5z"/>
	<path id="XMLID_902_" class="st1" d="M-169.3,368.5h-6.7v8.7h4.5v5h-4.5v14.4h-4.9v-33.1h11.6L-169.3,368.5L-169.3,368.5z"/>
	<path id="XMLID_901_" class="st1" d="M-167.3,363.5h4.9v33.1h-4.9V363.5z"/>
	<path id="XMLID_900_" class="st1" d="M-153.7,379.3l-0.4-1.5h-0.3v18.8h-4.5v-33.1h4.3l4.7,17.2l0.4,1.5h0.3v-18.8h4.5v33.1h-4.3
		L-153.7,379.3z"/>
	<path id="XMLID_899_" class="st1" d="M-141.1,363.5h11.1v5h-6.3v8.7h4.5v5.3h-4.5v9.1h6.3v5h-11.1V363.5z"/>
	<path id="XMLID_896_" class="st1" d="M-127.2,396.6v-33.1h3.8c4.5,0,6.9,0.9,8.2,3.4c1.3,2.5,1.4,6.7,1.4,13.1s-0.2,10.6-1.4,13.1
		c-1.3,2.5-3.7,3.4-8.2,3.4h-3.8V396.6z M-122.4,391.7c1.7,0,2.6-0.2,3.1-1.8c0.2-0.8,0.4-1.9,0.4-3.5s0-3.7,0-6.4s0-4.8,0-6.4
		c0-1.5-0.2-2.7-0.4-3.5c-0.5-1.6-1.4-1.8-3.1-1.8V391.7z"/>
	<path id="XMLID_895_" class="st1" d="M-347.8,450.6l-3.1-20.8l-0.2-1.4h-0.3v22.2h-4.5v-33.1h5.9l2.9,15.1l0.2,1.8h0.1l0.2-1.8
		l2.9-15.1h5.9v33.1h-4.5v-22.2h-0.3l-0.2,1.4l-3.1,20.8H-347.8z"/>
	<path id="XMLID_892_" class="st1" d="M-321.4,443.8c0,1.4-0.3,2.6-0.8,3.6c-0.4,0.9-1,1.8-1.9,2.4c-0.9,0.7-2.1,1.1-3.7,1.1
		s-2.9-0.4-3.8-1.1s-1.5-1.5-1.9-2.4c-0.5-1-0.8-2.2-0.8-3.6v-19.5c0-1.3,0.3-2.5,0.8-3.6c0.4-0.9,1-1.8,1.9-2.5s2.2-1.1,3.8-1.1
		c1.6,0,2.8,0.5,3.7,1.1s1.5,1.6,1.9,2.5c0.5,1,0.8,2.2,0.8,3.6V443.8z M-326.3,424.3c0-0.9-0.2-1.5-0.6-2.1c-0.2-0.2-0.6-0.4-1-0.4
		c-0.9,0-1.3,0.6-1.4,1.2c-0.1,0.4-0.2,0.8-0.2,1.2v19.5c0,0.9,0.2,1.6,0.7,2.1c0.2,0.2,0.5,0.4,0.9,0.4c0.9,0,1.3-0.5,1.4-1.2
		c0.1-0.3,0.2-0.7,0.2-1.2V424.3z"/>
	<path id="XMLID_891_" class="st1" d="M-313,433.3l-0.4-1.5h-0.3v18.8h-4.5v-33.1h4.3l4.7,17.2l0.4,1.5h0.3v-18.8h4.5v33.1h-4.3
		L-313,433.3z"/>
	<path id="XMLID_890_" class="st1" d="M-292.3,426.4c0-1.1,0-2.3-0.4-3.2c-0.3-0.9-0.8-1.5-1.6-1.5c-1.3,0-1.7,1.3-1.7,3.3
		c0,1.1,0.5,2.3,1.2,3.6c0.7,1.3,1.7,2.6,2.6,4c1.1,1.7,2.2,3.4,3.1,5c0.9,1.7,1.4,3.4,1.4,5.2c0,2.2-0.4,4.3-1.4,5.8
		s-2.7,2.5-5.4,2.5c-3.1,0-4.9-1.2-5.8-3c-1-1.8-1.2-4.2-1.2-6.7l4.8-0.5c0,1.4,0,2.8,0.4,3.8c0.3,1.1,0.9,1.8,1.9,1.8
		c1.4,0,2-1.5,2-3.6c0-1.1-0.5-2.3-1.3-3.6c-0.4-0.6-0.8-1.3-1.3-2c-0.9-1.4-2-2.9-3.1-4.5s-1.9-3.4-2.4-5.1
		c-0.3-0.9-0.4-1.8-0.4-2.7c0-1.8,0.4-3.7,1.4-5.2c1-1.4,2.6-2.5,4.9-2.5c2.9,0,4.6,1.2,5.6,2.9c0.9,1.8,1.2,4,1.2,5.8L-292.3,426.4
		z"/>
	<path id="XMLID_889_" class="st1" d="M-286.7,422.5v-5h14v5h-4.6v28.1h-4.9v-28.1H-286.7z"/>
	<path id="XMLID_888_" class="st1" d="M-270.7,417.5h11.1v5h-6.3v8.7h4.5v5.3h-4.5v9.1h6.3v5h-11.1V417.5z"/>
	<path id="XMLID_885_" class="st1" d="M-248.2,450.6l-2.5-13.9h-1.3v13.9h-4.9v-33.1h4.9c5.8,0,8.3,3.3,8.3,9.5
		c0,3.3-0.9,6.3-2.7,7.5l3.1,16h-4.9V450.6z M-252.1,432.1c0.7,0,1.6-0.1,2.3-0.7s1.3-1.8,1.3-4.2c0-2.3-0.6-3.6-1.3-4.2
		s-1.6-0.7-2.3-0.7V432.1z"/>
	<path id="XMLID_884_" class="st1" d="M-225.7,426.4c0-1.1,0-2.3-0.4-3.2c-0.3-0.9-0.8-1.5-1.6-1.5c-1.3,0-1.7,1.3-1.7,3.3
		c0,1.1,0.5,2.3,1.2,3.6c0.7,1.3,1.7,2.6,2.6,4c1.1,1.7,2.2,3.4,3.1,5s1.4,3.4,1.4,5.2c0,2.2-0.4,4.3-1.4,5.8s-2.7,2.5-5.4,2.5
		c-3.1,0-4.9-1.2-5.8-3c-1-1.8-1.2-4.2-1.2-6.7l4.8-0.5c0,1.4,0,2.8,0.4,3.8c0.3,1.1,0.9,1.8,1.9,1.8c1.4,0,2-1.5,2-3.6
		c0-1.1-0.5-2.3-1.3-3.6c-0.4-0.6-0.8-1.3-1.3-2c-0.9-1.4-2-2.9-3.1-4.5c-1.1-1.7-1.9-3.4-2.4-5.1c-0.3-0.9-0.4-1.8-0.4-2.7
		c0-1.8,0.4-3.7,1.4-5.2c1-1.4,2.6-2.5,4.9-2.5c2.9,0,4.6,1.2,5.6,2.9c0.9,1.8,1.2,4,1.2,5.8L-225.7,426.4z"/>
	<path id="XMLID_883_" class="st1" d="M-218.3,417.5h11.1v5h-6.3v8.7h4.5v5.3h-4.5v9.1h6.3v5h-11.1V417.5z"/>
	<path id="XMLID_880_" class="st1" d="M-195.8,450.6l-2.5-13.9h-1.3v13.9h-4.9v-33.1h4.9c5.8,0,8.3,3.3,8.3,9.5
		c0,3.3-0.9,6.3-2.7,7.5l3.1,16h-4.9V450.6z M-199.6,432.1c0.7,0,1.6-0.1,2.3-0.7s1.3-1.8,1.3-4.2c0-2.3-0.6-3.6-1.3-4.2
		s-1.6-0.7-2.3-0.7V432.1z"/>
	<path id="XMLID_879_" class="st1" d="M-188.2,417.5h4.9v33.1h-4.9V417.5z"/>
	<path id="XMLID_878_" class="st1" d="M-179.8,417.5h11.1v5h-6.3v8.7h4.5v5.3h-4.5v9.1h6.3v5h-11.1V417.5z"/>
	<path id="XMLID_877_" class="st1" d="M-157.9,426.4c0-1.1,0-2.3-0.4-3.2c-0.3-0.9-0.8-1.5-1.6-1.5c-1.3,0-1.7,1.3-1.7,3.3
		c0,1.1,0.5,2.3,1.2,3.6c0.7,1.3,1.7,2.6,2.6,4c1.1,1.7,2.2,3.4,3.1,5c0.9,1.7,1.4,3.4,1.4,5.2c0,2.2-0.4,4.3-1.4,5.8
		s-2.7,2.5-5.4,2.5c-3.1,0-4.9-1.2-5.8-3c-1-1.8-1.2-4.2-1.2-6.7l4.8-0.5c0,1.4,0,2.8,0.4,3.8c0.3,1.1,0.9,1.8,1.9,1.8
		c1.4,0,2-1.5,2-3.6c0-1.1-0.5-2.3-1.3-3.6c-0.4-0.6-0.8-1.3-1.3-2c-0.9-1.4-2-2.9-3.1-4.5s-1.9-3.4-2.4-5.1
		c-0.3-0.9-0.4-1.8-0.4-2.7c0-1.8,0.4-3.7,1.4-5.2c1-1.4,2.6-2.5,4.9-2.5c2.9,0,4.6,1.2,5.6,2.9c0.9,1.8,1.2,4,1.2,5.8L-157.9,426.4
		z"/>
</g>
</svg>
