<?xml version="1.0" encoding="utf-8"?>
<!-- Generator: Adobe Illustrator 19.0.0, SVG Export Plug-In . SVG Version: 6.00 Build 0)  -->
<svg version="1.1" id="Layer_1" xmlns="http://www.w3.org/2000/svg" xmlns:xlink="http://www.w3.org/1999/xlink" x="0px" y="0px"
	 viewBox="-447 209 384 384" style="enable-background:new -447 209 384 384;" xml:space="preserve">
<style type="text/css">
	.st0{fill:#FFDE00;}
	.st1{fill:#231F20;}
</style>
<g id="XMLID_764_">
	<rect id="XMLID_875_" x="-447" y="209" class="st0" width="384" height="384"/>
</g>
<g id="XMLID_817_">
	<path id="XMLID_871_" class="st1" d="M-376.4,396.7v-33.1h3.8c4.5,0,6.9,0.9,8.2,3.4c1.3,2.5,1.4,6.7,1.4,13.1s-0.2,10.6-1.4,13.1
		c-1.3,2.5-3.7,3.4-8.2,3.4h-3.8V396.7z M-371.5,391.8c1.7,0,2.6-0.2,3.1-1.8c0.2-0.8,0.4-1.9,0.5-3.5s0-3.7,0-6.4s0-4.8,0-6.4
		c0-1.5-0.2-2.7-0.5-3.5c-0.5-1.6-1.4-1.8-3.1-1.8V391.8z"/>
	<path id="XMLID_870_" class="st1" d="M-359.7,363.6h11.1v5h-6.3v8.7h4.5v5.3h-4.5v9.1h6.3v5h-11.1V363.6z"/>
	<path id="XMLID_869_" class="st1" d="M-337.8,372.5c0-1.1,0-2.3-0.4-3.2c-0.3-0.9-0.8-1.5-1.6-1.5c-1.3,0-1.7,1.4-1.7,3.3
		c0,1.1,0.5,2.3,1.2,3.6s1.7,2.6,2.6,4c1.1,1.7,2.2,3.4,3.1,5c0.9,1.7,1.4,3.4,1.4,5.2c0,2.2-0.4,4.3-1.4,5.8s-2.7,2.5-5.4,2.5
		c-3.1,0-4.9-1.2-5.8-3c-1-1.8-1.2-4.2-1.2-6.7l4.8-0.5c0,1.4,0,2.8,0.4,3.8c0.3,1.1,0.9,1.8,1.9,1.8c1.4,0,2-1.5,2-3.6
		c0-1.1-0.5-2.3-1.3-3.6c-0.4-0.6-0.8-1.3-1.3-2c-0.9-1.4-2-2.9-3.1-4.5c-1.1-1.7-1.9-3.4-2.4-5.1c-0.3-0.9-0.4-1.8-0.4-2.7
		c0-1.8,0.4-3.7,1.4-5.2c1-1.4,2.6-2.5,4.9-2.5c2.9,0,4.6,1.2,5.6,2.9c0.9,1.8,1.2,4,1.2,5.8L-337.8,372.5z"/>
	<path id="XMLID_868_" class="st1" d="M-330.4,363.6h4.9v33.1h-4.9V363.6z"/>
	<path id="XMLID_867_" class="st1" d="M-314.2,375.5v-5.1c0-0.9-0.2-1.5-0.6-2.1c-0.2-0.2-0.6-0.4-1-0.4c-0.9,0-1.3,0.6-1.4,1.2
		c-0.1,0.4-0.2,0.8-0.2,1.2v19.9c0,0.9,0.2,1.6,0.7,2.1c0.2,0.2,0.5,0.4,0.9,0.4c0.9,0,1.3-0.5,1.4-1.2c0.1-0.3,0.2-0.7,0.2-1.2v-6
		h-1.9v-4.1h6.8v16.5h-2.9l-0.6-1.6c-0.9,1.1-2.2,1.9-3.8,1.9c-1.6,0-2.7-0.4-3.5-1.1s-1.3-1.5-1.7-2.4c-0.4-1-0.6-2.2-0.5-3.6
		v-19.5c0-1.3,0.3-2.5,0.8-3.6c0.4-0.9,1-1.8,1.9-2.5s2.2-1.1,3.8-1.1s2.8,0.4,3.7,1.1c0.9,0.7,1.5,1.6,1.9,2.5
		c0.5,1,0.8,2.2,0.8,3.6v5.1L-314.2,375.5L-314.2,375.5z"/>
	<path id="XMLID_866_" class="st1" d="M-300.6,379.4l-0.4-1.5h-0.3v18.8h-4.5v-33.1h4.3l4.7,17.2l0.4,1.5h0.3v-18.8h4.5v33.1h-4.3
		L-300.6,379.4z"/>
	<path id="XMLID_865_" class="st1" d="M-288,363.6h4.9v33.1h-4.9V363.6z"/>
	<path id="XMLID_864_" class="st1" d="M-274.4,379.4l-0.4-1.5h-0.3v18.8h-4.5v-33.1h4.3l4.7,17.2l0.4,1.5h0.3v-18.8h4.5v33.1h-4.3
		L-274.4,379.4z"/>
	<path id="XMLID_863_" class="st1" d="M-254,375.5v-5.1c0-0.9-0.2-1.5-0.6-2.1c-0.2-0.2-0.6-0.4-1-0.4c-0.9,0-1.3,0.6-1.4,1.2
		c-0.1,0.4-0.2,0.8-0.2,1.2v19.9c0,0.9,0.2,1.6,0.7,2.1c0.2,0.2,0.5,0.4,0.9,0.4c0.9,0,1.3-0.5,1.4-1.2c0.1-0.3,0.2-0.7,0.2-1.2v-6
		h-1.9v-4.1h6.8v16.5h-2.9l-0.6-1.6c-0.9,1.1-2.2,1.9-3.8,1.9c-1.6,0-2.7-0.4-3.5-1.1s-1.3-1.5-1.7-2.4c-0.4-1-0.6-2.2-0.5-3.6
		v-19.5c0-1.3,0.3-2.5,0.8-3.6c0.4-0.9,1-1.8,1.9-2.5s2.2-1.1,3.8-1.1s2.8,0.4,3.7,1.1s1.5,1.6,1.9,2.5c0.5,1,0.8,2.2,0.8,3.6v5.1
		L-254,375.5L-254,375.5z"/>
	<path id="XMLID_860_" class="st1" d="M-226,389.9c0,1.3-0.3,2.6-0.8,3.6c-0.4,0.9-1,1.8-1.9,2.4c-0.9,0.7-2.1,1.1-3.7,1.1
		s-2.9-0.4-3.8-1.1c-0.9-0.7-1.5-1.5-1.9-2.4c-0.5-1-0.8-2.2-0.8-3.6v-19.5c0-1.3,0.3-2.5,0.8-3.6c0.4-0.9,1-1.8,1.9-2.5
		s2.2-1.1,3.8-1.1s2.8,0.4,3.7,1.1s1.5,1.6,1.9,2.5c0.5,1,0.8,2.2,0.8,3.6V389.9z M-230.8,370.4c0-0.9-0.2-1.5-0.6-2.1
		c-0.2-0.2-0.6-0.4-1-0.4c-0.9,0-1.3,0.6-1.4,1.2c-0.1,0.4-0.2,0.8-0.2,1.2v19.5c0,0.9,0.2,1.6,0.7,2.1c0.2,0.2,0.5,0.4,0.9,0.4
		c0.9,0,1.3-0.5,1.4-1.2c0.1-0.3,0.2-0.7,0.2-1.2L-230.8,370.4L-230.8,370.4z"/>
	<path id="XMLID_856_" class="st1" d="M-222.7,396.7v-33.1h4.3c2.9,0,5.1,0.5,6.6,1.9s2.2,3.6,2.2,6.8c0,1.6-0.1,2.7-0.6,3.8
		s-1.3,2-2.4,3c1.2,0.7,2.1,1.9,2.8,4c0.4,1,0.5,2.4,0.5,4c0,2.5-0.5,4.7-1.6,6.4s-3.1,2.8-5.9,3h-5.9V396.7z M-217.8,377.2
		c0.4,0,1.3,0,2.2-0.5c0.8-0.5,1.4-1.6,1.4-3.9s-0.6-3.4-1.4-3.9c-0.8-0.5-1.8-0.5-2.2-0.5V377.2z M-217.8,391.9
		c0.4,0,1.3,0.1,2.2-0.5c0.8-0.6,1.4-1.9,1.4-4.6s-0.6-4-1.4-4.6c-0.8-0.6-1.8-0.5-2.2-0.5V391.9z"/>
	<path id="XMLID_855_" class="st1" d="M-207.8,392.2c0.9,0.1,1.7-0.1,2.2-0.8c0.3-0.3,0.4-0.9,0.4-1.6v-26.2h4.9v27
		c0,1.8-0.4,3.5-1.6,4.7s-3,1.9-5.9,1.8L-207.8,392.2L-207.8,392.2z"/>
	<path id="XMLID_854_" class="st1" d="M-197,363.6h11.1v5h-6.3v8.7h4.5v5.3h-4.5v9.1h6.3v5H-197V363.6z"/>
	<path id="XMLID_853_" class="st1" d="M-170.5,385.3v4.5c0,1.3-0.3,2.6-0.8,3.6c-0.4,0.9-1,1.8-1.9,2.4c-0.9,0.7-2.1,1.1-3.7,1.1
		s-2.9-0.4-3.8-1.1c-0.9-0.7-1.5-1.5-1.9-2.4c-0.5-1-0.8-2.2-0.8-3.6v-19.5c0-1.3,0.3-2.5,0.8-3.6c0.4-0.9,1-1.8,1.9-2.5
		s2.2-1.1,3.8-1.1s2.8,0.4,3.7,1.1s1.5,1.6,1.9,2.5c0.5,1,0.8,2.2,0.8,3.6v4.5h-4.5v-4.5c0-0.9-0.2-1.5-0.7-2.1
		c-0.2-0.2-0.6-0.4-1.1-0.4c-0.9,0-1.3,0.6-1.5,1.2c-0.1,0.4-0.2,0.8-0.2,1.2v19.5c0,0.9,0.3,1.6,0.8,2.1c0.2,0.2,0.5,0.4,0.9,0.4
		c1,0,1.4-0.5,1.7-1.2c0.1-0.3,0.2-0.7,0.2-1.2v-4.5H-170.5z"/>
	<path id="XMLID_852_" class="st1" d="M-169.3,368.6v-5h14v5h-4.6v28.1h-4.9v-28.1H-169.3z"/>
	<path id="XMLID_851_" class="st1" d="M-145.3,372.5c0-1.1,0-2.3-0.4-3.2c-0.3-0.9-0.8-1.5-1.6-1.5c-1.3,0-1.7,1.4-1.7,3.3
		c0,1.1,0.5,2.3,1.2,3.6s1.7,2.6,2.6,4c1.1,1.7,2.2,3.4,3.1,5c0.9,1.7,1.4,3.4,1.4,5.2c0,2.2-0.4,4.3-1.4,5.8s-2.7,2.5-5.4,2.5
		c-3.1,0-4.9-1.2-5.8-3c-1-1.8-1.2-4.2-1.2-6.7l4.8-0.5c0,1.4,0,2.8,0.4,3.8c0.3,1.1,0.9,1.8,1.9,1.8c1.4,0,2-1.5,2-3.6
		c0-1.1-0.5-2.3-1.3-3.6c-0.4-0.6-0.8-1.3-1.3-2c-0.9-1.4-2-2.9-3.1-4.5c-1.1-1.7-1.9-3.4-2.4-5.1c-0.3-0.9-0.4-1.8-0.4-2.7
		c0-1.8,0.4-3.7,1.4-5.2c1-1.4,2.6-2.5,4.9-2.5c2.9,0,4.6,1.2,5.6,2.9c0.9,1.8,1.2,4,1.2,5.8L-145.3,372.5z"/>
	<path id="XMLID_848_" class="st1" d="M-138.1,372.1h4.7v5h-4.7V372.1z M-138.1,391.7h4.7v5h-4.7V391.7z"/>
	<path id="XMLID_845_" class="st1" d="M-409.8,450.7v-33.1h3.8c4.5,0,6.9,0.9,8.2,3.4c1.3,2.5,1.4,6.7,1.4,13.1
		c0,6.5-0.2,10.6-1.4,13.1c-1.3,2.5-3.7,3.4-8.2,3.4h-3.8V450.7z M-404.9,445.8c1.7,0,2.6-0.2,3.1-1.8c0.2-0.8,0.4-1.9,0.5-3.5
		c0-1.6,0-3.7,0-6.4c0-2.7,0-4.8,0-6.4c0-1.5-0.2-2.7-0.5-3.5c-0.5-1.6-1.4-1.8-3.1-1.8V445.8z"/>
	<path id="XMLID_844_" class="st1" d="M-393,417.6h11.1v5h-6.3v8.7h4.5v5.3h-4.5v9.1h6.3v5H-393V417.6z"/>
	<path id="XMLID_843_" class="st1" d="M-367.7,422.6h-6.7v8.7h4.5v5h-4.5v14.4h-4.9v-33.1h11.6V422.6z"/>
	<path id="XMLID_842_" class="st1" d="M-365.7,417.6h4.9v33.1h-4.9V417.6z"/>
	<path id="XMLID_841_" class="st1" d="M-352.1,433.4l-0.4-1.5h-0.3v18.8h-4.5v-33.1h4.3l4.7,17.2l0.4,1.5h0.3v-18.8h4.5v33.1h-4.3
		L-352.1,433.4z"/>
	<path id="XMLID_840_" class="st1" d="M-339.4,417.6h11.1v5h-6.3v8.7h4.5v5.3h-4.5v9.1h6.3v5h-11.1V417.6z"/>
	<path id="XMLID_837_" class="st1" d="M-325.6,450.7v-33.1h3.8c4.5,0,6.9,0.9,8.2,3.4c1.3,2.5,1.4,6.7,1.4,13.1
		c0,6.5-0.2,10.6-1.4,13.1c-1.3,2.5-3.7,3.4-8.2,3.4h-3.8V450.7z M-320.8,445.8c1.7,0,2.6-0.2,3.1-1.8c0.2-0.8,0.4-1.9,0.5-3.5
		c0-1.6,0-3.7,0-6.4c0-2.7,0-4.8,0-6.4c0-1.5-0.2-2.7-0.5-3.5c-0.5-1.6-1.4-1.8-3.1-1.8V445.8z"/>
	<path id="XMLID_836_" class="st1" d="M-293.9,450.7l-3.1-20.8l-0.2-1.4h-0.3v22.2h-4.5v-33.1h5.9l2.9,15.1l0.2,1.8h0.1l0.2-1.8
		l2.9-15.1h5.9v33.1h-4.5v-22.2h-0.3l-0.2,1.4l-3.1,20.8H-293.9z"/>
	<path id="XMLID_833_" class="st1" d="M-267.5,443.9c0,1.4-0.3,2.6-0.8,3.6c-0.4,0.9-1,1.8-1.9,2.4c-0.9,0.7-2.1,1.1-3.7,1.1
		s-2.9-0.4-3.8-1.1s-1.5-1.5-1.9-2.4c-0.5-1-0.8-2.2-0.8-3.6v-19.5c0-1.3,0.3-2.5,0.8-3.6c0.4-0.9,1-1.8,1.9-2.5s2.2-1.1,3.8-1.1
		s2.8,0.5,3.7,1.1c0.9,0.7,1.5,1.6,1.9,2.5c0.5,1,0.8,2.2,0.8,3.6V443.9z M-272.4,424.4c0-0.9-0.2-1.5-0.6-2.1
		c-0.2-0.2-0.6-0.4-1-0.4c-0.9,0-1.3,0.6-1.4,1.2c-0.1,0.4-0.2,0.8-0.2,1.2v19.5c0,0.9,0.2,1.6,0.7,2.1c0.2,0.2,0.5,0.4,0.9,0.4
		c0.9,0,1.3-0.5,1.4-1.2c0.1-0.3,0.2-0.7,0.2-1.2V424.4z"/>
	<path id="XMLID_832_" class="st1" d="M-259.1,433.4l-0.4-1.5h-0.3v18.8h-4.5v-33.1h4.3l4.7,17.2l0.4,1.5h0.3v-18.8h4.5v33.1h-4.3
		L-259.1,433.4z"/>
	<path id="XMLID_831_" class="st1" d="M-238.4,426.5c0-1.1,0-2.3-0.4-3.2c-0.3-0.9-0.8-1.5-1.6-1.5c-1.3,0-1.7,1.3-1.7,3.3
		c0,1.1,0.5,2.3,1.2,3.6c0.7,1.3,1.7,2.6,2.6,4c1.1,1.7,2.2,3.4,3.1,5c0.9,1.7,1.4,3.4,1.4,5.2c0,2.2-0.4,4.3-1.4,5.8
		s-2.7,2.5-5.4,2.5c-3.1,0-4.9-1.2-5.8-3c-1-1.8-1.2-4.2-1.2-6.7l4.8-0.5c0,1.4,0,2.8,0.4,3.8c0.3,1.1,0.9,1.8,1.9,1.8
		c1.4,0,2-1.5,2-3.6c0-1.1-0.5-2.3-1.3-3.6c-0.4-0.6-0.8-1.3-1.3-2c-0.9-1.4-2-2.9-3.1-4.5c-1.1-1.7-1.9-3.4-2.4-5.1
		c-0.3-0.9-0.4-1.8-0.4-2.7c0-1.8,0.4-3.7,1.4-5.2c1-1.4,2.6-2.5,4.9-2.5c2.9,0,4.6,1.2,5.6,2.9c0.9,1.8,1.2,4,1.2,5.8L-238.4,426.5
		z"/>
	<path id="XMLID_830_" class="st1" d="M-232.7,422.6v-5h14v5h-4.6v28.1h-4.9v-28.1H-232.7z"/>
	<path id="XMLID_829_" class="st1" d="M-216.8,417.6h11.1v5h-6.3v8.7h4.5v5.3h-4.5v9.1h6.3v5h-11.1V417.6z"/>
	<path id="XMLID_826_" class="st1" d="M-194.3,450.7l-2.5-13.9h-1.3v13.9h-4.9v-33.1h4.9c5.8,0,8.3,3.3,8.3,9.5
		c0,3.3-0.9,6.3-2.7,7.5l3.1,16h-4.9V450.7z M-198.1,432.2c0.7,0,1.6-0.1,2.3-0.7s1.3-1.8,1.3-4.2c0-2.3-0.6-3.6-1.3-4.2
		s-1.6-0.7-2.3-0.7V432.2z"/>
	<path id="XMLID_825_" class="st1" d="M-171.8,426.5c0-1.1,0-2.3-0.4-3.2c-0.3-0.9-0.8-1.5-1.6-1.5c-1.3,0-1.7,1.3-1.7,3.3
		c0,1.1,0.5,2.3,1.2,3.6c0.7,1.3,1.7,2.6,2.6,4c1.1,1.7,2.2,3.4,3.1,5c0.9,1.7,1.4,3.4,1.4,5.2c0,2.2-0.4,4.3-1.4,5.8
		s-2.7,2.5-5.4,2.5c-3.1,0-4.9-1.2-5.8-3c-1-1.8-1.2-4.2-1.2-6.7l4.8-0.5c0,1.4,0,2.8,0.4,3.8c0.3,1.1,0.9,1.8,1.9,1.8
		c1.4,0,2-1.5,2-3.6c0-1.1-0.5-2.3-1.3-3.6c-0.4-0.6-0.8-1.3-1.3-2c-0.9-1.4-2-2.9-3.1-4.5c-1.1-1.7-1.9-3.4-2.4-5.1
		c-0.3-0.9-0.4-1.8-0.4-2.7c0-1.8,0.4-3.7,1.4-5.2c1-1.4,2.6-2.5,4.9-2.5c2.9,0,4.6,1.2,5.6,2.9c0.9,1.8,1.2,4,1.2,5.8L-171.8,426.5
		z"/>
	<path id="XMLID_824_" class="st1" d="M-164.4,417.6h11.1v5h-6.3v8.7h4.5v5.3h-4.5v9.1h6.3v5h-11.1V417.6z"/>
	<path id="XMLID_821_" class="st1" d="M-141.9,450.7l-2.5-13.9h-1.3v13.9h-4.9v-33.1h4.9c5.8,0,8.3,3.3,8.3,9.5
		c0,3.3-0.9,6.3-2.7,7.5l3.1,16h-4.9V450.7z M-145.7,432.2c0.7,0,1.6-0.1,2.3-0.7s1.3-1.8,1.3-4.2c0-2.3-0.6-3.6-1.3-4.2
		s-1.6-0.7-2.3-0.7V432.2z"/>
	<path id="XMLID_820_" class="st1" d="M-134.3,417.6h4.9v33.1h-4.9V417.6z"/>
	<path id="XMLID_819_" class="st1" d="M-125.9,417.6h11.1v5h-6.3v8.7h4.5v5.3h-4.5v9.1h6.3v5h-11.1V417.6z"/>
	<path id="XMLID_818_" class="st1" d="M-104,426.5c0-1.1,0-2.3-0.4-3.2c-0.3-0.9-0.8-1.5-1.6-1.5c-1.3,0-1.7,1.3-1.7,3.3
		c0,1.1,0.5,2.3,1.2,3.6c0.7,1.3,1.7,2.6,2.6,4c1.1,1.7,2.2,3.4,3.1,5c0.9,1.7,1.4,3.4,1.4,5.2c0,2.2-0.4,4.3-1.4,5.8
		s-2.7,2.5-5.4,2.5c-3.1,0-4.9-1.2-5.8-3c-1-1.8-1.2-4.2-1.2-6.7l4.8-0.5c0,1.4,0,2.8,0.4,3.8c0.3,1.1,0.9,1.8,1.9,1.8
		c1.4,0,2-1.5,2-3.6c0-1.1-0.5-2.3-1.3-3.6c-0.4-0.6-0.8-1.3-1.3-2c-0.9-1.4-2-2.9-3.1-4.5c-1.1-1.7-1.9-3.4-2.4-5.1
		c-0.3-0.9-0.4-1.8-0.4-2.7c0-1.8,0.4-3.7,1.4-5.2c1-1.4,2.6-2.5,4.9-2.5c2.9,0,4.6,1.2,5.6,2.9c0.9,1.8,1.2,4,1.2,5.8L-104,426.5z"
		/>
</g>
</svg>
