<?xml version="1.0" encoding="utf-8"?>
<!-- Generator: Adobe Illustrator 19.0.0, SVG Export Plug-In . SVG Version: 6.00 Build 0)  -->
<svg version="1.1" id="Layer_1" xmlns="http://www.w3.org/2000/svg" xmlns:xlink="http://www.w3.org/1999/xlink" x="0px" y="0px"
	 viewBox="0 0 50.6 47.1" style="enable-background:new 0 0 50.6 47.1;" xml:space="preserve">
<style type="text/css">
	.st0{fill:#231F20;}
</style>
<g id="XMLID_348_">
	<g id="XMLID_77_">
		<path id="XMLID_79_" class="st0" d="M39.4,19.4c-0.3-0.2-0.6-0.2-0.9-0.1L26,24.8L13,18.9c-0.3-0.1-0.6-0.1-0.8,0.1
			c-0.3,0.1-0.4,0.4-0.4,0.7L10.2,35c0,0.4,0.1,0.7,0.4,0.9c0.3,0.2,0.7,0.2,1,0c2.7-1.9,6.2-4,7.1-4c0.7,0,3.6,2.3,6.2,4.9
			c0.2,0.2,0.4,0.3,0.6,0.3c0.2,0,0.4-0.1,0.6-0.2c2.1-1.8,5.8-4.3,7.1-4.3c1.6,0,4.8,2.5,5.8,3.4c0.2,0.1,0.4,0.2,0.6,0.2
			c0.2,0,0.3,0,0.4-0.1c0.3-0.2,0.5-0.5,0.5-0.9l-0.6-14.9C39.8,19.8,39.6,19.6,39.4,19.4z"/>
		<path id="XMLID_78_" class="st0" d="M50,9l-23.9-9c-0.2-0.1-0.4-0.1-0.6,0L0.6,9C0.3,9.2,0,9.5,0,9.9c0,0.4,0.2,0.7,0.5,0.9
			l5.3,2.6C4.9,14.8,4.1,17,4.3,21H4.2c-0.8,0-1.5,0.3-1.5,1.2v2.5c0,0.7,0.5,1.3,1.1,1.5L1.6,41.8l1-0.6C2.7,41.1,2.9,41,3,40.9
			c0,0.4,0.1,0.7,0.5,0.9c0.1,0,0.2,0.1,0.3,0.1c0.4,0,0.7-0.3,1-0.5C4.9,41.2,5,41.1,5.1,41c0.1,0.1,0.2,0.2,0.2,0.2
			c0.3,0.3,0.6,0.7,1,0.7l0.2,0c0.6-0.2,0.8-0.7,0.9-1c0.2,0,0.4,0.1,0.6,0.2L9,41.6L6.7,26.1c0.6-0.2,1.1-0.8,1.1-1.5v-2.5
			C7.8,21.3,7,21,6.2,21H5.7l2-6.7l8.1,3.6l9.7,3.7c0.2,0.1,0.4,0.1,0.6,0l11.1-4.6l12.9-6.2c0.3-0.2,0.5-0.5,0.5-0.9
			C50.6,9.5,50.3,9.2,50,9z"/>
	</g>
</g>
</svg>
