<?xml version="1.0" encoding="utf-8"?>
<!-- Generator: Adobe Illustrator 19.0.0, SVG Export Plug-In . SVG Version: 6.00 Build 0)  -->
<svg version="1.1" id="Layer_1" xmlns="http://www.w3.org/2000/svg" xmlns:xlink="http://www.w3.org/1999/xlink" x="0px" y="0px"
	 viewBox="0 0 50.6 47.1" style="enable-background:new 0 0 50.6 47.1;" xml:space="preserve">
<style type="text/css">
	.st0{fill:#231F20;}
	.st1{filter:url(#Adobe_OpacityMaskFilter);}
	.st2{opacity:5.000000e-02;mask:url(#XMLID_49_);}
</style>
<g id="XMLID_801_">
	<g id="XMLID_119_">
		<path id="XMLID_125_" class="st0" d="M18.4,0c-0.7,0-1.2,0.3-1.6,0.7c-0.4,0.4-0.7,0.9-0.7,1.6v6.9H0v14.2C0,24.4,0.6,25,1.6,25
			H19c0.3-1.9,1.6-3.2,3.5-3.2h5.7c1.9,0,3.1,1.3,3.5,3.2H49c0.9,0,1.6-0.6,1.6-1.6V9.2H34.8V2.3c0-0.7-0.3-1.2-0.7-1.6
			S33.3,0,32.6,0L18.4,0z M19.3,3.2h12.4v6H19.3L19.3,3.2z M22.4,25l-0.3,0.3v2.6l0.3,0.3h5.7l0.3-0.3v-2.6L28.2,25H22.4z M0,27.9
			v19.3h50.6V27.9c-0.6,0.3-0.9,0.3-1.6,0.3H31.6c-0.3,1.9-1.6,3.2-3.5,3.2h-5.7c-1.9,0-3.1-1.3-3.5-3.2H1.6
			C0.9,28.2,0.6,28.2,0,27.9L0,27.9z"/>
	</g>
	<defs>
		<filter id="Adobe_OpacityMaskFilter" filterUnits="userSpaceOnUse" x="0" y="0" width="50.6" height="47.1">
			
				<feColorMatrix  type="matrix" values="-1 0 0 0 1  0 -1 0 0 1  0 0 -1 0 1  0 0 0 1 0" color-interpolation-filters="sRGB" result="source"/>
		</filter>
	</defs>
	<mask maskUnits="userSpaceOnUse" x="0" y="0" width="50.6" height="47.1" id="XMLID_49_">
		<g id="XMLID_107_" class="st1">
			
				<image style="overflow:visible;" width="228" height="214" id="XMLID_108_" xlink:href="8A62361AD5FDFAE9.jpg"  transform="matrix(0.24 0 0 0.24 -2.0032 -2)">
			</image>
		</g>
	</mask>
	<g id="XMLID_106_" class="st2">
		<path id="XMLID_114_" d="M18.4,0c-0.7,0-1.2,0.3-1.6,0.7c-0.4,0.4-0.7,0.9-0.7,1.6v6.9H0v14.2C0,24.4,0.6,25,1.6,25H19
			c0.3-1.9,1.6-3.2,3.5-3.2h5.7c1.9,0,3.1,1.3,3.5,3.2H49c0.9,0,1.6-0.6,1.6-1.6V9.2H34.8V2.3c0-0.7-0.3-1.2-0.7-1.6S33.3,0,32.6,0
			L18.4,0z M19.3,3.2h12.4v6H19.3L19.3,3.2z M22.4,25l-0.3,0.3v2.6l0.3,0.3h5.7l0.3-0.3v-2.6L28.2,25H22.4z M0,27.9v19.3h50.6V27.9
			c-0.6,0.3-0.9,0.3-1.6,0.3H31.6c-0.3,1.9-1.6,3.2-3.5,3.2h-5.7c-1.9,0-3.1-1.3-3.5-3.2H1.6C0.9,28.2,0.6,28.2,0,27.9L0,27.9z"/>
	</g>
</g>
</svg>
