<?xml version="1.0" encoding="utf-8"?>
<!-- Generator: Adobe Illustrator 19.0.0, SVG Export Plug-In . SVG Version: 6.00 Build 0)  -->
<svg version="1.1" id="Layer_1" xmlns="http://www.w3.org/2000/svg" xmlns:xlink="http://www.w3.org/1999/xlink" x="0px" y="0px"
	 viewBox="-447 209 384 384" style="enable-background:new -447 209 384 384;" xml:space="preserve">
<style type="text/css">
	.st0{fill:#FFDE00;}
	.st1{fill:#231F20;}
</style>
<g id="XMLID_716_">
	<rect id="XMLID_816_" x="-447" y="209" class="st0" width="384" height="384"/>
</g>
<g id="XMLID_766_">
	<path id="XMLID_814_" class="st1" d="M-410.6,368.5v-5h14v5h-4.6v28.1h-4.9v-28.1H-410.6z"/>
	<path id="XMLID_811_" class="st1" d="M-386,396.6l-2.5-13.9h-1.3v13.9h-4.9v-33.1h4.9c5.8,0,8.3,3.3,8.3,9.5c0,3.3-0.9,6.3-2.7,7.5
		l3.1,16h-4.9V396.6z M-389.8,378.1c0.7,0,1.6-0.1,2.3-0.7c0.7-0.6,1.3-1.8,1.3-4.2s-0.6-3.6-1.3-4.2c-0.7-0.6-1.6-0.7-2.3-0.7
		V378.1z"/>
	<path id="XMLID_808_" class="st1" d="M-365.8,389.8c0,1.3-0.3,2.6-0.8,3.6c-0.4,0.9-1,1.8-1.9,2.4c-0.9,0.7-2.1,1.1-3.7,1.1
		s-2.9-0.4-3.8-1.1s-1.5-1.5-1.9-2.4c-0.5-1-0.8-2.2-0.8-3.6v-19.5c0-1.3,0.3-2.5,0.8-3.6c0.4-0.9,1-1.8,1.9-2.5s2.2-1.1,3.8-1.1
		s2.8,0.4,3.7,1.1c0.9,0.7,1.5,1.6,1.9,2.5c0.5,1,0.8,2.2,0.8,3.6V389.8z M-370.7,370.3c0-0.9-0.2-1.5-0.6-2.1
		c-0.2-0.2-0.6-0.4-1-0.4c-0.9,0-1.3,0.6-1.4,1.2c-0.1,0.4-0.2,0.8-0.2,1.2v19.5c0,0.9,0.2,1.6,0.7,2.1c0.2,0.2,0.5,0.4,0.9,0.4
		c0.9,0,1.3-0.5,1.4-1.2c0.1-0.3,0.2-0.7,0.2-1.2V370.3z"/>
	<path id="XMLID_805_" class="st1" d="M-362.5,363.5h4.9c2.1,0,4.2,0.5,5.8,2.1s2.7,4,2.7,7.8s-1.1,6.3-2.7,7.8s-3.7,2.2-5.8,2.2
		v13.2h-4.9V363.5z M-357.7,378.4c1.5,0,2.4-0.3,3-1c0.5-0.7,0.7-1.9,0.7-3.8s-0.1-3.2-0.7-4s-1.5-1.2-3-1.2V378.4z"/>
	<path id="XMLID_804_" class="st1" d="M-338,382.2h-3.8v14.4h-4.9v-33.1h4.9v13.7h3.8v-13.7h4.9v33.1h-4.9V382.2z"/>
	<path id="XMLID_803_" class="st1" d="M-323.9,374.1l0.1,0.3h0.1l0.1-0.3l2.4-10.6h4.8l-4.9,19v14.1h-4.9v-14.1l-4.9-19h4.8
		L-323.9,374.1z"/>
	<path id="XMLID_800_" class="st1" d="M-307.3,396.6v-33.1h3.8c4.5,0,6.9,0.9,8.2,3.4c1.3,2.5,1.4,6.7,1.4,13.1s-0.2,10.6-1.4,13.1
		c-1.3,2.5-3.7,3.4-8.2,3.4h-3.8V396.6z M-302.4,391.7c1.7,0,2.6-0.2,3.1-1.8c0.2-0.8,0.4-1.9,0.5-3.5s0-3.7,0-6.4s0-4.8,0-6.4
		c0-1.5-0.2-2.7-0.5-3.5c-0.5-1.6-1.4-1.8-3.1-1.8V391.7z"/>
	<path id="XMLID_799_" class="st1" d="M-290.5,363.5h11.1v5h-6.3v8.7h4.5v5.3h-4.5v9.1h6.3v5h-11.1V363.5z"/>
	<path id="XMLID_798_" class="st1" d="M-268.7,372.3c0-1.1,0-2.3-0.4-3.2c-0.3-0.9-0.8-1.5-1.6-1.5c-1.3,0-1.7,1.4-1.7,3.3
		c0,1.1,0.5,2.3,1.2,3.6s1.7,2.6,2.6,4c1.1,1.7,2.2,3.4,3.1,5c0.9,1.7,1.4,3.4,1.4,5.2c0,2.2-0.4,4.3-1.4,5.8s-2.7,2.5-5.4,2.5
		c-3.1,0-4.9-1.2-5.8-3c-1-1.8-1.2-4.2-1.2-6.7l4.8-0.5c0,1.4,0,2.8,0.4,3.8c0.3,1.1,0.9,1.8,1.9,1.8c1.4,0,2-1.5,2-3.6
		c0-1.1-0.5-2.3-1.3-3.6c-0.4-0.6-0.8-1.3-1.3-2c-0.9-1.4-2-2.9-3.1-4.5c-1.1-1.7-1.9-3.4-2.4-5.1c-0.3-0.9-0.4-1.8-0.4-2.7
		c0-1.8,0.4-3.7,1.4-5.2c1-1.4,2.6-2.5,4.9-2.5c2.9,0,4.6,1.2,5.6,2.9c0.9,1.8,1.2,4,1.2,5.8L-268.7,372.3z"/>
	<path id="XMLID_797_" class="st1" d="M-261.3,363.5h4.9v33.1h-4.9V363.5z"/>
	<path id="XMLID_796_" class="st1" d="M-245,375.4v-5.1c0-0.9-0.2-1.5-0.6-2.1c-0.2-0.2-0.6-0.4-1-0.4c-0.9,0-1.3,0.6-1.4,1.2
		c-0.1,0.4-0.2,0.8-0.2,1.2v19.9c0,0.9,0.2,1.6,0.7,2.1c0.2,0.2,0.5,0.4,0.9,0.4c0.9,0,1.3-0.5,1.4-1.2c0.1-0.3,0.2-0.7,0.2-1.2v-6
		h-1.9v-4.1h6.8v16.5h-2.9l-0.6-1.6c-0.9,1.1-2.2,1.9-3.8,1.9s-2.7-0.4-3.5-1.1s-1.3-1.5-1.7-2.4c-0.4-1-0.6-2.2-0.5-3.6v-19.5
		c0-1.3,0.3-2.5,0.8-3.6c0.4-0.9,1-1.8,1.9-2.5s2.2-1.1,3.8-1.1s2.8,0.4,3.7,1.1s1.5,1.6,1.9,2.5c0.5,1,0.8,2.2,0.8,3.6v5.1
		L-245,375.4L-245,375.4z"/>
	<path id="XMLID_795_" class="st1" d="M-231.5,379.3l-0.4-1.5h-0.3v18.8h-4.5v-33.1h4.3l4.7,17.2l0.4,1.5h0.3v-18.8h4.5v33.1h-4.3
		L-231.5,379.3z"/>
	<path id="XMLID_794_" class="st1" d="M-200.3,368.5h-6.7v8.7h4.5v5h-4.5v14.4h-4.9v-33.1h11.6L-200.3,368.5L-200.3,368.5z"/>
	<path id="XMLID_791_" class="st1" d="M-185.7,389.8c0,1.3-0.3,2.6-0.8,3.6c-0.4,0.9-1,1.8-1.9,2.4c-0.9,0.7-2.1,1.1-3.7,1.1
		s-2.9-0.4-3.8-1.1c-0.9-0.7-1.5-1.5-1.9-2.4c-0.5-1-0.8-2.2-0.8-3.6v-19.5c0-1.3,0.3-2.5,0.8-3.6c0.4-0.9,1-1.8,1.9-2.5
		s2.2-1.1,3.8-1.1s2.8,0.4,3.7,1.1s1.5,1.6,1.9,2.5c0.5,1,0.8,2.2,0.8,3.6V389.8z M-190.6,370.3c0-0.9-0.2-1.5-0.6-2.1
		c-0.2-0.2-0.6-0.4-1-0.4c-0.9,0-1.3,0.6-1.4,1.2c-0.1,0.4-0.2,0.8-0.2,1.2v19.5c0,0.9,0.2,1.6,0.7,2.1c0.2,0.2,0.5,0.4,0.9,0.4
		c0.9,0,1.3-0.5,1.4-1.2c0.1-0.3,0.2-0.7,0.2-1.2L-190.6,370.3L-190.6,370.3z"/>
	<path id="XMLID_788_" class="st1" d="M-173.8,396.6l-2.5-13.9h-1.3v13.9h-4.9v-33.1h4.9c5.8,0,8.3,3.3,8.3,9.5
		c0,3.3-0.9,6.3-2.7,7.5l3.1,16h-4.9V396.6z M-177.6,378.1c0.7,0,1.6-0.1,2.3-0.7s1.3-1.8,1.3-4.2s-0.6-3.6-1.3-4.2
		s-1.6-0.7-2.3-0.7V378.1z"/>
	<path id="XMLID_787_" class="st1" d="M-159.3,363.5h11.1v5h-6.3v8.7h4.5v5.3h-4.5v9.1h6.3v5h-11.1V363.5z"/>
	<path id="XMLID_786_" class="st1" d="M-142.1,396.6h-4.8l5.4-17.4l-5.3-15.7h4.8l2.7,8.4l0.1,0.4h0.2l0.1-0.4l2.7-8.4h4.8
		l-5.3,15.7l5.4,17.4h-4.8l-2.8-9.9l-0.1-0.4h-0.2l-0.1,0.4L-142.1,396.6z"/>
	<path id="XMLID_783_" class="st1" d="M-129.3,363.5h4.9c2.1,0,4.2,0.5,5.8,2.1s2.7,4,2.7,7.8s-1.1,6.3-2.7,7.8s-3.7,2.2-5.8,2.2
		v13.2h-4.9V363.5z M-124.4,378.4c1.5,0,2.4-0.3,3-1c0.5-0.7,0.7-1.9,0.7-3.8s-0.1-3.2-0.7-4s-1.5-1.2-3-1.2V378.4z"/>
	<path id="XMLID_780_" class="st1" d="M-100.8,389.8c0,1.3-0.3,2.6-0.8,3.6c-0.4,0.9-1,1.8-1.9,2.4c-0.9,0.7-2.1,1.1-3.7,1.1
		s-2.9-0.4-3.8-1.1s-1.5-1.5-1.9-2.4c-0.5-1-0.8-2.2-0.8-3.6v-19.5c0-1.3,0.3-2.5,0.8-3.6c0.4-0.9,1-1.8,1.9-2.5s2.2-1.1,3.8-1.1
		s2.8,0.4,3.7,1.1c0.9,0.7,1.5,1.6,1.9,2.5c0.5,1,0.8,2.2,0.8,3.6V389.8z M-105.6,370.3c0-0.9-0.2-1.5-0.6-2.1
		c-0.2-0.2-0.6-0.4-1-0.4c-0.9,0-1.3,0.6-1.4,1.2c-0.1,0.4-0.2,0.8-0.2,1.2v19.5c0,0.9,0.2,1.6,0.7,2.1c0.2,0.2,0.5,0.4,0.9,0.4
		c0.9,0,1.3-0.5,1.4-1.2c0.1-0.3,0.2-0.7,0.2-1.2V370.3z"/>
	<path id="XMLID_779_" class="st1" d="M-324.9,428v-2.3c0-2.2,0.3-4.4,1.3-5.9c0.9-1.6,2.6-2.6,5.2-2.6c2.5,0,4.1,0.9,5.1,2.4
		s1.4,3.6,1.4,5.8c0,3.4-1.3,7.4-2.8,11.1c-1.6,3.8-3.5,7.2-4.8,9.3h7.7v4.8H-325v-4.8c1.5-2.3,2.8-4.6,4-7c1-2,2-4.2,2.8-6.5
		s1.3-4.5,1.4-6.6c0-0.9,0-1.9-0.3-2.7s-0.6-1.3-1.3-1.3c-0.7,0-1.1,0.5-1.3,1.2c-0.2,0.8-0.3,1.8-0.3,2.8v2.3L-324.9,428
		L-324.9,428z"/>
	<path id="XMLID_776_" class="st1" d="M-295.7,443.8c0,1.4-0.3,2.6-0.8,3.6c-0.4,0.9-1,1.8-1.9,2.4c-0.9,0.7-2.1,1.1-3.7,1.1
		s-2.9-0.4-3.8-1.1s-1.5-1.5-1.9-2.4c-0.5-1-0.8-2.2-0.8-3.6v-19.5c0-1.3,0.3-2.5,0.8-3.6c0.4-0.9,1-1.8,1.9-2.5s2.2-1.1,3.8-1.1
		s2.8,0.5,3.7,1.1c0.9,0.7,1.5,1.6,1.9,2.5c0.5,1,0.8,2.2,0.8,3.6V443.8z M-300.6,424.3c0-0.9-0.2-1.5-0.6-2.1
		c-0.2-0.2-0.6-0.4-1-0.4c-0.9,0-1.3,0.6-1.4,1.2c-0.1,0.4-0.2,0.8-0.2,1.2v19.5c0,0.9,0.2,1.6,0.7,2.1c0.2,0.2,0.5,0.4,0.9,0.4
		c0.9,0,1.3-0.5,1.4-1.2c0.1-0.3,0.2-0.7,0.2-1.2V424.3z"/>
	<path id="XMLID_775_" class="st1" d="M-293.7,424.6v-3.1c2-0.4,3.2-1.4,4.1-2.3c0.5-0.5,0.8-1.1,1.1-1.7h2.9v33.1h-4.9v-25.9h-3.2
		V424.6z"/>
	<path id="XMLID_774_" class="st1" d="M-282.5,428v-2.3c0-2.2,0.3-4.4,1.3-5.9c0.9-1.6,2.6-2.6,5.2-2.6c2.5,0,4.1,0.9,5.1,2.4
		s1.4,3.6,1.4,5.8c0,3.4-1.3,7.4-2.8,11.1c-1.6,3.8-3.5,7.2-4.8,9.3h7.7v4.8h-13.2v-4.8c1.5-2.3,2.8-4.6,4-7c1-2,2-4.2,2.8-6.5
		s1.3-4.5,1.4-6.6c0-0.9,0-1.9-0.3-2.7s-0.6-1.3-1.3-1.3c-0.7,0-1.1,0.5-1.3,1.2c-0.2,0.8-0.3,1.8-0.3,2.8v2.3L-282.5,428
		L-282.5,428z"/>
	<path id="XMLID_773_" class="st1" d="M-253.3,428.1l0.1,0.3h0.1l0.1-0.3l2.4-10.6h4.8l-4.9,19v14.1h-4.9v-14.1l-4.9-19h4.8
		L-253.3,428.1z"/>
	<path id="XMLID_772_" class="st1" d="M-243.6,417.5h11.1v5h-6.3v8.7h4.5v5.3h-4.5v9.1h6.3v5h-11.1V417.5z"/>
	<path id="XMLID_769_" class="st1" d="M-217.2,443.8c0,1.4-0.3,2.6-0.8,3.6c-0.4,0.9-1,1.8-1.9,2.4c-0.9,0.7-2.1,1.1-3.7,1.1
		s-2.9-0.4-3.8-1.1c-0.9-0.7-1.5-1.5-1.9-2.4c-0.5-1-0.8-2.2-0.8-3.6v-19.5c0-1.3,0.3-2.5,0.8-3.6c0.4-0.9,1-1.8,1.9-2.5
		s2.2-1.1,3.8-1.1s2.8,0.5,3.7,1.1c0.9,0.7,1.5,1.6,1.9,2.5c0.5,1,0.8,2.2,0.8,3.6V443.8z M-222,424.3c0-0.9-0.2-1.5-0.6-2.1
		c-0.2-0.2-0.6-0.4-1-0.4c-0.9,0-1.3,0.6-1.4,1.2c-0.1,0.4-0.2,0.8-0.2,1.2v19.5c0,0.9,0.2,1.6,0.7,2.1c0.2,0.2,0.5,0.4,0.9,0.4
		c0.9,0,1.3-0.5,1.4-1.2c0.1-0.3,0.2-0.7,0.2-1.2L-222,424.3L-222,424.3z"/>
	<path id="XMLID_768_" class="st1" d="M-205.8,426.3c0-1.1,0-2.3-0.4-3.2c-0.3-0.9-0.8-1.5-1.6-1.5c-1.3,0-1.7,1.3-1.7,3.3
		c0,1.1,0.5,2.3,1.2,3.6c0.7,1.3,1.7,2.6,2.6,4c1.1,1.7,2.2,3.4,3.1,5c0.9,1.7,1.4,3.4,1.4,5.2c0,2.2-0.4,4.3-1.4,5.8
		s-2.7,2.5-5.4,2.5c-3.1,0-4.9-1.2-5.8-3c-1-1.8-1.2-4.2-1.2-6.7l4.8-0.5c0,1.4,0,2.8,0.4,3.8c0.3,1.1,0.9,1.8,1.9,1.8
		c1.4,0,2-1.5,2-3.6c0-1.1-0.5-2.3-1.3-3.6c-0.4-0.6-0.8-1.3-1.3-2c-0.9-1.4-2-2.9-3.1-4.5c-1.1-1.7-1.9-3.4-2.4-5.1
		c-0.3-0.9-0.4-1.8-0.4-2.7c0-1.8,0.4-3.7,1.4-5.2c1-1.4,2.6-2.5,4.9-2.5c2.9,0,4.6,1.2,5.6,2.9c0.9,1.8,1.2,4,1.2,5.8L-205.8,426.3
		z"/>
	<path id="XMLID_767_" class="st1" d="M-185.5,417.5v26.3c0,1.4-0.3,2.6-0.8,3.6c-0.4,0.9-1,1.8-1.9,2.4c-0.9,0.7-2.1,1.1-3.7,1.1
		s-2.9-0.4-3.8-1.1c-0.9-0.7-1.5-1.5-1.9-2.4c-0.5-1-0.8-2.2-0.8-3.6v-26.3h4.9v26.3c0,0.9,0.2,1.6,0.7,2.1c0.2,0.2,0.5,0.4,0.9,0.4
		c0.9,0,1.3-0.5,1.4-1.2c0.1-0.3,0.2-0.7,0.2-1.2v-26.3L-185.5,417.5L-185.5,417.5z"/>
</g>
</svg>
