<?xml version="1.0" encoding="utf-8"?>
<!-- Generator: Adobe Illustrator 19.0.0, SVG Export Plug-In . SVG Version: 6.00 Build 0)  -->
<svg version="1.1" id="Layer_1" xmlns="http://www.w3.org/2000/svg" xmlns:xlink="http://www.w3.org/1999/xlink" x="0px" y="0px"
	 viewBox="-447 209 384 384" style="enable-background:new -447 209 384 384;" xml:space="preserve">
<style type="text/css">
	.st0{fill:#FFDE00;}
	.st1{fill:#231F20;}
</style>
<g id="XMLID_673_">
	<rect id="XMLID_765_" x="-447" y="209" class="st0" width="384" height="384"/>
</g>
<g id="XMLID_718_">
	<path id="XMLID_761_" class="st1" d="M-383.2,363.6h4.9c2.1,0,4.2,0.5,5.8,2.1s2.7,4,2.7,7.8s-1.1,6.3-2.7,7.8s-3.7,2.2-5.8,2.2
		v13.2h-4.9V363.6z M-378.3,378.5c1.5,0,2.4-0.3,3-1c0.5-0.7,0.7-1.9,0.7-3.8s-0.1-3.2-0.7-4s-1.5-1.2-3-1.2V378.5z"/>
	<path id="XMLID_758_" class="st1" d="M-368.7,396.7l5-33.1h5.9l5,33.1h-4.7l-0.9-6.8h-4.7l-0.9,6.8H-368.7z M-360.5,374.4l-0.1-0.9
		h-0.3l-0.1,0.9l-1.4,10.4h3.3L-360.5,374.4z"/>
	<path id="XMLID_757_" class="st1" d="M-337.9,385.3v4.5c0,1.3-0.3,2.6-0.8,3.6c-0.4,0.9-1,1.8-1.9,2.4c-0.9,0.7-2.1,1.1-3.7,1.1
		s-2.9-0.4-3.8-1.1s-1.5-1.5-1.9-2.4c-0.5-1-0.8-2.2-0.8-3.6v-19.5c0-1.3,0.3-2.5,0.8-3.6c0.4-0.9,1-1.8,1.9-2.5s2.2-1.1,3.8-1.1
		s2.8,0.4,3.7,1.1c0.9,0.7,1.5,1.6,1.9,2.5c0.5,1,0.8,2.2,0.8,3.6v4.5h-4.5v-4.5c0-0.9-0.2-1.5-0.7-2.1c-0.2-0.2-0.6-0.4-1.1-0.4
		c-0.9,0-1.3,0.6-1.5,1.2c-0.1,0.4-0.2,0.8-0.2,1.2v19.5c0,0.9,0.3,1.6,0.8,2.1c0.2,0.2,0.5,0.4,0.9,0.4c1,0,1.4-0.5,1.7-1.2
		c0.1-0.3,0.2-0.7,0.2-1.2v-4.5H-337.9z"/>
	<path id="XMLID_756_" class="st1" d="M-330.1,363.6v11.6h0.2l0.2-0.5l4-11h4.7l-4.5,10.9l5,22.2h-4.7l-3.4-14.4l-0.1-0.7h-0.1
		l-0.3,0.7l-1.1,2.7v11.7h-4.9v-33.1h5V363.6z"/>
	<path id="XMLID_753_" class="st1" d="M-319.4,396.7l5-33.1h5.9l5,33.1h-4.7l-0.9-6.8h-4.7l-0.9,6.8H-319.4z M-311.2,374.4l-0.1-0.9
		h-0.3l-0.1,0.9l-1.4,10.4h3.3L-311.2,374.4z"/>
	<path id="XMLID_752_" class="st1" d="M-293.4,375.5v-5.1c0-0.9-0.2-1.5-0.6-2.1c-0.2-0.2-0.6-0.4-1-0.4c-0.9,0-1.3,0.6-1.4,1.2
		c-0.1,0.4-0.2,0.8-0.2,1.2v19.9c0,0.9,0.2,1.6,0.7,2.1c0.2,0.2,0.5,0.4,0.9,0.4c0.9,0,1.3-0.5,1.4-1.2c0.1-0.3,0.2-0.7,0.2-1.2v-6
		h-1.9v-4.1h6.8v16.5h-2.9l-0.6-1.6c-0.9,1.1-2.2,1.9-3.8,1.9c-1.6,0-2.7-0.4-3.5-1.1s-1.3-1.5-1.7-2.4c-0.4-1-0.6-2.2-0.5-3.6
		v-19.5c0-1.3,0.3-2.5,0.8-3.6c0.4-0.9,1-1.8,1.9-2.5s2.2-1.1,3.8-1.1s2.8,0.4,3.7,1.1c0.9,0.7,1.5,1.6,1.9,2.5
		c0.5,1,0.8,2.2,0.8,3.6v5.1L-293.4,375.5L-293.4,375.5z"/>
	<path id="XMLID_751_" class="st1" d="M-285,363.6h11.1v5h-6.3v8.7h4.5v5.3h-4.5v9.1h6.3v5H-285V363.6z"/>
	<path id="XMLID_748_" class="st1" d="M-264.3,396.7v-33.1h3.8c4.5,0,6.9,0.9,8.2,3.4s1.4,6.7,1.4,13.1s-0.2,10.6-1.4,13.1
		c-1.3,2.5-3.7,3.4-8.2,3.4h-3.8V396.7z M-259.4,391.8c1.7,0,2.6-0.2,3.1-1.8c0.2-0.8,0.4-1.9,0.5-3.5s0-3.7,0-6.4s0-4.8,0-6.4
		c0-1.5-0.2-2.7-0.5-3.5c-0.5-1.6-1.4-1.8-3.1-1.8V391.8z"/>
	<path id="XMLID_747_" class="st1" d="M-247.6,363.6h11.1v5h-6.3v8.7h4.5v5.3h-4.5v9.1h6.3v5h-11.1V363.6z"/>
	<path id="XMLID_746_" class="st1" d="M-225.7,372.5c0-1.1,0-2.3-0.4-3.2c-0.3-0.9-0.8-1.5-1.6-1.5c-1.3,0-1.7,1.4-1.7,3.3
		c0,1.1,0.5,2.3,1.2,3.6s1.7,2.6,2.6,4c1.1,1.7,2.2,3.4,3.1,5c0.9,1.7,1.4,3.4,1.4,5.2c0,2.2-0.4,4.3-1.4,5.8s-2.7,2.5-5.4,2.5
		c-3.1,0-4.9-1.2-5.8-3c-1-1.8-1.2-4.2-1.2-6.7l4.8-0.5c0,1.4,0,2.8,0.4,3.8c0.3,1.1,0.9,1.8,1.9,1.8c1.4,0,2-1.5,2-3.6
		c0-1.1-0.5-2.3-1.3-3.6c-0.4-0.6-0.8-1.3-1.3-2c-0.9-1.4-2-2.9-3.1-4.5c-1.1-1.7-1.9-3.4-2.4-5.1c-0.3-0.9-0.4-1.8-0.4-2.7
		c0-1.8,0.4-3.7,1.4-5.2c1-1.4,2.6-2.5,4.9-2.5c2.9,0,4.6,1.2,5.6,2.9c0.9,1.8,1.2,4,1.2,5.8L-225.7,372.5z"/>
	<path id="XMLID_745_" class="st1" d="M-218.3,363.6h4.9v33.1h-4.9V363.6z"/>
	<path id="XMLID_744_" class="st1" d="M-202.1,375.5v-5.1c0-0.9-0.2-1.5-0.6-2.1c-0.2-0.2-0.6-0.4-1-0.4c-0.9,0-1.3,0.6-1.4,1.2
		c-0.1,0.4-0.2,0.8-0.2,1.2v19.9c0,0.9,0.2,1.6,0.7,2.1c0.2,0.2,0.5,0.4,0.9,0.4c0.9,0,1.3-0.5,1.4-1.2c0.1-0.3,0.2-0.7,0.2-1.2v-6
		h-1.9v-4.1h6.8v16.5h-2.9l-0.6-1.6c-0.9,1.1-2.2,1.9-3.8,1.9s-2.7-0.4-3.5-1.1s-1.3-1.5-1.7-2.4c-0.4-1-0.6-2.2-0.5-3.6v-19.5
		c0-1.3,0.3-2.5,0.8-3.6c0.4-0.9,1-1.8,1.9-2.5s2.2-1.1,3.8-1.1s2.8,0.4,3.7,1.1s1.5,1.6,1.9,2.5c0.5,1,0.8,2.2,0.8,3.6v5.1
		L-202.1,375.5L-202.1,375.5z"/>
	<path id="XMLID_743_" class="st1" d="M-188.5,379.4l-0.4-1.5h-0.3v18.8h-4.5v-33.1h4.3l4.7,17.2l0.4,1.5h0.3v-18.8h4.5v33.1h-4.3
		L-188.5,379.4z"/>
	<path id="XMLID_742_" class="st1" d="M-157.4,368.6h-6.7v8.7h4.5v5h-4.5v14.4h-4.9v-33.1h11.6L-157.4,368.6L-157.4,368.6z"/>
	<path id="XMLID_739_" class="st1" d="M-142.8,389.9c0,1.3-0.3,2.6-0.8,3.6c-0.4,0.9-1,1.8-1.9,2.4c-0.9,0.7-2.1,1.1-3.7,1.1
		s-2.9-0.4-3.8-1.1c-0.9-0.7-1.5-1.5-1.9-2.4c-0.5-1-0.8-2.2-0.8-3.6v-19.5c0-1.3,0.3-2.5,0.8-3.6c0.4-0.9,1-1.8,1.9-2.5
		s2.2-1.1,3.8-1.1s2.8,0.4,3.7,1.1s1.5,1.6,1.9,2.5c0.5,1,0.8,2.2,0.8,3.6V389.9z M-147.6,370.4c0-0.9-0.2-1.5-0.6-2.1
		c-0.2-0.2-0.6-0.4-1-0.4c-0.9,0-1.3,0.6-1.4,1.2c-0.1,0.4-0.2,0.8-0.2,1.2v19.5c0,0.9,0.2,1.6,0.7,2.1c0.2,0.2,0.5,0.4,0.9,0.4
		c0.9,0,1.3-0.5,1.4-1.2c0.1-0.3,0.2-0.7,0.2-1.2L-147.6,370.4L-147.6,370.4z"/>
	<path id="XMLID_736_" class="st1" d="M-130.8,396.7l-2.5-13.9h-1.3v13.9h-4.9v-33.1h4.9c5.8,0,8.3,3.3,8.3,9.5
		c0,3.3-0.9,6.3-2.7,7.5l3.1,16h-4.9V396.7z M-134.6,378.2c0.7,0,1.6-0.1,2.3-0.7s1.3-1.8,1.3-4.2s-0.6-3.6-1.3-4.2
		s-1.6-0.7-2.3-0.7V378.2z"/>
	<path id="XMLID_735_" class="st1" d="M-351.6,417.6h4.9v33.1h-4.9V417.6z"/>
	<path id="XMLID_734_" class="st1" d="M-338,433.4l-0.4-1.5h-0.3v18.8h-4.5v-33.1h4.3l4.7,17.2l0.4,1.5h0.3v-18.8h4.5v33.1h-4.3
		L-338,433.4z"/>
	<path id="XMLID_733_" class="st1" d="M-317.3,426.5c0-1.1,0-2.3-0.4-3.2c-0.3-0.9-0.8-1.5-1.6-1.5c-1.3,0-1.7,1.3-1.7,3.3
		c0,1.1,0.5,2.3,1.2,3.6c0.7,1.3,1.7,2.6,2.6,4c1.1,1.7,2.2,3.4,3.1,5c0.9,1.7,1.4,3.4,1.4,5.2c0,2.2-0.4,4.3-1.4,5.8
		s-2.7,2.5-5.4,2.5c-3.1,0-4.9-1.2-5.8-3c-1-1.8-1.2-4.2-1.2-6.7l4.8-0.5c0,1.4,0,2.8,0.4,3.8c0.3,1.1,0.9,1.8,1.9,1.8
		c1.4,0,2-1.5,2-3.6c0-1.1-0.5-2.3-1.3-3.6c-0.4-0.6-0.8-1.3-1.3-2c-0.9-1.4-2-2.9-3.1-4.5c-1.1-1.7-1.9-3.4-2.4-5.1
		c-0.3-0.9-0.4-1.8-0.4-2.7c0-1.8,0.4-3.7,1.4-5.2c1-1.4,2.6-2.5,4.9-2.5c2.9,0,4.6,1.2,5.6,2.9c0.9,1.8,1.2,4,1.2,5.8L-317.3,426.5
		z"/>
	<path id="XMLID_732_" class="st1" d="M-311.7,422.6v-5h14v5h-4.6v28.1h-4.9v-28.1H-311.7z"/>
	<path id="XMLID_729_" class="st1" d="M-298.1,450.7l5-33.1h5.9l5,33.1h-4.7l-0.9-6.8h-4.7l-0.9,6.8H-298.1z M-289.9,428.4l-0.1-0.9
		h-0.3l-0.1,0.9l-1.4,10.4h3.3L-289.9,428.4z"/>
	<path id="XMLID_728_" class="st1" d="M-274.8,433.4l-0.4-1.5h-0.3v18.8h-4.5v-33.1h4.3l4.7,17.2l0.4,1.5h0.3v-18.8h4.5v33.1h-4.3
		L-274.8,433.4z"/>
	<path id="XMLID_727_" class="st1" d="M-263.8,422.6v-5h14v5h-4.6v28.1h-4.9v-28.1H-263.8z"/>
	<path id="XMLID_726_" class="st1" d="M-228.3,439.3v4.5c0,1.4-0.3,2.6-0.8,3.6c-0.4,0.9-1,1.8-1.9,2.4c-0.9,0.7-2.1,1.1-3.7,1.1
		s-2.9-0.4-3.8-1.1c-0.9-0.7-1.5-1.5-1.9-2.4c-0.5-1-0.8-2.2-0.8-3.6v-19.5c0-1.3,0.3-2.5,0.8-3.6c0.4-0.9,1-1.8,1.9-2.5
		s2.2-1.1,3.8-1.1s2.8,0.5,3.7,1.1c0.9,0.7,1.5,1.6,1.9,2.5c0.5,1,0.8,2.2,0.8,3.6v4.5h-4.5v-4.5c0-0.9-0.2-1.5-0.7-2.1
		c-0.2-0.2-0.6-0.4-1.1-0.4c-0.9,0-1.3,0.6-1.5,1.2c-0.1,0.4-0.2,0.8-0.2,1.2v19.5c0,0.9,0.3,1.6,0.8,2.1c0.2,0.2,0.5,0.4,0.9,0.4
		c1,0,1.4-0.5,1.7-1.2c0.1-0.3,0.2-0.7,0.2-1.2v-4.5H-228.3z"/>
	<path id="XMLID_723_" class="st1" d="M-212.8,443.9c0,1.4-0.3,2.6-0.8,3.6c-0.4,0.9-1,1.8-1.9,2.4c-0.9,0.7-2.1,1.1-3.7,1.1
		s-2.9-0.4-3.8-1.1c-0.9-0.7-1.5-1.5-1.9-2.4c-0.5-1-0.8-2.2-0.8-3.6v-19.5c0-1.3,0.3-2.5,0.8-3.6c0.4-0.9,1-1.8,1.9-2.5
		s2.2-1.1,3.8-1.1s2.8,0.5,3.7,1.1c0.9,0.7,1.5,1.6,1.9,2.5c0.5,1,0.8,2.2,0.8,3.6V443.9z M-217.6,424.4c0-0.9-0.2-1.5-0.6-2.1
		c-0.2-0.2-0.6-0.4-1-0.4c-0.9,0-1.3,0.6-1.4,1.2c-0.1,0.4-0.2,0.8-0.2,1.2v19.5c0,0.9,0.2,1.6,0.7,2.1c0.2,0.2,0.5,0.4,0.9,0.4
		c0.9,0,1.3-0.5,1.4-1.2c0.1-0.3,0.2-0.7,0.2-1.2L-217.6,424.4L-217.6,424.4z"/>
	<path id="XMLID_722_" class="st1" d="M-197.9,422.6h-6.7v8.7h4.5v5h-4.5v14.4h-4.9v-33.1h11.6L-197.9,422.6L-197.9,422.6z"/>
	<path id="XMLID_721_" class="st1" d="M-184.4,422.6h-6.7v8.7h4.5v5h-4.5v14.4h-4.9v-33.1h11.6L-184.4,422.6L-184.4,422.6z"/>
	<path id="XMLID_720_" class="st1" d="M-182.4,417.6h11.1v5h-6.3v8.7h4.5v5.3h-4.5v9.1h6.3v5h-11.1V417.6z"/>
	<path id="XMLID_719_" class="st1" d="M-168.6,417.6h11.1v5h-6.3v8.7h4.5v5.3h-4.5v9.1h6.3v5h-11.1V417.6z"/>
</g>
</svg>
