<?xml version="1.0" encoding="utf-8"?>
<!-- Generator: Adobe Illustrator 19.0.0, SVG Export Plug-In . SVG Version: 6.00 Build 0)  -->
<svg version="1.1" id="Layer_1" xmlns="http://www.w3.org/2000/svg" xmlns:xlink="http://www.w3.org/1999/xlink" x="0px" y="0px"
	 viewBox="-447 209 384 384" style="enable-background:new -447 209 384 384;" xml:space="preserve">
<style type="text/css">
	.st0{fill:#FFDE00;}
	.st1{fill:#231F20;}
</style>
<g id="XMLID_530_">
	<rect id="XMLID_674_" x="-447" y="209" class="st0" width="384" height="384"/>
</g>
<g id="XMLID_569_">
	<path id="XMLID_670_" class="st1" d="M-389.2,336.4h4.9c2.1,0,4.2,0.5,5.8,2.1c1.6,1.5,2.7,4,2.7,7.8s-1.1,6.3-2.7,7.8
		s-3.7,2.2-5.8,2.2v13.2h-4.9V336.4z M-384.3,351.3c1.5,0,2.4-0.3,3-1c0.5-0.7,0.7-1.9,0.7-3.8c0-1.8-0.1-3.1-0.7-4
		c-0.5-0.8-1.5-1.2-3-1.2V351.3z"/>
	<path id="XMLID_667_" class="st1" d="M-364.6,369.5l-2.5-13.9h-1.3v13.9h-4.9v-33.1h4.9c5.8,0,8.3,3.3,8.3,9.5
		c0,3.3-0.9,6.3-2.7,7.5l3.1,16h-4.9V369.5z M-368.5,351.1c0.7,0,1.6-0.1,2.3-0.7c0.7-0.6,1.3-1.8,1.3-4.2s-0.6-3.6-1.3-4.2
		c-0.7-0.6-1.6-0.7-2.3-0.7V351.1z"/>
	<path id="XMLID_664_" class="st1" d="M-344.4,362.7c0,1.4-0.3,2.6-0.8,3.6c-0.4,0.9-1,1.8-1.9,2.4c-0.9,0.7-2.1,1.1-3.7,1.1
		s-2.9-0.4-3.8-1.1s-1.5-1.5-1.9-2.4c-0.5-1-0.8-2.2-0.8-3.6v-19.5c0-1.3,0.3-2.5,0.8-3.6c0.4-0.9,1-1.8,1.9-2.5s2.2-1.1,3.8-1.1
		s2.8,0.5,3.7,1.1c0.9,0.7,1.5,1.6,1.9,2.5c0.5,1,0.8,2.2,0.8,3.6V362.7z M-349.3,343.2c0-0.9-0.2-1.5-0.6-2.1
		c-0.2-0.2-0.6-0.4-1-0.4c-0.9,0-1.3,0.6-1.4,1.2c-0.1,0.4-0.2,0.8-0.2,1.2v19.5c0,0.9,0.2,1.6,0.7,2.1c0.2,0.2,0.5,0.4,0.9,0.4
		c0.9,0,1.3-0.5,1.4-1.2c0.1-0.3,0.2-0.7,0.2-1.2V343.2z"/>
	<path id="XMLID_661_" class="st1" d="M-341.1,336.4h4.9c2.1,0,4.2,0.5,5.8,2.1c1.6,1.5,2.7,4,2.7,7.8s-1.1,6.3-2.7,7.8
		s-3.7,2.2-5.8,2.2v13.2h-4.9V336.4z M-336.3,351.3c1.5,0,2.4-0.3,3-1c0.5-0.7,0.7-1.9,0.7-3.8c0-1.8-0.1-3.1-0.7-4
		c-0.5-0.8-1.5-1.2-3-1.2V351.3z"/>
	<path id="XMLID_658_" class="st1" d="M-312.7,362.7c0,1.4-0.3,2.6-0.8,3.6c-0.4,0.9-1,1.8-1.9,2.4c-0.9,0.7-2.1,1.1-3.7,1.1
		s-2.9-0.4-3.8-1.1s-1.5-1.5-1.9-2.4c-0.5-1-0.8-2.2-0.8-3.6v-19.5c0-1.3,0.3-2.5,0.8-3.6c0.4-0.9,1-1.8,1.9-2.5s2.2-1.1,3.8-1.1
		s2.8,0.5,3.7,1.1c0.9,0.7,1.5,1.6,1.9,2.5c0.5,1,0.8,2.2,0.8,3.6V362.7z M-317.5,343.2c0-0.9-0.2-1.5-0.6-2.1
		c-0.2-0.2-0.6-0.4-1-0.4c-0.9,0-1.3,0.6-1.4,1.2c-0.1,0.4-0.2,0.8-0.2,1.2v19.5c0,0.9,0.2,1.6,0.7,2.1c0.2,0.2,0.5,0.4,0.9,0.4
		c0.9,0,1.3-0.5,1.4-1.2c0.1-0.3,0.2-0.7,0.2-1.2V343.2z"/>
	<path id="XMLID_657_" class="st1" d="M-301.3,345.3c0-1.1,0-2.3-0.4-3.2c-0.3-0.9-0.8-1.5-1.6-1.5c-1.3,0-1.7,1.3-1.7,3.3
		c0,1.1,0.5,2.3,1.2,3.6s1.7,2.6,2.6,4c1.1,1.7,2.2,3.4,3.1,5c0.9,1.7,1.4,3.4,1.4,5.2c0,2.2-0.4,4.3-1.4,5.8s-2.7,2.5-5.4,2.5
		c-3.1,0-4.9-1.2-5.8-3c-1-1.8-1.2-4.2-1.2-6.7l4.8-0.5c0,1.4,0,2.8,0.4,3.8c0.3,1.1,0.9,1.8,1.9,1.8c1.4,0,2-1.5,2-3.6
		c0-1.1-0.5-2.3-1.3-3.6c-0.4-0.6-0.8-1.3-1.3-2c-0.9-1.3-2-2.9-3.1-4.5c-1.1-1.7-1.9-3.4-2.4-5.1c-0.3-0.9-0.4-1.8-0.4-2.7
		c0-1.8,0.4-3.7,1.4-5.2c1-1.4,2.6-2.5,4.9-2.5c2.9,0,4.6,1.2,5.6,2.9c0.9,1.8,1.2,4,1.2,5.8L-301.3,345.3z"/>
	<path id="XMLID_654_" class="st1" d="M-295.3,369.5l5-33.1h5.9l5,33.1h-4.7l-0.9-6.7h-4.7l-0.9,6.7H-295.3z M-287.1,347.2l-0.1-0.9
		h-0.3l-0.1,0.9l-1.4,10.4h3.3L-287.1,347.2z"/>
	<path id="XMLID_653_" class="st1" d="M-277.1,336.4h4.9V365h6.4v4.5h-11.3V336.4z"/>
	<path id="XMLID_652_" class="st1" d="M-245.3,341.4h-6.7v8.7h4.5v5h-4.5v14.4h-4.9v-33.1h11.6L-245.3,341.4L-245.3,341.4z"/>
	<path id="XMLID_649_" class="st1" d="M-230.7,362.7c0,1.4-0.3,2.6-0.8,3.6c-0.4,0.9-1,1.8-1.9,2.4c-0.9,0.7-2.1,1.1-3.7,1.1
		s-2.9-0.4-3.8-1.1c-0.9-0.7-1.5-1.5-1.9-2.4c-0.5-1-0.8-2.2-0.8-3.6v-19.5c0-1.3,0.3-2.5,0.8-3.6c0.4-0.9,1-1.8,1.9-2.5
		s2.2-1.1,3.8-1.1s2.8,0.5,3.7,1.1c0.9,0.7,1.5,1.6,1.9,2.5c0.5,1,0.8,2.2,0.8,3.6V362.7z M-235.6,343.2c0-0.9-0.2-1.5-0.6-2.1
		c-0.2-0.2-0.6-0.4-1-0.4c-0.9,0-1.3,0.6-1.4,1.2c-0.1,0.4-0.2,0.8-0.2,1.2v19.5c0,0.9,0.2,1.6,0.7,2.1c0.2,0.2,0.5,0.4,0.9,0.4
		c0.9,0,1.3-0.5,1.4-1.2c0.1-0.3,0.2-0.7,0.2-1.2L-235.6,343.2L-235.6,343.2z"/>
	<path id="XMLID_646_" class="st1" d="M-218.8,369.5l-2.5-13.9h-1.3v13.9h-4.9v-33.1h4.9c5.8,0,8.3,3.3,8.3,9.5
		c0,3.3-0.9,6.3-2.7,7.5l3.1,16h-4.9V369.5z M-222.6,351.1c0.7,0,1.6-0.1,2.3-0.7s1.3-1.8,1.3-4.2s-0.6-3.6-1.3-4.2
		s-1.6-0.7-2.3-0.7V351.1z"/>
	<path id="XMLID_643_" class="st1" d="M-191.6,362.7c0,1.4-0.3,2.6-0.8,3.6c-0.4,0.9-1,1.8-1.9,2.4c-0.9,0.7-2.1,1.1-3.7,1.1
		s-2.9-0.4-3.8-1.1c-0.9-0.7-1.5-1.5-1.9-2.4c-0.5-1-0.8-2.2-0.8-3.6v-19.5c0-1.3,0.3-2.5,0.8-3.6c0.4-0.9,1-1.8,1.9-2.5
		s2.2-1.1,3.8-1.1s2.8,0.5,3.7,1.1c0.9,0.7,1.5,1.6,1.9,2.5c0.5,1,0.8,2.2,0.8,3.6V362.7z M-196.5,343.2c0-0.9-0.2-1.5-0.6-2.1
		c-0.2-0.2-0.6-0.4-1-0.4c-0.9,0-1.3,0.6-1.4,1.2c-0.1,0.4-0.2,0.8-0.2,1.2v19.5c0,0.9,0.2,1.6,0.7,2.1c0.2,0.2,0.5,0.4,0.9,0.4
		c0.9,0,1.3-0.5,1.4-1.2c0.1-0.3,0.2-0.7,0.2-1.2L-196.5,343.2L-196.5,343.2z"/>
	<path id="XMLID_642_" class="st1" d="M-183.2,352.3l-0.4-1.5h-0.3v18.8h-4.5v-33.2h4.3l4.7,17.2l0.4,1.5h0.3v-18.7h4.5v33.1h-4.3
		L-183.2,352.3z"/>
	<path id="XMLID_641_" class="st1" d="M-170.6,336.4h4.9V365h6.4v4.5h-11.3L-170.6,336.4L-170.6,336.4z"/>
	<path id="XMLID_640_" class="st1" d="M-157.3,336.4h4.9v33.1h-4.9V336.4z"/>
	<path id="XMLID_639_" class="st1" d="M-143.7,352.3l-0.4-1.5h-0.3v18.8h-4.5v-33.2h4.3l4.7,17.2l0.4,1.5h0.3v-18.7h4.5v33.1h-4.3
		L-143.7,352.3z"/>
	<path id="XMLID_638_" class="st1" d="M-131,336.4h11.1v5h-6.3v8.7h4.5v5.3h-4.5v9.1h6.3v5H-131V336.4z"/>
	<path id="XMLID_634_" class="st1" d="M-392.2,423.5v-33.1h4.3c2.9,0,5.1,0.5,6.6,1.9s2.2,3.6,2.2,6.8c0,1.6-0.1,2.7-0.6,3.8
		c-0.5,1.1-1.3,2-2.4,3c1.2,0.7,2.1,1.9,2.8,4c0.4,1,0.5,2.4,0.5,4c0,2.5-0.5,4.7-1.6,6.4s-3.1,2.8-5.9,3h-5.9V423.5z M-387.3,404.1
		c0.4,0,1.3,0,2.2-0.5c0.8-0.5,1.4-1.6,1.4-3.9s-0.6-3.4-1.4-3.9s-1.8-0.5-2.2-0.5V404.1z M-387.3,418.7c0.4,0,1.3,0.1,2.2-0.5
		c0.8-0.6,1.4-1.9,1.4-4.6s-0.6-4-1.4-4.6s-1.8-0.5-2.2-0.5V418.7z"/>
	<path id="XMLID_631_" class="st1" d="M-363.2,416.7c0,1.4-0.3,2.6-0.8,3.6c-0.4,0.9-1,1.8-1.9,2.4c-0.9,0.7-2.1,1.1-3.7,1.1
		s-2.9-0.4-3.8-1.1s-1.5-1.5-1.9-2.4c-0.5-1-0.8-2.2-0.8-3.6v-19.5c0-1.3,0.3-2.5,0.8-3.6c0.4-0.9,1-1.8,1.9-2.5s2.2-1.1,3.8-1.1
		s2.8,0.5,3.7,1.1c0.9,0.7,1.5,1.6,1.9,2.5c0.5,1,0.8,2.2,0.8,3.6V416.7z M-368,397.2c0-0.9-0.2-1.5-0.6-2.1c-0.2-0.2-0.6-0.4-1-0.4
		c-0.9,0-1.3,0.6-1.4,1.2c-0.1,0.4-0.2,0.8-0.2,1.2v19.5c0,0.9,0.2,1.6,0.7,2.1c0.2,0.2,0.5,0.4,0.9,0.4c0.9,0,1.3-0.5,1.4-1.2
		c0.1-0.3,0.2-0.7,0.2-1.2V397.2z"/>
	<path id="XMLID_628_" class="st1" d="M-347.2,416.7c0,1.4-0.3,2.6-0.8,3.6c-0.4,0.9-1,1.8-1.9,2.4c-0.9,0.7-2.1,1.1-3.7,1.1
		s-2.9-0.4-3.8-1.1s-1.5-1.5-1.9-2.4c-0.5-1-0.8-2.2-0.8-3.6v-19.5c0-1.3,0.3-2.5,0.8-3.6c0.4-0.9,1-1.8,1.9-2.5s2.2-1.1,3.8-1.1
		s2.8,0.5,3.7,1.1c0.9,0.7,1.5,1.6,1.9,2.5c0.5,1,0.8,2.2,0.8,3.6V416.7z M-352.1,397.2c0-0.9-0.2-1.5-0.6-2.1
		c-0.2-0.2-0.6-0.4-1-0.4c-0.9,0-1.3,0.6-1.4,1.2c-0.1,0.4-0.2,0.8-0.2,1.2v19.5c0,0.9,0.2,1.6,0.7,2.1c0.2,0.2,0.5,0.4,0.9,0.4
		c0.9,0,1.3-0.5,1.4-1.2c0.1-0.3,0.2-0.7,0.2-1.2V397.2z"/>
	<path id="XMLID_627_" class="st1" d="M-339.1,390.4V402h0.2l0.2-0.5l4-11h4.7l-4.5,10.9l5,22.2h-4.7l-3.4-14.4l-0.1-0.7h-0.1
		l-0.3,0.7l-1.1,2.7v11.7h-4.9v-33.2H-339.1z"/>
	<path id="XMLID_626_" class="st1" d="M-327.1,390.4h4.9v33.1h-4.9V390.4z"/>
	<path id="XMLID_625_" class="st1" d="M-313.5,406.3l-0.4-1.5h-0.3v18.8h-4.5v-33.2h4.3l4.7,17.2l0.4,1.5h0.3v-18.7h4.5v33.1h-4.3
		L-313.5,406.3z"/>
	<path id="XMLID_624_" class="st1" d="M-293.1,402.3v-5.1c0-0.9-0.2-1.5-0.6-2.1c-0.2-0.2-0.6-0.4-1-0.4c-0.9,0-1.3,0.6-1.4,1.2
		c-0.1,0.4-0.2,0.8-0.2,1.2V417c0,0.9,0.2,1.6,0.7,2.1c0.2,0.2,0.5,0.4,0.9,0.4c0.9,0,1.3-0.5,1.4-1.2c0.1-0.3,0.2-0.7,0.2-1.2v-6
		h-1.9V407h6.8v16.5h-2.9l-0.6-1.6c-0.9,1.1-2.2,1.9-3.8,1.9c-1.6,0-2.7-0.4-3.5-1.1s-1.3-1.5-1.7-2.4c-0.4-1-0.6-2.2-0.5-3.6v-19.5
		c0-1.3,0.3-2.5,0.8-3.6c0.4-0.9,1-1.8,1.9-2.5s2.2-1.1,3.8-1.1s2.8,0.5,3.7,1.1c0.9,0.7,1.5,1.6,1.9,2.5c0.5,1,0.8,2.2,0.8,3.6v5.1
		L-293.1,402.3L-293.1,402.3z"/>
	<path id="XMLID_621_" class="st1" d="M-277.7,390.4h4.9c2.1,0,4.2,0.5,5.8,2.1c1.6,1.5,2.7,4,2.7,7.8s-1.1,6.3-2.7,7.8
		s-3.7,2.2-5.8,2.2v13.2h-4.9V390.4z M-272.9,405.3c1.5,0,2.4-0.3,3-1c0.5-0.7,0.7-1.9,0.7-3.8s-0.1-3.1-0.7-4
		c-0.5-0.8-1.5-1.2-3-1.2V405.3z"/>
	<path id="XMLID_620_" class="st1" d="M-261.9,390.4h4.9V419h6.4v4.5h-11.3V390.4z"/>
	<path id="XMLID_617_" class="st1" d="M-249.5,423.5l5-33.1h5.9l5,33.1h-4.7l-0.9-6.8h-4.7l-0.9,6.8H-249.5z M-241.3,401.2l-0.1-0.9
		h-0.3l-0.1,0.9l-1.4,10.4h3.3L-241.3,401.2z"/>
	<path id="XMLID_616_" class="st1" d="M-234,395.4v-5h14v5h-4.6v28.1h-4.9v-28.1H-234z"/>
	<path id="XMLID_615_" class="st1" d="M-206.5,395.4h-6.7v8.7h4.5v5h-4.5v14.4h-4.9v-33.1h11.6L-206.5,395.4L-206.5,395.4z"/>
	<path id="XMLID_612_" class="st1" d="M-191.9,416.7c0,1.4-0.3,2.6-0.8,3.6c-0.4,0.9-1,1.8-1.9,2.4c-0.9,0.7-2.1,1.1-3.7,1.1
		s-2.9-0.4-3.8-1.1c-0.9-0.7-1.5-1.5-1.9-2.4c-0.5-1-0.8-2.2-0.8-3.6v-19.5c0-1.3,0.3-2.5,0.8-3.6c0.4-0.9,1-1.8,1.9-2.5
		s2.2-1.1,3.8-1.1s2.8,0.5,3.7,1.1c0.9,0.7,1.5,1.6,1.9,2.5c0.5,1,0.8,2.2,0.8,3.6V416.7z M-196.8,397.2c0-0.9-0.2-1.5-0.6-2.1
		c-0.2-0.2-0.6-0.4-1-0.4c-0.9,0-1.3,0.6-1.4,1.2c-0.1,0.4-0.2,0.8-0.2,1.2v19.5c0,0.9,0.2,1.6,0.7,2.1c0.2,0.2,0.5,0.4,0.9,0.4
		c0.9,0,1.3-0.5,1.4-1.2c0.1-0.3,0.2-0.7,0.2-1.2L-196.8,397.2L-196.8,397.2z"/>
	<path id="XMLID_609_" class="st1" d="M-179.9,423.5l-2.5-13.9h-1.3v13.9h-4.9v-33.1h4.9c5.8,0,8.3,3.3,8.3,9.5
		c0,3.3-0.9,6.3-2.7,7.5l3.1,16h-4.9V423.5z M-183.8,405.1c0.7,0,1.6-0.1,2.3-0.7s1.3-1.8,1.3-4.2c0-2.3-0.6-3.6-1.3-4.2
		s-1.6-0.7-2.3-0.7V405.1z"/>
	<path id="XMLID_608_" class="st1" d="M-164.3,423.5l-3.1-20.8l-0.2-1.4h-0.3v22.2h-4.5v-33.1h5.9l2.9,15.1l0.2,1.8h0.1l0.2-1.8
		l2.9-15.1h5.9v33.1h-4.5v-22.2h-0.3l-0.2,1.4l-3.1,20.8L-164.3,423.5L-164.3,423.5z"/>
	<path id="XMLID_605_" class="st1" d="M-131,416.7c0,1.4-0.3,2.6-0.8,3.6c-0.4,0.9-1,1.8-1.9,2.4c-0.9,0.7-2.1,1.1-3.7,1.1
		s-2.9-0.4-3.8-1.1c-0.9-0.7-1.5-1.5-1.9-2.4c-0.5-1-0.8-2.2-0.8-3.6v-19.5c0-1.3,0.3-2.5,0.8-3.6c0.4-0.9,1-1.8,1.9-2.5
		s2.2-1.1,3.8-1.1s2.8,0.5,3.7,1.1c0.9,0.7,1.5,1.6,1.9,2.5c0.5,1,0.8,2.2,0.8,3.6V416.7z M-135.9,397.2c0-0.9-0.2-1.5-0.6-2.1
		c-0.2-0.2-0.6-0.4-1-0.4c-0.9,0-1.3,0.6-1.4,1.2c-0.1,0.4-0.2,0.8-0.2,1.2v19.5c0,0.9,0.2,1.6,0.7,2.1c0.2,0.2,0.5,0.4,0.9,0.4
		c0.9,0,1.3-0.5,1.4-1.2c0.1-0.3,0.2-0.7,0.2-1.2L-135.9,397.2L-135.9,397.2z"/>
	<path id="XMLID_604_" class="st1" d="M-116.2,395.4h-6.7v8.7h4.5v5h-4.5v14.4h-4.9v-33.1h11.6V395.4z"/>
	<path id="XMLID_603_" class="st1" d="M-391.7,444.4V456h0.2l0.2-0.5l4-11h4.7l-4.5,10.9l5,22.2h-4.7l-3.4-14.4l-0.1-0.7h-0.1
		l-0.3,0.7l-1.1,2.7v11.7h-4.9v-33.2H-391.7z"/>
	<path id="XMLID_600_" class="st1" d="M-381.1,477.5l5-33.1h5.9l5,33.1h-4.7l-0.9-6.8h-4.7l-0.9,6.8H-381.1z M-372.8,455.2l-0.1-0.9
		h-0.3l-0.1,0.9l-1.4,10.4h3.3L-372.8,455.2z"/>
	<path id="XMLID_599_" class="st1" d="M-362.9,444.4h4.9V473h6.4v4.5h-11.3V444.4z"/>
	<path id="XMLID_596_" class="st1" d="M-350.5,477.5l5-33.1h5.9l5,33.1h-4.7l-0.9-6.8h-4.7l-0.9,6.8H-350.5z M-342.3,455.2l-0.1-0.9
		h-0.3l-0.1,0.9l-1.4,10.4h3.3L-342.3,455.2z"/>
	<path id="XMLID_595_" class="st1" d="M-324.7,453.3c0-1.1,0-2.3-0.4-3.2c-0.3-0.9-0.8-1.5-1.6-1.5c-1.3,0-1.7,1.3-1.7,3.3
		c0,1.1,0.5,2.3,1.2,3.6c0.7,1.3,1.7,2.6,2.6,4c1.1,1.7,2.2,3.4,3.1,5c0.9,1.7,1.4,3.4,1.4,5.2c0,2.2-0.4,4.3-1.4,5.8
		s-2.7,2.5-5.4,2.5c-3.1,0-4.9-1.2-5.8-3c-1-1.8-1.2-4.2-1.2-6.7l4.8-0.5c0,1.4,0,2.8,0.4,3.8c0.3,1.1,0.9,1.8,1.9,1.8
		c1.4,0,2-1.5,2-3.6c0-1.1-0.5-2.3-1.3-3.6c-0.4-0.6-0.8-1.3-1.3-2c-0.9-1.4-2-2.9-3.1-4.5c-1.1-1.7-1.9-3.4-2.4-5.1
		c-0.3-0.9-0.4-1.8-0.4-2.7c0-1.8,0.4-3.7,1.4-5.2c1-1.4,2.6-2.5,4.9-2.5c2.9,0,4.6,1.2,5.6,2.9c0.9,1.8,1.2,4,1.2,5.8L-324.7,453.3
		z"/>
	<path id="XMLID_592_" class="st1" d="M-318.7,477.5l5-33.1h5.9l5,33.1h-4.7l-0.9-6.8h-4.7l-0.9,6.8H-318.7z M-310.5,455.2l-0.1-0.9
		h-0.3l-0.1,0.9l-1.4,10.4h3.3L-310.5,455.2z"/>
	<path id="XMLID_591_" class="st1" d="M-303.2,449.4v-5h14v5h-4.6v28.1h-4.9v-28.1H-303.2z"/>
	<path id="XMLID_588_" class="st1" d="M-289.6,477.5l5-33.1h5.9l5,33.1h-4.7l-0.9-6.8h-4.7l-0.9,6.8H-289.6z M-281.4,455.2l-0.1-0.9
		h-0.3l-0.1,0.9l-1.4,10.4h3.3L-281.4,455.2z"/>
	<path id="XMLID_587_" class="st1" d="M-263.4,477.5l-3.1-20.8l-0.2-1.4h-0.3v22.2h-4.5v-33.1h5.9l2.9,15.1l0.2,1.8h0.1l0.2-1.8
		l2.9-15.1h5.9v33.1h-4.5v-22.2h-0.3l-0.2,1.4l-3.1,20.8L-263.4,477.5L-263.4,477.5z"/>
	<path id="XMLID_584_" class="st1" d="M-251,477.5l5-33.1h5.9l5,33.1h-4.7l-0.9-6.8h-4.7l-0.9,6.8H-251z M-242.8,455.2l-0.1-0.9
		h-0.3l-0.1,0.9l-1.4,10.4h3.3L-242.8,455.2z"/>
	<path id="XMLID_583_" class="st1" d="M-217.3,463.1h-3.8v14.4h-4.9v-33.1h4.9v13.7h3.8v-13.7h4.9v33.1h-4.9V463.1z"/>
	<path id="XMLID_580_" class="st1" d="M-196.2,470.7c0,1.4-0.3,2.6-0.8,3.6c-0.4,0.9-1,1.8-1.9,2.4c-0.9,0.7-2.1,1.1-3.7,1.1
		s-2.9-0.4-3.8-1.1c-0.9-0.7-1.5-1.5-1.9-2.4c-0.5-1-0.8-2.2-0.8-3.6v-19.5c0-1.3,0.3-2.5,0.8-3.6c0.4-0.9,1-1.8,1.9-2.5
		s2.2-1.1,3.8-1.1s2.8,0.5,3.7,1.1c0.9,0.7,1.5,1.6,1.9,2.5c0.5,1,0.8,2.2,0.8,3.6V470.7z M-201,451.2c0-0.9-0.2-1.5-0.6-2.1
		c-0.2-0.2-0.6-0.4-1-0.4c-0.9,0-1.3,0.6-1.4,1.2c-0.1,0.4-0.2,0.8-0.2,1.2v19.5c0,0.9,0.2,1.6,0.7,2.1c0.2,0.2,0.5,0.4,0.9,0.4
		c0.9,0,1.3-0.5,1.4-1.2c0.1-0.3,0.2-0.7,0.2-1.2L-201,451.2L-201,451.2z"/>
	<path id="XMLID_579_" class="st1" d="M-184.8,453.3c0-1.1,0-2.3-0.4-3.2c-0.3-0.9-0.8-1.5-1.6-1.5c-1.3,0-1.7,1.3-1.7,3.3
		c0,1.1,0.5,2.3,1.2,3.6c0.7,1.3,1.7,2.6,2.6,4c1.1,1.7,2.2,3.4,3.1,5c0.9,1.7,1.4,3.4,1.4,5.2c0,2.2-0.4,4.3-1.4,5.8
		s-2.7,2.5-5.4,2.5c-3.1,0-4.9-1.2-5.8-3c-1-1.8-1.2-4.2-1.2-6.7l4.8-0.5c0,1.4,0,2.8,0.4,3.8c0.3,1.1,0.9,1.8,1.9,1.8
		c1.4,0,2-1.5,2-3.6c0-1.1-0.5-2.3-1.3-3.6c-0.4-0.6-0.8-1.3-1.3-2c-0.9-1.4-2-2.9-3.1-4.5c-1.1-1.7-1.9-3.4-2.4-5.1
		c-0.3-0.9-0.4-1.8-0.4-2.7c0-1.8,0.4-3.7,1.4-5.2c1-1.4,2.6-2.5,4.9-2.5c2.9,0,4.6,1.2,5.6,2.9c0.9,1.8,1.2,4,1.2,5.8L-184.8,453.3
		z"/>
	<path id="XMLID_576_" class="st1" d="M-177.4,444.4h4.9c2.1,0,4.2,0.5,5.8,2.1c1.6,1.5,2.7,4,2.7,7.8s-1.1,6.3-2.7,7.8
		c-1.6,1.5-3.7,2.2-5.8,2.2v13.2h-4.9V444.4z M-172.6,459.3c1.5,0,2.4-0.3,3-1c0.5-0.7,0.7-1.9,0.7-3.8s-0.1-3.1-0.7-4
		c-0.5-0.8-1.5-1.2-3-1.2V459.3z"/>
	<path id="XMLID_575_" class="st1" d="M-161.6,444.4h4.9v33.1h-4.9V444.4z"/>
	<path id="XMLID_574_" class="st1" d="M-154.9,449.4v-5h14v5h-4.6v28.1h-4.9v-28.1H-154.9z"/>
	<path id="XMLID_571_" class="st1" d="M-141.3,477.5l5-33.1h5.9l5,33.1h-4.7l-0.9-6.8h-4.7l-0.9,6.8H-141.3z M-133,455.2l-0.1-0.9
		h-0.3l-0.1,0.9l-1.4,10.4h3.3L-133,455.2z"/>
	<path id="XMLID_570_" class="st1" d="M-123.1,444.4h4.9V473h6.4v4.5h-11.3V444.4z"/>
</g>
</svg>
