<?xml version="1.0" encoding="utf-8"?>
<!-- Generator: Adobe Illustrator 19.0.0, SVG Export Plug-In . SVG Version: 6.00 Build 0)  -->
<svg version="1.1" id="Layer_1" xmlns="http://www.w3.org/2000/svg" xmlns:xlink="http://www.w3.org/1999/xlink" x="0px" y="0px"
	 viewBox="-447 209 384 384" style="enable-background:new -447 209 384 384;" xml:space="preserve">
<style type="text/css">
	.st0{fill:#FFDE00;}
	.st1{fill:#231F20;}
</style>
<g id="XMLID_481_">
	<rect id="XMLID_568_" x="-447" y="209" class="st0" width="384" height="384"/>
</g>
<g id="XMLID_532_">
	<path id="XMLID_564_" class="st1" d="M-410.6,420.5v-33.1h3.8c4.5,0,6.9,0.9,8.2,3.4c1.3,2.5,1.4,6.7,1.4,13.1
		c0,6.5-0.2,10.6-1.4,13.1c-1.3,2.5-3.7,3.4-8.2,3.4h-3.8V420.5z M-405.7,415.6c1.7,0,2.6-0.2,3.1-1.8c0.2-0.8,0.4-1.9,0.5-3.5
		c0-1.6,0-3.7,0-6.4c0-2.7,0-4.8,0-6.4c0-1.5-0.2-2.7-0.5-3.5c-0.5-1.6-1.4-1.8-3.1-1.8V415.6z"/>
	<path id="XMLID_563_" class="st1" d="M-393.9,387.4h11.1v5h-6.3v8.7h4.5v5.3h-4.5v9.1h6.3v5h-11.1V387.4z"/>
	<path id="XMLID_562_" class="st1" d="M-372,396.2c0-1.1,0-2.3-0.4-3.2c-0.3-0.9-0.8-1.5-1.6-1.5c-1.3,0-1.7,1.3-1.7,3.3
		c0,1.1,0.5,2.3,1.2,3.6s1.7,2.6,2.6,4c1.1,1.7,2.2,3.4,3.1,5c0.9,1.7,1.4,3.4,1.4,5.2c0,2.2-0.4,4.3-1.4,5.8s-2.7,2.5-5.4,2.5
		c-3.1,0-4.9-1.2-5.8-3c-1-1.8-1.2-4.2-1.2-6.7l4.8-0.5c0,1.4,0,2.8,0.4,3.8c0.3,1.1,0.9,1.8,1.9,1.8c1.4,0,2-1.5,2-3.6
		c0-1.1-0.5-2.3-1.3-3.6c-0.4-0.6-0.8-1.3-1.3-2c-0.9-1.3-2-2.9-3.1-4.5c-1.1-1.7-1.9-3.4-2.4-5.1c-0.3-0.9-0.4-1.8-0.4-2.7
		c0-1.8,0.4-3.7,1.4-5.2c1-1.4,2.6-2.5,4.9-2.5c2.9,0,4.6,1.2,5.6,2.9c0.9,1.8,1.2,4,1.2,5.8L-372,396.2z"/>
	<path id="XMLID_561_" class="st1" d="M-364.6,387.4h4.9v33.1h-4.9V387.4z"/>
	<path id="XMLID_560_" class="st1" d="M-348.4,399.3v-5.1c0-0.9-0.2-1.5-0.6-2.1c-0.2-0.2-0.6-0.4-1-0.4c-0.9,0-1.3,0.6-1.4,1.2
		c-0.1,0.4-0.2,0.8-0.2,1.2V414c0,0.9,0.2,1.6,0.7,2.1c0.2,0.2,0.5,0.4,0.9,0.4c0.9,0,1.3-0.5,1.4-1.2c0.1-0.3,0.2-0.7,0.2-1.2v-6
		h-1.9V404h6.8v16.5h-2.9l-0.6-1.6c-0.9,1.1-2.2,1.9-3.8,1.9c-1.6,0-2.7-0.4-3.5-1.1s-1.3-1.5-1.7-2.4c-0.4-1-0.6-2.2-0.5-3.6v-19.5
		c0-1.3,0.3-2.5,0.8-3.6c0.4-0.9,1-1.8,1.9-2.5s2.2-1.1,3.8-1.1s2.8,0.5,3.7,1.1c0.9,0.7,1.5,1.6,1.9,2.5c0.5,1,0.8,2.2,0.8,3.6v5.1
		H-348.4z"/>
	<path id="XMLID_559_" class="st1" d="M-334.8,403.2l-0.4-1.5h-0.3v18.8h-4.5v-33.1h4.3l4.7,17.2l0.4,1.5h0.3v-18.8h4.5v33.1h-4.3
		L-334.8,403.2z"/>
	<path id="XMLID_558_" class="st1" d="M-303.7,392.4h-6.7v8.7h4.5v5h-4.5v14.4h-4.9v-33.1h11.6V392.4z"/>
	<path id="XMLID_555_" class="st1" d="M-289.1,413.7c0,1.4-0.3,2.6-0.8,3.6c-0.4,0.9-1,1.8-1.9,2.4c-0.9,0.7-2.1,1.1-3.7,1.1
		s-2.9-0.4-3.8-1.1s-1.5-1.5-1.9-2.4c-0.5-1-0.8-2.2-0.8-3.6v-19.5c0-1.3,0.3-2.5,0.8-3.6c0.4-0.9,1-1.8,1.9-2.5s2.2-1.1,3.8-1.1
		s2.8,0.5,3.7,1.1c0.9,0.7,1.5,1.6,1.9,2.5c0.5,1,0.8,2.2,0.8,3.6V413.7z M-293.9,394.2c0-0.9-0.2-1.5-0.6-2.1
		c-0.2-0.2-0.6-0.4-1-0.4c-0.9,0-1.3,0.6-1.4,1.2c-0.1,0.4-0.2,0.8-0.2,1.2v19.5c0,0.9,0.2,1.6,0.7,2.1c0.2,0.2,0.5,0.4,0.9,0.4
		c0.9,0,1.3-0.5,1.4-1.2c0.1-0.3,0.2-0.7,0.2-1.2V394.2z"/>
	<path id="XMLID_552_" class="st1" d="M-277.1,420.5l-2.5-13.9h-1.3v13.9h-4.9v-33.1h4.9c5.8,0,8.3,3.3,8.3,9.5
		c0,3.3-0.9,6.3-2.7,7.5l3.1,16h-4.9V420.5z M-280.9,402c0.7,0,1.6-0.1,2.3-0.7c0.7-0.6,1.3-1.8,1.3-4.2s-0.6-3.6-1.3-4.2
		c-0.7-0.6-1.6-0.7-2.3-0.7V402z"/>
	<path id="XMLID_551_" class="st1" d="M-262.6,387.4h11.1v5h-6.3v8.7h4.5v5.3h-4.5v9.1h6.3v5h-11.1L-262.6,387.4L-262.6,387.4z"/>
	<path id="XMLID_548_" class="st1" d="M-250.1,420.5l5-33.1h5.9l5,33.1h-4.7l-0.9-6.7h-4.7l-0.9,6.7H-250.1z M-241.8,398.1l-0.1-0.9
		h-0.3l-0.1,0.9l-1.4,10.4h3.3L-241.8,398.1z"/>
	<path id="XMLID_545_" class="st1" d="M-223.2,420.5l-2.5-13.9h-1.3v13.9h-4.9v-33.1h4.9c5.8,0,8.3,3.3,8.3,9.5
		c0,3.3-0.9,6.3-2.7,7.5l3.1,16h-4.9V420.5z M-227,402c0.7,0,1.6-0.1,2.3-0.7s1.3-1.8,1.3-4.2s-0.6-3.6-1.3-4.2s-1.6-0.7-2.3-0.7
		V402z"/>
	<path id="XMLID_544_" class="st1" d="M-217.3,392.4v-5h14v5h-4.6v28.1h-4.9v-28.1H-217.3z"/>
	<path id="XMLID_543_" class="st1" d="M-192.8,406.1h-3.8v14.4h-4.9v-33.1h4.9v13.7h3.8v-13.7h4.9v33.1h-4.9V406.1z"/>
	<path id="XMLID_540_" class="st1" d="M-171.7,413.7c0,0.8-0.1,1.6-0.4,2.6c-0.1,0.5-0.4,0.9-0.6,1.4c0.4,0.5,1,1,1.9,1.2v4.1
		c-2.7,0-4.1-1.2-5-2.6c-0.7,0.2-1.5,0.4-2.4,0.4c-1.6,0-2.9-0.4-3.8-1.1c-0.9-0.7-1.5-1.5-1.9-2.4c-0.5-1-0.8-2.2-0.8-3.6v-19.5
		c0-1.3,0.3-2.5,0.8-3.6c0.4-0.9,1-1.8,1.9-2.5s2.2-1.1,3.8-1.1s2.8,0.5,3.7,1.1c0.9,0.7,1.5,1.6,1.9,2.5c0.5,1,0.8,2.2,0.8,3.6
		v19.5H-171.7z M-176.5,394.2c0-0.9-0.2-1.5-0.6-2.1c-0.2-0.2-0.6-0.4-1-0.4c-0.9,0-1.3,0.6-1.4,1.2c-0.1,0.4-0.2,0.8-0.2,1.2v19.5
		c0,0.9,0.2,1.6,0.7,2.1c0.2,0.2,0.5,0.4,0.9,0.4c0.9,0,1.3-0.5,1.4-1.2c0.1-0.3,0.2-0.7,0.2-1.2L-176.5,394.2L-176.5,394.2z"/>
	<path id="XMLID_539_" class="st1" d="M-155.4,387.4v26.3c0,1.4-0.3,2.6-0.8,3.6c-0.4,0.9-1,1.8-1.9,2.4c-0.9,0.7-2.1,1.1-3.7,1.1
		s-2.9-0.4-3.8-1.1c-0.9-0.7-1.5-1.5-1.9-2.4c-0.5-1-0.8-2.2-0.8-3.6v-26.3h4.9v26.3c0,0.9,0.2,1.6,0.7,2.1c0.2,0.2,0.5,0.4,0.9,0.4
		c0.9,0,1.3-0.5,1.4-1.2c0.1-0.3,0.2-0.7,0.2-1.2v-26.3L-155.4,387.4L-155.4,387.4z"/>
	<path id="XMLID_536_" class="st1" d="M-153.2,420.5l5-33.1h5.9l5,33.1h-4.7l-0.9-6.7h-4.7l-0.9,6.7H-153.2z M-144.9,398.1l-0.1-0.9
		h-0.3l-0.1,0.9l-1.4,10.4h3.3L-144.9,398.1z"/>
	<path id="XMLID_535_" class="st1" d="M-130.1,387.4V399h0.2l0.2-0.5l4-11h4.7l-4.5,10.9l5,22.2h-4.7l-3.4-14.4l-0.1-0.7h-0.1
		l-0.3,0.7l-1.1,2.7v11.7h-4.9v-33.1h5V387.4z"/>
	<path id="XMLID_534_" class="st1" d="M-118.1,387.4h11.1v5h-6.3v8.7h4.5v5.3h-4.5v9.1h6.3v5h-11.1V387.4z"/>
	<path id="XMLID_533_" class="st1" d="M-96.2,396.2c0-1.1,0-2.3-0.4-3.2c-0.3-0.9-0.8-1.5-1.6-1.5c-1.3,0-1.7,1.3-1.7,3.3
		c0,1.1,0.5,2.3,1.2,3.6s1.7,2.6,2.6,4c1.1,1.7,2.2,3.4,3.1,5c0.9,1.7,1.4,3.4,1.4,5.2c0,2.2-0.4,4.3-1.4,5.8s-2.7,2.5-5.4,2.5
		c-3.1,0-4.9-1.2-5.8-3c-1-1.8-1.2-4.2-1.2-6.7l4.8-0.5c0,1.4,0,2.8,0.4,3.8c0.3,1.1,0.9,1.8,1.9,1.8c1.4,0,2-1.5,2-3.6
		c0-1.1-0.5-2.3-1.3-3.6c-0.4-0.6-0.8-1.3-1.3-2c-0.9-1.3-2-2.9-3.1-4.5c-1.1-1.7-1.9-3.4-2.4-5.1c-0.3-0.9-0.4-1.8-0.4-2.7
		c0-1.8,0.4-3.7,1.4-5.2c1-1.4,2.6-2.5,4.9-2.5c2.9,0,4.6,1.2,5.6,2.9c0.9,1.8,1.2,4,1.2,5.8L-96.2,396.2z"/>
</g>
</svg>
