<?xml version="1.0" encoding="utf-8"?>
<!-- Generator: Adobe Illustrator 19.0.0, SVG Export Plug-In . SVG Version: 6.00 Build 0)  -->
<svg version="1.1" id="Layer_1" xmlns="http://www.w3.org/2000/svg" xmlns:xlink="http://www.w3.org/1999/xlink" x="0px" y="0px"
	 viewBox="-447 209 384 384" style="enable-background:new -447 209 384 384;" xml:space="preserve">
<style type="text/css">
	.st0{fill:#FFDE00;}
	.st1{fill:#231F20;}
</style>
<g id="XMLID_322_">
	<rect id="XMLID_482_" x="-447" y="209" class="st0" width="384" height="384"/>
</g>
<g id="XMLID_423_">
	<path id="XMLID_478_" class="st1" d="M-379.2,396.7l5-33.1h5.9l5,33.1h-4.7l-0.9-6.8h-4.7l-0.9,6.8H-379.2z M-371,374.4l-0.1-0.9
		h-0.3l-0.1,0.9l-1.4,10.4h3.3L-371,374.4z"/>
	<path id="XMLID_475_" class="st1" d="M-361,363.6h4.9c2.1,0,4.2,0.5,5.8,2.1s2.7,4,2.7,7.8s-1.1,6.3-2.7,7.8s-3.7,2.2-5.8,2.2v13.2
		h-4.9V363.6z M-356.2,378.5c1.5,0,2.4-0.3,3-1c0.5-0.7,0.7-1.9,0.7-3.8s-0.1-3.2-0.7-4s-1.5-1.2-3-1.2V378.5z"/>
	<path id="XMLID_472_" class="st1" d="M-345.2,363.6h4.9c2.1,0,4.2,0.5,5.8,2.1s2.7,4,2.7,7.8s-1.1,6.3-2.7,7.8s-3.7,2.2-5.8,2.2
		v13.2h-4.9V363.6z M-340.3,378.5c1.5,0,2.4-0.3,3-1c0.5-0.7,0.7-1.9,0.7-3.8s-0.1-3.2-0.7-4s-1.5-1.2-3-1.2V378.5z"/>
	<path id="XMLID_471_" class="st1" d="M-310.8,368.6h-6.7v8.7h4.5v5h-4.5v14.4h-4.9v-33.1h11.6V368.6z"/>
	<path id="XMLID_468_" class="st1" d="M-296.2,389.9c0,1.3-0.3,2.6-0.8,3.6c-0.4,0.9-1,1.8-1.9,2.4c-0.9,0.7-2.1,1.1-3.7,1.1
		s-2.9-0.4-3.8-1.1s-1.5-1.5-1.9-2.4c-0.5-1-0.8-2.2-0.8-3.6v-19.5c0-1.3,0.3-2.5,0.8-3.6c0.4-0.9,1-1.8,1.9-2.5s2.2-1.1,3.8-1.1
		s2.8,0.4,3.7,1.1c0.9,0.7,1.5,1.6,1.9,2.5c0.5,1,0.8,2.2,0.8,3.6V389.9z M-301.1,370.4c0-0.9-0.2-1.5-0.6-2.1
		c-0.2-0.2-0.6-0.4-1-0.4c-0.9,0-1.3,0.6-1.4,1.2c-0.1,0.4-0.2,0.8-0.2,1.2v19.5c0,0.9,0.2,1.6,0.7,2.1c0.2,0.2,0.5,0.4,0.9,0.4
		c0.9,0,1.3-0.5,1.4-1.2c0.1-0.3,0.2-0.7,0.2-1.2V370.4z"/>
	<path id="XMLID_465_" class="st1" d="M-284.2,396.7l-2.5-13.9h-1.3v13.9h-4.9v-33.1h4.9c5.8,0,8.3,3.3,8.3,9.5
		c0,3.3-0.9,6.3-2.7,7.5l3.1,16h-4.9V396.7z M-288.1,378.2c0.7,0,1.6-0.1,2.3-0.7c0.7-0.6,1.3-1.8,1.3-4.2s-0.6-3.6-1.3-4.2
		c-0.7-0.6-1.6-0.7-2.3-0.7V378.2z"/>
	<path id="XMLID_464_" class="st1" d="M-257.1,385.3v4.5c0,1.3-0.3,2.6-0.8,3.6c-0.4,0.9-1,1.8-1.9,2.4c-0.9,0.7-2.1,1.1-3.7,1.1
		s-2.9-0.4-3.8-1.1s-1.5-1.5-1.9-2.4c-0.5-1-0.8-2.2-0.8-3.6v-19.5c0-1.3,0.3-2.5,0.8-3.6c0.4-0.9,1-1.8,1.9-2.5s2.2-1.1,3.8-1.1
		s2.8,0.4,3.7,1.1c0.9,0.7,1.5,1.6,1.9,2.5c0.5,1,0.8,2.2,0.8,3.6v4.5h-4.5v-4.5c0-0.9-0.2-1.5-0.7-2.1c-0.2-0.2-0.6-0.4-1.1-0.4
		c-0.9,0-1.3,0.6-1.5,1.2c-0.1,0.4-0.2,0.8-0.2,1.2v19.5c0,0.9,0.3,1.6,0.8,2.1c0.2,0.2,0.5,0.4,0.9,0.4c1,0,1.4-0.5,1.7-1.2
		c0.1-0.3,0.2-0.7,0.2-1.2v-4.5H-257.1z"/>
	<path id="XMLID_463_" class="st1" d="M-245.5,382.3h-3.8v14.4h-4.9v-33.1h4.9v13.7h3.8v-13.7h4.9v33.1h-4.9V382.3z"/>
	<path id="XMLID_462_" class="st1" d="M-237.1,363.6h4.9v33.1h-4.9V363.6z"/>
	<path id="XMLID_461_" class="st1" d="M-228.6,363.6h4.9v28.6h6.4v4.5h-11.3L-228.6,363.6L-228.6,363.6z"/>
	<path id="XMLID_458_" class="st1" d="M-215.4,396.7v-33.1h3.8c4.5,0,6.9,0.9,8.2,3.4s1.4,6.7,1.4,13.1s-0.2,10.6-1.4,13.1
		c-1.3,2.5-3.7,3.4-8.2,3.4h-3.8V396.7z M-210.5,391.8c1.7,0,2.6-0.2,3.1-1.8c0.2-0.8,0.4-1.9,0.5-3.5s0-3.7,0-6.4s0-4.8,0-6.4
		c0-1.5-0.2-2.7-0.5-3.5c-0.5-1.6-1.4-1.8-3.1-1.8V391.8z"/>
	<path id="XMLID_455_" class="st1" d="M-189.9,396.7l-2.5-13.9h-1.3v13.9h-4.9v-33.1h4.9c5.8,0,8.3,3.3,8.3,9.5
		c0,3.3-0.9,6.3-2.7,7.5l3.1,16h-4.9V396.7z M-193.8,378.2c0.7,0,1.6-0.1,2.3-0.7s1.3-1.8,1.3-4.2s-0.6-3.6-1.3-4.2
		s-1.6-0.7-2.3-0.7V378.2z"/>
	<path id="XMLID_454_" class="st1" d="M-182.4,363.6h11.1v5h-6.3v8.7h4.5v5.3h-4.5v9.1h6.3v5h-11.1V363.6z"/>
	<path id="XMLID_453_" class="st1" d="M-163.4,379.4l-0.4-1.5h-0.3v18.8h-4.5v-33.1h4.3l4.7,17.2l0.4,1.5h0.3v-18.8h4.5v33.1h-4.3
		L-163.4,379.4z"/>
	<path id="XMLID_452_" class="st1" d="M-146.9,368.6l-2.5,5.8h-2.2l1.6-5.8h-1.6v-5h4.7V368.6z"/>
	<path id="XMLID_451_" class="st1" d="M-135.9,372.5c0-1.1,0-2.3-0.4-3.2c-0.3-0.9-0.8-1.5-1.6-1.5c-1.3,0-1.7,1.4-1.7,3.3
		c0,1.1,0.5,2.3,1.2,3.6s1.7,2.6,2.6,4c1.1,1.7,2.2,3.4,3.1,5c0.9,1.7,1.4,3.4,1.4,5.2c0,2.2-0.4,4.3-1.4,5.8s-2.7,2.5-5.4,2.5
		c-3.1,0-4.9-1.2-5.8-3c-1-1.8-1.2-4.2-1.2-6.7l4.8-0.5c0,1.4,0,2.8,0.4,3.8c0.3,1.1,0.9,1.8,1.9,1.8c1.4,0,2-1.5,2-3.6
		c0-1.1-0.5-2.3-1.3-3.6c-0.4-0.6-0.8-1.3-1.3-2c-0.9-1.4-2-2.9-3.1-4.5c-1.1-1.7-1.9-3.4-2.4-5.1c-0.3-0.9-0.4-1.8-0.4-2.7
		c0-1.8,0.4-3.7,1.4-5.2c1-1.4,2.6-2.5,4.9-2.5c2.9,0,4.6,1.2,5.6,2.9c0.9,1.8,1.2,4,1.2,5.8L-135.9,372.5z"/>
	<path id="XMLID_450_" class="st1" d="M-385.1,436.3h-3.8v14.4h-4.9v-33.1h4.9v13.7h3.8v-13.7h4.9v33.1h-4.9V436.3z"/>
	<path id="XMLID_449_" class="st1" d="M-376.6,417.6h11.1v5h-6.3v8.7h4.5v5.3h-4.5v9.1h6.3v5h-11.1V417.6z"/>
	<path id="XMLID_446_" class="st1" d="M-364.1,450.7l5-33.1h5.9l5,33.1h-4.7l-0.9-6.8h-4.7l-0.9,6.8H-364.1z M-355.8,428.4l-0.1-0.9
		h-0.3l-0.1,0.9l-1.4,10.4h3.3L-355.8,428.4z"/>
	<path id="XMLID_445_" class="st1" d="M-345.9,417.6h4.9v28.6h6.4v4.5h-11.3V417.6z"/>
	<path id="XMLID_444_" class="st1" d="M-334.3,422.6v-5h14v5h-4.6v28.1h-4.9v-28.1H-334.3z"/>
	<path id="XMLID_443_" class="st1" d="M-309.8,436.3h-3.8v14.4h-4.9v-33.1h4.9v13.7h3.8v-13.7h4.9v33.1h-4.9V436.3z"/>
	<path id="XMLID_442_" class="st1" d="M-295.6,428.2l0.1,0.3h0.1l0.1-0.3l2.4-10.6h4.8l-4.9,19v14.1h-4.9v-14.1l-4.9-19h4.8
		L-295.6,428.2z"/>
	<path id="XMLID_441_" class="st1" d="M-279,417.6h11.1v5h-6.3v8.7h4.5v5.3h-4.5v9.1h6.3v5H-279V417.6z"/>
	<path id="XMLID_438_" class="st1" d="M-266.4,450.7l5-33.1h5.9l5,33.1h-4.7l-0.9-6.8h-4.7l-0.9,6.8H-266.4z M-258.2,428.4l-0.1-0.9
		h-0.3l-0.1,0.9l-1.4,10.4h3.3L-258.2,428.4z"/>
	<path id="XMLID_437_" class="st1" d="M-250.9,422.6v-5h14v5h-4.6v28.1h-4.9v-28.1H-250.9z"/>
	<path id="XMLID_436_" class="st1" d="M-235,417.6h4.9v33.1h-4.9V417.6z"/>
	<path id="XMLID_435_" class="st1" d="M-221.4,433.4l-0.4-1.5h-0.3v18.8h-4.5v-33.1h4.3l4.7,17.2l0.4,1.5h0.3v-18.8h4.5v33.1h-4.3
		L-221.4,433.4z"/>
	<path id="XMLID_434_" class="st1" d="M-201,429.5v-5.1c0-0.9-0.2-1.5-0.6-2.1c-0.2-0.2-0.6-0.4-1-0.4c-0.9,0-1.3,0.6-1.4,1.2
		c-0.1,0.4-0.2,0.8-0.2,1.2v19.9c0,0.9,0.2,1.6,0.7,2.1c0.2,0.2,0.5,0.4,0.9,0.4c0.9,0,1.3-0.5,1.4-1.2c0.1-0.3,0.2-0.7,0.2-1.2v-6
		h-1.9v-4.1h6.8v16.5h-2.9l-0.6-1.6c-0.9,1.1-2.2,1.9-3.8,1.9s-2.7-0.4-3.5-1.1s-1.3-1.5-1.7-2.4c-0.4-1-0.6-2.2-0.5-3.6v-19.5
		c0-1.3,0.3-2.5,0.8-3.6c0.4-0.9,1-1.8,1.9-2.5s2.2-1.1,3.8-1.1s2.8,0.5,3.7,1.1c0.9,0.7,1.5,1.6,1.9,2.5c0.5,1,0.8,2.2,0.8,3.6v5.1
		L-201,429.5L-201,429.5z"/>
	<path id="XMLID_433_" class="st1" d="M-177,436.3h-3.8v14.4h-4.9v-33.1h4.9v13.7h3.8v-13.7h4.9v33.1h-4.9V436.3z"/>
	<path id="XMLID_430_" class="st1" d="M-169.9,450.7l5-33.1h5.9l5,33.1h-4.7l-0.9-6.8h-4.7l-0.9,6.8H-169.9z M-161.7,428.4l-0.1-0.9
		h-0.3l-0.1,0.9l-1.4,10.4h3.3L-161.7,428.4z"/>
	<path id="XMLID_426_" class="st1" d="M-151.7,450.7v-33.1h4.3c2.9,0,5.1,0.5,6.6,1.9s2.2,3.6,2.2,6.8c0,1.6-0.1,2.7-0.6,3.8
		c-0.5,1.1-1.3,2-2.4,3c1.2,0.7,2.1,1.9,2.8,4c0.4,1,0.5,2.4,0.5,4c0,2.5-0.5,4.7-1.6,6.4s-3.1,2.8-5.9,3h-5.9V450.7z M-146.9,431.2
		c0.4,0,1.3,0,2.2-0.5c0.8-0.5,1.4-1.6,1.4-3.9s-0.6-3.4-1.4-3.9c-0.8-0.5-1.8-0.5-2.2-0.5V431.2z M-146.9,445.9
		c0.4,0,1.3,0.1,2.2-0.5c0.8-0.6,1.4-1.9,1.4-4.6s-0.6-4-1.4-4.6c-0.8-0.6-1.8-0.5-2.2-0.5V445.9z"/>
	<path id="XMLID_425_" class="st1" d="M-135.3,417.6h4.9v33.1h-4.9V417.6z"/>
	<path id="XMLID_424_" class="st1" d="M-128.6,422.6v-5h14v5h-4.6v28.1h-4.9v-28.1H-128.6z"/>
</g>
</svg>
