<?xml version="1.0" encoding="utf-8"?>
<!-- Generator: Adobe Illustrator 19.0.0, SVG Export Plug-In . SVG Version: 6.00 Build 0)  -->
<svg version="1.1" id="Layer_1" xmlns="http://www.w3.org/2000/svg" xmlns:xlink="http://www.w3.org/1999/xlink" x="0px" y="0px"
	 viewBox="-447 209 384 384" style="enable-background:new -447 209 384 384;" xml:space="preserve">
<style type="text/css">
	.st0{fill:#FFDE00;}
	.st1{fill:#231F20;}
</style>
<g id="XMLID_281_">
	<rect id="XMLID_422_" x="-447" y="209" class="st0" width="384" height="384"/>
</g>
<g id="XMLID_324_">
	<path id="XMLID_420_" class="st1" d="M-336.2,311.4h4.9v33.1h-4.9V311.4z"/>
	<path id="XMLID_419_" class="st1" d="M-322.6,327.2l-0.4-1.5h-0.3v18.8h-4.5v-33.1h4.3l4.7,17.2l0.4,1.5h0.3v-18.8h4.5v33.1h-4.3
		L-322.6,327.2z"/>
	<path id="XMLID_418_" class="st1" d="M-298.4,316.4h-6.7v8.7h4.5v5h-4.5v14.4h-4.9v-33.1h11.6V316.4z"/>
	<path id="XMLID_415_" class="st1" d="M-283.8,337.8c0,1.3-0.3,2.6-0.8,3.6c-0.4,0.9-1,1.8-1.9,2.4c-0.9,0.7-2.1,1.1-3.7,1.1
		s-2.9-0.4-3.8-1.1s-1.5-1.5-1.9-2.4c-0.5-1-0.8-2.2-0.8-3.6v-19.5c0-1.3,0.3-2.5,0.8-3.6c0.4-0.9,1-1.8,1.9-2.5s2.2-1.1,3.8-1.1
		s2.8,0.4,3.7,1.1c0.9,0.7,1.5,1.6,1.9,2.5c0.5,1,0.8,2.2,0.8,3.6V337.8z M-288.6,318.2c0-0.9-0.2-1.5-0.6-2.1
		c-0.2-0.2-0.6-0.4-1-0.4c-0.9,0-1.3,0.6-1.4,1.2c-0.1,0.4-0.2,0.8-0.2,1.2v19.5c0,0.9,0.2,1.6,0.7,2.1c0.2,0.2,0.5,0.4,0.9,0.4
		c0.9,0,1.3-0.5,1.4-1.2c0.1-0.3,0.2-0.7,0.2-1.2V318.2z"/>
	<path id="XMLID_412_" class="st1" d="M-271.8,344.4l-2.5-13.9h-1.3v13.9h-4.9v-33.1h4.9c5.8,0,8.3,3.3,8.3,9.5
		c0,3.3-0.9,6.3-2.7,7.5l3.1,16h-4.9V344.4z M-275.6,326c0.7,0,1.6-0.1,2.3-0.7c0.7-0.6,1.3-1.8,1.3-4.2s-0.6-3.6-1.3-4.2
		c-0.7-0.6-1.6-0.7-2.3-0.7V326z"/>
	<path id="XMLID_411_" class="st1" d="M-256.2,344.4l-3.1-20.8l-0.2-1.4h-0.3v22.2h-4.5v-33.1h5.9l2.9,15.1l0.2,1.8h0.1l0.2-1.8
		l2.9-15.1h5.9v33.1h-4.5v-22.2h-0.3l-0.2,1.4l-3.1,20.8H-256.2z"/>
	<path id="XMLID_408_" class="st1" d="M-243.8,344.4l5-33.1h5.9l5,33.1h-4.7l-0.9-6.8h-4.7l-0.9,6.8H-243.8z M-235.6,322.1l-0.1-0.9
		h-0.3l-0.1,0.9l-1.4,10.4h3.3L-235.6,322.1z"/>
	<path id="XMLID_407_" class="st1" d="M-228.3,316.4v-5h14v5h-4.6v28.1h-4.9v-28.1H-228.3z"/>
	<path id="XMLID_406_" class="st1" d="M-212.4,311.4h4.9v33.1h-4.9V311.4z"/>
	<path id="XMLID_403_" class="st1" d="M-191.3,337.8c0,1.3-0.3,2.6-0.8,3.6c-0.4,0.9-1,1.8-1.9,2.4c-0.9,0.7-2.1,1.1-3.7,1.1
		s-2.9-0.4-3.8-1.1c-0.9-0.7-1.5-1.5-1.9-2.4c-0.5-1-0.8-2.2-0.8-3.6v-19.5c0-1.3,0.3-2.5,0.8-3.6c0.4-0.9,1-1.8,1.9-2.5
		s2.2-1.1,3.8-1.1s2.8,0.4,3.7,1.1s1.5,1.6,1.9,2.5c0.5,1,0.8,2.2,0.8,3.6V337.8z M-196.1,318.2c0-0.9-0.2-1.5-0.6-2.1
		c-0.2-0.2-0.6-0.4-1-0.4c-0.9,0-1.3,0.6-1.4,1.2c-0.1,0.4-0.2,0.8-0.2,1.2v19.5c0,0.9,0.2,1.6,0.7,2.1c0.2,0.2,0.5,0.4,0.9,0.4
		c0.9,0,1.3-0.5,1.4-1.2c0.1-0.3,0.2-0.7,0.2-1.2L-196.1,318.2L-196.1,318.2z"/>
	<path id="XMLID_402_" class="st1" d="M-182.9,327.2l-0.4-1.5h-0.3v18.8h-4.5v-33.1h4.3l4.7,17.2l0.4,1.5h0.3v-18.8h4.5v33.1h-4.3
		L-182.9,327.2z"/>
	<path id="XMLID_401_" class="st1" d="M-361,365.4h4.7l-5,33.1h-4.9l-5-33.1h4.7l2.4,18.2l0.2,1.4h0.3l0.2-1.4L-361,365.4z"/>
	<path id="XMLID_400_" class="st1" d="M-354.1,365.4h4.9v33.1h-4.9V365.4z"/>
	<path id="XMLID_399_" class="st1" d="M-337.6,374.2c0-1.1,0-2.3-0.4-3.2c-0.3-0.9-0.8-1.5-1.6-1.5c-1.3,0-1.7,1.3-1.7,3.3
		c0,1.1,0.5,2.3,1.2,3.6c0.7,1.3,1.7,2.6,2.6,4c1.1,1.7,2.2,3.4,3.1,5c0.9,1.7,1.4,3.4,1.4,5.2c0,2.2-0.4,4.3-1.4,5.8
		s-2.7,2.5-5.4,2.5c-3.1,0-4.9-1.2-5.8-3c-1-1.8-1.2-4.2-1.2-6.7l4.8-0.5c0,1.4,0,2.8,0.4,3.8c0.3,1.1,0.9,1.8,1.9,1.8
		c1.4,0,2-1.5,2-3.6c0-1.1-0.5-2.3-1.3-3.6c-0.4-0.6-0.8-1.3-1.3-2c-0.9-1.4-2-2.9-3.1-4.5c-1.1-1.7-1.9-3.4-2.4-5.1
		c-0.3-0.9-0.4-1.8-0.4-2.7c0-1.8,0.4-3.7,1.4-5.2c1-1.4,2.6-2.5,4.9-2.5c2.9,0,4.6,1.2,5.6,2.9c0.9,1.8,1.2,4,1.2,5.8L-337.6,374.2
		z"/>
	<path id="XMLID_398_" class="st1" d="M-317.3,365.4v26.3c0,1.4-0.3,2.6-0.8,3.6c-0.4,0.9-1,1.8-1.9,2.4c-0.9,0.7-2.1,1.1-3.7,1.1
		s-2.9-0.4-3.8-1.1s-1.5-1.5-1.9-2.4c-0.5-1-0.8-2.2-0.8-3.6v-26.3h4.9v26.3c0,0.9,0.2,1.6,0.7,2.1c0.2,0.2,0.5,0.4,0.9,0.4
		c0.9,0,1.3-0.5,1.4-1.2c0.1-0.3,0.2-0.7,0.2-1.2v-26.3L-317.3,365.4L-317.3,365.4z"/>
	<path id="XMLID_395_" class="st1" d="M-315.1,398.4l5-33.1h5.9l5,33.1h-4.7l-0.9-6.8h-4.7l-0.9,6.8H-315.1z M-306.9,376.1l-0.1-0.9
		h-0.3l-0.1,0.9l-1.4,10.4h3.3L-306.9,376.1z"/>
	<path id="XMLID_394_" class="st1" d="M-296.9,365.4h4.9V394h6.4v4.5h-11.3V365.4z"/>
	<path id="XMLID_393_" class="st1" d="M-283.6,365.4h4.9v33.1h-4.9V365.4z"/>
	<path id="XMLID_392_" class="st1" d="M-276.5,393.2l7.6-23h-6.5v-4.8h11.8v4.8l-7.7,23.4h7.7v4.8h-12.9V393.2z"/>
	<path id="XMLID_389_" class="st1" d="M-262.8,398.4l5-33.1h5.9l5,33.1h-4.7l-0.9-6.8h-4.7l-0.9,6.8H-262.8z M-254.5,376.1l-0.1-0.9
		h-0.3l-0.1,0.9l-1.4,10.4h3.3L-254.5,376.1z"/>
	<path id="XMLID_388_" class="st1" d="M-247.3,370.4v-5h14v5h-4.6v28.1h-4.9v-28.1H-247.3z"/>
	<path id="XMLID_387_" class="st1" d="M-231.4,365.4h4.9v33.1h-4.9V365.4z"/>
	<path id="XMLID_384_" class="st1" d="M-210.2,391.8c0,1.4-0.3,2.6-0.8,3.6c-0.4,0.9-1,1.8-1.9,2.4c-0.9,0.7-2.1,1.1-3.7,1.1
		s-2.9-0.4-3.8-1.1c-0.9-0.7-1.5-1.5-1.9-2.4c-0.5-1-0.8-2.2-0.8-3.6v-19.5c0-1.3,0.3-2.5,0.8-3.6c0.4-0.9,1-1.8,1.9-2.5
		s2.2-1.1,3.8-1.1s2.8,0.5,3.7,1.1c0.9,0.7,1.5,1.6,1.9,2.5c0.5,1,0.8,2.2,0.8,3.6V391.8z M-215.1,372.2c0-0.9-0.2-1.5-0.6-2.1
		c-0.2-0.2-0.6-0.4-1-0.4c-0.9,0-1.3,0.6-1.4,1.2c-0.1,0.4-0.2,0.8-0.2,1.2v19.5c0,0.9,0.2,1.6,0.7,2.1c0.2,0.2,0.5,0.4,0.9,0.4
		c0.9,0,1.3-0.5,1.4-1.2c0.1-0.3,0.2-0.7,0.2-1.2L-215.1,372.2L-215.1,372.2z"/>
	<path id="XMLID_383_" class="st1" d="M-201.8,381.2l-0.4-1.5h-0.3v18.8h-4.5v-33.1h4.3l4.7,17.2l0.4,1.5h0.3v-18.8h4.5v33.1h-4.3
		L-201.8,381.2z"/>
	<path id="XMLID_382_" class="st1" d="M-170.7,370.4h-6.7v8.7h4.5v5h-4.5v14.4h-4.9v-33.1h11.6L-170.7,370.4L-170.7,370.4z"/>
	<path id="XMLID_379_" class="st1" d="M-156.1,391.8c0,1.4-0.3,2.6-0.8,3.6c-0.4,0.9-1,1.8-1.9,2.4c-0.9,0.7-2.1,1.1-3.7,1.1
		s-2.9-0.4-3.8-1.1c-0.9-0.7-1.5-1.5-1.9-2.4c-0.5-1-0.8-2.2-0.8-3.6v-19.5c0-1.3,0.3-2.5,0.8-3.6c0.4-0.9,1-1.8,1.9-2.5
		s2.2-1.1,3.8-1.1s2.8,0.5,3.7,1.1c0.9,0.7,1.5,1.6,1.9,2.5c0.5,1,0.8,2.2,0.8,3.6V391.8z M-160.9,372.2c0-0.9-0.2-1.5-0.6-2.1
		c-0.2-0.2-0.6-0.4-1-0.4c-0.9,0-1.3,0.6-1.4,1.2c-0.1,0.4-0.2,0.8-0.2,1.2v19.5c0,0.9,0.2,1.6,0.7,2.1c0.2,0.2,0.5,0.4,0.9,0.4
		c0.9,0,1.3-0.5,1.4-1.2c0.1-0.3,0.2-0.7,0.2-1.2L-160.9,372.2L-160.9,372.2z"/>
	<path id="XMLID_376_" class="st1" d="M-144.1,398.4l-2.5-13.9h-1.3v13.9h-4.9v-33.1h4.9c5.8,0,8.3,3.3,8.3,9.5
		c0,3.3-0.9,6.3-2.7,7.5l3.1,16h-4.9V398.4z M-147.9,380c0.7,0,1.6-0.1,2.3-0.7s1.3-1.8,1.3-4.2c0-2.3-0.6-3.6-1.3-4.2
		s-1.6-0.7-2.3-0.7V380z"/>
	<path id="XMLID_373_" class="st1" d="M-397.2,419.4h4.9c2.1,0,4.2,0.5,5.8,2.1c1.6,1.5,2.7,4,2.7,7.8s-1.1,6.3-2.7,7.8
		s-3.7,2.2-5.8,2.2v13.2h-4.9V419.4z M-392.4,434.4c1.5,0,2.4-0.3,3-1c0.5-0.7,0.7-1.9,0.7-3.8s-0.1-3.1-0.7-4
		c-0.5-0.8-1.5-1.2-3-1.2V434.4z"/>
	<path id="XMLID_370_" class="st1" d="M-372.7,452.4l-2.5-13.9h-1.3v13.9h-4.9v-33.1h4.9c5.8,0,8.3,3.3,8.3,9.5
		c0,3.3-0.9,6.3-2.7,7.5l3.1,16h-4.9V452.4z M-376.5,434c0.7,0,1.6-0.1,2.3-0.7c0.7-0.6,1.3-1.8,1.3-4.2c0-2.3-0.6-3.6-1.3-4.2
		c-0.7-0.6-1.6-0.7-2.3-0.7V434z"/>
	<path id="XMLID_369_" class="st1" d="M-365.1,419.4h4.9v33.1h-4.9V419.4z"/>
	<path id="XMLID_368_" class="st1" d="M-348.6,452.4l-3.1-20.8l-0.2-1.4h-0.3v22.2h-4.5v-33.1h5.9l2.9,15.1l0.2,1.8h0.1l0.2-1.8
		l2.9-15.1h5.9v33.1h-4.5v-22.2h-0.3l-0.2,1.4l-3.1,20.8H-348.6z"/>
	<path id="XMLID_365_" class="st1" d="M-336.2,452.4l5-33.1h5.9l5,33.1h-4.7l-0.9-6.8h-4.7l-0.9,6.8H-336.2z M-328,430.1l-0.1-0.9
		h-0.3l-0.1,0.9l-1.4,10.4h3.3L-328,430.1z"/>
	<path id="XMLID_362_" class="st1" d="M-309.4,452.4l-2.5-13.9h-1.3v13.9h-4.9v-33.1h4.9c5.8,0,8.3,3.3,8.3,9.5
		c0,3.3-0.9,6.3-2.7,7.5l3.1,16h-4.9V452.4z M-313.2,434c0.7,0,1.6-0.1,2.3-0.7c0.7-0.6,1.3-1.8,1.3-4.2c0-2.3-0.6-3.6-1.3-4.2
		c-0.7-0.6-1.6-0.7-2.3-0.7V434z"/>
	<path id="XMLID_361_" class="st1" d="M-296.1,429.9l0.1,0.3h0.1l0.1-0.3l2.4-10.6h4.8l-4.9,19v14.1h-4.9v-14.1l-4.9-19h4.8
		L-296.1,429.9z"/>
	<path id="XMLID_360_" class="st1" d="M-266.9,441.1v4.5c0,1.4-0.3,2.6-0.8,3.6c-0.4,0.9-1,1.8-1.9,2.4c-0.9,0.7-2.1,1.1-3.7,1.1
		s-2.9-0.4-3.8-1.1s-1.5-1.5-1.9-2.4c-0.5-1-0.8-2.2-0.8-3.6v-19.5c0-1.3,0.3-2.5,0.8-3.6c0.4-0.9,1-1.8,1.9-2.5s2.2-1.1,3.8-1.1
		s2.8,0.5,3.7,1.1c0.9,0.7,1.5,1.6,1.9,2.5c0.5,1,0.8,2.2,0.8,3.6v4.5h-4.5v-4.5c0-0.9-0.2-1.5-0.7-2.1c-0.2-0.2-0.6-0.4-1.1-0.4
		c-0.9,0-1.3,0.6-1.5,1.2c-0.1,0.4-0.2,0.8-0.2,1.2v19.5c0,0.9,0.3,1.6,0.8,2.1c0.2,0.2,0.5,0.4,0.9,0.4c1,0,1.4-0.5,1.7-1.2
		c0.1-0.3,0.2-0.7,0.2-1.2v-4.5H-266.9z"/>
	<path id="XMLID_357_" class="st1" d="M-265.3,452.4l5-33.1h5.9l5,33.1h-4.7l-0.9-6.8h-4.7l-0.9,6.8H-265.3z M-257,430.1l-0.1-0.9
		h-0.3l-0.1,0.9l-1.4,10.4h3.3L-257,430.1z"/>
	<path id="XMLID_354_" class="st1" d="M-238.4,452.4l-2.5-13.9h-1.3v13.9h-4.9v-33.1h4.9c5.8,0,8.3,3.3,8.3,9.5
		c0,3.3-0.9,6.3-2.7,7.5l3.1,16h-4.9V452.4z M-242.2,434c0.7,0,1.6-0.1,2.3-0.7s1.3-1.8,1.3-4.2c0-2.3-0.6-3.6-1.3-4.2
		s-1.6-0.7-2.3-0.7V434z"/>
	<path id="XMLID_353_" class="st1" d="M-230.9,419.4h11.1v5h-6.3v8.7h4.5v5.3h-4.5v9.1h6.3v5h-11.1V419.4z"/>
	<path id="XMLID_350_" class="st1" d="M-210.1,419.4h4.9c2.1,0,4.2,0.5,5.8,2.1c1.6,1.5,2.7,4,2.7,7.8s-1.1,6.3-2.7,7.8
		c-1.6,1.5-3.7,2.2-5.8,2.2v13.2h-4.9V419.4z M-205.3,434.4c1.5,0,2.4-0.3,3-1c0.5-0.7,0.7-1.9,0.7-3.8s-0.1-3.1-0.7-4
		c-0.5-0.8-1.5-1.2-3-1.2V434.4z"/>
	<path id="XMLID_347_" class="st1" d="M-185.6,452.4l-2.5-13.9h-1.3v13.9h-4.9v-33.1h4.9c5.8,0,8.3,3.3,8.3,9.5
		c0,3.3-0.9,6.3-2.7,7.5l3.1,16h-4.9V452.4z M-189.4,434c0.7,0,1.6-0.1,2.3-0.7s1.3-1.8,1.3-4.2c0-2.3-0.6-3.6-1.3-4.2
		s-1.6-0.7-2.3-0.7V434z"/>
	<path id="XMLID_344_" class="st1" d="M-165.4,445.8c0,1.4-0.3,2.6-0.8,3.6c-0.4,0.9-1,1.8-1.9,2.4c-0.9,0.7-2.1,1.1-3.7,1.1
		s-2.9-0.4-3.8-1.1c-0.9-0.7-1.5-1.5-1.9-2.4c-0.5-1-0.8-2.2-0.8-3.6v-19.5c0-1.3,0.3-2.5,0.8-3.6c0.4-0.9,1-1.8,1.9-2.5
		s2.2-1.1,3.8-1.1s2.8,0.5,3.7,1.1c0.9,0.7,1.5,1.6,1.9,2.5c0.5,1,0.8,2.2,0.8,3.6V445.8z M-170.2,426.2c0-0.9-0.2-1.5-0.6-2.1
		c-0.2-0.2-0.6-0.4-1-0.4c-0.9,0-1.3,0.6-1.4,1.2c-0.1,0.4-0.2,0.8-0.2,1.2v19.5c0,0.9,0.2,1.6,0.7,2.1c0.2,0.2,0.5,0.4,0.9,0.4
		c0.9,0,1.3-0.5,1.4-1.2c0.1-0.3,0.2-0.7,0.2-1.2L-170.2,426.2L-170.2,426.2z"/>
	<path id="XMLID_343_" class="st1" d="M-163.6,448c0.9,0.1,1.7-0.1,2.2-0.8c0.3-0.3,0.4-0.9,0.4-1.6v-26.2h4.9v27
		c0,1.8-0.4,3.5-1.6,4.7c-1.1,1.2-3,1.9-5.9,1.8L-163.6,448L-163.6,448z"/>
	<path id="XMLID_342_" class="st1" d="M-152.8,419.4h11.1v5h-6.3v8.7h4.5v5.3h-4.5v9.1h6.3v5h-11.1V419.4z"/>
	<path id="XMLID_341_" class="st1" d="M-126.3,441.1v4.5c0,1.4-0.3,2.6-0.8,3.6c-0.4,0.9-1,1.8-1.9,2.4c-0.9,0.7-2.1,1.1-3.7,1.1
		s-2.9-0.4-3.8-1.1c-0.9-0.7-1.5-1.5-1.9-2.4c-0.5-1-0.8-2.2-0.8-3.6v-19.5c0-1.3,0.3-2.5,0.8-3.6c0.4-0.9,1-1.8,1.9-2.5
		s2.2-1.1,3.8-1.1s2.8,0.5,3.7,1.1c0.9,0.7,1.5,1.6,1.9,2.5c0.5,1,0.8,2.2,0.8,3.6v4.5h-4.5v-4.5c0-0.9-0.2-1.5-0.7-2.1
		c-0.2-0.2-0.6-0.4-1.1-0.4c-0.9,0-1.3,0.6-1.5,1.2c-0.1,0.4-0.2,0.8-0.2,1.2v19.5c0,0.9,0.3,1.6,0.8,2.1c0.2,0.2,0.5,0.4,0.9,0.4
		c1,0,1.4-0.5,1.7-1.2c0.1-0.3,0.2-0.7,0.2-1.2v-4.5H-126.3z"/>
	<path id="XMLID_340_" class="st1" d="M-125.1,424.4v-5h14v5h-4.6v28.1h-4.9v-28.1H-125.1z"/>
	<path id="XMLID_337_" class="st1" d="M-306,499.8c0,1.4-0.3,2.6-0.8,3.6c-0.4,0.9-1,1.8-1.9,2.4c-0.9,0.7-2.1,1.1-3.7,1.1
		s-2.9-0.4-3.8-1.1c-0.9-0.7-1.5-1.5-1.9-2.4c-0.5-1-0.8-2.2-0.8-3.6v-19.5c0-1.3,0.3-2.5,0.8-3.6c0.4-0.9,1-1.8,1.9-2.5
		s2.2-1.1,3.8-1.1s2.8,0.5,3.7,1.1c0.9,0.7,1.5,1.6,1.9,2.5c0.5,1,0.8,2.2,0.8,3.6V499.8z M-310.8,480.2c0-0.9-0.2-1.5-0.6-2.1
		c-0.2-0.2-0.6-0.4-1-0.4c-0.9,0-1.3,0.6-1.4,1.2c-0.1,0.4-0.2,0.8-0.2,1.2v19.5c0,0.9,0.2,1.6,0.7,2.1c0.2,0.2,0.5,0.4,0.9,0.4
		c0.9,0,1.3-0.5,1.4-1.2c0.1-0.3,0.2-0.7,0.2-1.2V480.2z"/>
	<path id="XMLID_336_" class="st1" d="M-291.1,478.4h-6.7v8.7h4.5v5h-4.5v14.4h-4.9v-33.1h11.6V478.4z"/>
	<path id="XMLID_333_" class="st1" d="M-282.2,473.4h4.9c2.1,0,4.2,0.5,5.8,2.1c1.6,1.5,2.7,4,2.7,7.8s-1.1,6.3-2.7,7.8
		s-3.7,2.2-5.8,2.2v13.2h-4.9V473.4z M-277.3,488.4c1.5,0,2.4-0.3,3-1c0.5-0.7,0.7-1.9,0.7-3.8s-0.1-3.1-0.7-4
		c-0.5-0.8-1.5-1.2-3-1.2V488.4z"/>
	<path id="XMLID_332_" class="st1" d="M-257.7,492h-3.8v14.4h-4.9v-33.1h4.9v13.8h3.8v-13.7h4.9v33.1h-4.9V492z"/>
	<path id="XMLID_331_" class="st1" d="M-249.3,473.4h4.9v33.1h-4.9V473.4z"/>
	<path id="XMLID_330_" class="st1" d="M-240.8,473.4h4.9V502h6.4v4.5h-11.3L-240.8,473.4L-240.8,473.4z"/>
	<path id="XMLID_329_" class="st1" d="M-227.5,473.4h4.9v33.1h-4.9V473.4z"/>
	<path id="XMLID_326_" class="st1" d="M-219.1,473.4h4.9c2.1,0,4.2,0.5,5.8,2.1c1.6,1.5,2.7,4,2.7,7.8s-1.1,6.3-2.7,7.8
		c-1.6,1.5-3.7,2.2-5.8,2.2v13.2h-4.9V473.4z M-214.2,488.4c1.5,0,2.4-0.3,3-1c0.5-0.7,0.7-1.9,0.7-3.8s-0.1-3.1-0.7-4
		c-0.5-0.8-1.5-1.2-3-1.2V488.4z"/>
	<path id="XMLID_325_" class="st1" d="M-195.2,482.2c0-1.1,0-2.3-0.4-3.2c-0.3-0.9-0.8-1.5-1.6-1.5c-1.3,0-1.7,1.3-1.7,3.3
		c0,1.1,0.5,2.3,1.2,3.6c0.7,1.3,1.7,2.6,2.6,4c1.1,1.7,2.2,3.4,3.1,5c0.9,1.7,1.4,3.4,1.4,5.2c0,2.2-0.4,4.3-1.4,5.8
		s-2.7,2.5-5.4,2.5c-3.1,0-4.9-1.2-5.8-3c-1-1.8-1.2-4.2-1.2-6.7l4.8-0.5c0,1.4,0,2.8,0.4,3.8c0.3,1.1,0.9,1.8,1.9,1.8
		c1.4,0,2-1.5,2-3.6c0-1.1-0.5-2.3-1.3-3.6c-0.4-0.6-0.8-1.3-1.3-2c-0.9-1.4-2-2.9-3.1-4.5c-1.1-1.7-1.9-3.4-2.4-5.1
		c-0.3-0.9-0.4-1.8-0.4-2.7c0-1.8,0.4-3.7,1.4-5.2c1-1.4,2.6-2.5,4.9-2.5c2.9,0,4.6,1.2,5.6,2.9c0.9,1.8,1.2,4,1.2,5.8L-195.2,482.2
		z"/>
</g>
</svg>
