<?xml version="1.0" encoding="utf-8"?>
<!-- Generator: Adobe Illustrator 19.0.0, SVG Export Plug-In . SVG Version: 6.00 Build 0)  -->
<svg version="1.1" id="Layer_1" xmlns="http://www.w3.org/2000/svg" xmlns:xlink="http://www.w3.org/1999/xlink" x="0px" y="0px"
	 viewBox="0 0 50.6 50.4" style="enable-background:new 0 0 50.6 50.4;" xml:space="preserve">
<polygon id="XMLID_82_" points="37.1,32.6 42.6,37.5 43.2,34.4 47,34.3 41.5,29.4 "/>
<polygon id="XMLID_51_" points="44.2,29.8 46.6,31.9 50.6,29.1 48.2,27 "/>
<path id="XMLID_50_" d="M27.2,42.1l-0.4,0.3c-0.1,0.1-0.2,0.1-0.4,0.1c-0.6,0-1.1-1-1.1-2.1c0-0.9,0.3-1.7,0.7-2l23.8-17.1L25.9,0
	l-24,17.3c0,0-4.3,4.1,0,8.6l20.2,18c2.3,2.1,5.1,2,7.2,0.5l10.5-7.5l-2.4-2.1L27.2,42.1z"/>
</svg>
