<?xml version="1.0" encoding="utf-8"?>
<!-- Generator: Adobe Illustrator 19.0.0, SVG Export Plug-In . SVG Version: 6.00 Build 0)  -->
<svg version="1.1" id="Layer_1" xmlns="http://www.w3.org/2000/svg" xmlns:xlink="http://www.w3.org/1999/xlink" x="0px" y="0px"
	 viewBox="9 -22.6 69.6 69.6" style="enable-background:new 9 -22.6 69.6 69.6;" xml:space="preserve">
<style type="text/css">
	.st0{fill:#231F20;}
	.st1{fill:#FFFFFF;}
	.st2{filter:url(#Adobe_OpacityMaskFilter);}
	.st3{opacity:0.1;mask:url(#SVGID_1_);}
</style>
<circle id="XMLID_98_" class="st0" cx="43.8" cy="12.2" r="34.8"/>
<g id="XMLID_86_">
	<g>
		<g>
			<path id="XMLID_35_" class="st1" d="M53.5,12.8c-0.2-0.1-0.4-0.1-0.5-0.1l-8,3.5l-8.3-3.8c-0.2-0.1-0.4-0.1-0.5,0
				c-0.2,0.1-0.3,0.3-0.3,0.5l-1,9.7c0,0.2,0.1,0.4,0.3,0.6c0.2,0.1,0.5,0.1,0.6,0c1.7-1.2,4-2.6,4.5-2.6c0.5,0,2.3,1.4,3.9,3.1
				c0.1,0.1,0.3,0.2,0.4,0.2c0.1,0,0.3,0,0.4-0.1c1.4-1.1,3.7-2.8,4.5-2.8c1,0,3,1.6,3.7,2.2c0.1,0.1,0.2,0.1,0.4,0.1
				c0.1,0,0.2,0,0.3-0.1c0.2-0.1,0.3-0.3,0.3-0.6l-0.4-9.5C53.7,13,53.6,12.9,53.5,12.8z"/>
			<path id="XMLID_34_" class="st1" d="M60.2,6.2L45,0.4c-0.1,0-0.3,0-0.4,0L28.8,6.2c-0.2,0.1-0.4,0.3-0.4,0.5
				c0,0.2,0.1,0.5,0.3,0.6l3.3,1.7c-0.6,0.9-1.1,2.3-1,4.8H31c-0.5,0-0.9,0.2-0.9,0.7v1.6c0,0.5,0.3,0.9,0.7,1l-1.4,10l0.6-0.4
				c0.1-0.1,0.2-0.1,0.3-0.2c0,0.2,0.1,0.5,0.3,0.6c0.1,0,0.1,0,0.2,0c0.3,0,0.5-0.2,0.6-0.3c0.1-0.1,0.1-0.1,0.2-0.2
				c0,0,0.1,0.1,0.1,0.2c0.2,0.2,0.4,0.4,0.6,0.4l0.1,0c0.4-0.1,0.5-0.4,0.6-0.7c0.1,0,0.3,0.1,0.4,0.2l0.6,0.3L32.6,17
				c0.4-0.1,0.7-0.5,0.7-0.9v-1.6c0-0.5-0.5-0.7-1-0.7H32l1.3-4.3l5.1,2.3l6.2,2.3c0.1,0,0.3,0,0.4,0l7-2.9l8.2-3.9
				c0.2-0.1,0.3-0.3,0.3-0.6C60.6,6.5,60.5,6.2,60.2,6.2z"/>
		</g>
	</g>
	<defs>
		<filter id="Adobe_OpacityMaskFilter" filterUnits="userSpaceOnUse" x="28.4" y="0.4" width="32.3" height="26.7">
			
				<feColorMatrix  type="matrix" values="-1 0 0 0 1  0 -1 0 0 1  0 0 -1 0 1  0 0 0 1 0" color-interpolation-filters="sRGB" result="source"/>
		</filter>
	</defs>
	<mask maskUnits="userSpaceOnUse" x="28.4" y="0.4" width="32.3" height="26.7" id="SVGID_1_">
		<g class="st2">
			<image style="overflow:visible;" width="37" height="32" xlink:href="CEB4D7636326FBD.jpg"  transform="matrix(1 0 0 1 26 -2)">
			</image>
		</g>
	</mask>
	<g class="st3">
		<g>
			<path id="XMLID_29_" d="M53.5,12.8c-0.2-0.1-0.4-0.1-0.5-0.1l-8,3.5l-8.3-3.8c-0.2-0.1-0.4-0.1-0.5,0c-0.2,0.1-0.3,0.3-0.3,0.5
				l-1,9.7c0,0.2,0.1,0.4,0.3,0.6c0.2,0.1,0.5,0.1,0.6,0c1.7-1.2,4-2.6,4.5-2.6c0.5,0,2.3,1.4,3.9,3.1c0.1,0.1,0.3,0.2,0.4,0.2
				c0.1,0,0.3,0,0.4-0.1c1.4-1.1,3.7-2.8,4.5-2.8c1,0,3,1.6,3.7,2.2c0.1,0.1,0.2,0.1,0.4,0.1c0.1,0,0.2,0,0.3-0.1
				c0.2-0.1,0.3-0.3,0.3-0.6l-0.4-9.5C53.7,13,53.6,12.9,53.5,12.8z"/>
			<path id="XMLID_28_" d="M60.2,6.2L45,0.4c-0.1,0-0.3,0-0.4,0L28.8,6.2c-0.2,0.1-0.4,0.3-0.4,0.5c0,0.2,0.1,0.5,0.3,0.6l3.3,1.7
				c-0.6,0.9-1.1,2.3-1,4.8H31c-0.5,0-0.9,0.2-0.9,0.7v1.6c0,0.5,0.3,0.9,0.7,1l-1.4,10l0.6-0.4c0.1-0.1,0.2-0.1,0.3-0.2
				c0,0.2,0.1,0.5,0.3,0.6c0.1,0,0.1,0,0.2,0c0.3,0,0.5-0.2,0.6-0.3c0.1-0.1,0.1-0.1,0.2-0.2c0,0,0.1,0.1,0.1,0.2
				c0.2,0.2,0.4,0.4,0.6,0.4l0.1,0c0.4-0.1,0.5-0.4,0.6-0.7c0.1,0,0.3,0.1,0.4,0.2l0.6,0.3L32.6,17c0.4-0.1,0.7-0.5,0.7-0.9v-1.6
				c0-0.5-0.5-0.7-1-0.7H32l1.3-4.3l5.1,2.3l6.2,2.3c0.1,0,0.3,0,0.4,0l7-2.9l8.2-3.9c0.2-0.1,0.3-0.3,0.3-0.6
				C60.6,6.5,60.5,6.2,60.2,6.2z"/>
		</g>
	</g>
</g>
</svg>
