<?xml version="1.0" encoding="utf-8"?>
<!-- Generator: Adobe Illustrator 19.0.0, SVG Export Plug-In . SVG Version: 6.00 Build 0)  -->
<svg version="1.1" id="Layer_1" xmlns="http://www.w3.org/2000/svg" xmlns:xlink="http://www.w3.org/1999/xlink" x="0px" y="0px"
	 viewBox="-447 209 384 384" style="enable-background:new -447 209 384 384;" xml:space="preserve">
<style type="text/css">
	.st0{fill:#FFDE00;}
	.st1{fill:#231F20;}
</style>
<g id="XMLID_245_">
	<rect id="XMLID_323_" x="-447" y="209" class="st0" width="384" height="384"/>
</g>
<g id="XMLID_283_">
	<path id="XMLID_321_" class="st1" d="M-378,374v-2.3c0-2.2,0.3-4.4,1.3-5.9c0.9-1.6,2.6-2.6,5.2-2.6c2.5,0,4.1,0.9,5.1,2.4
		s1.3,3.6,1.3,5.8c0,3.4-1.3,7.4-2.8,11.1c-1.6,3.8-3.5,7.2-4.8,9.3h7.7v4.8h-13.2v-4.8c1.5-2.3,2.8-4.6,4-7c1-2,2-4.2,2.8-6.5
		s1.3-4.5,1.4-6.6c0-0.9,0-1.9-0.3-2.7s-0.6-1.3-1.3-1.3c-0.7,0-1.1,0.5-1.3,1.2c-0.2,0.8-0.3,1.8-0.3,2.8v2.3L-378,374L-378,374z"
		/>
	<path id="XMLID_318_" class="st1" d="M-361.5,396.6v-33.1h3.8c4.5,0,6.9,0.9,8.2,3.4c1.3,2.5,1.4,6.7,1.4,13.1s-0.2,10.6-1.4,13.1
		c-1.3,2.5-3.7,3.4-8.2,3.4h-3.8V396.6z M-356.7,391.7c1.7,0,2.6-0.2,3.1-1.8c0.2-0.8,0.4-1.9,0.5-3.5s0-3.7,0-6.4s0-4.8,0-6.4
		c0-1.5-0.2-2.7-0.5-3.5c-0.5-1.6-1.4-1.8-3.1-1.8V391.7z"/>
	<path id="XMLID_315_" class="st1" d="M-339.2,396.6l5-33.1h5.9l5,33.1h-4.7l-0.9-6.8h-4.7l-0.9,6.8H-339.2z M-331,374.3l-0.1-0.9
		h-0.3l-0.1,0.9l-1.4,10.4h3.3L-331,374.3z"/>
	<path id="XMLID_314_" class="st1" d="M-315.9,379.3l-0.4-1.5h-0.3v18.8h-4.5v-33.1h4.3l4.7,17.2l0.4,1.5h0.3v-18.8h4.5v33.1h-4.3
		L-315.9,379.3z"/>
	<path id="XMLID_313_" class="st1" d="M-303.2,363.5h4.9v33.1h-4.9V363.5z"/>
	<path id="XMLID_312_" class="st1" d="M-286.7,396.6l-3.1-20.8l-0.2-1.4h-0.3v22.2h-4.5v-33.1h5.9l2.9,15.1l0.2,1.8h0.1l0.2-1.8
		l2.9-15.1h5.9v33.1h-4.5v-22.2h-0.3l-0.2,1.4l-3.1,20.8H-286.7z"/>
	<path id="XMLID_309_" class="st1" d="M-274.3,396.6l5-33.1h5.9l5,33.1h-4.7l-0.9-6.8h-4.7l-0.9,6.8H-274.3z M-266.1,374.3l-0.1-0.9
		h-0.3l-0.1,0.9l-1.4,10.4h3.3L-266.1,374.3z"/>
	<path id="XMLID_308_" class="st1" d="M-258.9,368.5v-5h14v5h-4.6v28.1h-4.9v-28.1H-258.9z"/>
	<path id="XMLID_307_" class="st1" d="M-242.9,363.5h4.9v33.1h-4.9V363.5z"/>
	<path id="XMLID_304_" class="st1" d="M-221.8,389.8c0,1.3-0.3,2.6-0.8,3.6c-0.4,0.9-1,1.8-1.9,2.4c-0.9,0.7-2.1,1.1-3.7,1.1
		s-2.9-0.4-3.8-1.1c-0.9-0.7-1.5-1.5-1.9-2.4c-0.5-1-0.8-2.2-0.8-3.6v-19.5c0-1.3,0.3-2.5,0.8-3.6c0.4-0.9,1-1.8,1.9-2.5
		s2.2-1.1,3.8-1.1s2.8,0.4,3.7,1.1s1.5,1.6,1.9,2.5c0.5,1,0.8,2.2,0.8,3.6V389.8z M-226.7,370.3c0-0.9-0.2-1.5-0.6-2.1
		c-0.2-0.2-0.6-0.4-1-0.4c-0.9,0-1.3,0.6-1.4,1.2c-0.1,0.4-0.2,0.8-0.2,1.2v19.5c0,0.9,0.2,1.6,0.7,2.1c0.2,0.2,0.5,0.4,0.9,0.4
		c0.9,0,1.3-0.5,1.4-1.2c0.1-0.3,0.2-0.7,0.2-1.2L-226.7,370.3L-226.7,370.3z"/>
	<path id="XMLID_303_" class="st1" d="M-213.4,379.3l-0.4-1.5h-0.3v18.8h-4.5v-33.1h4.3l4.7,17.2l0.4,1.5h0.3v-18.8h4.5v33.1h-4.3
		L-213.4,379.3z"/>
	<path id="XMLID_302_" class="st1" d="M-182.3,368.5h-6.7v8.7h4.5v5h-4.5v14.4h-4.9v-33.1h11.6L-182.3,368.5L-182.3,368.5z"/>
	<path id="XMLID_301_" class="st1" d="M-180.3,363.5h4.9v33.1h-4.9V363.5z"/>
	<path id="XMLID_300_" class="st1" d="M-171.8,363.5h4.9v28.6h6.4v4.5h-11.3L-171.8,363.5L-171.8,363.5z"/>
	<path id="XMLID_299_" class="st1" d="M-150.5,396.6l-3.1-20.8l-0.2-1.4h-0.3v22.2h-4.5v-33.1h5.9l2.9,15.1l0.2,1.8h0.1l0.2-1.8
		l2.9-15.1h5.9v33.1h-4.5v-22.2h-0.3l-0.2,1.4l-3.1,20.8H-150.5z"/>
	<path id="XMLID_296_" class="st1" d="M-137,372h4.7v5h-4.7V372z M-137,391.6h4.7v5h-4.7V391.6z"/>
	<path id="XMLID_295_" class="st1" d="M-297.5,426.4c0-1.1,0-2.3-0.4-3.2c-0.3-0.9-0.8-1.5-1.6-1.5c-1.3,0-1.7,1.3-1.7,3.3
		c0,1.1,0.5,2.3,1.2,3.6c0.7,1.3,1.7,2.6,2.6,4c1.1,1.7,2.2,3.4,3.1,5c0.9,1.7,1.4,3.4,1.4,5.2c0,2.2-0.4,4.3-1.4,5.8
		s-2.7,2.5-5.4,2.5c-3.1,0-4.9-1.2-5.8-3c-1-1.8-1.2-4.2-1.2-6.7l4.8-0.5c0,1.4,0,2.8,0.4,3.8c0.3,1.1,0.9,1.8,1.9,1.8
		c1.4,0,2-1.5,2-3.6c0-1.1-0.5-2.3-1.3-3.6c-0.4-0.6-0.8-1.3-1.3-2c-0.9-1.4-2-2.9-3.1-4.5c-1.1-1.7-1.9-3.4-2.4-5.1
		c-0.3-0.9-0.4-1.8-0.4-2.7c0-1.8,0.4-3.7,1.4-5.2c1-1.4,2.6-2.5,4.9-2.5c2.9,0,4.6,1.2,5.6,2.9c0.9,1.8,1.2,4,1.2,5.8L-297.5,426.4
		z"/>
	<path id="XMLID_294_" class="st1" d="M-281.5,436.2h-3.8v14.4h-4.9v-33.1h4.9v13.7h3.8v-13.7h4.9v33.1h-4.9V436.2z"/>
	<path id="XMLID_291_" class="st1" d="M-274.4,450.6l5-33.1h5.9l5,33.1h-4.7l-0.9-6.8h-4.7l-0.9,6.8H-274.4z M-266.2,428.3l-0.1-0.9
		h-0.3l-0.1,0.9l-1.4,10.4h3.3L-266.2,428.3z"/>
	<path id="XMLID_288_" class="st1" d="M-256.2,450.6v-33.1h3.8c4.5,0,6.9,0.9,8.2,3.4s1.4,6.7,1.4,13.1c0,6.5-0.2,10.6-1.4,13.1
		c-1.3,2.5-3.7,3.4-8.2,3.4h-3.8V450.6z M-251.4,445.7c1.7,0,2.6-0.2,3.1-1.8c0.2-0.8,0.4-1.9,0.5-3.5c0-1.6,0-3.7,0-6.4
		c0-2.7,0-4.8,0-6.4c0-1.5-0.2-2.7-0.5-3.5c-0.5-1.6-1.4-1.8-3.1-1.8V445.7z"/>
	<path id="XMLID_285_" class="st1" d="M-226.9,443.8c0,1.4-0.3,2.6-0.8,3.6c-0.4,0.9-1,1.8-1.9,2.4c-0.9,0.7-2.1,1.1-3.7,1.1
		s-2.9-0.4-3.8-1.1c-0.9-0.7-1.5-1.5-1.9-2.4c-0.5-1-0.8-2.2-0.8-3.6v-19.5c0-1.3,0.3-2.5,0.8-3.6c0.4-0.9,1-1.8,1.9-2.5
		s2.2-1.1,3.8-1.1s2.8,0.5,3.7,1.1c0.9,0.7,1.5,1.6,1.9,2.5c0.5,1,0.8,2.2,0.8,3.6V443.8z M-231.7,424.3c0-0.9-0.2-1.5-0.6-2.1
		c-0.2-0.2-0.6-0.4-1-0.4c-0.9,0-1.3,0.6-1.4,1.2c-0.1,0.4-0.2,0.8-0.2,1.2v19.5c0,0.9,0.2,1.6,0.7,2.1c0.2,0.2,0.5,0.4,0.9,0.4
		c0.9,0,1.3-0.5,1.4-1.2c0.1-0.3,0.2-0.7,0.2-1.2L-231.7,424.3L-231.7,424.3z"/>
	<path id="XMLID_284_" class="st1" d="M-216.6,450.6h-3.8l-4.5-33.1h4.5l1.9,17.2l0.1,1.1h0.4l0.1-1.1l2.1-17.2h3.5l2.1,17.2
		l0.1,1.1h0.4l0.1-1.1l1.9-17.2h4.5l-4.5,33.1h-3.8l-2.2-15.7l-0.3-1.9h-0.2l-0.3,1.9L-216.6,450.6z"/>
</g>
</svg>
