<?xml version="1.0" encoding="utf-8"?>
<!-- Generator: Adobe Illustrator 19.0.0, SVG Export Plug-In . SVG Version: 6.00 Build 0)  -->
<svg version="1.1" id="Layer_1" xmlns="http://www.w3.org/2000/svg" xmlns:xlink="http://www.w3.org/1999/xlink" x="0px" y="0px"
	 viewBox="0 0 50.6 50.4" style="enable-background:new 0 0 50.6 50.4;" xml:space="preserve">
<g id="XMLID_49_">
	<path id="XMLID_51_" d="M15.8,46c-0.4,0.1-0.8,0.1-1.2,0.1c-1.5,0-3-0.5-4.1-1.6c-1.4-1.4-2-3.3-1.7-5.3l2-11.2
		c0.2-1.2,0.8-2.3,1.6-3l9-9.1v-14c0-1.1-0.9-1.9-1.9-1.9H1.9C0.9,0,0,0.9,0,1.9v8.2c0.1,0,0.3-0.1,0.4-0.1h4.7
		c1.1,0,1.9,0.9,1.9,1.9s-0.9,1.9-1.9,1.9H0.4c-0.1,0-0.3,0-0.4-0.1v9.6c0.1,0,0.3-0.1,0.4-0.1h4.7c1.1,0,1.9,0.9,1.9,1.9
		s-0.9,1.9-1.9,1.9H0.4c-0.1,0-0.3,0-0.4-0.1v9.6c0.1,0,0.3-0.1,0.4-0.1h4.7c1.1,0,1.9,0.9,1.9,1.9s-0.9,1.9-1.9,1.9H0.4
		c-0.1,0-0.3,0-0.4-0.1v8.2c0,1.1,0.9,1.9,1.9,1.9h17.6c1.1,0,1.9-0.9,1.9-1.9v-3.8L15.8,46z"/>
	<path id="XMLID_50_" d="M50,13.4l-8.8-8.8c-0.8-0.8-2-0.8-2.8,0L15.3,27.9c-0.3,0.3-0.4,0.6-0.5,1l-2,11.2
		c-0.1,0.6,0.1,1.3,0.5,1.7c0.3,0.3,0.9,0.5,1.4,0.5c0.1,0,0.2,0,0.4,0L25.9,40c0.3-0.1,0.8-0.2,1-0.5L50,16.1
		C50.8,15.4,50.8,14.2,50,13.4z"/>
</g>
</svg>
