<?xml version="1.0" encoding="utf-8"?>
<!-- Generator: Adobe Illustrator 19.0.0, SVG Export Plug-In . SVG Version: 6.00 Build 0)  -->
<svg version="1.1" id="Layer_1" xmlns="http://www.w3.org/2000/svg" xmlns:xlink="http://www.w3.org/1999/xlink" x="0px" y="0px"
	 viewBox="-269 393.8 55.1 55.1" style="enable-background:new -269 393.8 55.1 55.1;" xml:space="preserve">
<style type="text/css">
	.st0{fill:#231F20;}
</style>
<path id="XMLID_156_" class="st0" d="M-241.3,393.8c-15.3,0-27.6,12.4-27.6,27.6c0,15.2,12.3,27.5,27.5,27.5
	c15.2,0,27.5-12.3,27.5-27.5C-213.8,406.2-226.1,393.8-241.3,393.8z M-230.4,415.7c0,0.2,0,0.5,0,0.7c0,7.5-5.7,16.1-16.1,16.1
	c-3.2,0-6.2-0.9-8.7-2.5c0.4,0.1,0.9,0.1,1.3,0.1c2.6,0,5.1-0.9,7-2.4c-2.5,0-4.6-1.7-5.3-3.9c0.3,0.1,0.7,0.1,1.1,0.1
	c0.5,0,1-0.1,1.5-0.2c-2.6-0.5-4.5-2.8-4.5-5.5c0,0,0,0,0-0.1c0.8,0.4,1.6,0.7,2.6,0.7c-1.5-1-2.5-2.7-2.5-4.7c0-1,0.3-2,0.8-2.8
	c2.8,3.4,7,5.7,11.6,5.9c-0.1-0.4-0.1-0.8-0.1-1.3c0-3.1,2.5-5.6,5.7-5.6c1.6,0,3.1,0.7,4.1,1.8c1.3-0.3,2.5-0.7,3.6-1.4
	c-0.4,1.3-1.3,2.4-2.5,3.1c1.1-0.1,2.2-0.4,3.2-0.9C-228.3,414-229.3,415-230.4,415.7z"/>
</svg>
