<?xml version="1.0" encoding="utf-8"?>
<!-- Generator: Adobe Illustrator 19.0.0, SVG Export Plug-In . SVG Version: 6.00 Build 0)  -->
<svg version="1.1" id="Layer_1" xmlns="http://www.w3.org/2000/svg" xmlns:xlink="http://www.w3.org/1999/xlink" x="0px" y="0px"
	 viewBox="-269 393.8 55.1 55.1" style="enable-background:new -269 393.8 55.1 55.1;" xml:space="preserve">
<style type="text/css">
	.st0{fill:#231F20;}
</style>
<path id="XMLID_151_" class="st0" d="M-242.1,393.8c-15.2,0-27.5,12.4-27.5,27.6c0,15.2,12.3,27.5,27.5,27.5
	c15.2,0,27.5-12.3,27.5-27.5C-214.5,406.2-226.8,393.8-242.1,393.8z M-249.6,434.5h-5.9v-17.7h5.9V434.5z M-252.5,414.3
	L-252.5,414.3c-2,0-3.3-1.4-3.3-3.1c0-1.7,1.3-3.1,3.3-3.1s3.3,1.3,3.3,3.1C-249.2,413-250.5,414.3-252.5,414.3z M-228.3,434.5h-5.9
	V425c0-2.4-0.9-4-3-4c-1.6,0-2.6,1.1-3,2.2c-0.2,0.4-0.2,0.9-0.2,1.4v9.9h-5.9c0,0,0.1-16.1,0-17.8h5.9v2.5c0.8-1.2,2.2-2.9,5.3-2.9
	c3.9,0,6.8,2.5,6.8,8C-228.3,424.3-228.3,434.5-228.3,434.5z"/>
</svg>
