<?xml version="1.0" encoding="utf-8"?>
<!-- Generator: Adobe Illustrator 19.0.0, SVG Export Plug-In . SVG Version: 6.00 Build 0)  -->
<svg version="1.1" id="Layer_1" xmlns="http://www.w3.org/2000/svg" xmlns:xlink="http://www.w3.org/1999/xlink" x="0px" y="0px"
	 viewBox="-291 541.9 55.1 55.1" style="enable-background:new -291 541.9 55.1 55.1;" xml:space="preserve">
<style type="text/css">
	.st0{fill:#231F20;}
</style>
<g>
	<path class="st0" d="M-270,570.3h-4.8v5.5h4.7c0.4,0,0.8,0,1.2-0.1c0.4-0.1,0.7-0.2,1-0.4c0.3-0.2,0.5-0.5,0.7-0.8s0.3-0.8,0.3-1.3
		c0-1-0.3-1.8-0.9-2.2C-268.3,570.6-269.1,570.3-270,570.3z"/>
	<path class="st0" d="M-253.8,567.4c-0.6,0-1.2,0.1-1.6,0.3c-0.4,0.2-0.8,0.5-1,0.8c-0.3,0.3-0.4,0.7-0.5,1c-0.1,0.4-0.2,0.7-0.2,1
		h6.5c-0.1-1-0.4-1.8-0.9-2.3C-252.1,567.6-252.9,567.4-253.8,567.4z"/>
	<path class="st0" d="M-268.4,566.8c0.5-0.4,0.8-1,0.8-1.8c0-0.5-0.1-0.9-0.2-1.2c-0.2-0.3-0.4-0.5-0.7-0.7s-0.6-0.3-1-0.4
		c-0.4-0.1-0.7-0.1-1.1-0.1h-4.1v4.7h4.5C-269.6,567.3-268.9,567.1-268.4,566.8z"/>
	<path class="st0" d="M-263.5,541.9c-15.2,0-27.5,12.4-27.5,27.6c0,15.2,12.3,27.5,27.5,27.5c15.2,0,27.5-12.3,27.5-27.5
		C-235.9,554.3-248.2,541.9-263.5,541.9z M-258,560.6h8.1v2h-8.1V560.6z M-263,576.1c-0.4,0.7-0.9,1.3-1.6,1.8s-1.4,0.8-2.3,1
		c-0.8,0.2-1.7,0.3-2.6,0.3h-9.7v-20h9.5c1,0,1.8,0.1,2.6,0.3c0.8,0.2,1.5,0.4,2,0.8c0.6,0.4,1,0.9,1.3,1.5s0.5,1.4,0.5,2.4
		s-0.2,1.9-0.7,2.5c-0.5,0.7-1.1,1.2-2,1.7c1.2,0.4,2.1,1,2.8,1.9c0.6,0.9,0.9,2,0.9,3.2C-262.5,574.5-262.6,575.3-263,576.1z
		 M-246.7,573h-10.5c0,1.1,0.4,2.2,1,2.8c0.6,0.6,1.5,0.9,2.6,0.9c0.8,0,1.5-0.2,2.1-0.6c0.6-0.4,0.9-0.8,1.1-1.3h3.5
		c-0.6,1.7-1.4,3-2.6,3.7c-1.2,0.8-2.6,1.1-4.2,1.1c-1.1,0-2.2-0.2-3.1-0.5c-0.9-0.4-1.7-0.9-2.3-1.6c-0.6-0.7-1.1-1.5-1.5-2.4
		c-0.3-0.9-0.5-2-0.5-3.1c0-1.1,0.2-2.1,0.5-3c0.4-0.9,0.9-1.8,1.5-2.4c0.7-0.7,1.4-1.2,2.4-1.6c0.9-0.4,1.9-0.6,3-0.6
		c1.2,0,2.3,0.2,3.2,0.7s1.7,1.1,2.3,1.9c0.6,0.8,1,1.7,1.3,2.8C-246.7,570.8-246.6,571.9-246.7,573z"/>
</g>
</svg>
