<?xml version="1.0" encoding="utf-8"?>
<!-- Generator: Adobe Illustrator 19.0.0, SVG Export Plug-In . SVG Version: 6.00 Build 0)  -->
<svg version="1.1" id="Layer_1" xmlns="http://www.w3.org/2000/svg" xmlns:xlink="http://www.w3.org/1999/xlink" x="0px" y="0px"
	 viewBox="-269 393.8 55.1 55.1" style="enable-background:new -269 393.8 55.1 55.1;" xml:space="preserve">
<style type="text/css">
	.st0{fill:#FFFFFF;}
</style>
<path id="XMLID_160_" class="st0" d="M-241.5,393.8c-15.2,0-27.5,12.3-27.5,27.5c0,15.2,12.3,27.5,27.5,27.5
	c15.2,0,27.5-12.3,27.5-27.5C-213.9,406.1-226.2,393.8-241.5,393.8z M-235.6,421.4h-3.9c0,6.2,0,13.8,0,13.8h-5.7c0,0,0-7.5,0-13.8
	h-2.7v-4.9h2.7v-3.1c0-2.3,1.1-5.8,5.8-5.8h4.2v4.7c0,0-2.6,0-3.1,0s-1.2,0.2-1.2,1.3v2.9h4.4L-235.6,421.4z"/>
</svg>
