<?xml version="1.0" encoding="utf-8"?>
<!-- Generator: Adobe Illustrator 19.0.0, SVG Export Plug-In . SVG Version: 6.00 Build 0)  -->
<svg version="1.1" id="Layer_1" xmlns="http://www.w3.org/2000/svg" xmlns:xlink="http://www.w3.org/1999/xlink" x="0px" y="0px"
	 viewBox="0 0 55.1 55.1" style="enable-background:new 0 0 55.1 55.1;" xml:space="preserve">
<style type="text/css">
	.st0{fill:#FFDE00;}
</style>
<path id="XMLID_151_" class="st0" d="M26.9,0C11.7,0-0.6,12.4-0.6,27.6c0,15.2,12.3,27.5,27.5,27.5c15.2,0,27.5-12.3,27.5-27.5
	C54.5,12.4,42.2,0,26.9,0z M19.4,40.7h-5.9V23h5.9V40.7z M16.5,20.5L16.5,20.5c-2,0-3.3-1.4-3.3-3.1c0-1.7,1.3-3.1,3.3-3.1
	c2,0,3.3,1.3,3.3,3.1C19.8,19.2,18.5,20.5,16.5,20.5z M40.7,40.7h-5.9v-9.5c0-2.4-0.9-4-3-4c-1.6,0-2.6,1.1-3,2.2
	c-0.2,0.4-0.2,0.9-0.2,1.4v9.9h-5.9c0,0,0.1-16.1,0-17.8h5.9v2.5c0.8-1.2,2.2-2.9,5.3-2.9c3.9,0,6.8,2.5,6.8,8V40.7z"/>
</svg>
