<?xml version="1.0" encoding="utf-8"?>
<!-- Generator: Adobe Illustrator 19.0.0, SVG Export Plug-In . SVG Version: 6.00 Build 0)  -->
<svg version="1.1" id="Layer_1" xmlns="http://www.w3.org/2000/svg" xmlns:xlink="http://www.w3.org/1999/xlink" x="0px" y="0px"
	 viewBox="-447 209 384 384" style="enable-background:new -447 209 384 384;" xml:space="preserve">
<style type="text/css">
	.st0{fill:#FFDE00;}
	.st1{fill:#231F20;}
</style>
<g id="XMLID_190_">
	<rect id="XMLID_282_" x="-447" y="209" class="st0" width="384" height="384"/>
</g>
<g id="XMLID_247_">
	<path id="XMLID_278_" class="st1" d="M-412.9,384.5h4.9c2.1,0,4.2,0.5,5.8,2.1c1.6,1.5,2.7,4,2.7,7.8s-1.1,6.3-2.7,7.8
		s-3.7,2.2-5.8,2.2v13.2h-4.9V384.5z M-408,399.4c1.5,0,2.4-0.3,3-1c0.5-0.7,0.7-1.9,0.7-3.8c0-1.8-0.1-3.1-0.7-4
		c-0.5-0.8-1.5-1.2-3-1.2V399.4z"/>
	<path id="XMLID_275_" class="st1" d="M-384.4,410.8c0,1.4-0.3,2.6-0.8,3.6c-0.4,0.9-1,1.8-1.9,2.4c-0.9,0.7-2.1,1.1-3.7,1.1
		s-2.9-0.4-3.8-1.1s-1.5-1.5-1.9-2.4c-0.5-1-0.8-2.2-0.8-3.6v-19.5c0-1.3,0.3-2.5,0.8-3.6c0.4-0.9,1-1.8,1.9-2.5s2.2-1.1,3.8-1.1
		s2.8,0.5,3.7,1.1c0.9,0.7,1.5,1.6,1.9,2.5c0.5,1,0.8,2.2,0.8,3.6V410.8z M-389.3,391.3c0-0.9-0.2-1.5-0.6-2.1
		c-0.2-0.2-0.6-0.4-1-0.4c-0.9,0-1.3,0.6-1.4,1.2c-0.1,0.4-0.2,0.8-0.2,1.2v19.5c0,0.9,0.2,1.6,0.7,2.1c0.2,0.2,0.5,0.4,0.9,0.4
		c0.9,0,1.3-0.5,1.4-1.2c0.1-0.3,0.2-0.7,0.2-1.2V391.3z"/>
	<path id="XMLID_272_" class="st1" d="M-372.4,417.6l-2.5-13.9h-1.3v13.9h-4.9v-33.1h4.9c5.8,0,8.3,3.3,8.3,9.5
		c0,3.3-0.9,6.3-2.7,7.5l3.1,16h-4.9V417.6z M-376.2,399.2c0.7,0,1.6-0.1,2.3-0.7c0.7-0.6,1.3-1.8,1.3-4.2s-0.6-3.6-1.3-4.2
		c-0.7-0.6-1.6-0.7-2.3-0.7V399.2z"/>
	<path id="XMLID_271_" class="st1" d="M-366.6,389.5v-5h14v5h-4.6v28.1h-4.9v-28.1H-366.6z"/>
	<path id="XMLID_268_" class="st1" d="M-353,417.6l5-33.1h5.9l5,33.1h-4.7l-0.9-6.7h-4.7l-0.9,6.7H-353z M-344.7,395.3l-0.1-0.9
		h-0.3l-0.1,0.9l-1.4,10.4h3.3L-344.7,395.3z"/>
	<path id="XMLID_264_" class="st1" d="M-334.8,417.6v-33.1h4.3c2.9,0,5.1,0.5,6.6,1.9s2.2,3.6,2.2,6.8c0,1.6-0.1,2.7-0.6,3.8
		s-1.3,2-2.4,3c1.2,0.7,2.1,1.9,2.8,4c0.4,1,0.5,2.4,0.5,4c0,2.5-0.5,4.7-1.6,6.4s-3.1,2.8-5.9,3h-5.9V417.6z M-329.9,398.2
		c0.4,0,1.3,0,2.2-0.5c0.8-0.5,1.4-1.6,1.4-3.9s-0.6-3.4-1.4-3.9s-1.8-0.5-2.2-0.5V398.2z M-329.9,412.8c0.4,0,1.3,0.1,2.2-0.5
		c0.8-0.6,1.4-1.9,1.4-4.6s-0.6-4-1.4-4.6s-1.8-0.5-2.2-0.5V412.8z"/>
	<path id="XMLID_263_" class="st1" d="M-318.4,384.5h4.9v28.6h6.4v4.5h-11.3V384.5z"/>
	<path id="XMLID_262_" class="st1" d="M-305.1,384.5h11.1v5h-6.3v8.7h4.5v5.3h-4.5v9.1h6.3v5h-11.1V384.5z"/>
	<path id="XMLID_261_" class="st1" d="M-284.4,384.5h11.1v5h-6.3v8.7h4.5v5.3h-4.5v9.1h6.3v5h-11.1V384.5z"/>
	<path id="XMLID_260_" class="st1" d="M-262.5,417.6l-3.1-20.8l-0.2-1.4h-0.3v22.2h-4.5v-33.1h5.9l2.9,15.1l0.2,1.8h0.1l0.2-1.8
		l2.9-15.1h5.9v33.1h-4.5v-22.2h-0.3l-0.2,1.4l-3.1,20.8H-262.5z"/>
	<path id="XMLID_259_" class="st1" d="M-248.8,384.5h11.1v5h-6.3v8.7h4.5v5.3h-4.5v9.1h6.3v5h-11.1V384.5z"/>
	<path id="XMLID_256_" class="st1" d="M-226.3,417.6l-2.5-13.9h-1.3v13.9h-4.9v-33.1h4.9c5.8,0,8.3,3.3,8.3,9.5
		c0,3.3-0.9,6.3-2.7,7.5l3.1,16h-4.9V417.6z M-230.1,399.2c0.7,0,1.6-0.1,2.3-0.7s1.3-1.8,1.3-4.2s-0.6-3.6-1.3-4.2
		s-1.6-0.7-2.3-0.7V399.2z"/>
	<path id="XMLID_255_" class="st1" d="M-211,396.4v-5.1c0-0.9-0.2-1.5-0.6-2.1c-0.2-0.2-0.6-0.4-1-0.4c-0.9,0-1.3,0.6-1.4,1.2
		c-0.1,0.4-0.2,0.8-0.2,1.2v19.9c0,0.9,0.2,1.6,0.7,2.1c0.2,0.2,0.5,0.4,0.9,0.4c0.9,0,1.3-0.5,1.4-1.2c0.1-0.3,0.2-0.7,0.2-1.2v-6
		h-1.9v-4.1h6.8v16.5h-2.9l-0.6-1.6c-0.9,1.1-2.2,1.9-3.8,1.9s-2.7-0.4-3.5-1.1s-1.3-1.5-1.7-2.4c-0.4-1-0.6-2.2-0.5-3.6v-19.5
		c0-1.3,0.3-2.5,0.8-3.6c0.4-0.9,1-1.8,1.9-2.5s2.2-1.1,3.8-1.1s2.8,0.5,3.7,1.1c0.9,0.7,1.5,1.6,1.9,2.5c0.5,1,0.8,2.2,0.8,3.6v5.1
		H-211z"/>
	<path id="XMLID_254_" class="st1" d="M-202.6,384.5h11.1v5h-6.3v8.7h4.5v5.3h-4.5v9.1h6.3v5h-11.1V384.5z"/>
	<path id="XMLID_253_" class="st1" d="M-183.6,400.4l-0.4-1.5h-0.3v18.8h-4.5v-33.1h4.3l4.7,17.2l0.4,1.5h0.3v-18.8h4.5v33.1h-4.3
		L-183.6,400.4z"/>
	<path id="XMLID_252_" class="st1" d="M-158.3,406.3v4.5c0,1.4-0.3,2.6-0.8,3.6c-0.4,0.9-1,1.8-1.9,2.4c-0.9,0.7-2.1,1.1-3.7,1.1
		s-2.9-0.4-3.8-1.1c-0.9-0.7-1.5-1.5-1.9-2.4c-0.5-1-0.8-2.2-0.8-3.6v-19.5c0-1.3,0.3-2.5,0.8-3.6c0.4-0.9,1-1.8,1.9-2.5
		s2.2-1.1,3.8-1.1s2.8,0.5,3.7,1.1c0.9,0.7,1.5,1.6,1.9,2.5c0.5,1,0.8,2.2,0.8,3.6v4.5h-4.5v-4.5c0-0.9-0.2-1.5-0.7-2.1
		c-0.2-0.2-0.6-0.4-1.1-0.4c-0.9,0-1.3,0.6-1.5,1.2c-0.1,0.4-0.2,0.8-0.2,1.2v19.5c0,0.9,0.3,1.6,0.8,2.1c0.2,0.2,0.5,0.4,0.9,0.4
		c1,0,1.4-0.5,1.7-1.2c0.1-0.3,0.2-0.7,0.2-1.2v-4.5H-158.3z"/>
	<path id="XMLID_251_" class="st1" d="M-149.7,395.1l0.1,0.3h0.1l0.1-0.3l2.4-10.6h4.8l-4.9,19v14.1h-4.9v-14.1l-4.9-19h4.8
		L-149.7,395.1z"/>
	<path id="XMLID_250_" class="st1" d="M-128.2,384.5v11.6h0.2l0.2-0.5l4-11h4.7l-4.5,10.9l5,22.2h-4.7l-3.4-14.4l-0.1-0.7h-0.1
		l-0.3,0.7l-1.1,2.7v11.7h-4.9v-33.1h5V384.5z"/>
	<path id="XMLID_249_" class="st1" d="M-116.2,384.5h4.9v33.1h-4.9V384.5z"/>
	<path id="XMLID_248_" class="st1" d="M-109.4,389.5v-5h14v5h-4.6v28.1h-4.9v-28.1H-109.4z"/>
</g>
</svg>
