<?xml version="1.0" encoding="utf-8"?>
<!-- Generator: Adobe Illustrator 19.0.0, SVG Export Plug-In . SVG Version: 6.00 Build 0)  -->
<svg version="1.1" id="Layer_1" xmlns="http://www.w3.org/2000/svg" xmlns:xlink="http://www.w3.org/1999/xlink" x="0px" y="0px"
	 viewBox="-447 209 384 384" style="enable-background:new -447 209 384 384;" xml:space="preserve">
<style type="text/css">
	.st0{fill:#FFDE00;}
	.st1{fill:#231F20;}
</style>
<g id="XMLID_127_">
	<rect id="XMLID_246_" x="-447" y="209" class="st0" width="384" height="384"/>
</g>
<g id="XMLID_192_">
	<path id="XMLID_242_" class="st1" d="M-398.1,389.9c0,1.3-0.3,2.6-0.8,3.6c-0.4,0.9-1,1.8-1.9,2.4c-0.9,0.7-2.1,1.1-3.7,1.1
		s-2.9-0.4-3.8-1.1s-1.5-1.5-1.9-2.4c-0.5-1-0.8-2.2-0.8-3.6v-19.5c0-1.3,0.3-2.5,0.8-3.6c0.4-0.9,1-1.8,1.9-2.5s2.2-1.1,3.8-1.1
		c1.6,0,2.8,0.4,3.7,1.1c0.9,0.7,1.5,1.6,1.9,2.5c0.5,1,0.8,2.2,0.8,3.6V389.9z M-403,370.4c0-0.9-0.2-1.5-0.6-2.1
		c-0.2-0.2-0.6-0.4-1-0.4c-0.9,0-1.3,0.6-1.4,1.2c-0.1,0.4-0.2,0.8-0.2,1.2v19.5c0,0.9,0.2,1.6,0.7,2.1c0.2,0.2,0.5,0.4,0.9,0.4
		c0.9,0,1.3-0.5,1.4-1.2c0.1-0.3,0.2-0.7,0.2-1.2V370.4z"/>
	<path id="XMLID_239_" class="st1" d="M-394.8,363.6h4.9c2.1,0,4.2,0.5,5.8,2.1c1.6,1.5,2.7,4,2.7,7.8s-1.1,6.3-2.7,7.8
		s-3.7,2.2-5.8,2.2v13.2h-4.9V363.6z M-390,378.5c1.5,0,2.4-0.3,3-1c0.5-0.7,0.7-1.9,0.7-3.8s-0.1-3.2-0.7-4c-0.5-0.8-1.5-1.2-3-1.2
		V378.5z"/>
	<path id="XMLID_238_" class="st1" d="M-380.7,368.6v-5h14v5h-4.6v28.1h-4.9v-28.1H-380.7z"/>
	<path id="XMLID_237_" class="st1" d="M-364.8,363.6h4.9v33.1h-4.9V363.6z"/>
	<path id="XMLID_236_" class="st1" d="M-343.7,385.3v4.5c0,1.3-0.3,2.6-0.8,3.6c-0.4,0.9-1,1.8-1.9,2.4c-0.9,0.7-2.1,1.1-3.7,1.1
		s-2.9-0.4-3.8-1.1s-1.5-1.5-1.9-2.4c-0.5-1-0.8-2.2-0.8-3.6v-19.5c0-1.3,0.3-2.5,0.8-3.6c0.4-0.9,1-1.8,1.9-2.5s2.2-1.1,3.8-1.1
		c1.6,0,2.8,0.4,3.7,1.1c0.9,0.7,1.5,1.6,1.9,2.5c0.5,1,0.8,2.2,0.8,3.6v4.5h-4.5v-4.5c0-0.9-0.2-1.5-0.7-2.1
		c-0.2-0.2-0.6-0.4-1.1-0.4c-0.9,0-1.3,0.6-1.5,1.2c-0.1,0.4-0.2,0.8-0.2,1.2v19.5c0,0.9,0.3,1.6,0.8,2.1c0.2,0.2,0.5,0.4,0.9,0.4
		c1,0,1.4-0.5,1.7-1.2c0.1-0.3,0.2-0.7,0.2-1.2v-4.5H-343.7z"/>
	<path id="XMLID_233_" class="st1" d="M-342.1,396.7l5-33.1h5.9l5,33.1h-4.7l-0.9-6.8h-4.7l-0.9,6.8H-342.1z M-333.9,374.4l-0.1-0.9
		h-0.3l-0.1,0.9l-1.4,10.4h3.3L-333.9,374.4z"/>
	<path id="XMLID_232_" class="st1" d="M-323.9,363.6h4.9v28.6h6.4v4.5h-11.3V363.6z"/>
	<path id="XMLID_231_" class="st1" d="M-295.9,375.5v-5.1c0-0.9-0.2-1.5-0.6-2.1c-0.2-0.2-0.6-0.4-1-0.4c-0.9,0-1.3,0.6-1.4,1.2
		c-0.1,0.4-0.2,0.8-0.2,1.2v19.9c0,0.9,0.2,1.6,0.7,2.1c0.2,0.2,0.5,0.4,0.9,0.4c0.9,0,1.3-0.5,1.4-1.2c0.1-0.3,0.2-0.7,0.2-1.2v-6
		h-1.9v-4.1h6.8v16.5h-2.9l-0.6-1.6c-0.9,1.1-2.2,1.9-3.8,1.9c-1.6,0-2.7-0.4-3.5-1.1s-1.3-1.5-1.7-2.4c-0.4-1-0.6-2.2-0.5-3.6
		v-19.5c0-1.3,0.3-2.5,0.8-3.6c0.4-0.9,1-1.8,1.9-2.5s2.2-1.1,3.8-1.1c1.6,0,2.8,0.4,3.7,1.1c0.9,0.7,1.5,1.6,1.9,2.5
		c0.5,1,0.8,2.2,0.8,3.6v5.1L-295.9,375.5L-295.9,375.5z"/>
	<path id="XMLID_228_" class="st1" d="M-288.9,396.7l5-33.1h5.9l5,33.1h-4.7l-0.9-6.8h-4.7l-0.9,6.8H-288.9z M-280.6,374.4l-0.1-0.9
		h-0.3l-0.1,0.9l-1.4,10.4h3.3L-280.6,374.4z"/>
	<path id="XMLID_227_" class="st1" d="M-273.4,368.6v-5h14v5h-4.6v28.1h-4.9v-28.1H-273.4z"/>
	<path id="XMLID_226_" class="st1" d="M-257.5,363.6h11.1v5h-6.3v8.7h4.5v5.3h-4.5v9.1h6.3v5h-11.1V363.6z"/>
	<path id="XMLID_223_" class="st1" d="M-236.7,396.7v-33.1h3.8c4.5,0,6.9,0.9,8.2,3.4s1.4,6.7,1.4,13.1s-0.2,10.6-1.4,13.1
		c-1.3,2.5-3.7,3.4-8.2,3.4h-3.8V396.7z M-231.8,391.8c1.7,0,2.6-0.2,3.1-1.8c0.2-0.8,0.4-1.9,0.4-3.5s0-3.7,0-6.4s0-4.8,0-6.4
		c0-1.5-0.2-2.7-0.4-3.5c-0.5-1.6-1.4-1.8-3.1-1.8V391.8z"/>
	<path id="XMLID_222_" class="st1" d="M-220,363.6h11.1v5h-6.3v8.7h4.5v5.3h-4.5v9.1h6.3v5H-220V363.6z"/>
	<path id="XMLID_221_" class="st1" d="M-198.1,372.5c0-1.1,0-2.3-0.4-3.2c-0.3-0.9-0.8-1.5-1.6-1.5c-1.3,0-1.7,1.4-1.7,3.3
		c0,1.1,0.5,2.3,1.2,3.6c0.7,1.3,1.7,2.6,2.6,4c1.1,1.7,2.2,3.4,3.1,5s1.4,3.4,1.4,5.2c0,2.2-0.4,4.3-1.4,5.8s-2.7,2.5-5.4,2.5
		c-3.1,0-4.9-1.2-5.8-3c-1-1.8-1.2-4.2-1.2-6.7l4.8-0.5c0,1.4,0,2.8,0.4,3.8c0.3,1.1,0.9,1.8,1.9,1.8c1.4,0,2-1.5,2-3.6
		c0-1.1-0.5-2.3-1.3-3.6c-0.4-0.6-0.8-1.3-1.3-2c-0.9-1.4-2-2.9-3.1-4.5c-1.1-1.7-1.9-3.4-2.4-5.1c-0.3-0.9-0.4-1.8-0.4-2.7
		c0-1.8,0.4-3.7,1.4-5.2c1-1.4,2.6-2.5,4.9-2.5c2.9,0,4.6,1.2,5.6,2.9c0.9,1.8,1.2,4,1.2,5.8L-198.1,372.5z"/>
	<path id="XMLID_220_" class="st1" d="M-190.7,363.6h4.9v33.1h-4.9V363.6z"/>
	<path id="XMLID_219_" class="st1" d="M-174.5,375.5v-5.1c0-0.9-0.2-1.5-0.6-2.1c-0.2-0.2-0.6-0.4-1-0.4c-0.9,0-1.3,0.6-1.4,1.2
		c-0.1,0.4-0.2,0.8-0.2,1.2v19.9c0,0.9,0.2,1.6,0.7,2.1c0.2,0.2,0.5,0.4,0.9,0.4c0.9,0,1.3-0.5,1.4-1.2c0.1-0.3,0.2-0.7,0.2-1.2v-6
		h-1.9v-4.1h6.8v16.5h-2.9l-0.6-1.6c-0.9,1.1-2.2,1.9-3.8,1.9s-2.7-0.4-3.5-1.1s-1.3-1.5-1.7-2.4c-0.4-1-0.6-2.2-0.5-3.6v-19.5
		c0-1.3,0.3-2.5,0.8-3.6c0.4-0.9,1-1.8,1.9-2.5s2.2-1.1,3.8-1.1s2.8,0.4,3.7,1.1s1.5,1.6,1.9,2.5c0.5,1,0.8,2.2,0.8,3.6v5.1
		L-174.5,375.5L-174.5,375.5z"/>
	<path id="XMLID_218_" class="st1" d="M-160.9,379.4l-0.4-1.5h-0.3v18.8h-4.5v-33.1h4.3l4.7,17.2l0.4,1.5h0.3v-18.8h4.5v33.1h-4.3
		L-160.9,379.4z"/>
	<path id="XMLID_217_" class="st1" d="M-129.8,368.6h-6.7v8.7h4.5v5h-4.5v14.4h-4.9v-33.1h11.6L-129.8,368.6L-129.8,368.6z"/>
	<path id="XMLID_214_" class="st1" d="M-115.2,389.9c0,1.3-0.3,2.6-0.8,3.6c-0.4,0.9-1,1.8-1.9,2.4c-0.9,0.7-2.1,1.1-3.7,1.1
		s-2.9-0.4-3.8-1.1s-1.5-1.5-1.9-2.4c-0.5-1-0.8-2.2-0.8-3.6v-19.5c0-1.3,0.3-2.5,0.8-3.6c0.4-0.9,1-1.8,1.9-2.5s2.2-1.1,3.8-1.1
		c1.6,0,2.8,0.4,3.7,1.1c0.9,0.7,1.5,1.6,1.9,2.5c0.5,1,0.8,2.2,0.8,3.6V389.9z M-120,370.4c0-0.9-0.2-1.5-0.6-2.1
		c-0.2-0.2-0.6-0.4-1-0.4c-0.9,0-1.3,0.6-1.4,1.2c-0.1,0.4-0.2,0.8-0.2,1.2v19.5c0,0.9,0.2,1.6,0.7,2.1c0.2,0.2,0.5,0.4,0.9,0.4
		c0.9,0,1.3-0.5,1.4-1.2c0.1-0.3,0.2-0.7,0.2-1.2V370.4z"/>
	<path id="XMLID_211_" class="st1" d="M-103.2,396.7l-2.5-13.9h-1.3v13.9h-4.9v-33.1h4.9c5.8,0,8.3,3.3,8.3,9.5
		c0,3.3-0.9,6.3-2.7,7.5l3.1,16h-4.9V396.7z M-107,378.2c0.7,0,1.6-0.1,2.3-0.7c0.7-0.6,1.3-1.8,1.3-4.2s-0.6-3.6-1.3-4.2
		c-0.7-0.6-1.6-0.7-2.3-0.7V378.2z"/>
	<path id="XMLID_210_" class="st1" d="M-315.8,417.6h4.9v28.6h6.4v4.5h-11.3V417.6z"/>
	<path id="XMLID_209_" class="st1" d="M-302.5,417.6h4.9v33.1h-4.9V417.6z"/>
	<path id="XMLID_205_" class="st1" d="M-294,450.7v-33.1h4.3c2.9,0,5.1,0.5,6.6,1.9s2.2,3.6,2.2,6.8c0,1.6-0.1,2.7-0.6,3.8
		c-0.5,1.1-1.3,2-2.4,3c1.2,0.7,2.1,1.9,2.8,4c0.4,1,0.5,2.4,0.5,4c0,2.5-0.4,4.7-1.6,6.4s-3.1,2.8-5.9,3h-5.9V450.7z M-289.2,431.2
		c0.4,0,1.3,0,2.2-0.5c0.8-0.5,1.4-1.6,1.4-3.9s-0.6-3.4-1.4-3.9s-1.8-0.5-2.2-0.5V431.2z M-289.2,445.9c0.4,0,1.3,0.1,2.2-0.5
		c0.8-0.6,1.4-1.9,1.4-4.6s-0.6-4-1.4-4.6s-1.8-0.5-2.2-0.5V445.9z"/>
	<path id="XMLID_202_" class="st1" d="M-269,450.7l-2.5-13.9h-1.3v13.9h-4.9v-33.1h4.9c5.8,0,8.3,3.3,8.3,9.5c0,3.3-0.9,6.3-2.7,7.5
		l3.1,16h-4.9V450.7z M-272.8,432.2c0.7,0,1.6-0.1,2.3-0.7s1.3-1.8,1.3-4.2c0-2.3-0.6-3.6-1.3-4.2s-1.6-0.7-2.3-0.7V432.2z"/>
	<path id="XMLID_199_" class="st1" d="M-262.8,450.7l5-33.1h5.9l5,33.1h-4.7l-0.9-6.8h-4.7l-0.9,6.8H-262.8z M-254.5,428.4l-0.1-0.9
		h-0.3l-0.1,0.9l-1.4,10.4h3.3L-254.5,428.4z"/>
	<path id="XMLID_196_" class="st1" d="M-235.9,450.7l-2.5-13.9h-1.3v13.9h-4.9v-33.1h4.9c5.8,0,8.3,3.3,8.3,9.5
		c0,3.3-0.9,6.3-2.7,7.5l3.1,16h-4.9V450.7z M-239.7,432.2c0.7,0,1.6-0.1,2.3-0.7s1.3-1.8,1.3-4.2c0-2.3-0.6-3.6-1.3-4.2
		s-1.6-0.7-2.3-0.7V432.2z"/>
	<path id="XMLID_195_" class="st1" d="M-228.3,417.6h4.9v33.1h-4.9V417.6z"/>
	<path id="XMLID_194_" class="st1" d="M-219.9,417.6h11.1v5h-6.3v8.7h4.5v5.3h-4.5v9.1h6.3v5h-11.1V417.6z"/>
	<path id="XMLID_193_" class="st1" d="M-198,426.5c0-1.1,0-2.3-0.4-3.2c-0.3-0.9-0.8-1.5-1.6-1.5c-1.3,0-1.7,1.3-1.7,3.3
		c0,1.1,0.5,2.3,1.2,3.6c0.7,1.3,1.7,2.6,2.6,4c1.1,1.7,2.2,3.4,3.1,5s1.4,3.4,1.4,5.2c0,2.2-0.4,4.3-1.4,5.8s-2.7,2.5-5.4,2.5
		c-3.1,0-4.9-1.2-5.8-3c-1-1.8-1.2-4.2-1.2-6.7l4.8-0.5c0,1.4,0,2.8,0.4,3.8c0.3,1.1,0.9,1.8,1.9,1.8c1.4,0,2-1.5,2-3.6
		c0-1.1-0.5-2.3-1.3-3.6c-0.4-0.6-0.8-1.3-1.3-2c-0.9-1.4-2-2.9-3.1-4.5c-1.1-1.7-1.9-3.4-2.4-5.1c-0.3-0.9-0.4-1.8-0.4-2.7
		c0-1.8,0.4-3.7,1.4-5.2c1-1.4,2.6-2.5,4.9-2.5c2.9,0,4.6,1.2,5.6,2.9c0.9,1.8,1.2,4,1.2,5.8L-198,426.5z"/>
</g>
</svg>
