<?xml version="1.0" encoding="utf-8"?>
<!-- Generator: Adobe Illustrator 19.0.0, SVG Export Plug-In . SVG Version: 6.00 Build 0)  -->
<svg version="1.1" id="Layer_1" xmlns="http://www.w3.org/2000/svg" xmlns:xlink="http://www.w3.org/1999/xlink" x="0px" y="0px"
	 viewBox="-447 209 384 384" style="enable-background:new -447 209 384 384;" xml:space="preserve">
<style type="text/css">
	.st0{fill:#FFDE00;}
	.st1{fill:#231F20;}
</style>
<g id="XMLID_75_">
	<rect id="XMLID_191_" x="-447" y="209" class="st0" width="384" height="384"/>
</g>
<g id="XMLID_129_">
	<path id="XMLID_189_" class="st1" d="M-395.7,385.3v4.5c0,1.3-0.3,2.6-0.8,3.6c-0.4,0.9-1,1.8-1.9,2.4c-0.9,0.7-2.1,1.1-3.7,1.1
		s-2.9-0.4-3.8-1.1s-1.5-1.5-1.9-2.4c-0.5-1-0.8-2.2-0.8-3.6v-19.5c0-1.3,0.3-2.5,0.8-3.6c0.4-0.9,1-1.8,1.9-2.5s2.2-1.1,3.8-1.1
		s2.8,0.4,3.7,1.1c0.9,0.7,1.5,1.6,1.9,2.5c0.5,1,0.8,2.2,0.8,3.6v4.5h-4.5v-4.5c0-0.9-0.2-1.5-0.7-2.1c-0.2-0.2-0.6-0.4-1.1-0.4
		c-0.9,0-1.3,0.6-1.5,1.2c-0.1,0.4-0.2,0.8-0.2,1.2v19.5c0,0.9,0.3,1.6,0.8,2.1c0.2,0.2,0.5,0.4,0.9,0.4c1,0,1.4-0.5,1.7-1.2
		c0.1-0.3,0.2-0.7,0.2-1.2v-4.5H-395.7z"/>
	<path id="XMLID_186_" class="st1" d="M-384.1,396.7l-2.5-13.9h-1.3v13.9h-4.9v-33.1h4.9c5.8,0,8.3,3.3,8.3,9.5
		c0,3.3-0.9,6.3-2.7,7.5l3.1,16h-4.9V396.7z M-387.9,378.2c0.7,0,1.6-0.1,2.3-0.7c0.7-0.6,1.3-1.8,1.3-4.2s-0.6-3.6-1.3-4.2
		c-0.7-0.6-1.6-0.7-2.3-0.7V378.2z"/>
	<path id="XMLID_185_" class="st1" d="M-376.6,363.6h4.9v33.1h-4.9V363.6z"/>
	<path id="XMLID_184_" class="st1" d="M-369.8,368.6v-5h14v5h-4.6v28.1h-4.9v-28.1H-369.8z"/>
	<path id="XMLID_183_" class="st1" d="M-353.9,363.6h4.9v33.1h-4.9V363.6z"/>
	<path id="XMLID_182_" class="st1" d="M-332.8,385.3v4.5c0,1.3-0.3,2.6-0.8,3.6c-0.4,0.9-1,1.8-1.9,2.4c-0.9,0.7-2.1,1.1-3.7,1.1
		s-2.9-0.4-3.8-1.1s-1.5-1.5-1.9-2.4c-0.5-1-0.8-2.2-0.8-3.6v-19.5c0-1.3,0.3-2.5,0.8-3.6c0.4-0.9,1-1.8,1.9-2.5s2.2-1.1,3.8-1.1
		s2.8,0.4,3.7,1.1c0.9,0.7,1.5,1.6,1.9,2.5c0.5,1,0.8,2.2,0.8,3.6v4.5h-4.5v-4.5c0-0.9-0.2-1.5-0.7-2.1c-0.2-0.2-0.6-0.4-1.1-0.4
		c-0.9,0-1.3,0.6-1.5,1.2c-0.1,0.4-0.2,0.8-0.2,1.2v19.5c0,0.9,0.3,1.6,0.8,2.1c0.2,0.2,0.5,0.4,0.9,0.4c1,0,1.4-0.5,1.7-1.2
		c0.1-0.3,0.2-0.7,0.2-1.2v-4.5H-332.8z"/>
	<path id="XMLID_179_" class="st1" d="M-331.2,396.7l5-33.1h5.9l5,33.1h-4.7l-0.9-6.8h-4.7l-0.9,6.8H-331.2z M-323,374.3l-0.1-0.9
		h-0.3l-0.1,0.9l-1.4,10.4h3.3L-323,374.3z"/>
	<path id="XMLID_178_" class="st1" d="M-313,363.6h4.9v28.6h6.4v4.5H-313V363.6z"/>
	<path id="XMLID_175_" class="st1" d="M-292.8,396.7v-33.1h3.8c4.5,0,6.9,0.9,8.2,3.4c1.3,2.5,1.4,6.7,1.4,13.1s-0.2,10.6-1.4,13.1
		c-1.3,2.5-3.7,3.4-8.2,3.4h-3.8V396.7z M-288,391.8c1.7,0,2.6-0.2,3.1-1.8c0.2-0.8,0.4-1.9,0.5-3.5s0-3.7,0-6.4s0-4.8,0-6.4
		c0-1.5-0.2-2.7-0.5-3.5c-0.5-1.6-1.4-1.8-3.1-1.8V391.8z"/>
	<path id="XMLID_174_" class="st1" d="M-276.1,363.6h11.1v5h-6.3v8.7h4.5v5.3h-4.5v9.1h6.3v5h-11.1V363.6z"/>
	<path id="XMLID_173_" class="st1" d="M-254.2,372.4c0-1.1,0-2.3-0.4-3.2c-0.3-0.9-0.8-1.5-1.6-1.5c-1.3,0-1.7,1.4-1.7,3.3
		c0,1.1,0.5,2.3,1.2,3.6s1.7,2.6,2.6,4c1.1,1.7,2.2,3.4,3.1,5c0.9,1.7,1.4,3.4,1.4,5.2c0,2.2-0.4,4.3-1.4,5.8s-2.7,2.5-5.4,2.5
		c-3.1,0-4.9-1.2-5.8-3c-1-1.8-1.2-4.2-1.2-6.7l4.8-0.5c0,1.4,0,2.8,0.4,3.8c0.3,1.1,0.9,1.8,1.9,1.8c1.4,0,2-1.5,2-3.6
		c0-1.1-0.5-2.3-1.3-3.6c-0.4-0.6-0.8-1.3-1.3-2c-0.9-1.4-2-2.9-3.1-4.5c-1.1-1.7-1.9-3.4-2.4-5.1c-0.3-0.9-0.4-1.8-0.4-2.7
		c0-1.8,0.4-3.7,1.4-5.2c1-1.4,2.6-2.5,4.9-2.5c2.9,0,4.6,1.2,5.6,2.9c0.9,1.8,1.2,4,1.2,5.8L-254.2,372.4z"/>
	<path id="XMLID_172_" class="st1" d="M-246.8,363.6h4.9v33.1h-4.9V363.6z"/>
	<path id="XMLID_171_" class="st1" d="M-230.6,375.5v-5.1c0-0.9-0.2-1.5-0.6-2.1c-0.2-0.2-0.6-0.4-1-0.4c-0.9,0-1.3,0.6-1.4,1.2
		c-0.1,0.4-0.2,0.8-0.2,1.2v19.9c0,0.9,0.2,1.6,0.7,2.1c0.2,0.2,0.5,0.4,0.9,0.4c0.9,0,1.3-0.5,1.4-1.2c0.1-0.3,0.2-0.7,0.2-1.2v-6
		h-1.9v-4.1h6.8v16.5h-2.9l-0.6-1.6c-0.9,1.1-2.2,1.9-3.8,1.9s-2.7-0.4-3.5-1.1s-1.3-1.5-1.7-2.4c-0.4-1-0.6-2.2-0.5-3.6v-19.5
		c0-1.3,0.3-2.5,0.8-3.6c0.4-0.9,1-1.8,1.9-2.5s2.2-1.1,3.8-1.1s2.8,0.4,3.7,1.1s1.5,1.6,1.9,2.5c0.5,1,0.8,2.2,0.8,3.6v5.1
		L-230.6,375.5L-230.6,375.5z"/>
	<path id="XMLID_170_" class="st1" d="M-217,379.4l-0.4-1.5h-0.3v18.8h-4.5v-33.1h4.3l4.7,17.2l0.4,1.5h0.3v-18.8h4.5v33.1h-4.3
		L-217,379.4z"/>
	<path id="XMLID_167_" class="st1" d="M-197.5,363.6h4.9c2.1,0,4.2,0.5,5.8,2.1s2.7,4,2.7,7.8s-1.1,6.3-2.7,7.8s-3.7,2.2-5.8,2.2
		v13.2h-4.9V363.6z M-192.6,378.5c1.5,0,2.4-0.3,3-1c0.5-0.7,0.7-1.9,0.7-3.8s-0.1-3.2-0.7-4s-1.5-1.2-3-1.2V378.5z"/>
	<path id="XMLID_164_" class="st1" d="M-169,389.9c0,1.3-0.3,2.6-0.8,3.6c-0.4,0.9-1,1.8-1.9,2.4c-0.9,0.7-2.1,1.1-3.7,1.1
		s-2.9-0.4-3.8-1.1c-0.9-0.7-1.5-1.5-1.9-2.4c-0.5-1-0.8-2.2-0.8-3.6v-19.5c0-1.3,0.3-2.5,0.8-3.6c0.4-0.9,1-1.8,1.9-2.5
		s2.2-1.1,3.8-1.1s2.8,0.4,3.7,1.1s1.5,1.6,1.9,2.5c0.5,1,0.8,2.2,0.8,3.6V389.9z M-173.8,370.4c0-0.9-0.2-1.5-0.6-2.1
		c-0.2-0.2-0.6-0.4-1-0.4c-0.9,0-1.3,0.6-1.4,1.2c-0.1,0.4-0.2,0.8-0.2,1.2v19.5c0,0.9,0.2,1.6,0.7,2.1c0.2,0.2,0.5,0.4,0.9,0.4
		c0.9,0,1.3-0.5,1.4-1.2c0.1-0.3,0.2-0.7,0.2-1.2L-173.8,370.4L-173.8,370.4z"/>
	<path id="XMLID_163_" class="st1" d="M-157.6,372.4c0-1.1,0-2.3-0.4-3.2c-0.3-0.9-0.8-1.5-1.6-1.5c-1.3,0-1.7,1.4-1.7,3.3
		c0,1.1,0.5,2.3,1.2,3.6s1.7,2.6,2.6,4c1.1,1.7,2.2,3.4,3.1,5c0.9,1.7,1.4,3.4,1.4,5.2c0,2.2-0.4,4.3-1.4,5.8s-2.7,2.5-5.4,2.5
		c-3.1,0-4.9-1.2-5.8-3c-1-1.8-1.2-4.2-1.2-6.7l4.8-0.5c0,1.4,0,2.8,0.4,3.8c0.3,1.1,0.9,1.8,1.9,1.8c1.4,0,2-1.5,2-3.6
		c0-1.1-0.5-2.3-1.3-3.6c-0.4-0.6-0.8-1.3-1.3-2c-0.9-1.4-2-2.9-3.1-4.5c-1.1-1.7-1.9-3.4-2.4-5.1c-0.3-0.9-0.4-1.8-0.4-2.7
		c0-1.8,0.4-3.7,1.4-5.2c1-1.4,2.6-2.5,4.9-2.5c2.9,0,4.6,1.2,5.6,2.9c0.9,1.8,1.2,4,1.2,5.8L-157.6,372.4z"/>
	<path id="XMLID_162_" class="st1" d="M-152,368.6v-5h14v5h-4.6v28.1h-4.9v-28.1H-152z"/>
	<path id="XMLID_161_" class="st1" d="M-136,363.6h11.1v5h-6.3v8.7h4.5v5.3h-4.5v9.1h6.3v5H-136V363.6z"/>
	<path id="XMLID_158_" class="st1" d="M-113.5,396.7l-2.5-13.9h-1.3v13.9h-4.9v-33.1h4.9c5.8,0,8.3,3.3,8.3,9.5
		c0,3.3-0.9,6.3-2.7,7.5l3.1,16h-4.9V396.7z M-117.4,378.2c0.7,0,1.6-0.1,2.3-0.7c0.7-0.6,1.3-1.8,1.3-4.2s-0.6-3.6-1.3-4.2
		c-0.7-0.6-1.6-0.7-2.3-0.7V378.2z"/>
	<path id="XMLID_155_" class="st1" d="M-106.2,372h4.7v5h-4.7V372z M-106.2,391.7h4.7v5h-4.7V391.7z"/>
	<path id="XMLID_154_" class="st1" d="M-369.5,417.6v26.3c0,1.4-0.3,2.6-0.8,3.6c-0.4,0.9-1,1.8-1.9,2.4c-0.9,0.7-2.1,1.1-3.7,1.1
		s-2.9-0.4-3.8-1.1s-1.5-1.5-1.9-2.4c-0.5-1-0.8-2.2-0.8-3.6v-26.3h4.9v26.3c0,0.9,0.2,1.6,0.7,2.1c0.2,0.2,0.5,0.4,0.9,0.4
		c0.9,0,1.3-0.5,1.4-1.2c0.1-0.3,0.2-0.7,0.2-1.2v-26.3L-369.5,417.6L-369.5,417.6z"/>
	<path id="XMLID_153_" class="st1" d="M-360.8,433.4l-0.4-1.5h-0.3v18.8h-4.5v-33.1h4.3l4.7,17.2l0.4,1.5h0.3v-18.8h4.5v33.1h-4.3
		L-360.8,433.4z"/>
	<path id="XMLID_150_" class="st1" d="M-348.2,450.7v-33.1h3.8c4.5,0,6.9,0.9,8.2,3.4c1.3,2.5,1.4,6.7,1.4,13.1
		c0,6.5-0.2,10.6-1.4,13.1c-1.3,2.5-3.7,3.4-8.2,3.4h-3.8V450.7z M-343.3,445.8c1.7,0,2.6-0.2,3.1-1.8c0.2-0.8,0.4-1.9,0.5-3.5
		c0-1.6,0-3.7,0-6.4c0-2.7,0-4.8,0-6.4c0-1.5-0.2-2.7-0.5-3.5c-0.5-1.6-1.4-1.8-3.1-1.8V445.8z"/>
	<path id="XMLID_149_" class="st1" d="M-331.5,417.6h11.1v5h-6.3v8.7h4.5v5.3h-4.5v9.1h6.3v5h-11.1V417.6z"/>
	<path id="XMLID_148_" class="st1" d="M-309.6,426.4c0-1.1,0-2.3-0.4-3.2c-0.3-0.9-0.8-1.5-1.6-1.5c-1.3,0-1.7,1.3-1.7,3.3
		c0,1.1,0.5,2.3,1.2,3.6c0.7,1.3,1.7,2.6,2.6,4c1.1,1.7,2.2,3.4,3.1,5c0.9,1.7,1.4,3.4,1.4,5.2c0,2.2-0.4,4.3-1.4,5.8
		s-2.7,2.5-5.4,2.5c-3.1,0-4.9-1.2-5.8-3c-1-1.8-1.2-4.2-1.2-6.7l4.8-0.5c0,1.4,0,2.8,0.4,3.8c0.3,1.1,0.9,1.8,1.9,1.8
		c1.4,0,2-1.5,2-3.6c0-1.1-0.5-2.3-1.3-3.6c-0.4-0.6-0.8-1.3-1.3-2c-0.9-1.4-2-2.9-3.1-4.5c-1.1-1.7-1.9-3.4-2.4-5.1
		c-0.3-0.9-0.4-1.8-0.4-2.7c0-1.8,0.4-3.7,1.4-5.2c1-1.4,2.6-2.5,4.9-2.5c2.9,0,4.6,1.2,5.6,2.9c0.9,1.8,1.2,4,1.2,5.8L-309.6,426.4
		z"/>
	<path id="XMLID_147_" class="st1" d="M-302.2,417.6h4.9v33.1h-4.9V417.6z"/>
	<path id="XMLID_146_" class="st1" d="M-286,429.5v-5.1c0-0.9-0.2-1.5-0.6-2.1c-0.2-0.2-0.6-0.4-1-0.4c-0.9,0-1.3,0.6-1.4,1.2
		c-0.1,0.4-0.2,0.8-0.2,1.2v19.9c0,0.9,0.2,1.6,0.7,2.1c0.2,0.2,0.5,0.4,0.9,0.4c0.9,0,1.3-0.5,1.4-1.2c0.1-0.3,0.2-0.7,0.2-1.2v-6
		h-1.9v-4.1h6.8v16.5h-2.9l-0.6-1.6c-0.9,1.1-2.2,1.9-3.8,1.9c-1.6,0-2.7-0.4-3.5-1.1s-1.3-1.5-1.7-2.4c-0.4-1-0.6-2.2-0.5-3.6
		v-19.5c0-1.3,0.3-2.5,0.8-3.6c0.4-0.9,1-1.8,1.9-2.5s2.2-1.1,3.8-1.1s2.8,0.5,3.7,1.1c0.9,0.7,1.5,1.6,1.9,2.5
		c0.5,1,0.8,2.2,0.8,3.6v5.1L-286,429.5L-286,429.5z"/>
	<path id="XMLID_145_" class="st1" d="M-272.4,433.4l-0.4-1.5h-0.3v18.8h-4.5v-33.1h4.3l4.7,17.2l0.4,1.5h0.3v-18.8h4.5v33.1h-4.3
		L-272.4,433.4z"/>
	<path id="XMLID_144_" class="st1" d="M-259.8,417.6h11.1v5h-6.3v8.7h4.5v5.3h-4.5v9.1h6.3v5h-11.1V417.6z"/>
	<path id="XMLID_141_" class="st1" d="M-246,450.7v-33.1h3.8c4.5,0,6.9,0.9,8.2,3.4s1.4,6.7,1.4,13.1c0,6.5-0.2,10.6-1.4,13.1
		c-1.3,2.5-3.7,3.4-8.2,3.4h-3.8V450.7z M-241.1,445.8c1.7,0,2.6-0.2,3.1-1.8c0.2-0.8,0.4-1.9,0.5-3.5c0-1.6,0-3.7,0-6.4
		c0-2.7,0-4.8,0-6.4c0-1.5-0.2-2.7-0.5-3.5c-0.5-1.6-1.4-1.8-3.1-1.8V445.8z"/>
	<path id="XMLID_138_" class="st1" d="M-213.6,450.7l-2.5-13.9h-1.3v13.9h-4.9v-33.1h4.9c5.8,0,8.3,3.3,8.3,9.5
		c0,3.3-0.9,6.3-2.7,7.5l3.1,16h-4.9V450.7z M-217.4,432.2c0.7,0,1.6-0.1,2.3-0.7s1.3-1.8,1.3-4.2c0-2.3-0.6-3.6-1.3-4.2
		s-1.6-0.7-2.3-0.7V432.2z"/>
	<path id="XMLID_137_" class="st1" d="M-206,417.6h11.1v5h-6.3v8.7h4.5v5.3h-4.5v9.1h6.3v5H-206V417.6z"/>
	<path id="XMLID_134_" class="st1" d="M-193.5,450.7l5-33.1h5.9l5,33.1h-4.7l-0.9-6.8h-4.7l-0.9,6.8H-193.5z M-185.3,428.3l-0.1-0.9
		h-0.3l-0.1,0.9l-1.4,10.4h3.3L-185.3,428.3z"/>
	<path id="XMLID_133_" class="st1" d="M-175.3,417.6h4.9v28.6h6.4v4.5h-11.3L-175.3,417.6L-175.3,417.6z"/>
	<path id="XMLID_132_" class="st1" d="M-162,417.6h4.9v33.1h-4.9V417.6z"/>
	<path id="XMLID_131_" class="st1" d="M-155.3,422.6v-5h14v5h-4.6v28.1h-4.9v-28.1H-155.3z"/>
	<path id="XMLID_130_" class="st1" d="M-133.6,428.2l0.1,0.3h0.1l0.1-0.3l2.4-10.6h4.8l-4.9,19v14.1h-4.9v-14.1l-4.9-19h4.8
		L-133.6,428.2z"/>
</g>
</svg>
