<?xml version="1.0" encoding="utf-8"?>
<!-- Generator: Adobe Illustrator 19.0.0, SVG Export Plug-In . SVG Version: 6.00 Build 0)  -->
<svg version="1.1" id="Layer_1" xmlns="http://www.w3.org/2000/svg" xmlns:xlink="http://www.w3.org/1999/xlink" x="0px" y="0px"
	 viewBox="-447 209 384 384" style="enable-background:new -447 209 384 384;" xml:space="preserve">
<style type="text/css">
	.st0{fill:#FFDE00;}
	.st1{fill:#231F20;}
</style>
<g id="XMLID_1_">
	<rect id="XMLID_128_" x="-447" y="209" class="st0" width="384" height="384"/>
</g>
<g id="XMLID_77_">
	<path id="XMLID_124_" class="st1" d="M-391.1,363.5h4.9c2.1,0,4.2,0.5,5.8,2.1c1.6,1.5,2.7,4,2.7,7.8s-1.1,6.3-2.7,7.8
		s-3.7,2.2-5.8,2.2v13.2h-4.9V363.5z M-386.2,378.4c1.5,0,2.4-0.3,3-1c0.5-0.7,0.7-1.9,0.7-3.8c0-1.8-0.1-3.1-0.7-4
		c-0.5-0.8-1.5-1.2-3-1.2V378.4z"/>
	<path id="XMLID_121_" class="st1" d="M-366.5,396.6l-2.5-13.9h-1.3v13.9h-4.9v-33.1h4.9c5.8,0,8.3,3.3,8.3,9.5
		c0,3.3-0.9,6.3-2.7,7.5l3.1,16h-4.9V396.6z M-370.4,378.1c0.7,0,1.6-0.1,2.3-0.7c0.7-0.6,1.3-1.8,1.3-4.2s-0.6-3.6-1.3-4.2
		c-0.7-0.6-1.6-0.7-2.3-0.7V378.1z"/>
	<path id="XMLID_118_" class="st1" d="M-346.3,389.8c0,1.4-0.3,2.6-0.8,3.6c-0.4,0.9-1,1.8-1.9,2.4c-0.9,0.7-2.1,1.1-3.7,1.1
		s-2.9-0.4-3.8-1.1s-1.5-1.5-1.9-2.4c-0.5-1-0.8-2.2-0.8-3.6v-19.5c0-1.3,0.3-2.5,0.8-3.6c0.4-0.9,1-1.8,1.9-2.5s2.2-1.1,3.8-1.1
		s2.8,0.4,3.7,1.1c0.9,0.7,1.5,1.6,1.9,2.5c0.5,1,0.8,2.2,0.8,3.6V389.8z M-351.2,370.3c0-0.9-0.2-1.5-0.6-2.1
		c-0.2-0.2-0.6-0.4-1-0.4c-0.9,0-1.3,0.6-1.4,1.2c-0.1,0.4-0.2,0.8-0.2,1.2v19.5c0,0.9,0.2,1.6,0.7,2.1c0.2,0.2,0.5,0.4,0.9,0.4
		c0.9,0,1.3-0.5,1.4-1.2c0.1-0.3,0.2-0.7,0.2-1.2V370.3z"/>
	<path id="XMLID_115_" class="st1" d="M-343,363.5h4.9c2.1,0,4.2,0.5,5.8,2.1c1.6,1.5,2.7,4,2.7,7.8s-1.1,6.3-2.7,7.8
		s-3.7,2.2-5.8,2.2v13.2h-4.9V363.5z M-338.2,378.4c1.5,0,2.4-0.3,3-1c0.5-0.7,0.7-1.9,0.7-3.8c0-1.8-0.1-3.1-0.7-4
		c-0.5-0.8-1.5-1.2-3-1.2V378.4z"/>
	<path id="XMLID_112_" class="st1" d="M-314.6,389.8c0,1.4-0.3,2.6-0.8,3.6c-0.4,0.9-1,1.8-1.9,2.4c-0.9,0.7-2.1,1.1-3.7,1.1
		s-2.9-0.4-3.8-1.1s-1.5-1.5-1.9-2.4c-0.5-1-0.8-2.2-0.8-3.6v-19.5c0-1.3,0.3-2.5,0.8-3.6c0.4-0.9,1-1.8,1.9-2.5s2.2-1.1,3.8-1.1
		s2.8,0.4,3.7,1.1c0.9,0.7,1.5,1.6,1.9,2.5c0.5,1,0.8,2.2,0.8,3.6V389.8z M-319.4,370.3c0-0.9-0.2-1.5-0.6-2.1
		c-0.2-0.2-0.6-0.4-1-0.4c-0.9,0-1.3,0.6-1.4,1.2c-0.1,0.4-0.2,0.8-0.2,1.2v19.5c0,0.9,0.2,1.6,0.7,2.1c0.2,0.2,0.5,0.4,0.9,0.4
		c0.9,0,1.3-0.5,1.4-1.2c0.1-0.3,0.2-0.7,0.2-1.2V370.3z"/>
	<path id="XMLID_111_" class="st1" d="M-303.2,372.4c0-1.1,0-2.3-0.4-3.2c-0.3-0.9-0.8-1.5-1.6-1.5c-1.3,0-1.7,1.4-1.7,3.3
		c0,1.1,0.5,2.3,1.2,3.6s1.7,2.6,2.6,4c1.1,1.7,2.2,3.4,3.1,5c0.9,1.7,1.4,3.4,1.4,5.2c0,2.2-0.4,4.3-1.4,5.8s-2.7,2.5-5.4,2.5
		c-3.1,0-4.9-1.2-5.8-3c-1-1.8-1.2-4.2-1.2-6.7l4.8-0.5c0,1.4,0,2.8,0.4,3.8c0.3,1.1,0.9,1.8,1.9,1.8c1.4,0,2-1.5,2-3.6
		c0-1.1-0.5-2.3-1.3-3.6c-0.4-0.6-0.8-1.3-1.3-2c-0.9-1.4-2-2.9-3.1-4.5c-1.1-1.7-1.9-3.4-2.4-5.1c-0.3-0.9-0.4-1.8-0.4-2.7
		c0-1.8,0.4-3.7,1.4-5.2c1-1.4,2.6-2.5,4.9-2.5c2.9,0,4.6,1.2,5.6,2.9c0.9,1.8,1.2,4,1.2,5.8L-303.2,372.4z"/>
	<path id="XMLID_108_" class="st1" d="M-297.2,396.6l5-33.1h5.9l5,33.1h-4.7l-0.9-6.7h-4.7l-0.9,6.7H-297.2z M-289,374.3l-0.1-0.9
		h-0.3l-0.1,0.9l-1.4,10.4h3.3L-289,374.3z"/>
	<path id="XMLID_107_" class="st1" d="M-279,363.5h4.9v28.6h6.4v4.5H-279V363.5z"/>
	<path id="XMLID_106_" class="st1" d="M-247.2,368.5h-6.7v8.7h4.5v5h-4.5v14.4h-4.9v-33.1h11.6L-247.2,368.5L-247.2,368.5z"/>
	<path id="XMLID_103_" class="st1" d="M-232.6,389.8c0,1.4-0.3,2.6-0.8,3.6c-0.4,0.9-1,1.8-1.9,2.4c-0.9,0.7-2.1,1.1-3.7,1.1
		s-2.9-0.4-3.8-1.1c-0.9-0.7-1.5-1.5-1.9-2.4c-0.5-1-0.8-2.2-0.8-3.6v-19.5c0-1.3,0.3-2.5,0.8-3.6c0.4-0.9,1-1.8,1.9-2.5
		s2.2-1.1,3.8-1.1s2.8,0.4,3.7,1.1s1.5,1.6,1.9,2.5c0.5,1,0.8,2.2,0.8,3.6V389.8z M-237.5,370.3c0-0.9-0.2-1.5-0.6-2.1
		c-0.2-0.2-0.6-0.4-1-0.4c-0.9,0-1.3,0.6-1.4,1.2c-0.1,0.4-0.2,0.8-0.2,1.2v19.5c0,0.9,0.2,1.6,0.7,2.1c0.2,0.2,0.5,0.4,0.9,0.4
		c0.9,0,1.3-0.5,1.4-1.2c0.1-0.3,0.2-0.7,0.2-1.2L-237.5,370.3L-237.5,370.3z"/>
	<path id="XMLID_100_" class="st1" d="M-220.6,396.6l-2.5-13.9h-1.3v13.9h-4.9v-33.1h4.9c5.8,0,8.3,3.3,8.3,9.5
		c0,3.3-0.9,6.3-2.7,7.5l3.1,16h-4.9V396.6z M-224.5,378.1c0.7,0,1.6-0.1,2.3-0.7s1.3-1.8,1.3-4.2s-0.6-3.6-1.3-4.2
		s-1.6-0.7-2.3-0.7V378.1z"/>
	<path id="XMLID_99_" class="st1" d="M-197.3,363.5h4.7l-5,33.1h-4.9l-5-33.1h4.7l2.4,18.2l0.2,1.4h0.3l0.2-1.4L-197.3,363.5z"/>
	<path id="XMLID_98_" class="st1" d="M-190.4,363.5h11.1v5h-6.3v8.7h4.5v5.3h-4.5v9.1h6.3v5h-11.1V363.5z"/>
	<path id="XMLID_95_" class="st1" d="M-167.9,396.6l-2.5-13.9h-1.3v13.9h-4.9v-33.1h4.9c5.8,0,8.3,3.3,8.3,9.5
		c0,3.3-0.9,6.3-2.7,7.5l3.1,16h-4.9V396.6z M-171.7,378.1c0.7,0,1.6-0.1,2.3-0.7s1.3-1.8,1.3-4.2s-0.6-3.6-1.3-4.2
		s-1.6-0.7-2.3-0.7V378.1z"/>
	<path id="XMLID_92_" class="st1" d="M-147.7,389.8c0,1.4-0.3,2.6-0.8,3.6c-0.4,0.9-1,1.8-1.9,2.4c-0.9,0.7-2.1,1.1-3.7,1.1
		s-2.9-0.4-3.8-1.1c-0.9-0.7-1.5-1.5-1.9-2.4c-0.5-1-0.8-2.2-0.8-3.6v-19.5c0-1.3,0.3-2.5,0.8-3.6c0.4-0.9,1-1.8,1.9-2.5
		s2.2-1.1,3.8-1.1s2.8,0.4,3.7,1.1s1.5,1.6,1.9,2.5c0.5,1,0.8,2.2,0.8,3.6V389.8z M-152.6,370.3c0-0.9-0.2-1.5-0.6-2.1
		c-0.2-0.2-0.6-0.4-1-0.4c-0.9,0-1.3,0.6-1.4,1.2c-0.1,0.4-0.2,0.8-0.2,1.2v19.5c0,0.9,0.2,1.6,0.7,2.1c0.2,0.2,0.5,0.4,0.9,0.4
		c0.9,0,1.3-0.5,1.4-1.2c0.1-0.3,0.2-0.7,0.2-1.2L-152.6,370.3L-152.6,370.3z"/>
	<path id="XMLID_91_" class="st1" d="M-145,391.6h4.7v5h-4.7V391.6z"/>
	<path id="XMLID_90_" class="st1" d="M-125.8,368.5h-6.7v8.7h4.5v5h-4.5v14.4h-4.9v-33.1h11.6C-125.8,363.5-125.8,368.5-125.8,368.5
		z"/>
	<path id="XMLID_89_" class="st1" d="M-123.8,363.5h4.9v33.1h-4.9V363.5z"/>
	<path id="XMLID_86_" class="st1" d="M-301.8,450.6l-2.5-13.9h-1.3v13.9h-4.9v-33.1h4.9c5.8,0,8.3,3.3,8.3,9.5
		c0,3.3-0.9,6.3-2.7,7.5l3.1,16h-4.9V450.6z M-305.6,432.1c0.7,0,1.6-0.1,2.3-0.7c0.7-0.6,1.3-1.8,1.3-4.2c0-2.3-0.6-3.6-1.3-4.2
		c-0.7-0.6-1.6-0.7-2.3-0.7V432.1z"/>
	<path id="XMLID_85_" class="st1" d="M-294.2,417.5h11.1v5h-6.3v8.7h4.5v5.3h-4.5v9.1h6.3v5h-11.1V417.5z"/>
	<path id="XMLID_84_" class="st1" d="M-275.3,433.3l-0.4-1.5h-0.3v18.8h-4.5v-33.1h4.3l4.7,17.2l0.4,1.5h0.3v-18.8h4.5v33.1h-4.3
		L-275.3,433.3z"/>
	<path id="XMLID_83_" class="st1" d="M-262.6,417.5h11.1v5h-6.3v8.7h4.5v5.3h-4.5v9.1h6.3v5h-11.1L-262.6,417.5L-262.6,417.5z"/>
	<path id="XMLID_82_" class="st1" d="M-241.8,450.6h-3.8l-4.5-33.1h4.5l1.9,17.2l0.1,1.1h0.4l0.1-1.1l2.1-17.2h3.5l2.1,17.2l0.1,1.1
		h0.4l0.1-1.1l1.9-17.2h4.5l-4.5,33.1h-3.8l-2.2-15.7l-0.3-1.9h-0.2l-0.3,1.9L-241.8,450.6z"/>
	<path id="XMLID_79_" class="st1" d="M-227.4,450.6l5-33.1h5.9l5,33.1h-4.7l-0.9-6.8h-4.7l-0.9,6.8H-227.4z M-219.2,428.3l-0.1-0.9
		h-0.3l-0.1,0.9l-1.4,10.4h3.3L-219.2,428.3z"/>
	<path id="XMLID_78_" class="st1" d="M-209.2,417.5h4.9v28.6h6.4v4.5h-11.3L-209.2,417.5L-209.2,417.5z"/>
</g>
</svg>
