<?xml version="1.0" encoding="utf-8"?>
<!-- Generator: Adobe Illustrator 19.0.0, SVG Export Plug-In . SVG Version: 6.00 Build 0)  -->
<svg version="1.1" id="Layer_1" xmlns="http://www.w3.org/2000/svg" xmlns:xlink="http://www.w3.org/1999/xlink" x="0px" y="0px"
	 viewBox="-228 106.3 384 384" style="enable-background:new -228 106.3 384 384;" xml:space="preserve">
<style type="text/css">
	.st0{fill:#FFDE00;}
</style>
<g id="XMLID_928_">
	<rect id="XMLID_1042_" x="-228" y="106.3" class="st0" width="384" height="384"/>
</g>
<g>
	<path d="M-178.8,253.9h4.7l-5,33.1h-4.9l-5-33.1h4.7l2.4,18.2l0.2,1.4h0.3l0.2-1.4L-178.8,253.9z"/>
	<path d="M-171.9,253.9h4.9V287h-4.9V253.9z"/>
	<path d="M-155.4,262.8c0-1.1,0-2.3-0.4-3.2c-0.3-0.9-0.8-1.5-1.6-1.5c-1.3,0-1.7,1.4-1.7,3.3c0,1.1,0.5,2.3,1.2,3.6
		c0.7,1.3,1.7,2.6,2.6,4c1.1,1.7,2.2,3.4,3.1,5c0.9,1.7,1.4,3.4,1.4,5.2c0,2.2-0.4,4.3-1.4,5.8c-1,1.5-2.7,2.5-5.4,2.5
		c-3.1,0-4.9-1.2-5.8-3s-1.2-4.2-1.2-6.7l4.8-0.5c0,1.4,0,2.8,0.4,3.8c0.3,1.1,0.9,1.8,1.9,1.8c1.4,0,2-1.5,2-3.6
		c0-1.1-0.5-2.3-1.3-3.6c-0.4-0.6-0.8-1.3-1.3-2c-0.9-1.4-2-2.9-3.1-4.5s-1.9-3.4-2.4-5.1c-0.3-0.9-0.4-1.8-0.4-2.7
		c0-1.8,0.4-3.7,1.4-5.2c1-1.4,2.6-2.5,4.9-2.5c2.9,0,4.6,1.2,5.6,2.9c0.9,1.8,1.2,4,1.2,5.8L-155.4,262.8z"/>
	<path d="M-135.1,253.9v26.3c0,1.4-0.3,2.6-0.8,3.6c-0.4,0.9-1,1.8-1.9,2.4c-0.9,0.7-2.1,1.1-3.7,1.1c-1.6,0-2.9-0.4-3.8-1.1
		c-0.9-0.7-1.5-1.5-1.9-2.4c-0.5-1-0.8-2.2-0.8-3.6v-26.3h4.9v26.3c0,0.9,0.2,1.6,0.7,2.1c0.2,0.2,0.5,0.4,0.9,0.4
		c0.9,0,1.3-0.5,1.4-1.2c0.1-0.3,0.2-0.7,0.2-1.2v-26.3H-135.1z"/>
	<path d="M-132.9,287l5-33.1h5.9l5,33.1h-4.7l-0.9-6.7h-4.7l-0.9,6.7H-132.9z M-124.7,264.7l-0.1-0.9h-0.3l-0.1,0.9l-1.4,10.4h3.3
		L-124.7,264.7z"/>
	<path d="M-114.7,253.9h4.9v28.6h6.4v4.5h-11.3V253.9z"/>
	<path d="M-101.5,253.9h4.9V287h-4.9V253.9z"/>
	<path d="M-94.3,281.8l7.6-23h-6.5v-4.8h11.8v4.8l-7.7,23.4h7.7v4.8h-12.9V281.8z"/>
	<path d="M-79.2,253.9h4.9V287h-4.9V253.9z"/>
	<path d="M-65.6,269.7l-0.4-1.5h-0.3V287h-4.5v-33.1h4.3l4.7,17.2l0.4,1.5h0.3v-18.8h4.5V287h-4.3L-65.6,269.7z"/>
	<path d="M-45.2,265.8v-5.1c0-0.9-0.2-1.5-0.6-2.1c-0.2-0.2-0.6-0.4-1-0.4c-0.9,0-1.3,0.6-1.4,1.2c-0.1,0.4-0.2,0.8-0.2,1.2v19.9
		c0,0.9,0.2,1.6,0.7,2.1c0.2,0.2,0.5,0.4,0.9,0.4c0.9,0,1.3-0.5,1.4-1.2c0.1-0.3,0.2-0.7,0.2-1.2v-6h-1.9v-4.1h6.8V287h-2.9
		l-0.6-1.6c-0.9,1.1-2.2,1.9-3.8,1.9s-2.7-0.4-3.5-1.1c-0.8-0.7-1.4-1.5-1.7-2.4c-0.4-1-0.6-2.2-0.5-3.6v-19.5
		c0-1.3,0.3-2.5,0.8-3.6c0.4-0.9,1-1.8,1.9-2.5c0.9-0.7,2.2-1.1,3.8-1.1c1.6,0,2.8,0.4,3.7,1.1c0.9,0.7,1.5,1.6,1.9,2.5
		c0.5,1,0.8,2.2,0.8,3.6v5.1H-45.2z"/>
	<path d="M-31.2,287l5-33.1h5.9l5,33.1H-20l-0.9-6.7h-4.7l-0.9,6.7H-31.2z M-23,264.7l-0.1-0.9h-0.3l-0.1,0.9l-1.4,10.4h3.3
		L-23,264.7z"/>
	<path d="M-13,253.9h4.9V287H-13V253.9z"/>
	<path d="M4.1,287L1.6,273H0.3V287h-4.9v-33.1h4.9c5.8,0,8.3,3.3,8.3,9.5c0,3.3-0.9,6.3-2.7,7.5L9,287H4.1z M0.3,268.5
		c0.7,0,1.6-0.1,2.3-0.7c0.7-0.6,1.3-1.8,1.3-4.2s-0.6-3.6-1.3-4.2c-0.7-0.6-1.6-0.7-2.3-0.7V268.5z"/>
	<path d="M31.2,280.2c0,0.8-0.1,1.6-0.4,2.6c-0.1,0.5-0.4,0.9-0.6,1.4c0.4,0.5,1,1,1.9,1.2v4.1c-2.7,0-4.1-1.2-5-2.6
		c-0.7,0.2-1.5,0.4-2.4,0.4c-1.6,0-2.9-0.4-3.8-1.1c-0.9-0.7-1.5-1.5-1.9-2.4c-0.5-1-0.8-2.2-0.8-3.6v-19.5c0-1.3,0.3-2.5,0.8-3.6
		c0.4-0.9,1-1.8,1.9-2.5c0.9-0.7,2.2-1.1,3.8-1.1s2.8,0.4,3.7,1.1c0.9,0.7,1.5,1.6,1.9,2.5c0.5,1,0.8,2.2,0.8,3.6V280.2z
		 M26.4,260.7c0-0.9-0.2-1.5-0.6-2.1c-0.2-0.2-0.6-0.4-1-0.4c-0.9,0-1.3,0.6-1.4,1.2c-0.1,0.4-0.2,0.8-0.2,1.2v19.5
		c0,0.9,0.2,1.6,0.7,2.1c0.2,0.2,0.5,0.4,0.9,0.4c0.9,0,1.3-0.5,1.4-1.2c0.1-0.3,0.2-0.7,0.2-1.2V260.7z"/>
	<path d="M47.5,253.9v26.3c0,1.4-0.3,2.6-0.8,3.6c-0.4,0.9-1,1.8-1.9,2.4c-0.9,0.7-2.1,1.1-3.7,1.1s-2.9-0.4-3.8-1.1
		c-0.9-0.7-1.5-1.5-1.9-2.4c-0.5-1-0.8-2.2-0.8-3.6v-26.3h4.9v26.3c0,0.9,0.2,1.6,0.7,2.1c0.2,0.2,0.5,0.4,0.9,0.4
		c0.9,0,1.3-0.5,1.4-1.2c0.1-0.3,0.2-0.7,0.2-1.2v-26.3H47.5z"/>
	<path d="M49.7,287l5-33.1h5.9l5,33.1h-4.7l-0.9-6.7h-4.7l-0.9,6.7H49.7z M58,264.7l-0.1-0.9h-0.3l-0.1,0.9L56,275.1h3.3L58,264.7z"
		/>
	<path d="M67.9,253.9h4.9v28.6h6.4v4.5H67.9V253.9z"/>
	<path d="M81.2,253.9h4.9V287h-4.9V253.9z"/>
	<path d="M87.9,258.9v-5h14v5h-4.6V287h-4.9v-28.1H87.9z"/>
	<path d="M109.6,264.5l0.1,0.3h0.1l0.1-0.3l2.4-10.6h4.8l-4.9,19V287h-4.9v-14.1l-4.9-19h4.8L109.6,264.5z"/>
	<path d="M-96.2,312.9h-6.7v8.7h4.5v5h-4.5V341h-4.9v-33.1h11.6V312.9z"/>
	<path d="M-81.5,334.2c0,1.4-0.3,2.6-0.8,3.6c-0.4,0.9-1,1.8-1.9,2.4c-0.9,0.7-2.1,1.1-3.7,1.1c-1.6,0-2.9-0.4-3.8-1.1
		c-0.9-0.7-1.5-1.5-1.9-2.4c-0.5-1-0.8-2.2-0.8-3.6v-19.5c0-1.3,0.3-2.5,0.8-3.6c0.4-0.9,1-1.8,1.9-2.5c0.9-0.7,2.2-1.1,3.8-1.1
		c1.6,0,2.8,0.5,3.7,1.1c0.9,0.7,1.5,1.6,1.9,2.5c0.5,1,0.8,2.2,0.8,3.6V334.2z M-86.4,314.7c0-0.9-0.2-1.5-0.6-2.1
		c-0.2-0.2-0.6-0.4-1-0.4c-0.9,0-1.3,0.6-1.4,1.2c-0.1,0.4-0.2,0.8-0.2,1.2v19.5c0,0.9,0.2,1.6,0.7,2.1c0.2,0.2,0.5,0.4,0.9,0.4
		c0.9,0,1.3-0.5,1.4-1.2c0.1-0.3,0.2-0.7,0.2-1.2V314.7z"/>
	<path d="M-69.6,341l-2.5-13.9h-1.3V341h-4.9v-33.1h4.9c5.8,0,8.3,3.3,8.3,9.5c0,3.3-0.9,6.3-2.7,7.5l3.1,16H-69.6z M-73.4,322.5
		c0.7,0,1.6-0.1,2.3-0.7c0.7-0.6,1.3-1.8,1.3-4.2c0-2.3-0.6-3.6-1.3-4.2c-0.7-0.6-1.6-0.7-2.3-0.7V322.5z"/>
	<path d="M-55.1,307.9h4.9c2.1,0,4.2,0.5,5.8,2.1c1.6,1.5,2.7,4,2.7,7.8c0,3.8-1.1,6.3-2.7,7.8c-1.6,1.5-3.7,2.2-5.8,2.2V341h-4.9
		V307.9z M-50.2,322.8c1.5,0,2.4-0.3,3-1c0.5-0.7,0.7-1.9,0.7-3.8s-0.1-3.1-0.7-4c-0.5-0.8-1.5-1.2-3-1.2V322.8z"/>
	<path d="M-30.6,326.6h-3.8V341h-4.9v-33.1h4.9v13.7h3.8v-13.7h4.9V341h-4.9V326.6z"/>
	<path d="M-22.1,307.9h4.9V341h-4.9V307.9z"/>
	<path d="M-13.7,307.9h4.9v28.6h6.4v4.5h-11.3V307.9z"/>
	<path d="M-0.4,307.9h4.9V341h-4.9V307.9z"/>
	<path d="M8.1,307.9h4.9c2.1,0,4.2,0.5,5.8,2.1c1.6,1.5,2.7,4,2.7,7.8c0,3.8-1.1,6.3-2.7,7.8c-1.6,1.5-3.7,2.2-5.8,2.2V341H8.1
		V307.9z M12.9,322.8c1.5,0,2.4-0.3,3-1c0.5-0.7,0.7-1.9,0.7-3.8s-0.1-3.1-0.7-4c-0.5-0.8-1.5-1.2-3-1.2V322.8z"/>
	<path d="M31.9,316.8c0-1.1,0-2.3-0.4-3.2c-0.3-0.9-0.8-1.5-1.6-1.5c-1.3,0-1.7,1.3-1.7,3.3c0,1.1,0.5,2.3,1.2,3.6
		c0.7,1.3,1.7,2.6,2.6,4c1.1,1.7,2.2,3.4,3.1,5c0.9,1.7,1.4,3.4,1.4,5.2c0,2.2-0.4,4.3-1.4,5.8c-1,1.5-2.7,2.5-5.4,2.5
		c-3.1,0-4.9-1.2-5.8-3c-1-1.8-1.2-4.2-1.2-6.7l4.8-0.5c0,1.4,0,2.8,0.4,3.8c0.3,1.1,0.9,1.8,1.9,1.8c1.4,0,2-1.5,2-3.6
		c0-1.1-0.5-2.3-1.3-3.6c-0.4-0.6-0.8-1.3-1.3-2c-0.9-1.4-2-2.9-3.1-4.5c-1.1-1.7-1.9-3.4-2.4-5.1c-0.3-0.9-0.4-1.8-0.4-2.7
		c0-1.8,0.4-3.7,1.4-5.2c1-1.4,2.6-2.5,4.9-2.5c2.9,0,4.6,1.2,5.6,2.9c0.9,1.8,1.2,4,1.2,5.8L31.9,316.8z"/>
</g>
</svg>
