<?xml version="1.0" encoding="utf-8"?>
<!-- Generator: Adobe Illustrator 19.0.0, SVG Export Plug-In . SVG Version: 6.00 Build 0)  -->
<svg version="1.1" id="Layer_1" xmlns="http://www.w3.org/2000/svg" xmlns:xlink="http://www.w3.org/1999/xlink" x="0px" y="0px"
	 viewBox="-447 209 384 384" style="enable-background:new -447 209 384 384;" xml:space="preserve">
<style type="text/css">
	.st0{fill:#FFDE00;}
	.st1{fill:#231F20;}
</style>
<g id="XMLID_2_">
	<rect id="XMLID_76_" x="-447" y="209" class="st0" width="384" height="384"/>
</g>
<g id="XMLID_3_">
	<path id="XMLID_72_" class="st1" d="M-400.2,363.5h4.9c2.1,0,4.2,0.5,5.8,2.1s2.7,4,2.7,7.8s-1.1,6.3-2.7,7.8s-3.7,2.2-5.8,2.2
		v13.2h-4.9V363.5z M-395.3,378.4c1.5,0,2.4-0.3,3-1c0.5-0.7,0.7-1.9,0.7-3.8s-0.1-3.2-0.7-4s-1.5-1.2-3-1.2V378.4z"/>
	<path id="XMLID_69_" class="st1" d="M-375.6,396.6l-2.5-13.9h-1.3v13.9h-4.9v-33.1h4.9c5.8,0,8.3,3.3,8.3,9.5
		c0,3.3-0.9,6.3-2.7,7.5l3.1,16h-4.9V396.6z M-379.5,378.1c0.7,0,1.6-0.1,2.3-0.7c0.7-0.6,1.3-1.8,1.3-4.2s-0.6-3.6-1.3-4.2
		c-0.7-0.6-1.6-0.7-2.3-0.7V378.1z"/>
	<path id="XMLID_66_" class="st1" d="M-355.4,389.8c0,1.3-0.3,2.6-0.8,3.6c-0.4,0.9-1,1.8-1.9,2.4c-0.9,0.7-2.1,1.1-3.7,1.1
		s-2.9-0.4-3.8-1.1s-1.5-1.5-1.9-2.4c-0.5-1-0.8-2.2-0.8-3.6v-19.5c0-1.3,0.3-2.5,0.8-3.6c0.4-0.9,1-1.8,1.9-2.5s2.2-1.1,3.8-1.1
		s2.8,0.4,3.7,1.1c0.9,0.7,1.5,1.6,1.9,2.5c0.5,1,0.8,2.2,0.8,3.6V389.8z M-360.3,370.3c0-0.9-0.2-1.5-0.6-2.1
		c-0.2-0.2-0.6-0.4-1-0.4c-0.9,0-1.3,0.6-1.4,1.2c-0.1,0.4-0.2,0.8-0.2,1.2v19.5c0,0.9,0.2,1.6,0.7,2.1c0.2,0.2,0.5,0.4,0.9,0.4
		c0.9,0,1.3-0.5,1.4-1.2c0.1-0.3,0.2-0.7,0.2-1.2V370.3z"/>
	<path id="XMLID_63_" class="st1" d="M-352.2,363.5h4.9c2.1,0,4.2,0.5,5.8,2.1s2.7,4,2.7,7.8s-1.1,6.3-2.7,7.8s-3.7,2.2-5.8,2.2
		v13.2h-4.9V363.5z M-347.3,378.4c1.5,0,2.4-0.3,3-1c0.5-0.7,0.7-1.9,0.7-3.8s-0.1-3.2-0.7-4s-1.5-1.2-3-1.2V378.4z"/>
	<path id="XMLID_60_" class="st1" d="M-323.7,389.8c0,1.3-0.3,2.6-0.8,3.6c-0.4,0.9-1,1.8-1.9,2.4c-0.9,0.7-2.1,1.1-3.7,1.1
		s-2.9-0.4-3.8-1.1s-1.5-1.5-1.9-2.4c-0.5-1-0.8-2.2-0.8-3.6v-19.5c0-1.3,0.3-2.5,0.8-3.6c0.4-0.9,1-1.8,1.9-2.5s2.2-1.1,3.8-1.1
		s2.8,0.4,3.7,1.1c0.9,0.7,1.5,1.6,1.9,2.5c0.5,1,0.8,2.2,0.8,3.6V389.8z M-328.5,370.3c0-0.9-0.2-1.5-0.6-2.1
		c-0.2-0.2-0.6-0.4-1-0.4c-0.9,0-1.3,0.6-1.4,1.2c-0.1,0.4-0.2,0.8-0.2,1.2v19.5c0,0.9,0.2,1.6,0.7,2.1c0.2,0.2,0.5,0.4,0.9,0.4
		c0.9,0,1.3-0.5,1.4-1.2c0.1-0.3,0.2-0.7,0.2-1.2V370.3z"/>
	<path id="XMLID_59_" class="st1" d="M-312.3,372.3c0-1.1,0-2.3-0.4-3.2c-0.3-0.9-0.8-1.5-1.6-1.5c-1.3,0-1.7,1.4-1.7,3.3
		c0,1.1,0.5,2.3,1.2,3.6s1.7,2.6,2.6,4c1.1,1.7,2.2,3.4,3.1,5c0.9,1.7,1.4,3.4,1.4,5.2c0,2.2-0.4,4.3-1.4,5.8s-2.7,2.5-5.4,2.5
		c-3.1,0-4.9-1.2-5.8-3c-1-1.8-1.2-4.2-1.2-6.7l4.8-0.5c0,1.4,0,2.8,0.4,3.8c0.3,1.1,0.9,1.8,1.9,1.8c1.4,0,2-1.5,2-3.6
		c0-1.1-0.5-2.3-1.3-3.6c-0.4-0.6-0.8-1.3-1.3-2c-0.9-1.4-2-2.9-3.1-4.5c-1.1-1.7-1.9-3.4-2.4-5.1c-0.3-0.9-0.4-1.8-0.4-2.7
		c0-1.8,0.4-3.7,1.4-5.2c1-1.4,2.6-2.5,4.9-2.5c2.9,0,4.6,1.2,5.6,2.9c0.9,1.8,1.2,4,1.2,5.8L-312.3,372.3z"/>
	<path id="XMLID_56_" class="st1" d="M-306.3,396.6l5-33.1h5.9l5,33.1h-4.7l-0.9-6.8h-4.7l-0.9,6.8H-306.3z M-298.1,374.2l-0.1-0.9
		h-0.3l-0.1,0.9l-1.4,10.4h3.3L-298.1,374.2z"/>
	<path id="XMLID_55_" class="st1" d="M-288.1,363.5h4.9v28.6h6.4v4.5h-11.3V363.5z"/>
	<path id="XMLID_54_" class="st1" d="M-256.3,368.5h-6.7v8.7h4.5v5h-4.5v14.4h-4.9v-33.1h11.6V368.5z"/>
	<path id="XMLID_51_" class="st1" d="M-241.7,389.8c0,1.3-0.3,2.6-0.8,3.6c-0.4,0.9-1,1.8-1.9,2.4c-0.9,0.7-2.1,1.1-3.7,1.1
		s-2.9-0.4-3.8-1.1c-0.9-0.7-1.5-1.5-1.9-2.4c-0.5-1-0.8-2.2-0.8-3.6v-19.5c0-1.3,0.3-2.5,0.8-3.6c0.4-0.9,1-1.8,1.9-2.5
		s2.2-1.1,3.8-1.1s2.8,0.4,3.7,1.1s1.5,1.6,1.9,2.5c0.5,1,0.8,2.2,0.8,3.6V389.8z M-246.6,370.3c0-0.9-0.2-1.5-0.6-2.1
		c-0.2-0.2-0.6-0.4-1-0.4c-0.9,0-1.3,0.6-1.4,1.2c-0.1,0.4-0.2,0.8-0.2,1.2v19.5c0,0.9,0.2,1.6,0.7,2.1c0.2,0.2,0.5,0.4,0.9,0.4
		c0.9,0,1.3-0.5,1.4-1.2c0.1-0.3,0.2-0.7,0.2-1.2L-246.6,370.3L-246.6,370.3z"/>
	<path id="XMLID_48_" class="st1" d="M-229.8,396.6l-2.5-13.9h-1.3v13.9h-4.9v-33.1h4.9c5.8,0,8.3,3.3,8.3,9.5
		c0,3.3-0.9,6.3-2.7,7.5l3.1,16h-4.9V396.6z M-233.6,378.1c0.7,0,1.6-0.1,2.3-0.7s1.3-1.8,1.3-4.2s-0.6-3.6-1.3-4.2
		s-1.6-0.7-2.3-0.7V378.1z"/>
	<path id="XMLID_47_" class="st1" d="M-208.3,396.6h-3.8l-4.5-33.1h4.5l1.9,17.2l0.1,1.1h0.4l0.1-1.1l2.1-17.2h3.5l2.1,17.2l0.1,1.1
		h0.4l0.1-1.1l1.9-17.2h4.5l-4.5,33.1h-3.8l-2.2-15.7l-0.3-1.9h-0.2l-0.3,1.9L-208.3,396.6z"/>
	<path id="XMLID_46_" class="st1" d="M-192.5,363.5h11.1v5h-6.3v8.7h4.5v5.3h-4.5v9.1h6.3v5h-11.1V363.5z"/>
	<path id="XMLID_45_" class="st1" d="M-178.7,363.5h4.9v28.6h6.4v4.5h-11.3L-178.7,363.5L-178.7,363.5z"/>
	<path id="XMLID_42_" class="st1" d="M-165.4,396.6v-33.1h3.8c4.5,0,6.9,0.9,8.2,3.4s1.4,6.7,1.4,13.1s-0.2,10.6-1.4,13.1
		c-1.3,2.5-3.7,3.4-8.2,3.4h-3.8V396.6z M-160.5,391.7c1.7,0,2.6-0.2,3.1-1.8c0.2-0.8,0.4-1.9,0.5-3.5s0-3.7,0-6.4s0-4.8,0-6.4
		c0-1.5-0.2-2.7-0.5-3.5c-0.5-1.6-1.4-1.8-3.1-1.8V391.7z"/>
	<path id="XMLID_41_" class="st1" d="M-148.7,363.5h4.9v33.1h-4.9V363.5z"/>
	<path id="XMLID_40_" class="st1" d="M-135.1,379.3l-0.4-1.5h-0.3v18.8h-4.5v-33.1h4.3l4.7,17.2l0.4,1.5h0.3v-18.8h4.5v33.1h-4.3
		L-135.1,379.3z"/>
	<path id="XMLID_39_" class="st1" d="M-114.6,375.4v-5.1c0-0.9-0.2-1.5-0.6-2.1c-0.2-0.2-0.6-0.4-1-0.4c-0.9,0-1.3,0.6-1.4,1.2
		c-0.1,0.4-0.2,0.8-0.2,1.2v19.9c0,0.9,0.2,1.6,0.7,2.1c0.2,0.2,0.5,0.4,0.9,0.4c0.9,0,1.3-0.5,1.4-1.2c0.1-0.3,0.2-0.7,0.2-1.2v-6
		h-1.9v-4.1h6.8v16.5h-2.9l-0.6-1.6c-0.9,1.1-2.2,1.9-3.8,1.9c-1.6,0-2.7-0.4-3.5-1.1s-1.3-1.5-1.7-2.4c-0.4-1-0.6-2.2-0.5-3.6
		v-19.5c0-1.3,0.3-2.5,0.8-3.6c0.4-0.9,1-1.8,1.9-2.5s2.2-1.1,3.8-1.1s2.8,0.4,3.7,1.1c0.9,0.7,1.5,1.6,1.9,2.5
		c0.5,1,0.8,2.2,0.8,3.6v5.1L-114.6,375.4L-114.6,375.4z"/>
	<path id="XMLID_38_" class="st1" d="M-408.6,422.5v-5h14v5h-4.6v28.1h-4.9v-28.1H-408.6z"/>
	<path id="XMLID_35_" class="st1" d="M-384,450.6l-2.5-13.9h-1.3v13.9h-4.9v-33.1h4.9c5.8,0,8.3,3.3,8.3,9.5c0,3.3-0.9,6.3-2.7,7.5
		l3.1,16h-4.9V450.6z M-387.8,432.1c0.7,0,1.6-0.1,2.3-0.7c0.7-0.6,1.3-1.8,1.3-4.2c0-2.3-0.6-3.6-1.3-4.2c-0.7-0.6-1.6-0.7-2.3-0.7
		V432.1z"/>
	<path id="XMLID_32_" class="st1" d="M-377.8,450.6l5-33.1h5.9l5,33.1h-4.7l-0.9-6.8h-4.7l-0.9,6.8H-377.8z M-369.5,428.2l-0.1-0.9
		h-0.3l-0.1,0.9l-1.4,10.4h3.3L-369.5,428.2z"/>
	<path id="XMLID_31_" class="st1" d="M-359.6,417.5h4.9v33.1h-4.9V417.5z"/>
	<path id="XMLID_30_" class="st1" d="M-346,433.3l-0.4-1.5h-0.3v18.8h-4.5v-33.1h4.3l4.7,17.2l0.4,1.5h0.3v-18.8h4.5v33.1h-4.3
		L-346,433.3z"/>
	<path id="XMLID_29_" class="st1" d="M-333.3,417.5h4.9v33.1h-4.9V417.5z"/>
	<path id="XMLID_28_" class="st1" d="M-319.8,433.3l-0.4-1.5h-0.3v18.8h-4.5v-33.1h4.3l4.7,17.2l0.4,1.5h0.3v-18.8h4.5v33.1h-4.3
		L-319.8,433.3z"/>
	<path id="XMLID_27_" class="st1" d="M-299.3,429.4v-5.1c0-0.9-0.2-1.5-0.6-2.1c-0.2-0.2-0.6-0.4-1-0.4c-0.9,0-1.3,0.6-1.4,1.2
		c-0.1,0.4-0.2,0.8-0.2,1.2v19.9c0,0.9,0.2,1.6,0.7,2.1c0.2,0.2,0.5,0.4,0.9,0.4c0.9,0,1.3-0.5,1.4-1.2c0.1-0.3,0.2-0.7,0.2-1.2v-6
		h-1.9v-4.1h6.8v16.5h-2.9l-0.6-1.6c-0.9,1.1-2.2,1.9-3.8,1.9c-1.6,0-2.7-0.4-3.5-1.1s-1.3-1.5-1.7-2.4c-0.4-1-0.6-2.2-0.5-3.6
		v-19.5c0-1.3,0.3-2.5,0.8-3.6c0.4-0.9,1-1.8,1.9-2.5s2.2-1.1,3.8-1.1s2.8,0.5,3.7,1.1c0.9,0.7,1.5,1.6,1.9,2.5
		c0.5,1,0.8,2.2,0.8,3.6v5.1L-299.3,429.4L-299.3,429.4z"/>
	<path id="XMLID_24_" class="st1" d="M-285.3,450.6l5-33.1h5.9l5,33.1h-4.7l-0.9-6.8h-4.7l-0.9,6.8H-285.3z M-277.1,428.2l-0.1-0.9
		h-0.3l-0.1,0.9l-1.4,10.4h3.3L-277.1,428.2z"/>
	<path id="XMLID_21_" class="st1" d="M-267.1,417.5h4.9c2.1,0,4.2,0.5,5.8,2.1c1.6,1.5,2.7,4,2.7,7.8s-1.1,6.3-2.7,7.8
		c-1.6,1.5-3.7,2.2-5.8,2.2v13.2h-4.9V417.5z M-262.3,432.4c1.5,0,2.4-0.3,3-1c0.5-0.7,0.7-1.9,0.7-3.8s-0.1-3.1-0.7-4
		c-0.5-0.8-1.5-1.2-3-1.2V432.4z"/>
	<path id="XMLID_18_" class="st1" d="M-251.3,417.5h4.9c2.1,0,4.2,0.5,5.8,2.1c1.6,1.5,2.7,4,2.7,7.8s-1.1,6.3-2.7,7.8
		c-1.6,1.5-3.7,2.2-5.8,2.2v13.2h-4.9V417.5z M-246.4,432.4c1.5,0,2.4-0.3,3-1c0.5-0.7,0.7-1.9,0.7-3.8s-0.1-3.1-0.7-4
		c-0.5-0.8-1.5-1.2-3-1.2V432.4z"/>
	<path id="XMLID_15_" class="st1" d="M-215.9,443.8c0,1.4-0.3,2.6-0.8,3.6c-0.4,0.9-1,1.8-1.9,2.4c-0.9,0.7-2.1,1.1-3.7,1.1
		s-2.9-0.4-3.8-1.1c-0.9-0.7-1.5-1.5-1.9-2.4c-0.5-1-0.8-2.2-0.8-3.6v-19.5c0-1.3,0.3-2.5,0.8-3.6c0.4-0.9,1-1.8,1.9-2.5
		s2.2-1.1,3.8-1.1s2.8,0.5,3.7,1.1c0.9,0.7,1.5,1.6,1.9,2.5c0.5,1,0.8,2.2,0.8,3.6V443.8z M-220.8,424.3c0-0.9-0.2-1.5-0.6-2.1
		c-0.2-0.2-0.6-0.4-1-0.4c-0.9,0-1.3,0.6-1.4,1.2c-0.1,0.4-0.2,0.8-0.2,1.2v19.5c0,0.9,0.2,1.6,0.7,2.1c0.2,0.2,0.5,0.4,0.9,0.4
		c0.9,0,1.3-0.5,1.4-1.2c0.1-0.3,0.2-0.7,0.2-1.2L-220.8,424.3L-220.8,424.3z"/>
	<path id="XMLID_14_" class="st1" d="M-201,422.5h-6.7v8.7h4.5v5h-4.5v14.4h-4.9v-33.1h11.6L-201,422.5L-201,422.5z"/>
	<path id="XMLID_13_" class="st1" d="M-187.3,417.5V429h0.2l0.2-0.5l4-11h4.7l-4.5,10.9l5,22.2h-4.7l-3.4-14.4l-0.1-0.7h-0.1
		l-0.3,0.7l-1.1,2.7v11.7h-4.9v-33.1L-187.3,417.5L-187.3,417.5z"/>
	<path id="XMLID_12_" class="st1" d="M-175.3,417.5h11.1v5h-6.3v8.7h4.5v5.3h-4.5v9.1h6.3v5h-11.1V417.5z"/>
	<path id="XMLID_11_" class="st1" d="M-153.4,450.6l-3.1-20.8l-0.2-1.4h-0.3v22.2h-4.5v-33.1h5.9l2.9,15.1l0.2,1.8h0.1l0.2-1.8
		l2.9-15.1h5.9v33.1h-4.5v-22.2h-0.3l-0.2,1.4l-3.1,20.8H-153.4z"/>
	<path id="XMLID_8_" class="st1" d="M-139.7,417.5h4.9c2.1,0,4.2,0.5,5.8,2.1c1.6,1.5,2.7,4,2.7,7.8s-1.1,6.3-2.7,7.8
		c-1.6,1.5-3.7,2.2-5.8,2.2v13.2h-4.9V417.5z M-134.8,432.4c1.5,0,2.4-0.3,3-1c0.5-0.7,0.7-1.9,0.7-3.8s-0.1-3.1-0.7-4
		c-0.5-0.8-1.5-1.2-3-1.2V432.4z"/>
	<path id="XMLID_5_" class="st1" d="M-123.8,417.5h4.9c2.1,0,4.2,0.5,5.8,2.1c1.6,1.5,2.7,4,2.7,7.8s-1.1,6.3-2.7,7.8
		s-3.7,2.2-5.8,2.2v13.2h-4.9V417.5z M-119,432.4c1.5,0,2.4-0.3,3-1c0.5-0.7,0.7-1.9,0.7-3.8s-0.1-3.1-0.7-4c-0.5-0.8-1.5-1.2-3-1.2
		V432.4z"/>
	<path id="XMLID_4_" class="st1" d="M-108,417.5h4.9v33.1h-4.9V417.5z"/>
</g>
</svg>
