<?xml version="1.0" encoding="utf-8"?>
<!-- Generator: Adobe Illustrator 19.0.0, SVG Export Plug-In . SVG Version: 6.00 Build 0)  -->
<svg version="1.1" id="Layer_1" xmlns="http://www.w3.org/2000/svg" xmlns:xlink="http://www.w3.org/1999/xlink" x="0px" y="0px"
	 viewBox="-447 209 384 384" style="enable-background:new -447 209 384 384;" xml:space="preserve">
<style type="text/css">
	.st0{fill:#FFDE00;}
	.st1{fill:#231F20;}
</style>
<g id="XMLID_39_">
	<rect x="-447" y="209" class="st0" width="384" height="384"/>
</g>
<g>
	<path class="st1" d="M-356.1,386.2v4.5c0,1.3-0.3,2.6-0.8,3.6c-0.4,0.9-1,1.8-1.9,2.4c-0.9,0.7-2.1,1.1-3.7,1.1s-2.9-0.4-3.8-1.1
		s-1.5-1.5-1.9-2.4c-0.5-1-0.8-2.2-0.8-3.6v-19.5c0-1.3,0.3-2.5,0.8-3.6c0.4-0.9,1-1.8,1.9-2.5s2.2-1.1,3.8-1.1
		c1.6,0,2.8,0.4,3.7,1.1c0.9,0.7,1.5,1.6,1.9,2.5c0.5,1,0.8,2.2,0.8,3.6v4.5h-4.5v-4.5c0-0.9-0.2-1.5-0.7-2.1
		c-0.2-0.2-0.6-0.4-1.1-0.4c-0.9,0-1.3,0.6-1.5,1.2c-0.1,0.4-0.2,0.8-0.2,1.2v19.5c0,0.9,0.3,1.6,0.8,2.1c0.2,0.2,0.5,0.4,0.9,0.4
		c1,0,1.4-0.5,1.7-1.2c0.1-0.3,0.2-0.7,0.2-1.2v-4.5H-356.1z"/>
	<path class="st1" d="M-340.5,390.8c0,1.3-0.3,2.6-0.8,3.6c-0.4,0.9-1,1.8-1.9,2.4c-0.9,0.7-2.1,1.1-3.7,1.1s-2.9-0.4-3.8-1.1
		s-1.5-1.5-1.9-2.4c-0.5-1-0.8-2.2-0.8-3.6v-19.5c0-1.3,0.3-2.5,0.8-3.6c0.4-0.9,1-1.8,1.9-2.5s2.2-1.1,3.8-1.1
		c1.6,0,2.8,0.4,3.7,1.1c0.9,0.7,1.5,1.6,1.9,2.5c0.5,1,0.8,2.2,0.8,3.6V390.8z M-345.4,371.3c0-0.9-0.2-1.5-0.6-2.1
		c-0.2-0.2-0.6-0.4-1-0.4c-0.9,0-1.3,0.6-1.4,1.2c-0.1,0.4-0.2,0.8-0.2,1.2v19.5c0,0.9,0.2,1.6,0.7,2.1c0.2,0.2,0.5,0.4,0.9,0.4
		c0.9,0,1.3-0.5,1.4-1.2c0.1-0.3,0.2-0.7,0.2-1.2V371.3z"/>
	<path class="st1" d="M-332.1,380.3l-0.4-1.5h-0.3v18.8h-4.5v-33.1h4.3l4.7,17.2l0.4,1.5h0.3v-18.8h4.5v33.1h-4.3L-332.1,380.3z"/>
	<path class="st1" d="M-306.8,386.2v4.5c0,1.3-0.3,2.6-0.8,3.6c-0.4,0.9-1,1.8-1.9,2.4c-0.9,0.7-2.1,1.1-3.7,1.1s-2.9-0.4-3.8-1.1
		s-1.5-1.5-1.9-2.4c-0.5-1-0.8-2.2-0.8-3.6v-19.5c0-1.3,0.3-2.5,0.8-3.6c0.4-0.9,1-1.8,1.9-2.5s2.2-1.1,3.8-1.1
		c1.6,0,2.8,0.4,3.7,1.1c0.9,0.7,1.5,1.6,1.9,2.5c0.5,1,0.8,2.2,0.8,3.6v4.5h-4.5v-4.5c0-0.9-0.2-1.5-0.7-2.1
		c-0.2-0.2-0.6-0.4-1.1-0.4c-0.9,0-1.3,0.6-1.5,1.2c-0.1,0.4-0.2,0.8-0.2,1.2v19.5c0,0.9,0.3,1.6,0.8,2.1c0.2,0.2,0.5,0.4,0.9,0.4
		c1,0,1.4-0.5,1.7-1.2c0.1-0.3,0.2-0.7,0.2-1.2v-4.5H-306.8z"/>
	<path class="st1" d="M-303.9,364.5h11.1v5h-6.3v8.7h4.5v5.3h-4.5v9.1h6.3v5h-11.1V364.5z"/>
	<path class="st1" d="M-290.1,364.5h4.9c2.1,0,4.2,0.5,5.8,2.1c1.6,1.5,2.7,4,2.7,7.8s-1.1,6.3-2.7,7.8s-3.7,2.2-5.8,2.2v13.2h-4.9
		V364.5z M-285.2,379.4c1.5,0,2.4-0.3,3-1c0.5-0.7,0.7-1.9,0.7-3.8s-0.1-3.2-0.7-4c-0.5-0.8-1.5-1.2-3-1.2V379.4z"/>
	<path class="st1" d="M-275.9,369.5v-5h14v5h-4.6v28.1h-4.9v-28.1H-275.9z"/>
	<path class="st1" d="M-254.4,397.6l5-33.1h5.9l5,33.1h-4.7l-0.9-6.8h-4.7l-0.9,6.8H-254.4z M-246.2,375.3l-0.1-0.9h-0.3l-0.1,0.9
		l-1.4,10.4h3.3L-246.2,375.3z"/>
	<path class="st1" d="M-227.6,397.6l-2.5-13.9h-1.3v13.9h-4.9v-33.1h4.9c5.8,0,8.3,3.3,8.3,9.5c0,3.3-0.9,6.3-2.7,7.5l3.1,16h-4.9
		V397.6z M-231.4,379.1c0.7,0,1.6-0.1,2.3-0.7s1.3-1.8,1.3-4.2s-0.6-3.6-1.3-4.2s-1.6-0.7-2.3-0.7V379.1z"/>
	<path class="st1" d="M-221.7,369.5v-5h14v5h-4.6v28.1h-4.9v-28.1H-221.7z"/>
	<path class="st1" d="M-197.7,373.4c0-1.1,0-2.3-0.4-3.2c-0.3-0.9-0.8-1.5-1.6-1.5c-1.3,0-1.7,1.4-1.7,3.3c0,1.1,0.5,2.3,1.2,3.6
		c0.7,1.3,1.7,2.6,2.6,4c1.1,1.7,2.2,3.4,3.1,5s1.4,3.4,1.4,5.2c0,2.2-0.4,4.3-1.4,5.8s-2.7,2.5-5.4,2.5c-3.1,0-4.9-1.2-5.8-3
		c-1-1.8-1.2-4.2-1.2-6.7l4.8-0.5c0,1.4,0,2.8,0.4,3.8c0.3,1.1,0.9,1.8,1.9,1.8c1.4,0,2-1.5,2-3.6c0-1.1-0.5-2.3-1.3-3.6
		c-0.4-0.6-0.8-1.3-1.3-2c-0.9-1.4-2-2.9-3.1-4.5c-1.1-1.7-1.9-3.4-2.4-5.1c-0.3-0.9-0.4-1.8-0.4-2.7c0-1.8,0.4-3.7,1.4-5.2
		c1-1.4,2.6-2.5,4.9-2.5c2.9,0,4.6,1.2,5.6,2.9c0.9,1.8,1.2,4,1.2,5.8L-197.7,373.4z"/>
	<path class="st1" d="M-171.8,369.5h-6.7v8.7h4.5v5h-4.5v14.4h-4.9v-33.1h11.6L-171.8,369.5L-171.8,369.5z"/>
	<path class="st1" d="M-157.2,390.8c0,1.3-0.3,2.6-0.8,3.6c-0.4,0.9-1,1.8-1.9,2.4c-0.9,0.7-2.1,1.1-3.7,1.1c-1.6,0-2.9-0.4-3.8-1.1
		c-0.9-0.7-1.5-1.5-1.9-2.4c-0.5-1-0.8-2.2-0.8-3.6v-19.5c0-1.3,0.3-2.5,0.8-3.6c0.4-0.9,1-1.8,1.9-2.5s2.2-1.1,3.8-1.1
		s2.8,0.4,3.7,1.1s1.5,1.6,1.9,2.5c0.5,1,0.8,2.2,0.8,3.6V390.8z M-162.1,371.3c0-0.9-0.2-1.5-0.6-2.1c-0.2-0.2-0.6-0.4-1-0.4
		c-0.9,0-1.3,0.6-1.4,1.2c-0.1,0.4-0.2,0.8-0.2,1.2v19.5c0,0.9,0.2,1.6,0.7,2.1c0.2,0.2,0.5,0.4,0.9,0.4c0.9,0,1.3-0.5,1.4-1.2
		c0.1-0.3,0.2-0.7,0.2-1.2L-162.1,371.3L-162.1,371.3z"/>
	<path class="st1" d="M-145.2,397.6l-2.5-13.9h-1.3v13.9h-4.9v-33.1h4.9c5.8,0,8.3,3.3,8.3,9.5c0,3.3-0.9,6.3-2.7,7.5l3.1,16h-4.9
		V397.6z M-149.1,379.1c0.7,0,1.6-0.1,2.3-0.7s1.3-1.8,1.3-4.2s-0.6-3.6-1.3-4.2s-1.6-0.7-2.3-0.7V379.1z"/>
	<path class="st1" d="M-317.8,451.6h-3.8l-4.5-33.1h4.5l1.9,17.2l0.1,1.1h0.4l0.1-1.1l2.1-17.2h3.5l2.1,17.2l0.1,1.1h0.4l0.1-1.1
		l1.9-17.2h4.5l-4.5,33.1h-3.8l-2.2-15.7l-0.3-1.9h-0.2l-0.3,1.9L-317.8,451.6z"/>
	<path class="st1" d="M-293.3,437.2h-3.8v14.4h-4.9v-33.1h4.9v13.7h3.8v-13.7h4.9v33.1h-4.9V437.2z"/>
	<path class="st1" d="M-284.9,418.5h4.9v33.1h-4.9V418.5z"/>
	<path class="st1" d="M-278.1,423.5v-5h14v5h-4.6v28.1h-4.9v-28.1H-278.1z"/>
	<path class="st1" d="M-262.2,418.5h11.1v5h-6.3v8.7h4.5v5.3h-4.5v9.1h6.3v5h-11.1L-262.2,418.5L-262.2,418.5z"/>
	<path class="st1" d="M-241.4,451.6v-33.1h4.3c2.9,0,5.1,0.5,6.6,1.9s2.2,3.6,2.2,6.8c0,1.6-0.1,2.7-0.6,3.8c-0.5,1.1-1.3,2-2.4,3
		c1.2,0.7,2.1,1.9,2.8,4c0.4,1,0.5,2.4,0.5,4c0,2.5-0.4,4.7-1.6,6.4s-3.1,2.8-5.9,3h-5.9V451.6z M-236.6,432.1c0.4,0,1.3,0,2.2-0.5
		c0.8-0.5,1.4-1.6,1.4-3.9s-0.6-3.4-1.4-3.9c-0.8-0.5-1.8-0.5-2.2-0.5V432.1z M-236.6,446.8c0.4,0,1.3,0.1,2.2-0.5
		c0.8-0.6,1.4-1.9,1.4-4.6s-0.6-4-1.4-4.6c-0.8-0.6-1.8-0.5-2.2-0.5V446.8z"/>
	<path class="st1" d="M-226.4,451.6l5-33.1h5.9l5,33.1h-4.7l-0.9-6.8h-4.7l-0.9,6.8H-226.4z M-218.2,429.3l-0.1-0.9h-0.3l-0.1,0.9
		l-1.4,10.4h3.3L-218.2,429.3z"/>
	<path class="st1" d="M-208.2,418.5h4.9v28.6h6.4v4.5h-11.3L-208.2,418.5L-208.2,418.5z"/>
	<path class="st1" d="M-194.9,418.5h4.9v28.6h6.4v4.5h-11.3L-194.9,418.5L-194.9,418.5z"/>
</g>
</svg>
