<?xml version="1.0" encoding="utf-8"?>
<!-- Generator: Adobe Illustrator 19.0.0, SVG Export Plug-In . SVG Version: 6.00 Build 0)  -->
<svg version="1.1" id="Layer_1" xmlns="http://www.w3.org/2000/svg" xmlns:xlink="http://www.w3.org/1999/xlink" x="0px" y="0px"
	 viewBox="9 -22.6 69.6 69.6" style="enable-background:new 9 -22.6 69.6 69.6;" xml:space="preserve">
<style type="text/css">
	.st0{fill:#231F20;}
	.st1{fill:#FFFFFF;}
	.st2{filter:url(#Adobe_OpacityMaskFilter);}
	.st3{opacity:5.000000e-02;mask:url(#SVGID_1_);}
</style>
<circle id="XMLID_81_" class="st0" cx="43.8" cy="12.2" r="34.8"/>
<g id="XMLID_79_">
	<g>
		<path class="st1" d="M39.3-3.1c-0.4,0-0.8,0.2-1,0.4c-0.2,0.2-0.4,0.6-0.4,1v4.5H27.4v9.2c0,0.6,0.4,1,1,1h11.3
			c0.2-1.2,1-2.1,2.2-2.1h3.7c1.2,0,2,0.8,2.2,2.1h11.3c0.6,0,1-0.4,1-1V2.9H50v-4.5c0-0.4-0.2-0.8-0.4-1c-0.2-0.2-0.5-0.4-1-0.4
			L39.3-3.1z M39.9-1.1h8v3.9h-8V-1.1z M41.9,13.1l-0.2,0.2V15l0.2,0.2h3.7l0.2-0.2v-1.7l-0.2-0.2H41.9z M27.4,15v12.5h32.9V15
			c-0.4,0.2-0.6,0.2-1,0.2H47.9c-0.2,1.2-1,2.1-2.2,2.1h-3.7c-1.2,0-2-0.8-2.2-2.1H28.4C28,15.2,27.8,15.2,27.4,15L27.4,15z"/>
	</g>
	<defs>
		<filter id="Adobe_OpacityMaskFilter" filterUnits="userSpaceOnUse" x="27.4" y="-3.1" width="32.9" height="30.6">
			
				<feColorMatrix  type="matrix" values="-1 0 0 0 1  0 -1 0 0 1  0 0 -1 0 1  0 0 0 1 0" color-interpolation-filters="sRGB" result="source"/>
		</filter>
	</defs>
	<mask maskUnits="userSpaceOnUse" x="27.4" y="-3.1" width="32.9" height="30.6" id="SVGID_1_">
		<g class="st2">
			<image style="overflow:visible;" width="38" height="36" xlink:href="C99DE4B70057960B.jpg"  transform="matrix(1 0 0 1 25 -6)">
			</image>
		</g>
	</mask>
	<g class="st3">
		<path d="M39.3-3.1c-0.4,0-0.8,0.2-1,0.4c-0.2,0.2-0.4,0.6-0.4,1v4.5H27.4v9.2c0,0.6,0.4,1,1,1h11.3c0.2-1.2,1-2.1,2.2-2.1h3.7
			c1.2,0,2,0.8,2.2,2.1h11.3c0.6,0,1-0.4,1-1V2.9H50v-4.5c0-0.4-0.2-0.8-0.4-1c-0.2-0.2-0.5-0.4-1-0.4L39.3-3.1z M39.9-1.1h8v3.9h-8
			V-1.1z M41.9,13.1l-0.2,0.2V15l0.2,0.2h3.7l0.2-0.2v-1.7l-0.2-0.2H41.9z M27.4,15v12.5h32.9V15c-0.4,0.2-0.6,0.2-1,0.2H47.9
			c-0.2,1.2-1,2.1-2.2,2.1h-3.7c-1.2,0-2-0.8-2.2-2.1H28.4C28,15.2,27.8,15.2,27.4,15L27.4,15z"/>
	</g>
</g>
</svg>
