<?xml version="1.0" encoding="utf-8"?>
<!-- Generator: Adobe Illustrator 19.0.0, SVG Export Plug-In . SVG Version: 6.00 Build 0)  -->
<svg version="1.1" id="Layer_1" xmlns="http://www.w3.org/2000/svg" xmlns:xlink="http://www.w3.org/1999/xlink" x="0px" y="0px"
	 viewBox="-447 209 384 384" style="enable-background:new -447 209 384 384;" xml:space="preserve">
<style type="text/css">
	.st0{fill:#FFDE00;}
	.st1{fill:#231F20;}
</style>
<g id="XMLID_13_">
	<rect x="-447" y="209" class="st0" width="384" height="384"/>
</g>
<g>
	<path class="st1" d="M-393.2,338h4.7l-5,33.1h-4.9l-5-33.1h4.7l2.4,18.2l0.2,1.4h0.3l0.2-1.4L-393.2,338z"/>
	<path class="st1" d="M-386.2,338h4.9v33.1h-4.9V338z"/>
	<path class="st1" d="M-369.7,346.9c0-1.1,0-2.3-0.4-3.2c-0.3-0.9-0.8-1.5-1.6-1.5c-1.3,0-1.7,1.3-1.7,3.3c0,1.1,0.5,2.3,1.2,3.6
		s1.7,2.6,2.6,4c1.1,1.7,2.2,3.4,3.1,5c0.9,1.7,1.4,3.4,1.4,5.2c0,2.2-0.4,4.3-1.4,5.8s-2.7,2.5-5.4,2.5c-3.1,0-4.9-1.2-5.8-3
		c-1-1.8-1.2-4.2-1.2-6.7l4.8-0.5c0,1.4,0,2.8,0.4,3.8c0.3,1.1,0.9,1.8,1.9,1.8c1.4,0,2-1.5,2-3.6c0-1.1-0.5-2.3-1.3-3.6
		c-0.4-0.6-0.8-1.3-1.3-2c-0.9-1.3-2-2.9-3.1-4.5c-1.1-1.7-1.9-3.4-2.4-5.1c-0.3-0.9-0.4-1.8-0.4-2.7c0-1.8,0.4-3.7,1.4-5.2
		c1-1.4,2.6-2.5,4.9-2.5c2.9,0,4.6,1.2,5.6,2.9c0.9,1.8,1.2,4,1.2,5.8L-369.7,346.9z"/>
	<path class="st1" d="M-349.4,338v26.3c0,1.4-0.3,2.6-0.8,3.6c-0.4,0.9-1,1.8-1.9,2.4c-0.9,0.7-2.1,1.1-3.7,1.1s-2.9-0.4-3.8-1.1
		s-1.5-1.5-1.9-2.4c-0.5-1-0.8-2.2-0.8-3.6V338h4.9v26.3c0,0.9,0.2,1.6,0.7,2.1c0.2,0.2,0.5,0.4,0.9,0.4c0.9,0,1.3-0.5,1.4-1.2
		c0.1-0.3,0.2-0.7,0.2-1.2V338H-349.4z"/>
	<path class="st1" d="M-347.2,371.1l5-33.1h5.9l5,33.1h-4.7l-0.9-6.7h-4.7l-0.9,6.7H-347.2z M-339,348.8l-0.1-0.9h-0.3l-0.1,0.9
		l-1.4,10.4h3.3L-339,348.8z"/>
	<path class="st1" d="M-329,338h4.9v28.6h6.4v4.5H-329V338z"/>
	<path class="st1" d="M-308.8,338h4.9v33.1h-4.9V338z"/>
	<path class="st1" d="M-300.4,371.1V338h3.8c4.5,0,6.9,0.9,8.2,3.4c1.3,2.5,1.4,6.7,1.4,13.1c0,6.5-0.2,10.6-1.4,13.1
		c-1.3,2.5-3.7,3.4-8.2,3.4h-3.8V371.1z M-295.5,366.2c1.7,0,2.6-0.2,3.1-1.8c0.2-0.8,0.4-1.9,0.5-3.5c0-1.6,0-3.7,0-6.4
		c0-2.7,0-4.8,0-6.4c0-1.5-0.2-2.7-0.5-3.5c-0.5-1.6-1.4-1.8-3.1-1.8V366.2z"/>
	<path class="st1" d="M-283.6,338h11.1v5h-6.3v8.7h4.5v5.3h-4.5v9.1h6.3v5h-11.1V338z"/>
	<path class="st1" d="M-264.7,353.8l-0.4-1.5h-0.3v18.8h-4.5V338h4.3l4.7,17.2l0.4,1.5h0.3V338h4.5v33.1h-4.3L-264.7,353.8z"/>
	<path class="st1" d="M-253.8,343v-5h14v5h-4.6v28.1h-4.9V343H-253.8z"/>
	<path class="st1" d="M-237.8,338h4.9v33.1h-4.9V338z"/>
	<path class="st1" d="M-231.1,343v-5h14v5h-4.6v28.1h-4.9V343H-231.1z"/>
	<path class="st1" d="M-209.4,348.6l0.1,0.3h0.1l0.1-0.3l2.4-10.6h4.8l-4.9,19v14.1h-4.9V357l-4.9-19h4.8L-209.4,348.6z"/>
	<path class="st1" d="M-192.8,371.1V338h3.8c4.5,0,6.9,0.9,8.2,3.4s1.4,6.7,1.4,13.1c0,6.5-0.2,10.6-1.4,13.1
		c-1.3,2.5-3.7,3.4-8.2,3.4h-3.8V371.1z M-188,366.2c1.7,0,2.6-0.2,3.1-1.8c0.2-0.8,0.4-1.9,0.5-3.5c0-1.6,0-3.7,0-6.4
		c0-2.7,0-4.8,0-6.4c0-1.5-0.2-2.7-0.5-3.5c-0.5-1.6-1.4-1.8-3.1-1.8V366.2z"/>
	<path class="st1" d="M-176.1,338h11.1v5h-6.3v8.7h4.5v5.3h-4.5v9.1h6.3v5h-11.1V338z"/>
	<path class="st1" d="M-154.2,346.9c0-1.1,0-2.3-0.4-3.2c-0.3-0.9-0.8-1.5-1.6-1.5c-1.3,0-1.7,1.3-1.7,3.3c0,1.1,0.5,2.3,1.2,3.6
		s1.7,2.6,2.6,4c1.1,1.7,2.2,3.4,3.1,5c0.9,1.7,1.4,3.4,1.4,5.2c0,2.2-0.4,4.3-1.4,5.8s-2.7,2.5-5.4,2.5c-3.1,0-4.9-1.2-5.8-3
		c-1-1.8-1.2-4.2-1.2-6.7l4.8-0.5c0,1.4,0,2.8,0.4,3.8c0.3,1.1,0.9,1.8,1.9,1.8c1.4,0,2-1.5,2-3.6c0-1.1-0.5-2.3-1.3-3.6
		c-0.4-0.6-0.8-1.3-1.3-2c-0.9-1.3-2-2.9-3.1-4.5c-1.1-1.7-1.9-3.4-2.4-5.1c-0.3-0.9-0.4-1.8-0.4-2.7c0-1.8,0.4-3.7,1.4-5.2
		c1-1.4,2.6-2.5,4.9-2.5c2.9,0,4.6,1.2,5.6,2.9c0.9,1.8,1.2,4,1.2,5.8L-154.2,346.9z"/>
	<path class="st1" d="M-146.8,338h4.9v33.1h-4.9V338z"/>
	<path class="st1" d="M-130.6,349.9v-5.1c0-0.9-0.2-1.5-0.6-2.1c-0.2-0.2-0.6-0.4-1-0.4c-0.9,0-1.3,0.6-1.4,1.2
		c-0.1,0.4-0.2,0.8-0.2,1.2v19.9c0,0.9,0.2,1.6,0.7,2.1c0.2,0.2,0.5,0.4,0.9,0.4c0.9,0,1.3-0.5,1.4-1.2c0.1-0.3,0.2-0.7,0.2-1.2v-6
		h-1.9v-4.1h6.8v16.5h-2.9l-0.6-1.6c-0.9,1.1-2.2,1.9-3.8,1.9s-2.7-0.4-3.5-1.1s-1.3-1.5-1.7-2.4c-0.4-1-0.6-2.2-0.5-3.6v-19.5
		c0-1.3,0.3-2.5,0.8-3.6c0.4-0.9,1-1.8,1.9-2.5s2.2-1.1,3.8-1.1s2.8,0.5,3.7,1.1c0.9,0.7,1.5,1.6,1.9,2.5c0.5,1,0.8,2.2,0.8,3.6v5.1
		L-130.6,349.9L-130.6,349.9z"/>
	<path class="st1" d="M-117.1,353.8l-0.4-1.5h-0.3v18.8h-4.5V338h4.3l4.7,17.2l0.4,1.5h0.3V338h4.5v33.1h-4.3L-117.1,353.8z"/>
	<path class="st1" d="M-388.5,397h-6.7v8.7h4.5v5h-4.5v14.4h-4.9V392h11.6V397z"/>
	<path class="st1" d="M-373.9,418.3c0,1.4-0.3,2.6-0.8,3.6c-0.4,0.9-1,1.8-1.9,2.4c-0.9,0.7-2.1,1.1-3.7,1.1s-2.9-0.4-3.8-1.1
		s-1.5-1.5-1.9-2.4c-0.5-1-0.8-2.2-0.8-3.6v-19.5c0-1.3,0.3-2.5,0.8-3.6c0.4-0.9,1-1.8,1.9-2.5s2.2-1.1,3.8-1.1s2.8,0.5,3.7,1.1
		c0.9,0.7,1.5,1.6,1.9,2.5c0.5,1,0.8,2.2,0.8,3.6V418.3z M-378.7,398.8c0-0.9-0.2-1.5-0.6-2.1c-0.2-0.2-0.6-0.4-1-0.4
		c-0.9,0-1.3,0.6-1.4,1.2c-0.1,0.4-0.2,0.8-0.2,1.2v19.5c0,0.9,0.2,1.6,0.7,2.1c0.2,0.2,0.5,0.4,0.9,0.4c0.9,0,1.3-0.5,1.4-1.2
		c0.1-0.3,0.2-0.7,0.2-1.2V398.8z"/>
	<path class="st1" d="M-361.9,425.1l-2.5-13.9h-1.3v13.9h-4.9V392h4.9c5.8,0,8.3,3.3,8.3,9.5c0,3.3-0.9,6.3-2.7,7.5l3.1,16h-4.9
		V425.1z M-365.7,406.6c0.7,0,1.6-0.1,2.3-0.7c0.7-0.6,1.3-1.8,1.3-4.2c0-2.3-0.6-3.6-1.3-4.2c-0.7-0.6-1.6-0.7-2.3-0.7V406.6z"/>
	<path class="st1" d="M-347.4,392h11.1v5h-6.3v8.7h4.5v5.3h-4.5v9.1h6.3v5h-11.1V392z"/>
	<path class="st1" d="M-330.3,425.1h-4.8l5.4-17.4L-335,392h4.8l2.7,8.4l0.1,0.4h0.2l0.1-0.4l2.7-8.4h4.8l-5.3,15.7l5.4,17.4h-4.8
		l-2.8-9.9l-0.1-0.4h-0.2l-0.1,0.4L-330.3,425.1z"/>
	<path class="st1" d="M-317.4,392h4.9c2.1,0,4.2,0.5,5.8,2.1c1.6,1.5,2.7,4,2.7,7.8s-1.1,6.3-2.7,7.8s-3.7,2.2-5.8,2.2v13.2h-4.9
		V392z M-312.5,406.9c1.5,0,2.4-0.3,3-1c0.5-0.7,0.7-1.9,0.7-3.8s-0.1-3.1-0.7-4c-0.5-0.8-1.5-1.2-3-1.2V406.9z"/>
	<path class="st1" d="M-301.6,392h11.1v5h-6.3v8.7h4.5v5.3h-4.5v9.1h6.3v5h-11.1V392z"/>
	<path class="st1" d="M-279.1,425.1l-2.5-13.9h-1.3v13.9h-4.9V392h4.9c5.8,0,8.3,3.3,8.3,9.5c0,3.3-0.9,6.3-2.7,7.5l3.1,16h-4.9
		V425.1z M-282.9,406.6c0.7,0,1.6-0.1,2.3-0.7c0.7-0.6,1.3-1.8,1.3-4.2c0-2.3-0.6-3.6-1.3-4.2c-0.7-0.6-1.6-0.7-2.3-0.7V406.6z"/>
	<path class="st1" d="M-271.5,392h4.9v33.1h-4.9V392z"/>
	<path class="st1" d="M-263,392h11.1v5h-6.3v8.7h4.5v5.3h-4.5v9.1h6.3v5H-263V392z"/>
	<path class="st1" d="M-244.1,407.8l-0.4-1.5h-0.3v18.8h-4.5V392h4.3l4.7,17.2l0.4,1.5h0.3V392h4.5v33.1h-4.3L-244.1,407.8z"/>
	<path class="st1" d="M-218.8,413.7v4.5c0,1.4-0.3,2.6-0.8,3.6c-0.4,0.9-1,1.8-1.9,2.4c-0.9,0.7-2.1,1.1-3.7,1.1s-2.9-0.4-3.8-1.1
		c-0.9-0.7-1.5-1.5-1.9-2.4c-0.5-1-0.8-2.2-0.8-3.6v-19.5c0-1.3,0.3-2.5,0.8-3.6c0.4-0.9,1-1.8,1.9-2.5s2.2-1.1,3.8-1.1
		s2.8,0.5,3.7,1.1c0.9,0.7,1.5,1.6,1.9,2.5c0.5,1,0.8,2.2,0.8,3.6v4.5h-4.5v-4.5c0-0.9-0.2-1.5-0.7-2.1c-0.2-0.2-0.6-0.4-1.1-0.4
		c-0.9,0-1.3,0.6-1.5,1.2c-0.1,0.4-0.2,0.8-0.2,1.2v19.5c0,0.9,0.3,1.6,0.8,2.1c0.2,0.2,0.5,0.4,0.9,0.4c1,0,1.4-0.5,1.7-1.2
		c0.1-0.3,0.2-0.7,0.2-1.2v-4.5H-218.8z"/>
	<path class="st1" d="M-215.9,392h11.1v5h-6.3v8.7h4.5v5.3h-4.5v9.1h6.3v5h-11.1V392z"/>
	<path class="st1" d="M-195.1,425.1V392h3.8c4.5,0,6.9,0.9,8.2,3.4s1.4,6.7,1.4,13.1c0,6.5-0.2,10.6-1.4,13.1
		c-1.3,2.5-3.7,3.4-8.2,3.4h-3.8V425.1z M-190.3,420.2c1.7,0,2.6-0.2,3.1-1.8c0.2-0.8,0.4-1.9,0.5-3.5c0-1.6,0-3.7,0-6.4
		c0-2.7,0-4.8,0-6.4c0-1.5-0.2-2.7-0.5-3.5c-0.5-1.6-1.4-1.8-3.1-1.8V420.2z"/>
	<path class="st1" d="M-169.7,425.1l-2.5-13.9h-1.3v13.9h-4.9V392h4.9c5.8,0,8.3,3.3,8.3,9.5c0,3.3-0.9,6.3-2.7,7.5l3.1,16h-4.9
		V425.1z M-173.5,406.6c0.7,0,1.6-0.1,2.3-0.7s1.3-1.8,1.3-4.2c0-2.3-0.6-3.6-1.3-4.2s-1.6-0.7-2.3-0.7V406.6z"/>
	<path class="st1" d="M-162.1,392h4.9v33.1h-4.9V392z"/>
	<path class="st1" d="M-144.9,392h4.7l-5,33.1h-4.9l-5-33.1h4.7l2.4,18.2l0.2,1.4h0.3l0.2-1.4L-144.9,392z"/>
	<path class="st1" d="M-137.9,392h11.1v5h-6.3v8.7h4.5v5.3h-4.5v9.1h6.3v5h-11.1V392z"/>
	<path class="st1" d="M-119,407.8l-0.4-1.5h-0.3v18.8h-4.5V392h4.3l4.7,17.2l0.4,1.5h0.3V392h4.5v33.1h-4.3L-119,407.8z"/>
	<path class="st1" d="M-347.6,479.1V446h3.8c4.5,0,6.9,0.9,8.2,3.4c1.3,2.5,1.4,6.7,1.4,13.1c0,6.5-0.2,10.6-1.4,13.1
		c-1.3,2.5-3.7,3.4-8.2,3.4h-3.8V479.1z M-342.7,474.2c1.7,0,2.6-0.2,3.1-1.8c0.2-0.8,0.4-1.9,0.5-3.5c0-1.6,0-3.7,0-6.4
		c0-2.7,0-4.8,0-6.4c0-1.5-0.2-2.7-0.5-3.5c-0.5-1.6-1.4-1.8-3.1-1.8V474.2z"/>
	<path class="st1" d="M-330.9,446h11.1v5h-6.3v8.7h4.5v5.3h-4.5v9.1h6.3v5h-11.1V446z"/>
	<path class="st1" d="M-309,454.9c0-1.1,0-2.3-0.4-3.2c-0.3-0.9-0.8-1.5-1.6-1.5c-1.3,0-1.7,1.3-1.7,3.3c0,1.1,0.5,2.3,1.2,3.6
		c0.7,1.3,1.7,2.6,2.6,4c1.1,1.7,2.2,3.4,3.1,5c0.9,1.7,1.4,3.4,1.4,5.2c0,2.2-0.4,4.3-1.4,5.8s-2.7,2.5-5.4,2.5
		c-3.1,0-4.9-1.2-5.8-3c-1-1.8-1.2-4.2-1.2-6.7l4.8-0.5c0,1.4,0,2.8,0.4,3.8c0.3,1.1,0.9,1.8,1.9,1.8c1.4,0,2-1.5,2-3.6
		c0-1.1-0.5-2.3-1.3-3.6c-0.4-0.6-0.8-1.3-1.3-2c-0.9-1.4-2-2.9-3.1-4.5c-1.1-1.7-1.9-3.4-2.4-5.1c-0.3-0.9-0.4-1.8-0.4-2.7
		c0-1.8,0.4-3.7,1.4-5.2c1-1.4,2.6-2.5,4.9-2.5c2.9,0,4.6,1.2,5.6,2.9c0.9,1.8,1.2,4,1.2,5.8L-309,454.9z"/>
	<path class="st1" d="M-301.6,446h4.9v33.1h-4.9V446z"/>
	<path class="st1" d="M-285.4,457.9v-5.1c0-0.9-0.2-1.5-0.6-2.1c-0.2-0.2-0.6-0.4-1-0.4c-0.9,0-1.3,0.6-1.4,1.2
		c-0.1,0.4-0.2,0.8-0.2,1.2v19.9c0,0.9,0.2,1.6,0.7,2.1c0.2,0.2,0.5,0.4,0.9,0.4c0.9,0,1.3-0.5,1.4-1.2c0.1-0.3,0.2-0.7,0.2-1.2v-6
		h-1.9v-4.1h6.8v16.5h-2.9l-0.6-1.6c-0.9,1.1-2.2,1.9-3.8,1.9c-1.6,0-2.7-0.4-3.5-1.1s-1.3-1.5-1.7-2.4c-0.4-1-0.6-2.2-0.5-3.6
		v-19.5c0-1.3,0.3-2.5,0.8-3.6c0.4-0.9,1-1.8,1.9-2.5s2.2-1.1,3.8-1.1s2.8,0.5,3.7,1.1c0.9,0.7,1.5,1.6,1.9,2.5
		c0.5,1,0.8,2.2,0.8,3.6v5.1L-285.4,457.9L-285.4,457.9z"/>
	<path class="st1" d="M-271.8,461.8l-0.4-1.5h-0.3v18.8h-4.5V446h4.3l4.7,17.2l0.4,1.5h0.3V446h4.5v33.1h-4.3L-271.8,461.8z"/>
	<path class="st1" d="M-239.6,467.7v4.5c0,1.4-0.3,2.6-0.8,3.6c-0.4,0.9-1,1.8-1.9,2.4c-0.9,0.7-2.1,1.1-3.7,1.1s-2.9-0.4-3.8-1.1
		c-0.9-0.7-1.5-1.5-1.9-2.4c-0.5-1-0.8-2.2-0.8-3.6v-19.5c0-1.3,0.3-2.5,0.8-3.6c0.4-0.9,1-1.8,1.9-2.5s2.2-1.1,3.8-1.1
		s2.8,0.5,3.7,1.1c0.9,0.7,1.5,1.6,1.9,2.5c0.5,1,0.8,2.2,0.8,3.6v4.5h-4.5v-4.5c0-0.9-0.2-1.5-0.7-2.1c-0.2-0.2-0.6-0.4-1.1-0.4
		c-0.9,0-1.3,0.6-1.5,1.2c-0.1,0.4-0.2,0.8-0.2,1.2v19.5c0,0.9,0.3,1.6,0.8,2.1c0.2,0.2,0.5,0.4,0.9,0.4c1,0,1.4-0.5,1.7-1.2
		c0.1-0.3,0.2-0.7,0.2-1.2v-4.5H-239.6z"/>
	<path class="st1" d="M-224,472.3c0,1.4-0.3,2.6-0.8,3.6c-0.4,0.9-1,1.8-1.9,2.4c-0.9,0.7-2.1,1.1-3.7,1.1s-2.9-0.4-3.8-1.1
		c-0.9-0.7-1.5-1.5-1.9-2.4c-0.5-1-0.8-2.2-0.8-3.6v-19.5c0-1.3,0.3-2.5,0.8-3.6c0.4-0.9,1-1.8,1.9-2.5s2.2-1.1,3.8-1.1
		s2.8,0.5,3.7,1.1c0.9,0.7,1.5,1.6,1.9,2.5c0.5,1,0.8,2.2,0.8,3.6V472.3z M-228.9,452.8c0-0.9-0.2-1.5-0.6-2.1
		c-0.2-0.2-0.6-0.4-1-0.4c-0.9,0-1.3,0.6-1.4,1.2c-0.1,0.4-0.2,0.8-0.2,1.2v19.5c0,0.9,0.2,1.6,0.7,2.1c0.2,0.2,0.5,0.4,0.9,0.4
		c0.9,0,1.3-0.5,1.4-1.2c0.1-0.3,0.2-0.7,0.2-1.2L-228.9,452.8L-228.9,452.8z"/>
	<path class="st1" d="M-207.8,446v26.3c0,1.4-0.3,2.6-0.8,3.6c-0.4,0.9-1,1.8-1.9,2.4c-0.9,0.7-2.1,1.1-3.7,1.1s-2.9-0.4-3.8-1.1
		c-0.9-0.7-1.5-1.5-1.9-2.4c-0.5-1-0.8-2.2-0.8-3.6V446h4.9v26.3c0,0.9,0.2,1.6,0.7,2.1c0.2,0.2,0.5,0.4,0.9,0.4
		c0.9,0,1.3-0.5,1.4-1.2c0.1-0.3,0.2-0.7,0.2-1.2V446H-207.8z"/>
	<path class="st1" d="M-195.6,479.1l-2.5-13.9h-1.3v13.9h-4.9V446h4.9c5.8,0,8.3,3.3,8.3,9.5c0,3.3-0.9,6.3-2.7,7.5l3.1,16h-4.9
		V479.1z M-199.4,460.6c0.7,0,1.6-0.1,2.3-0.7s1.3-1.8,1.3-4.2c0-2.3-0.6-3.6-1.3-4.2s-1.6-0.7-2.3-0.7V460.6z"/>
	<path class="st1" d="M-180,454.9c0-1.1,0-2.3-0.4-3.2c-0.3-0.9-0.8-1.5-1.6-1.5c-1.3,0-1.7,1.3-1.7,3.3c0,1.1,0.5,2.3,1.2,3.6
		c0.7,1.3,1.7,2.6,2.6,4c1.1,1.7,2.2,3.4,3.1,5c0.9,1.7,1.4,3.4,1.4,5.2c0,2.2-0.4,4.3-1.4,5.8s-2.7,2.5-5.4,2.5
		c-3.1,0-4.9-1.2-5.8-3c-1-1.8-1.2-4.2-1.2-6.7l4.8-0.5c0,1.4,0,2.8,0.4,3.8c0.3,1.1,0.9,1.8,1.9,1.8c1.4,0,2-1.5,2-3.6
		c0-1.1-0.5-2.3-1.3-3.6c-0.4-0.6-0.8-1.3-1.3-2c-0.9-1.4-2-2.9-3.1-4.5c-1.1-1.7-1.9-3.4-2.4-5.1c-0.3-0.9-0.4-1.8-0.4-2.7
		c0-1.8,0.4-3.7,1.4-5.2c1-1.4,2.6-2.5,4.9-2.5c2.9,0,4.6,1.2,5.6,2.9c0.9,1.8,1.2,4,1.2,5.8L-180,454.9z"/>
	<path class="st1" d="M-172.6,446h11.1v5h-6.3v8.7h4.5v5.3h-4.5v9.1h6.3v5h-11.1V446z"/>
</g>
</svg>
